  0
SECTION
  2
HEADER
  9
$ACADVER
  1
AC1009
  0
ENDSEC
  0
SECTION
  2
TABLES
  0
TABLE
  2
SCOTT
  0
ENDTAB
  0
TABLE
  2
VPORT
 70
1
  0
VPORT
  2
*ACTIVE
 70
0
 10
0.0
 20
0.0
 11
1.0
 21
1.0
 12
0.0
 22
0.0
 13
0.0
 23
0.0
 14
1.0
 24
1.0
 15
0.0
 25
0.0
 16
0.0
 26
0.0
 36
1.0
 17
0.0
 27
0.0
 37
0.0
 40
100.0
 41
2
 42
0.0
 43
0.0
 44
0.0
 50
0.0
 51
0.0
 71
0.0
 72
0.0
 73
0.0
 74
0.0
 75
0.0
 76
0.0
 77
0.0
 78
0.0
  0
ENDTAB
  0
ENDSEC
  0
SECTION
  2
BLOCKS
  0
BLOCK
  2
0
  8
1
 10
0
 20
0
 70
64
  0
POLYLINE
  8
1
  62
3
10
0
 20
0
 66
1
  0
VERTEX
  8
1
 10
356.39629388276694
 20
-12.446222816924703
  0
VERTEX
  8
1
 10
355.93829388276686
 20
-32.78922281692478
  0
VERTEX
  8
1
 10
355.7262938827669
 20
-42.16622281692473
  0
VERTEX
  8
1
 10
352.72681035384346
 20
-42.11055810892269
  0
VERTEX
  8
1
 10
355.7262938827669
 20
-42.16622281692473
  0
VERTEX
  8
1
 10
355.7609904547225
 20
-42.343188536485556
  0
VERTEX
  8
1
 10
355.9692938827669
 20
-53.13122281692476
  0
VERTEX
  8
1
 10
356.41329388276694
 20
-73.4752228169247
  0
VERTEX
  8
1
 10
356.86729388276694
 20
-93.82822281692465
  0
VERTEX
  8
1
 10
357.3102938827669
 20
-114.1722228169247
  0
VERTEX
  8
1
 10
357.75429388276694
 20
-134.51522281692473
  0
VERTEX
  8
1
 10
358.2072938827669
 20
-154.85922281692473
  0
VERTEX
  8
1
 10
358.65129388276694
 20
-175.20222281692475
  0
VERTEX
  8
1
 10
359.1042938827669
 20
-195.54622281692468
  0
VERTEX
  8
1
 10
359.5482938827669
 20
-215.8892228169247
  0
VERTEX
  8
1
 10
360.0012938827669
 20
-236.23322281692475
  0
VERTEX
  8
1
 10
360.4452938827669
 20
-256.5862228169247
  0
VERTEX
  8
1
 10
360.88929388276694
 20
-276.9302228169247
  0
VERTEX
  8
1
 10
361.3422938827669
 20
-297.2732228169247
  0
VERTEX
  8
1
 10
361.7862938827669
 20
-317.6172228169247
  0
VERTEX
  8
1
 10
362.2392938827669
 20
-337.9602228169247
  0
VERTEX
  8
1
 10
362.6832938827669
 20
-358.3042228169247
  0
VERTEX
  8
1
 10
363.1262938827669
 20
-378.64722281692474
  0
VERTEX
  8
1
 10
363.5802938827669
 20
-399.00122281692467
  0
VERTEX
  8
1
 10
363.64629388276694
 20
-402.0762228169247
  0
VERTEX
  8
1
 10
360.6470071324611
 20
-402.1416368019732
  0
VERTEX
  8
1
 10
363.64629388276694
 20
-402.0762228169247
  0
VERTEX
  8
1
 10
363.69130646107124
 20
-404.0912437807652
  0
VERTEX
  8
1
 10
364.0252938827669
 20
-419.34422281692474
  0
VERTEX
  8
1
 10
364.4702938827669
 20
-439.6882228169247
  0
VERTEX
  8
1
 10
364.9252938827669
 20
-460.03122281692475
  0
VERTEX
  8
1
 10
365.37029388276693
 20
-480.3752228169247
  0
VERTEX
  8
1
 10
365.8152938827669
 20
-500.7182228169247
  0
VERTEX
  8
1
 10
366.2602938827669
 20
-521.0612228169248
  0
VERTEX
  8
1
 10
366.81044532499646
 20
-539.8686758846529
  0
VERTEX
  8
1
 10
366.9302938827669
 20
-541.4022228169247
  0
VERTEX
  8
1
 10
368.0603874603069
 20
-556.2119194167988
  0
VERTEX
  8
1
 10
368.5252938827669
 20
-561.6872228169246
  0
VERTEX
  8
1
 10
369.4641037972815
 20
-572.8156158938391
  0
VERTEX
  8
1
 10
370.3132938827669
 20
-581.9582228169246
  0
VERTEX
  8
1
 10
371.0087219621592
 20
-589.3992729766029
  0
VERTEX
  8
1
 10
372.3062938827669
 20
-602.2122228169246
  0
VERTEX
  8
1
 10
372.68981161122366
 20
-605.9811195851277
  0
VERTEX
  8
1
 10
374.5062938827669
 20
-622.4382228169246
  0
VERTEX
  8
1
 10
374.5162938827669
 20
-622.5362228169247
  0
VERTEX
  8
1
 10
376.4661754452407
 20
-639.0820494345594
  0
VERTEX
  8
1
 10
376.9162938827669
 20
-642.6412228169246
  0
VERTEX
  8
1
 10
378.54906952850854
 20
-655.6140341176543
  0
VERTEX
  8
1
 10
379.51529388276685
 20
-662.8302228169247
  0
VERTEX
  8
1
 10
380.7554129383663
 20
-672.1230863132444
  0
VERTEX
  8
1
 10
382.3132938827669
 20
-682.9832228169247
  0
VERTEX
  8
1
 10
382.81011908924944
 20
-686.3880616391936
  0
VERTEX
  8
1
 10
385.0118537363275
 20
-700.6376687656708
  0
VERTEX
  8
1
 10
385.4162938827669
 20
-703.0912228169246
  0
VERTEX
  8
1
 10
387.3359207162257
 20
-714.86310603267
  0
VERTEX
  8
1
 10
388.7682938827669
 20
-723.1662228169247
  0
VERTEX
  8
1
 10
389.79221567539963
 20
-729.0668255826314
  0
VERTEX
  8
1
 10
392.3862938827669
 20
-743.1902228169247
  0
VERTEX
  8
1
 10
392.39629388276694
 20
-743.2462228169246
  0
VERTEX
  8
1
 10
395.0742498232268
 20
-757.37291804635
  0
VERTEX
  8
1
 10
395.19629388276695
 20
-757.8162228169247
  0
VERTEX
  8
1
 10
392.2575299579861
 20
-758.4192705715897
  0
VERTEX
  8
1
 10
395.19629388276695
 20
-757.8162228169247
  0
VERTEX
  8
1
 10
395.937531470215
 20
-761.5798501532505
  0
VERTEX
  8
1
 10
396.2622938827669
 20
-763.1632228169246
  0
VERTEX
  8
1
 10
400.4142938827669
 20
-783.0952228169247
  0
VERTEX
  8
1
 10
400.9743382195735
 20
-785.7542354845837
  0
VERTEX
  8
1
 10
404.6132938827669
 20
-803.0052228169246
  0
VERTEX
  8
1
 10
406.5812712677638
 20
-812.4092695777567
  0
VERTEX
  8
1
 10
408.73529388276694
 20
-822.9342228169246
  0
VERTEX
  8
1
 10
412.04449939317897
 20
-839.1431309682708
  0
VERTEX
  8
1
 10
412.78429388276686
 20
-842.8762228169247
  0
VERTEX
  8
1
 10
416.77029388276685
 20
-862.8262228169247
  0
VERTEX
  8
1
 10
417.38261799472656
 20
-865.9170621571434
  0
VERTEX
  8
1
 10
420.6302938827669
 20
-882.8042228169246
  0
VERTEX
  8
1
 10
422.5512603867508
 20
-892.7962070540935
  0
VERTEX
  8
1
 10
424.3952938827669
 20
-902.8102228169247
  0
VERTEX
  8
1
 10
425.2419793586446
 20
-907.4849031630175
  0
VERTEX
  8
1
 10
427.77358935555344
 20
-922.3642558880421
  0
VERTEX
  8
1
 10
427.8522938827669
 20
-922.8582228169247
  0
VERTEX
  8
1
 10
430.15571195809326
 20
-937.1230331456826
  0
VERTEX
  8
1
 10
431.0342938827669
 20
-942.9552228169247
  0
VERTEX
  8
1
 10
432.3190745135213
 20
-952.100661555416
  0
VERTEX
  8
1
 10
433.6762938827669
 20
-963.1402228169246
  0
VERTEX
  8
1
 10
435.30653836191397
 20
-976.5492573424116
  0
VERTEX
  8
1
 10
436.0402938827669
 20
-983.3472228169246
  0
VERTEX
  8
1
 10
437.97567934184013
 20
-1001.2033178106989
  0
VERTEX
  8
1
 10
438.2002938827669
 20
-1003.5802228169247
  0
VERTEX
  8
1
 10
440.1332938827669
 20
-1023.8382228169247
  0
VERTEX
  8
1
 10
440.30987402279146
 20
-1025.6963111683147
  0
VERTEX
  8
1
 10
441.8032938827669
 20
-1044.1202228169248
  0
VERTEX
  8
1
 10
442.3207642846894
 20
-1050.4203879326951
  0
VERTEX
  8
1
 10
442.7262938827669
 20
-1056.5662228169247
  0
VERTEX
  8
1
 10
439.73284829372415
 20
-1056.7644234865509
  0
VERTEX
  8
1
 10
442.7262938827669
 20
-1056.5662228169247
  0
VERTEX
  8
1
 10
442.8799702663733
 20
-1058.8661347729906
  0
VERTEX
  8
1
 10
443.2442938827669
 20
-1064.4212228169247
  0
VERTEX
  8
1
 10
443.6221474689023
 20
-1070.1645156446539
  0
VERTEX
  8
1
 10
444.34129388276693
 20
-1084.7342228169248
  0
VERTEX
  8
1
 10
444.6041163316471
 20
-1090.0436223069444
  0
VERTEX
  8
1
 10
445.2484932247247
 20
-1109.9462742975195
  0
VERTEX
  8
1
 10
445.3862938827669
 20
-1119.6362228169248
  0
VERTEX
  8
1
 10
433.9977248637703
 20
-1122.2709696286963
  0
VERTEX
  8
1
 10
422.3752938827669
 20
-1124.9562228169248
  0
VERTEX
  8
1
 10
401.30480950923425
 20
-1129.8128317035976
  0
VERTEX
  8
1
 10
399.34929388276686
 20
-1130.2472228169247
  0
VERTEX
  8
1
 10
383.98356428637845
 20
-1133.6495467168684
  0
VERTEX
  8
1
 10
376.2702938827669
 20
-1135.2932228169248
  0
VERTEX
  8
1
 10
366.22387568979605
 20
-1137.4392720655776
  0
VERTEX
  8
1
 10
353.1432938827669
 20
-1140.0872228169249
  0
VERTEX
  8
1
 10
348.0784503931616
 20
-1141.1084105609373
  0
VERTEX
  8
1
 10
329.9512938827669
 20
-1144.5532228169247
  0
VERTEX
  8
1
 10
329.67095389354085
 20
-1144.6063436042416
  0
VERTEX
  8
1
 10
311.0760974734853
 20
-1147.854334599675
  0
VERTEX
  8
1
 10
306.6692938827669
 20
-1148.5502228169246
  0
VERTEX
  8
1
 10
292.29389819802725
 20
-1150.810062220982
  0
VERTEX
  8
1
 10
283.3082938827669
 20
-1152.0512228169248
  0
VERTEX
  8
1
 10
275.12559965790064
 20
-1153.1757300972852
  0
VERTEX
  8
1
 10
259.8782938827669
 20
-1155.0092228169249
  0
VERTEX
  8
1
 10
258.0902219218789
 20
-1155.2239353892844
  0
VERTEX
  8
1
 10
241.37334292336945
 20
-1157.0125811274154
  0
VERTEX
  8
1
 10
236.3892938827669
 20
-1157.487222816925
  0
VERTEX
  8
1
 10
225.31276323029982
 20
-1158.5326700132555
  0
VERTEX
  8
1
 10
212.86029388276688
 20
-1159.5512228169248
  0
VERTEX
  8
1
 10
189.3162938827669
 20
-1161.467222816925
  0
VERTEX
  8
1
 10
169.1870809289875
 20
-1163.1025602943612
  0
VERTEX
  8
1
 10
155.5562938827669
 20
-1164.2062228169248
  0
VERTEX
  8
1
 10
153.7992938827669
 20
-1159.1392228169248
  0
VERTEX
  8
1
 10
152.0322938827669
 20
-1154.0732228169247
  0
VERTEX
  8
1
 10
150.2752938827669
 20
-1149.0062228169247
  0
VERTEX
  8
1
 10
148.5182938827669
 20
-1143.940222816925
  0
VERTEX
  8
1
 10
146.7512938827669
 20
-1138.873222816925
  0
VERTEX
  8
1
 10
144.9942938827669
 20
-1133.8072228169247
  0
VERTEX
  8
1
 10
143.23729388276692
 20
-1128.7402228169246
  0
VERTEX
  8
1
 10
141.47029388276692
 20
-1123.6742228169248
  0
VERTEX
  8
1
 10
139.71329388276692
 20
-1118.6072228169248
  0
VERTEX
  8
1
 10
137.95629388276691
 20
-1113.5412228169248
  0
VERTEX
  8
1
 10
136.1992938827669
 20
-1108.4742228169248
  0
VERTEX
  8
1
 10
134.43229388276688
 20
-1103.4072228169248
  0
VERTEX
  8
1
 10
132.6742938827669
 20
-1098.3412228169248
  0
VERTEX
  8
1
 10
130.9172938827669
 20
-1093.2742228169247
  0
VERTEX
  8
1
 10
129.1502938827669
 20
-1088.2082228169247
  0
VERTEX
  8
1
 10
127.3932938827669
 20
-1083.1412228169247
  0
VERTEX
  8
1
 10
125.63629388276689
 20
-1078.0752228169247
  0
VERTEX
  8
1
 10
123.8692938827669
 20
-1073.0082228169247
  0
VERTEX
  8
1
 10
122.1122938827669
 20
-1067.9422228169249
  0
VERTEX
  8
1
 10
120.3552938827669
 20
-1062.8752228169249
  0
VERTEX
  8
1
 10
118.5882938827669
 20
-1057.8082228169249
  0
VERTEX
  8
1
 10
116.83129388276691
 20
-1052.7422228169248
  0
VERTEX
  8
1
 10
115.07429388276691
 20
-1047.6752228169248
  0
VERTEX
  8
1
 10
113.3072938827669
 20
-1042.6092228169248
  0
VERTEX
  8
1
 10
111.5502938827669
 20
-1037.5422228169248
  0
VERTEX
  8
1
 10
109.7932938827669
 20
-1032.4762228169247
  0
VERTEX
  8
1
 10
108.02629388276691
 20
-1027.4092228169247
  0
VERTEX
  8
1
 10
106.2692938827669
 20
-1022.3432228169246
  0
VERTEX
  8
1
 10
104.5122938827669
 20
-1017.2762228169246
  0
VERTEX
  8
1
 10
102.7452938827669
 20
-1012.2102228169247
  0
VERTEX
  8
1
 10
100.9882938827669
 20
-1007.1432228169247
  0
VERTEX
  8
1
 10
99.23129388276689
 20
-1002.0762228169247
  0
VERTEX
  8
1
 10
97.47429388276691
 20
-997.0102228169247
  0
VERTEX
  8
1
 10
95.7072938827669
 20
-991.9432228169246
  0
VERTEX
  8
1
 10
93.9502938827669
 20
-986.8772228169247
  0
VERTEX
  8
1
 10
92.1932938827669
 20
-981.8102228169247
  0
VERTEX
  8
1
 10
91.15871619750767
 20
-979.0263514478294
  0
VERTEX
  8
1
 10
90.83356399138205
 20
-978.1201821724629
  0
VERTEX
  8
1
 10
90.5084117852564
 20
-977.2140128970964
  0
VERTEX
  8
1
 10
90.3322938827669
 20
-976.7842228169246
  0
VERTEX
  8
1
 10
89.1655088603556
 20
-974.1299783912618
  0
VERTEX
  8
1
 10
88.03829388276691
 20
-971.9412228169246
  0
VERTEX
  8
1
 10
87.68702261958074
 20
-971.2403685642875
  0
VERTEX
  8
1
 10
86.06570665147262
 20
-968.4261053706658
  0
VERTEX
  8
1
 10
85.33329388276691
 20
-967.3192228169247
  0
VERTEX
  8
1
 10
84.27491316278609
 20
-965.7290847449266
  0
VERTEX
  8
1
 10
82.31326784670087
 20
-963.126920213318
  0
VERTEX
  8
1
 10
82.1912938827669
 20
-962.9842228169247
  0
VERTEX
  8
1
 10
80.2420992050894
 20
-960.631979119535
  0
VERTEX
  8
1
 10
78.67229388276691
 20
-958.9512228169247
  0
VERTEX
  8
1
 10
78.02324793143933
 20
-958.2538134585175
  0
VERTEX
  8
1
 10
76.84400005111776
 20
-957.1426799844982
  0
VERTEX
  8
1
 10
75.51965333490875
 20
-955.8788009834625
  0
VERTEX
  8
1
 10
74.7832938827669
 20
-955.2532228169247
  0
VERTEX
  8
1
 10
72.74116904998073
 20
-953.511143377879
  0
VERTEX
  8
1
 10
70.6132938827669
 20
-951.8942228169246
  0
VERTEX
  8
1
 10
69.83445021352222
 20
-951.3053009823024
  0
VERTEX
  8
1
 10
66.80259222221173
 20
-949.264371986647
  0
VERTEX
  8
1
 10
66.1762938827669
 20
-948.8912228169246
  0
VERTEX
  8
1
 10
63.68669543958368
 20
-947.3874604543201
  0
VERTEX
  8
1
 10
61.5112938827669
 20
-946.2402228169246
  0
VERTEX
  8
1
 10
60.4392622620882
 20
-945.6827070065852
  0
VERTEX
  8
1
 10
57.31233790857562
 20
-944.264244829829
  0
VERTEX
  8
1
 10
56.6352938827669
 20
-944.0232228169247
  0
VERTEX
  8
1
 10
51.6132938827669
 20
-942.1632228169246
  0
VERTEX
  8
1
 10
51.5662938827669
 20
-942.1462228169247
  0
VERTEX
  8
1
 10
46.580293882766895
 20
-940.3072228169247
  0
VERTEX
  8
1
 10
41.5562938827669
 20
-938.4212228169247
  0
VERTEX
  8
1
 10
36.5432938827669
 20
-936.5362228169246
  0
VERTEX
  8
1
 10
31.5192938827669
 20
-934.6402228169246
  0
VERTEX
  8
1
 10
26.4952938827669
 20
-932.7552228169246
  0
VERTEX
  8
1
 10
21.472293882766902
 20
-930.8692228169247
  0
VERTEX
  8
1
 10
18.112691317788958
 20
-929.605718007591
  0
VERTEX
  8
1
 10
16.458293882766903
 20
-928.9832228169247
  0
VERTEX
  8
1
 10
11.435293882766903
 20
-927.0972228169247
  0
VERTEX
  8
1
 10
4.376293882766902
 20
-924.4362228169247
  0
VERTEX
  8
1
 10
6.424293882766902
 20
-919.8782228169247
  0
VERTEX
  8
1
 10
8.473293882766903
 20
-915.3312228169247
  0
VERTEX
  8
1
 10
10.521293882766901
 20
-910.7732228169247
  0
VERTEX
  8
1
 10
10.996293882766903
 20
-909.7162228169246
  0
VERTEX
  8
1
 10
12.570293882766903
 20
-906.2162228169246
  0
VERTEX
  8
1
 10
14.610293882766902
 20
-901.6592228169246
  0
VERTEX
  8
1
 10
16.659293882766903
 20
-897.1032228169247
  0
VERTEX
  8
1
 10
16.99107920253398
 20
-896.3794130301027
  0
VERTEX
  8
1
 10
18.6762938827669
 20
-892.5382228169246
  0
VERTEX
  8
1
 10
20.6512938827669
 20
-887.9482228169246
  0
VERTEX
  8
1
 10
22.616293882766904
 20
-883.3692228169247
  0
VERTEX
  8
1
 10
22.75091249937172
 20
-883.068202224041
  0
VERTEX
  8
1
 10
24.5892938827669
 20
-878.7792228169247
  0
VERTEX
  8
1
 10
26.4972938827669
 20
-874.1572228169247
  0
VERTEX
  8
1
 10
28.3462938827669
 20
-869.6659604850705
  0
VERTEX
  8
1
 10
28.394293882766902
 20
-869.5442228169246
  0
VERTEX
  8
1
 10
30.287293882766903
 20
-864.9222228169247
  0
VERTEX
  8
1
 10
32.1412938827669
 20
-860.2802228169246
  0
VERTEX
  8
1
 10
33.75509571513447
 20
-856.1950246492921
  0
VERTEX
  8
1
 10
33.9652938827669
 20
-855.6352228169247
  0
VERTEX
  8
1
 10
35.7802938827669
 20
-850.9832228169247
  0
VERTEX
  8
1
 10
37.5952938827669
 20
-846.3312228169247
  0
VERTEX
  8
1
 10
38.83028271090253
 20
-843.0632172309924
  0
VERTEX
  8
1
 10
39.3372938827669
 20
-841.6502228169246
  0
VERTEX
  8
1
 10
41.0742938827669
 20
-836.9702228169247
  0
VERTEX
  8
1
 10
42.8212938827669
 20
-832.2902228169247
  0
VERTEX
  8
1
 10
43.71223593485578
 20
-829.8565996377602
  0
VERTEX
  8
1
 10
44.49929388276691
 20
-827.5862228169246
  0
VERTEX
  8
1
 10
46.164293882766906
 20
-822.8782228169247
  0
VERTEX
  8
1
 10
47.8302938827669
 20
-818.1692228169246
  0
VERTEX
  8
1
 10
48.3967384779292
 20
-816.5797537481079
  0
VERTEX
  8
1
 10
49.451293882766905
 20
-813.4532228169246
  0
VERTEX
  8
1
 10
51.036293882766905
 20
-808.7192228169247
  0
VERTEX
  8
1
 10
52.6102938827669
 20
-803.9742228169247
  0
VERTEX
  8
1
 10
52.81788619572419
 20
-803.4267535879104
  0
VERTEX
  8
1
 10
54.1842938827669
 20
-799.2412228169247
  0
VERTEX
  8
1
 10
55.6912938827669
 20
-794.4812228169246
  0
VERTEX
  8
1
 10
57.1992938827669
 20
-789.7202228169247
  0
VERTEX
  8
1
 10
57.3438595879143
 20
-789.2835736716306
  0
VERTEX
  8
1
 10
58.70029388276691
 20
-784.9502228169247
  0
VERTEX
  8
1
 10
59.9742938827669
 20
-780.1282228169247
  0
VERTEX
  8
1
 10
61.2082938827669
 20
-775.2862228169247
  0
VERTEX
  8
1
 10
61.34808370351141
 20
-774.7694382225823
  0
VERTEX
  8
1
 10
62.4322938827669
 20
-770.4462228169247
  0
VERTEX
  8
1
 10
63.6072938827669
 20
-765.5932228169247
  0
VERTEX
  8
1
 10
64.7512938827669
 20
-760.7302228169247
  0
VERTEX
  8
1
 10
64.9009212418233
 20
-760.1398796566888
  0
VERTEX
  8
1
 10
65.9032938827669
 20
-755.8712228169246
  0
VERTEX
  8
1
 10
67.0152938827669
 20
-751.0102228169246
  0
VERTEX
  8
1
 10
68.0872938827669
 20
-746.1292228169247
  0
VERTEX
  8
1
 10
68.24256205924621
 20
-745.4702898610445
  0
VERTEX
  8
1
 10
69.1522938827669
 20
-741.2532228169247
  0
VERTEX
  8
1
 10
70.2042938827669
 20
-736.3742228169247
  0
VERTEX
  8
1
 10
71.1962938827669
 20
-731.4752228169247
  0
VERTEX
  8
1
 10
71.35736758253945
 20
-730.7407386097331
  0
VERTEX
  8
1
 10
72.1942938827669
 20
-726.5832228169246
  0
VERTEX
  8
1
 10
73.1802938827669
 20
-721.6882228169246
  0
VERTEX
  8
1
 10
74.0962938827669
 20
-716.7742228169246
  0
VERTEX
  8
1
 10
74.25788493057124
 20
-715.961205366418
  0
VERTEX
  8
1
 10
75.00029388276691
 20
-711.8682228169247
  0
VERTEX
  8
1
 10
75.9102938827669
 20
-706.9592228169247
  0
VERTEX
  8
1
 10
76.7602938827669
 20
-702.0412228169247
  0
VERTEX
  8
1
 10
76.9213792788935
 20
-701.1598064449428
  0
VERTEX
  8
1
 10
77.5882938827669
 20
-697.1122228169246
  0
VERTEX
  8
1
 10
78.4212938827669
 20
-692.1912228169247
  0
VERTEX
  8
1
 10
79.21429388276691
 20
-687.2602228169246
  0
VERTEX
  8
1
 10
79.37186201099621
 20
-686.2901563751137
  0
VERTEX
  8
1
 10
79.9522938827669
 20
-682.3202228169247
  0
VERTEX
  8
1
 10
80.7042938827669
 20
-677.3792228169247
  0
VERTEX
  8
1
 10
81.4272938827669
 20
-672.4382228169246
  0
VERTEX
  8
1
 10
82.06178744976371
 20
-667.7750962086739
  0
VERTEX
  8
1
 10
82.0952938827669
 20
-667.4962228169246
  0
VERTEX
  8
1
 10
82.7592938827669
 20
-662.5472228169247
  0
VERTEX
  8
1
 10
83.43229388276691
 20
-657.5972228169246
  0
VERTEX
  8
1
 10
84.0152938827669
 20
-652.6382228169247
  0
VERTEX
  8
1
 10
84.43155048762803
 20
-649.2131298925323
  0
VERTEX
  8
1
 10
84.5962938827669
 20
-647.6772228169247
  0
VERTEX
  8
1
 10
85.1702938827669
 20
-642.7212228169246
  0
VERTEX
  8
1
 10
85.66329388276691
 20
-637.7452228169246
  0
VERTEX
  8
1
 10
86.1572938827669
 20
-632.7792228169246
  0
VERTEX
  8
1
 10
86.39577417593628
 20
-630.6006095161657
  0
VERTEX
  8
1
 10
86.65729388276691
 20
-627.8092228169247
  0
VERTEX
  8
1
 10
86.7962938827669
 20
-626.0862228169246
  0
VERTEX
  8
1
 10
89.78646200371932
 20
-626.3289049308925
  0
VERTEX
  8
1
 10
86.7962938827669
 20
-626.0862228169246
  0
VERTEX
  8
1
 10
86.81823420870579
 20
-625.8262228169247
  0
VERTEX
  8
1
 10
87.06529388276691
 20
-622.8272228169246
  0
VERTEX
  8
1
 10
87.4752938827669
 20
-617.8552228169247
  0
VERTEX
  8
1
 10
87.8852938827669
 20
-612.8832228169247
  0
VERTEX
  8
1
 10
87.95441326805476
 20
-611.9462228169247
  0
VERTEX
  8
1
 10
88.1972938827669
 20
-607.8972228169247
  0
VERTEX
  8
1
 10
88.51729388276691
 20
-602.9102228169246
  0
VERTEX
  8
1
 10
88.8262938827669
 20
-597.9332228169246
  0
VERTEX
  8
1
 10
89.05078165184005
 20
-593.2568639267922
  0
VERTEX
  8
1
 10
89.0612938827669
 20
-592.9362228169247
  0
VERTEX
  8
1
 10
89.3012938827669
 20
-587.9552228169247
  0
VERTEX
  8
1
 10
89.53229388276691
 20
-582.9642228169247
  0
VERTEX
  8
1
 10
89.6722938827669
 20
-577.9732228169247
  0
VERTEX
  8
1
 10
89.78836943934782
 20
-574.5562228169247
  0
VERTEX
  8
1
 10
89.81829388276691
 20
-572.9812228169246
  0
VERTEX
  8
1
 10
89.9642938827669
 20
-567.9872228169246
  0
VERTEX
  8
1
 10
90.0192938827669
 20
-562.9942228169247
  0
VERTEX
  8
1
 10
90.0752938827669
 20
-558.0002228169246
  0
VERTEX
  8
1
 10
90.1204147855315
 20
-555.8462228169246
  0
VERTEX
  8
1
 10
90.1392938827669
 20
-553.0052228169246
  0
VERTEX
  8
1
 10
90.1022938827669
 20
-548.0192228169246
  0
VERTEX
  8
1
 10
90.07529388276691
 20
-543.0242228169246
  0
VERTEX
  8
1
 10
90.0382938827669
 20
-538.0282228169247
  0
VERTEX
  8
1
 10
90.0562938827669
 20
-537.0362228169247
  0
VERTEX
  8
1
 10
90.13029388276689
 20
-533.0322228169247
  0
VERTEX
  8
1
 10
90.24329388276689
 20
-528.0462228169247
  0
VERTEX
  8
1
 10
90.3462938827669
 20
-523.0502228169247
  0
VERTEX
  8
1
 10
90.4592938827669
 20
-518.0552228169247
  0
VERTEX
  8
1
 10
90.5622938827669
 20
-513.0692228169247
  0
VERTEX
  8
1
 10
90.6742938827669
 20
-508.0732228169247
  0
VERTEX
  8
1
 10
90.7772938827669
 20
-503.0772228169247
  0
VERTEX
  8
1
 10
90.8902938827669
 20
-498.09222281692473
  0
VERTEX
  8
1
 10
90.9932938827669
 20
-493.0962228169247
  0
VERTEX
  8
1
 10
91.1062938827669
 20
-488.1002228169247
  0
VERTEX
  8
1
 10
91.2092938827669
 20
-483.1142228169247
  0
VERTEX
  8
1
 10
91.3212938827669
 20
-478.1192228169247
  0
VERTEX
  8
1
 10
91.4242938827669
 20
-473.12322281692474
  0
VERTEX
  8
1
 10
91.5272938827669
 20
-468.1372228169247
  0
VERTEX
  8
1
 10
91.64029388276691
 20
-463.1412228169247
  0
VERTEX
  8
1
 10
91.74329388276689
 20
-458.1462228169247
  0
VERTEX
  8
1
 10
91.8552938827669
 20
-453.16022281692466
  0
VERTEX
  8
1
 10
91.9582938827669
 20
-448.1642228169247
  0
VERTEX
  8
1
 10
92.0712938827669
 20
-443.1682228169247
  0
VERTEX
  8
1
 10
92.1742938827669
 20
-438.1832228169247
  0
VERTEX
  8
1
 10
92.28729388276689
 20
-433.1872228169247
  0
VERTEX
  8
1
 10
92.3892938827669
 20
-428.1912228169247
  0
VERTEX
  8
1
 10
92.50229388276689
 20
-423.20522281692473
  0
VERTEX
  8
1
 10
92.6052938827669
 20
-418.20922281692475
  0
VERTEX
  8
1
 10
92.7182938827669
 20
-413.21422281692475
  0
VERTEX
  8
1
 10
92.82129388276691
 20
-408.2282228169247
  0
VERTEX
  8
1
 10
92.9342938827669
 20
-403.23222281692466
  0
VERTEX
  8
1
 10
93.0362938827669
 20
-398.2362228169247
  0
VERTEX
  8
1
 10
93.1492938827669
 20
-393.2512228169247
  0
VERTEX
  8
1
 10
93.2522938827669
 20
-388.2552228169247
  0
VERTEX
  8
1
 10
93.3652938827669
 20
-383.2592228169247
  0
VERTEX
  8
1
 10
93.4682938827669
 20
-378.2732228169247
  0
VERTEX
  8
1
 10
93.5802938827669
 20
-373.2782228169247
  0
VERTEX
  8
1
 10
93.6832938827669
 20
-368.28222281692473
  0
VERTEX
  8
1
 10
93.7962938827669
 20
-363.29622281692474
  0
VERTEX
  8
1
 10
93.8992938827669
 20
-358.3002228169247
  0
VERTEX
  8
1
 10
94.01229388276691
 20
-353.3052228169247
  0
VERTEX
  8
1
 10
94.11529388276689
 20
-348.31922281692476
  0
VERTEX
  8
1
 10
94.2172938827669
 20
-343.3232228169247
  0
VERTEX
  8
1
 10
94.3302938827669
 20
-338.3272228169247
  0
VERTEX
  8
1
 10
94.35629388276689
 20
-337.1062228169247
  0
VERTEX
  8
1
 10
97.35564917376456
 20
-337.16841476466976
  0
VERTEX
  8
1
 10
94.35629388276689
 20
-337.1062228169247
  0
VERTEX
  8
1
 10
94.35907867133379
 20
-336.93900760549155
  0
VERTEX
  8
1
 10
94.4332938827669
 20
-333.3422228169247
  0
VERTEX
  8
1
 10
94.5462938827669
 20
-328.3462228169247
  0
VERTEX
  8
1
 10
94.64829388276691
 20
-323.3502228169247
  0
VERTEX
  8
1
 10
94.76129388276689
 20
-318.3642228169247
  0
VERTEX
  8
1
 10
94.8642938827669
 20
-313.36822281692474
  0
VERTEX
  8
1
 10
94.9772938827669
 20
-308.37322281692474
  0
VERTEX
  8
1
 10
95.0792938827669
 20
-303.38722281692475
  0
VERTEX
  8
1
 10
95.1922938827669
 20
-298.3912228169247
  0
VERTEX
  8
1
 10
95.29529388276691
 20
-293.39522281692473
  0
VERTEX
  8
1
 10
95.4082938827669
 20
-288.4102228169247
  0
VERTEX
  8
1
 10
95.5102938827669
 20
-283.41422281692473
  0
VERTEX
  8
1
 10
95.6232938827669
 20
-278.4182228169247
  0
VERTEX
  8
1
 10
95.7262938827669
 20
-273.4322228169247
  0
VERTEX
  8
1
 10
95.83929388276691
 20
-268.4372228169247
  0
VERTEX
  8
1
 10
95.9412938827669
 20
-263.4412228169247
  0
VERTEX
  8
1
 10
96.0542938827669
 20
-258.4552228169247
  0
VERTEX
  8
1
 10
96.1572938827669
 20
-253.4592228169247
  0
VERTEX
  8
1
 10
96.2692938827669
 20
-248.4642228169247
  0
VERTEX
  8
1
 10
96.3722938827669
 20
-243.4782228169247
  0
VERTEX
  8
1
 10
96.48529388276691
 20
-238.48222281692466
  0
VERTEX
  8
1
 10
96.5882938827669
 20
-233.48622281692468
  0
VERTEX
  8
1
 10
96.70029388276691
 20
-228.50022281692475
  0
VERTEX
  8
1
 10
96.8032938827669
 20
-223.50522281692474
  0
VERTEX
  8
1
 10
96.9162938827669
 20
-218.50922281692476
  0
VERTEX
  8
1
 10
97.02929388276691
 20
-213.52322281692472
  0
VERTEX
  8
1
 10
97.1312938827669
 20
-208.52722281692473
  0
VERTEX
  8
1
 10
97.24429388276691
 20
-203.53222281692473
  0
VERTEX
  8
1
 10
97.3472938827669
 20
-198.54622281692474
  0
VERTEX
  8
1
 10
97.4602938827669
 20
-193.5502228169247
  0
VERTEX
  8
1
 10
97.5622938827669
 20
-188.55422281692472
  0
VERTEX
  8
1
 10
97.6752938827669
 20
-183.5692228169247
  0
VERTEX
  8
1
 10
97.7782938827669
 20
-178.57322281692473
  0
VERTEX
  8
1
 10
97.8912938827669
 20
-173.5772228169247
  0
VERTEX
  8
1
 10
97.9932938827669
 20
-168.5912228169247
  0
VERTEX
  8
1
 10
98.10629388276689
 20
-163.5962228169247
  0
VERTEX
  8
1
 10
98.2092938827669
 20
-158.6002228169247
  0
VERTEX
  8
1
 10
98.3222938827669
 20
-153.61422281692467
  0
VERTEX
  8
1
 10
98.4242938827669
 20
-148.61822281692469
  0
VERTEX
  8
1
 10
98.5372938827669
 20
-143.62322281692468
  0
VERTEX
  8
1
 10
98.64029388276691
 20
-138.63722281692475
  0
VERTEX
  8
1
 10
98.7532938827669
 20
-133.6412228169247
  0
VERTEX
  8
1
 10
98.8552938827669
 20
-128.64522281692473
  0
VERTEX
  8
1
 10
98.9682938827669
 20
-123.65922281692472
  0
VERTEX
  8
1
 10
99.07129388276691
 20
-118.66422281692472
  0
VERTEX
  8
1
 10
99.1832938827669
 20
-113.66822281692474
  0
VERTEX
  8
1
 10
99.2862938827669
 20
-108.68222281692469
  0
VERTEX
  8
1
 10
99.3992938827669
 20
-103.68622281692471
  0
VERTEX
  8
1
 10
99.50229388276689
 20
-98.69122281692471
  0
VERTEX
  8
1
 10
99.6142938827669
 20
-93.70522281692472
  0
VERTEX
  8
1
 10
99.7172938827669
 20
-88.70922281692468
  0
VERTEX
  8
1
 10
99.83029388276691
 20
-83.7132228169247
  0
VERTEX
  8
1
 10
99.9332938827669
 20
-78.72822281692468
  0
VERTEX
  8
1
 10
100.04529388276691
 20
-73.73222281692476
  0
VERTEX
  8
1
 10
100.1482938827669
 20
-68.73622281692478
  0
VERTEX
  8
1
 10
100.26129388276689
 20
-63.75022281692479
  0
VERTEX
  8
1
 10
100.3642938827669
 20
-58.755222816924785
  0
VERTEX
  8
1
 10
100.4762938827669
 20
-53.75922281692469
  0
VERTEX
  8
1
 10
100.5792938827669
 20
-48.7732228169247
  0
VERTEX
  8
1
 10
100.6922938827669
 20
-43.77722281692472
  0
VERTEX
  8
1
 10
100.71368992237085
 20
-42.476222816924675
  0
VERTEX
  8
1
 10
103.71350807536112
 20
-42.4431917862111
  0
VERTEX
  8
1
 10
100.71368992237085
 20
-42.476222816924675
  0
VERTEX
  8
1
 10
100.63729388276691
 20
-38.782222816924715
  0
VERTEX
  8
1
 10
100.5242938827669
 20
-33.796222816924725
  0
VERTEX
  8
1
 10
100.4212938827669
 20
-28.800222816924745
  0
VERTEX
  8
1
 10
100.30829388276689
 20
-23.80522281692474
  0
VERTEX
  8
1
 10
100.20529388276691
 20
-18.81922281692475
  0
VERTEX
  8
1
 10
100.06629388276691
 20
-12.446222816924703
  0
VERTEX
  8
1
 10
113.0662938827669
 20
-12.446222816924703
  0
VERTEX
  8
1
 10
137.0362938827669
 20
-12.446222816924703
  0
VERTEX
  8
1
 10
159.4522938827669
 20
-12.446222816924703
  0
VERTEX
  8
1
 10
181.8582938827669
 20
-12.446222816924703
  0
VERTEX
  8
1
 10
204.2632938827669
 20
-12.446222816924703
  0
VERTEX
  8
1
 10
226.6692938827669
 20
-12.446222816924703
  0
VERTEX
  8
1
 10
228.23279068920954
 20
-12.446222816924703
  0
VERTEX
  8
1
 10
249.0852938827669
 20
-12.446222816924703
  0
VERTEX
  8
1
 10
271.4912938827669
 20
-12.446222816924703
  0
VERTEX
  8
1
 10
293.8972938827669
 20
-12.446222816924703
  0
VERTEX
  8
1
 10
316.30329388276687
 20
-12.446222816924703
  0
VERTEX
  8
1
 10
343.39629388276694
 20
-12.446222816924703
  0
VERTEX
  8
1
 10
356.39629388276694
 20
-12.446222816924703
  0
VERTEX
  8
1
 10
356.39629388276694
 20
-12.446222816924703
  0
VERTEX
  8
1
 10
355.93829388276686
 20
-32.78922281692478
  0
VERTEX
  8
1
 10
355.9156911484787
 20
-33.78896734249251
  0
SEQEND
  0
ENDBLK
  0
BLOCK
  2
1
  8
1
 10
0
 20
0
 70
64
  0
POLYLINE
  8
1
  62
3
10
0
 20
0
 66
1
  0
VERTEX
  8
1
 10
368.70629388276694
 20
-1072.8962228169248
  0
VERTEX
  8
1
 10
372.6524440342396
 20
-1072.2420829373636
  0
SEQEND
  0
ENDBLK
  0
BLOCK
  2
2
  8
1
 10
0
 20
0
 70
64
  0
POLYLINE
  8
1
  62
3
10
0
 20
0
 66
1
  0
VERTEX
  8
1
 10
368.70629388276694
 20
-1072.8962228169248
  0
VERTEX
  8
1
 10
369.3604337623281
 20
-1076.8423729683975
  0
SEQEND
  0
ENDBLK
  0
BLOCK
  2
3
  8
1
 10
0
 20
0
 70
64
  0
POLYLINE
  8
1
  62
3
10
0
 20
0
 66
1
  0
VERTEX
  8
1
 10
216.86629388276688
 20
-1098.0662228169247
  0
VERTEX
  8
1
 10
212.92014373129422
 20
-1098.7203626964858
  0
SEQEND
  0
ENDBLK
  0
BLOCK
  2
4
  8
1
 10
0
 20
0
 70
64
  0
POLYLINE
  8
1
  62
3
10
0
 20
0
 66
1
  0
VERTEX
  8
1
 10
216.86629388276688
 20
-1098.0662228169247
  0
VERTEX
  8
1
 10
217.52043376232805
 20
-1102.0123729683976
  0
SEQEND
  0
ENDBLK
  0
BLOCK
  2
5
  8
1
 10
0
 20
0
 70
64
  0
POLYLINE
  8
1
  62
3
10
0
 20
0
 66
1
  0
VERTEX
  8
1
 10
266.4962938827669
 20
-926.9162228169247
  0
VERTEX
  8
1
 10
268.8240966697713
 20
-923.6633265405558
  0
SEQEND
  0
ENDBLK
  0
BLOCK
  2
6
  8
1
 10
0
 20
0
 70
64
  0
POLYLINE
  8
1
  62
3
10
0
 20
0
 66
1
  0
VERTEX
  8
1
 10
266.4962938827669
 20
-926.9162228169247
  0
VERTEX
  8
1
 10
263.243397606398
 20
-924.5884200299203
  0
SEQEND
  0
ENDBLK
  0
BLOCK
  2
7
  8
1
 10
0
 20
0
 70
64
  0
POLYLINE
  8
1
  62
3
10
0
 20
0
 66
1
  0
VERTEX
  8
1
 10
541.2662397227625
 20
-12.446222745385782
  0
VERTEX
  8
1
 10
541.7242397227626
 20
-32.78922274538586
  0
VERTEX
  8
1
 10
541.9362397227625
 20
-42.16622274538581
  0
VERTEX
  8
1
 10
544.9357232516859
 20
-42.11055803738377
  0
VERTEX
  8
1
 10
541.9362397227625
 20
-42.16622274538581
  0
VERTEX
  8
1
 10
541.9015431508069
 20
-42.343188464946635
  0
VERTEX
  8
1
 10
541.6932397227624
 20
-53.13122274538584
  0
VERTEX
  8
1
 10
541.2492397227625
 20
-73.47522274538578
  0
VERTEX
  8
1
 10
540.7952397227625
 20
-93.82822274538573
  0
VERTEX
  8
1
 10
540.3522397227625
 20
-114.17222274538578
  0
VERTEX
  8
1
 10
539.9082397227625
 20
-134.5152227453858
  0
VERTEX
  8
1
 10
539.4552397227625
 20
-154.8592227453858
  0
VERTEX
  8
1
 10
539.0112397227624
 20
-175.20222274538582
  0
VERTEX
  8
1
 10
538.5582397227624
 20
-195.54622274538576
  0
VERTEX
  8
1
 10
538.1142397227625
 20
-215.88922274538578
  0
VERTEX
  8
1
 10
537.6612397227625
 20
-236.23322274538583
  0
VERTEX
  8
1
 10
537.2172397227625
 20
-256.5862227453858
  0
VERTEX
  8
1
 10
536.7732397227625
 20
-276.9302227453858
  0
VERTEX
  8
1
 10
536.3202397227625
 20
-297.2732227453858
  0
VERTEX
  8
1
 10
535.8762397227624
 20
-317.6172227453858
  0
VERTEX
  8
1
 10
535.4232397227624
 20
-337.9602227453858
  0
VERTEX
  8
1
 10
534.9792397227625
 20
-358.3042227453858
  0
VERTEX
  8
1
 10
534.5362397227625
 20
-378.6472227453858
  0
VERTEX
  8
1
 10
534.0822397227626
 20
-399.00122274538575
  0
VERTEX
  8
1
 10
534.0162397227625
 20
-402.0762227453858
  0
VERTEX
  8
1
 10
537.0155264730683
 20
-402.1416367304343
  0
VERTEX
  8
1
 10
534.0162397227625
 20
-402.0762227453858
  0
VERTEX
  8
1
 10
533.9712271444582
 20
-404.09124370922626
  0
VERTEX
  8
1
 10
533.6372397227625
 20
-419.3442227453858
  0
VERTEX
  8
1
 10
533.1922397227625
 20
-439.68822274538576
  0
VERTEX
  8
1
 10
532.7372397227625
 20
-460.03122274538583
  0
VERTEX
  8
1
 10
532.2922397227625
 20
-480.37522274538577
  0
VERTEX
  8
1
 10
531.8472397227624
 20
-500.7182227453858
  0
VERTEX
  8
1
 10
531.4022397227625
 20
-521.0612227453857
  0
VERTEX
  8
1
 10
530.8520882805329
 20
-539.868675813114
  0
VERTEX
  8
1
 10
530.7322397227625
 20
-541.4022227453858
  0
VERTEX
  8
1
 10
529.6021461452225
 20
-556.2119193452598
  0
VERTEX
  8
1
 10
529.1372397227625
 20
-561.6872227453857
  0
VERTEX
  8
1
 10
528.198429808248
 20
-572.8156158223002
  0
VERTEX
  8
1
 10
527.3492397227625
 20
-581.9582227453857
  0
VERTEX
  8
1
 10
526.6538116433702
 20
-589.399272905064
  0
VERTEX
  8
1
 10
525.3562397227624
 20
-602.2122227453857
  0
VERTEX
  8
1
 10
524.9727219943057
 20
-605.9811195135887
  0
VERTEX
  8
1
 10
523.1562397227625
 20
-622.4382227453857
  0
VERTEX
  8
1
 10
523.1462397227625
 20
-622.5362227453858
  0
VERTEX
  8
1
 10
521.1963581602887
 20
-639.0820493630205
  0
VERTEX
  8
1
 10
520.7462397227625
 20
-642.6412227453858
  0
VERTEX
  8
1
 10
519.1134640770208
 20
-655.6140340461154
  0
VERTEX
  8
1
 10
518.1472397227626
 20
-662.8302227453858
  0
VERTEX
  8
1
 10
516.9071206671631
 20
-672.1230862417054
  0
VERTEX
  8
1
 10
515.3492397227625
 20
-682.9832227453858
  0
VERTEX
  8
1
 10
514.85241451628
 20
-686.3880615676546
  0
VERTEX
  8
1
 10
512.6506798692019
 20
-700.6376686941319
  0
VERTEX
  8
1
 10
512.2462397227625
 20
-703.0912227453857
  0
VERTEX
  8
1
 10
510.3266128893037
 20
-714.863105961131
  0
VERTEX
  8
1
 10
508.8942397227625
 20
-723.1662227453858
  0
VERTEX
  8
1
 10
507.8703179301298
 20
-729.0668255110926
  0
VERTEX
  8
1
 10
505.2762397227625
 20
-743.1902227453858
  0
VERTEX
  8
1
 10
505.26623972276246
 20
-743.2462227453857
  0
VERTEX
  8
1
 10
502.5882837823026
 20
-757.3729179748111
  0
VERTEX
  8
1
 10
502.46623972276245
 20
-757.8162227453857
  0
VERTEX
  8
1
 10
505.4050036475433
 20
-758.4192705000507
  0
VERTEX
  8
1
 10
502.46623972276245
 20
-757.8162227453857
  0
VERTEX
  8
1
 10
501.7250021353144
 20
-761.5798500817116
  0
VERTEX
  8
1
 10
501.4002397227625
 20
-763.1632227453857
  0
VERTEX
  8
1
 10
497.2482397227625
 20
-783.0952227453857
  0
VERTEX
  8
1
 10
496.6881953859559
 20
-785.7542354130447
  0
VERTEX
  8
1
 10
493.0492397227625
 20
-803.0052227453857
  0
VERTEX
  8
1
 10
491.0812623377656
 20
-812.4092695062178
  0
VERTEX
  8
1
 10
488.92723972276247
 20
-822.9342227453857
  0
VERTEX
  8
1
 10
485.61803421235044
 20
-839.1431308967319
  0
VERTEX
  8
1
 10
484.87823972276254
 20
-842.8762227453857
  0
VERTEX
  8
1
 10
480.89223972276255
 20
-862.8262227453857
  0
VERTEX
  8
1
 10
480.27991561080285
 20
-865.9170620856045
  0
VERTEX
  8
1
 10
477.0322397227625
 20
-882.8042227453858
  0
VERTEX
  8
1
 10
475.1112732187786
 20
-892.7962069825546
  0
VERTEX
  8
1
 10
473.2672397227625
 20
-902.8102227453857
  0
VERTEX
  8
1
 10
472.4205542468848
 20
-907.4849030914785
  0
VERTEX
  8
1
 10
469.88894424997596
 20
-922.3642558165031
  0
VERTEX
  8
1
 10
469.8102397227625
 20
-922.8582227453857
  0
VERTEX
  8
1
 10
467.50682164743614
 20
-937.1230330741436
  0
VERTEX
  8
1
 10
466.6282397227625
 20
-942.9552227453858
  0
VERTEX
  8
1
 10
465.3434590920081
 20
-952.1006614838772
  0
VERTEX
  8
1
 10
463.9862397227625
 20
-963.1402227453858
  0
VERTEX
  8
1
 10
462.35599524361544
 20
-976.5492572708727
  0
VERTEX
  8
1
 10
461.6222397227625
 20
-983.3472227453857
  0
VERTEX
  8
1
 10
459.68685426368927
 20
-1001.2033177391601
  0
VERTEX
  8
1
 10
459.4622397227625
 20
-1003.5802227453858
  0
VERTEX
  8
1
 10
457.5292397227625
 20
-1023.8382227453857
  0
VERTEX
  8
1
 10
457.35265958273794
 20
-1025.6963110967758
  0
VERTEX
  8
1
 10
455.8592397227625
 20
-1044.120222745386
  0
VERTEX
  8
1
 10
455.34176932084
 20
-1050.4203878611563
  0
VERTEX
  8
1
 10
454.9362397227625
 20
-1056.5662227453859
  0
VERTEX
  8
1
 10
457.92968531180526
 20
-1056.7644234150118
  0
VERTEX
  8
1
 10
454.9362397227625
 20
-1056.5662227453859
  0
VERTEX
  8
1
 10
454.7825633391561
 20
-1058.8661347014518
  0
VERTEX
  8
1
 10
454.4182397227625
 20
-1064.4212227453859
  0
VERTEX
  8
1
 10
454.0403861366271
 20
-1070.164515573115
  0
VERTEX
  8
1
 10
453.32123972276247
 20
-1084.7342227453858
  0
VERTEX
  8
1
 10
453.0584172738823
 20
-1090.0436222354056
  0
VERTEX
  8
1
 10
452.4140403808047
 20
-1109.9462742259807
  0
VERTEX
  8
1
 10
452.2762397227625
 20
-1119.6362227453858
  0
VERTEX
  8
1
 10
463.6648087417591
 20
-1122.2709695571573
  0
VERTEX
  8
1
 10
475.2872397227625
 20
-1124.956222745386
  0
VERTEX
  8
1
 10
496.35772409629516
 20
-1129.8128316320588
  0
VERTEX
  8
1
 10
498.31323972276255
 20
-1130.247222745386
  0
VERTEX
  8
1
 10
513.678969319151
 20
-1133.6495466453296
  0
VERTEX
  8
1
 10
521.3922397227625
 20
-1135.293222745386
  0
VERTEX
  8
1
 10
531.4386579157333
 20
-1137.4392719940386
  0
VERTEX
  8
1
 10
544.5192397227624
 20
-1140.0872227453858
  0
VERTEX
  8
1
 10
549.5840832123679
 20
-1141.1084104893985
  0
VERTEX
  8
1
 10
567.7112397227625
 20
-1144.5532227453857
  0
VERTEX
  8
1
 10
567.9915797119886
 20
-1144.6063435327026
  0
VERTEX
  8
1
 10
586.5864361320441
 20
-1147.8543345281362
  0
VERTEX
  8
1
 10
590.9932397227625
 20
-1148.5502227453858
  0
VERTEX
  8
1
 10
605.3686354075021
 20
-1150.810062149443
  0
VERTEX
  8
1
 10
614.3542397227625
 20
-1152.0512227453858
  0
VERTEX
  8
1
 10
622.5369339476288
 20
-1153.1757300257461
  0
VERTEX
  8
1
 10
637.7842397227625
 20
-1155.0092227453858
  0
VERTEX
  8
1
 10
639.5723116836505
 20
-1155.2239353177456
  0
VERTEX
  8
1
 10
656.28919068216
 20
-1157.0125810558764
  0
VERTEX
  8
1
 10
661.2732397227625
 20
-1157.487222745386
  0
VERTEX
  8
1
 10
672.3497703752296
 20
-1158.5326699417167
  0
VERTEX
  8
1
 10
684.8022397227626
 20
-1159.5512227453858
  0
VERTEX
  8
1
 10
708.3462397227624
 20
-1161.467222745386
  0
VERTEX
  8
1
 10
728.4754526765419
 20
-1163.1025602228221
  0
VERTEX
  8
1
 10
742.1062397227624
 20
-1164.206222745386
  0
VERTEX
  8
1
 10
743.8632397227625
 20
-1159.139222745386
  0
VERTEX
  8
1
 10
745.6302397227626
 20
-1154.0732227453857
  0
VERTEX
  8
1
 10
747.3872397227625
 20
-1149.0062227453857
  0
VERTEX
  8
1
 10
749.1442397227624
 20
-1143.9402227453859
  0
VERTEX
  8
1
 10
750.9112397227625
 20
-1138.8732227453859
  0
VERTEX
  8
1
 10
752.6682397227626
 20
-1133.8072227453858
  0
VERTEX
  8
1
 10
754.4252397227625
 20
-1128.7402227453858
  0
VERTEX
  8
1
 10
756.1922397227625
 20
-1123.6742227453858
  0
VERTEX
  8
1
 10
757.9492397227625
 20
-1118.6072227453858
  0
VERTEX
  8
1
 10
759.7062397227625
 20
-1113.541222745386
  0
VERTEX
  8
1
 10
761.4632397227625
 20
-1108.474222745386
  0
VERTEX
  8
1
 10
763.2302397227625
 20
-1103.407222745386
  0
VERTEX
  8
1
 10
764.9882397227625
 20
-1098.3412227453857
  0
VERTEX
  8
1
 10
766.7452397227626
 20
-1093.2742227453857
  0
VERTEX
  8
1
 10
768.5122397227625
 20
-1088.208222745386
  0
VERTEX
  8
1
 10
770.2692397227624
 20
-1083.141222745386
  0
VERTEX
  8
1
 10
772.0262397227625
 20
-1078.0752227453859
  0
VERTEX
  8
1
 10
773.7932397227626
 20
-1073.0082227453859
  0
VERTEX
  8
1
 10
775.5502397227625
 20
-1067.9422227453858
  0
VERTEX
  8
1
 10
777.3072397227625
 20
-1062.8752227453858
  0
VERTEX
  8
1
 10
779.0742397227625
 20
-1057.8082227453858
  0
VERTEX
  8
1
 10
780.8312397227625
 20
-1052.7422227453858
  0
VERTEX
  8
1
 10
782.5882397227625
 20
-1047.6752227453858
  0
VERTEX
  8
1
 10
784.3552397227625
 20
-1042.6092227453858
  0
VERTEX
  8
1
 10
786.1122397227625
 20
-1037.5422227453857
  0
VERTEX
  8
1
 10
787.8692397227625
 20
-1032.4762227453857
  0
VERTEX
  8
1
 10
789.6362397227625
 20
-1027.4092227453857
  0
VERTEX
  8
1
 10
791.3932397227625
 20
-1022.3432227453858
  0
VERTEX
  8
1
 10
793.1502397227625
 20
-1017.2762227453858
  0
VERTEX
  8
1
 10
794.9172397227625
 20
-1012.2102227453857
  0
VERTEX
  8
1
 10
796.6742397227625
 20
-1007.1432227453857
  0
VERTEX
  8
1
 10
798.4312397227625
 20
-1002.0762227453857
  0
VERTEX
  8
1
 10
800.1882397227625
 20
-997.0102227453857
  0
VERTEX
  8
1
 10
801.9552397227625
 20
-991.9432227453857
  0
VERTEX
  8
1
 10
803.7122397227625
 20
-986.8772227453857
  0
VERTEX
  8
1
 10
805.4692397227625
 20
-981.8102227453857
  0
VERTEX
  8
1
 10
806.5038174080217
 20
-979.0263513762904
  0
VERTEX
  8
1
 10
806.8289696141474
 20
-978.1201821009239
  0
VERTEX
  8
1
 10
807.154121820273
 20
-977.2140128255575
  0
VERTEX
  8
1
 10
807.3302397227625
 20
-976.7842227453858
  0
VERTEX
  8
1
 10
808.4970247451738
 20
-974.1299783197229
  0
VERTEX
  8
1
 10
809.6242397227625
 20
-971.9412227453857
  0
VERTEX
  8
1
 10
809.9755109859486
 20
-971.2403684927484
  0
VERTEX
  8
1
 10
811.5968269540567
 20
-968.4261052991268
  0
VERTEX
  8
1
 10
812.3292397227625
 20
-967.3192227453857
  0
VERTEX
  8
1
 10
813.3876204427434
 20
-965.7290846733877
  0
VERTEX
  8
1
 10
815.3492657588286
 20
-963.1269201417791
  0
VERTEX
  8
1
 10
815.4712397227624
 20
-962.9842227453856
  0
VERTEX
  8
1
 10
817.42043440044
 20
-960.6319790479961
  0
VERTEX
  8
1
 10
818.9902397227625
 20
-958.9512227453857
  0
VERTEX
  8
1
 10
819.63928567409
 20
-958.2538133869785
  0
VERTEX
  8
1
 10
820.8185335544116
 20
-957.1426799129592
  0
VERTEX
  8
1
 10
822.1428802706207
 20
-955.8788009119236
  0
VERTEX
  8
1
 10
822.8792397227625
 20
-955.2532227453856
  0
VERTEX
  8
1
 10
824.9213645555487
 20
-953.5111433063399
  0
VERTEX
  8
1
 10
827.0492397227625
 20
-951.8942227453857
  0
VERTEX
  8
1
 10
827.8280833920072
 20
-951.3053009107633
  0
VERTEX
  8
1
 10
830.8599413833177
 20
-949.2643719151082
  0
VERTEX
  8
1
 10
831.4862397227625
 20
-948.8912227453858
  0
VERTEX
  8
1
 10
833.9758381659457
 20
-947.3874603827813
  0
VERTEX
  8
1
 10
836.1512397227625
 20
-946.2402227453857
  0
VERTEX
  8
1
 10
837.2232713434412
 20
-945.6827069350464
  0
VERTEX
  8
1
 10
840.3501956969537
 20
-944.2642447582901
  0
VERTEX
  8
1
 10
841.0272397227625
 20
-944.0232227453857
  0
VERTEX
  8
1
 10
846.0492397227625
 20
-942.1632227453857
  0
VERTEX
  8
1
 10
846.0962397227624
 20
-942.1462227453857
  0
VERTEX
  8
1
 10
851.0822397227626
 20
-940.3072227453857
  0
VERTEX
  8
1
 10
856.1062397227626
 20
-938.4212227453858
  0
VERTEX
  8
1
 10
861.1192397227625
 20
-936.5362227453858
  0
VERTEX
  8
1
 10
866.1432397227625
 20
-934.6402227453858
  0
VERTEX
  8
1
 10
871.1672397227625
 20
-932.7552227453857
  0
VERTEX
  8
1
 10
876.1902397227625
 20
-930.8692227453857
  0
VERTEX
  8
1
 10
879.5498422877405
 20
-929.6057179360521
  0
VERTEX
  8
1
 10
881.2042397227625
 20
-928.9832227453857
  0
VERTEX
  8
1
 10
886.2272397227625
 20
-927.0972227453857
  0
VERTEX
  8
1
 10
893.2862397227625
 20
-924.4362227453857
  0
VERTEX
  8
1
 10
891.2382397227625
 20
-919.8782227453858
  0
VERTEX
  8
1
 10
889.1892397227625
 20
-915.3312227453857
  0
VERTEX
  8
1
 10
887.1412397227625
 20
-910.7732227453857
  0
VERTEX
  8
1
 10
886.6662397227625
 20
-909.7162227453858
  0
VERTEX
  8
1
 10
885.0922397227625
 20
-906.2162227453858
  0
VERTEX
  8
1
 10
883.0522397227625
 20
-901.6592227453858
  0
VERTEX
  8
1
 10
881.0032397227625
 20
-897.1032227453858
  0
VERTEX
  8
1
 10
880.6714544029954
 20
-896.3794129585639
  0
VERTEX
  8
1
 10
878.9862397227625
 20
-892.5382227453857
  0
VERTEX
  8
1
 10
877.0112397227625
 20
-887.9482227453858
  0
VERTEX
  8
1
 10
875.0462397227625
 20
-883.3692227453857
  0
VERTEX
  8
1
 10
874.9116211061577
 20
-883.0682021525021
  0
VERTEX
  8
1
 10
873.0732397227625
 20
-878.7792227453857
  0
VERTEX
  8
1
 10
871.1652397227625
 20
-874.1572227453858
  0
VERTEX
  8
1
 10
869.3162397227625
 20
-869.6659604135316
  0
VERTEX
  8
1
 10
869.2682397227625
 20
-869.5442227453858
  0
VERTEX
  8
1
 10
867.3752397227624
 20
-864.9222227453857
  0
VERTEX
  8
1
 10
865.5212397227625
 20
-860.2802227453857
  0
VERTEX
  8
1
 10
863.9074378903949
 20
-856.1950245777533
  0
VERTEX
  8
1
 10
863.6972397227626
 20
-855.6352227453857
  0
VERTEX
  8
1
 10
861.8822397227625
 20
-850.9832227453857
  0
VERTEX
  8
1
 10
860.0672397227625
 20
-846.3312227453858
  0
VERTEX
  8
1
 10
858.8322508946269
 20
-843.0632171594535
  0
VERTEX
  8
1
 10
858.3252397227625
 20
-841.6502227453857
  0
VERTEX
  8
1
 10
856.5882397227625
 20
-836.9702227453857
  0
VERTEX
  8
1
 10
854.8412397227625
 20
-832.2902227453857
  0
VERTEX
  8
1
 10
853.9502976706736
 20
-829.8565995662212
  0
VERTEX
  8
1
 10
853.1632397227625
 20
-827.5862227453857
  0
VERTEX
  8
1
 10
851.4982397227625
 20
-822.8782227453858
  0
VERTEX
  8
1
 10
849.8322397227626
 20
-818.1692227453857
  0
VERTEX
  8
1
 10
849.2657951276002
 20
-816.579753676569
  0
VERTEX
  8
1
 10
848.2112397227625
 20
-813.4532227453857
  0
VERTEX
  8
1
 10
846.6262397227625
 20
-808.7192227453858
  0
VERTEX
  8
1
 10
845.0522397227625
 20
-803.9742227453858
  0
VERTEX
  8
1
 10
844.8446474098052
 20
-803.4267535163715
  0
VERTEX
  8
1
 10
843.4782397227625
 20
-799.2412227453857
  0
VERTEX
  8
1
 10
841.9712397227624
 20
-794.4812227453857
  0
VERTEX
  8
1
 10
840.4632397227625
 20
-789.7202227453857
  0
VERTEX
  8
1
 10
840.3186740176151
 20
-789.2835736000917
  0
VERTEX
  8
1
 10
838.9622397227625
 20
-784.9502227453858
  0
VERTEX
  8
1
 10
837.6882397227625
 20
-780.1282227453858
  0
VERTEX
  8
1
 10
836.4542397227625
 20
-775.2862227453858
  0
VERTEX
  8
1
 10
836.3144499020179
 20
-774.7694381510433
  0
VERTEX
  8
1
 10
835.2302397227625
 20
-770.4462227453857
  0
VERTEX
  8
1
 10
834.0552397227625
 20
-765.5932227453858
  0
VERTEX
  8
1
 10
832.9112397227625
 20
-760.7302227453857
  0
VERTEX
  8
1
 10
832.7616123637061
 20
-760.1398795851499
  0
VERTEX
  8
1
 10
831.7592397227625
 20
-755.8712227453858
  0
VERTEX
  8
1
 10
830.6472397227625
 20
-751.0102227453857
  0
VERTEX
  8
1
 10
829.5752397227625
 20
-746.1292227453857
  0
VERTEX
  8
1
 10
829.4199715462833
 20
-745.4702897895055
  0
VERTEX
  8
1
 10
828.5102397227625
 20
-741.2532227453858
  0
VERTEX
  8
1
 10
827.4582397227625
 20
-736.3742227453857
  0
VERTEX
  8
1
 10
826.4662397227626
 20
-731.4752227453857
  0
VERTEX
  8
1
 10
826.30516602299
 20
-730.7407385381941
  0
VERTEX
  8
1
 10
825.4682397227625
 20
-726.5832227453857
  0
VERTEX
  8
1
 10
824.4822397227625
 20
-721.6882227453857
  0
VERTEX
  8
1
 10
823.5662397227625
 20
-716.7742227453857
  0
VERTEX
  8
1
 10
823.4046486749581
 20
-715.961205294879
  0
VERTEX
  8
1
 10
822.6622397227625
 20
-711.8682227453858
  0
VERTEX
  8
1
 10
821.7522397227625
 20
-706.9592227453858
  0
VERTEX
  8
1
 10
820.9022397227625
 20
-702.0412227453858
  0
VERTEX
  8
1
 10
820.7411543266359
 20
-701.1598063734039
  0
VERTEX
  8
1
 10
820.0742397227625
 20
-697.1122227453858
  0
VERTEX
  8
1
 10
819.2412397227625
 20
-692.1912227453857
  0
VERTEX
  8
1
 10
818.4482397227625
 20
-687.2602227453857
  0
VERTEX
  8
1
 10
818.2906715945333
 20
-686.2901563035749
  0
VERTEX
  8
1
 10
817.7102397227625
 20
-682.3202227453858
  0
VERTEX
  8
1
 10
816.9582397227625
 20
-677.3792227453857
  0
VERTEX
  8
1
 10
816.2352397227625
 20
-672.4382227453857
  0
VERTEX
  8
1
 10
815.6007461557657
 20
-667.7750961371349
  0
VERTEX
  8
1
 10
815.5672397227625
 20
-667.4962227453857
  0
VERTEX
  8
1
 10
814.9032397227625
 20
-662.5472227453857
  0
VERTEX
  8
1
 10
814.2302397227625
 20
-657.5972227453857
  0
VERTEX
  8
1
 10
813.6472397227625
 20
-652.6382227453857
  0
VERTEX
  8
1
 10
813.2309831179014
 20
-649.2131298209933
  0
VERTEX
  8
1
 10
813.0662397227625
 20
-647.6772227453857
  0
VERTEX
  8
1
 10
812.4922397227625
 20
-642.7212227453857
  0
VERTEX
  8
1
 10
811.9992397227625
 20
-637.7452227453857
  0
VERTEX
  8
1
 10
811.5052397227626
 20
-632.7792227453857
  0
VERTEX
  8
1
 10
811.2667594295931
 20
-630.6006094446268
  0
VERTEX
  8
1
 10
811.0052397227626
 20
-627.8092227453857
  0
VERTEX
  8
1
 10
810.8662397227625
 20
-626.0862227453857
  0
VERTEX
  8
1
 10
807.87607160181
 20
-626.3289048593535
  0
VERTEX
  8
1
 10
810.8662397227625
 20
-626.0862227453857
  0
VERTEX
  8
1
 10
810.8442993968237
 20
-625.8262227453857
  0
VERTEX
  8
1
 10
810.5972397227625
 20
-622.8272227453857
  0
VERTEX
  8
1
 10
810.1872397227625
 20
-617.8552227453857
  0
VERTEX
  8
1
 10
809.7772397227625
 20
-612.8832227453858
  0
VERTEX
  8
1
 10
809.7081203374746
 20
-611.9462227453857
  0
VERTEX
  8
1
 10
809.4652397227625
 20
-607.8972227453858
  0
VERTEX
  8
1
 10
809.1452397227625
 20
-602.9102227453857
  0
VERTEX
  8
1
 10
808.8362397227625
 20
-597.9332227453857
  0
VERTEX
  8
1
 10
808.6117519536893
 20
-593.2568638552533
  0
VERTEX
  8
1
 10
808.6012397227626
 20
-592.9362227453857
  0
VERTEX
  8
1
 10
808.3612397227625
 20
-587.9552227453858
  0
VERTEX
  8
1
 10
808.1302397227626
 20
-582.9642227453858
  0
VERTEX
  8
1
 10
807.9902397227625
 20
-577.9732227453858
  0
VERTEX
  8
1
 10
807.8741641661816
 20
-574.5562227453858
  0
VERTEX
  8
1
 10
807.8442397227625
 20
-572.9812227453857
  0
VERTEX
  8
1
 10
807.6982397227625
 20
-567.9872227453857
  0
VERTEX
  8
1
 10
807.6432397227625
 20
-562.9942227453857
  0
VERTEX
  8
1
 10
807.5872397227625
 20
-558.0002227453857
  0
VERTEX
  8
1
 10
807.5421188199979
 20
-555.8462227453857
  0
VERTEX
  8
1
 10
807.5232397227625
 20
-553.0052227453857
  0
VERTEX
  8
1
 10
807.5602397227625
 20
-548.0192227453857
  0
VERTEX
  8
1
 10
807.5872397227624
 20
-543.0242227453857
  0
VERTEX
  8
1
 10
807.6242397227625
 20
-538.0282227453857
  0
VERTEX
  8
1
 10
807.6062397227626
 20
-537.0362227453858
  0
VERTEX
  8
1
 10
807.5322397227625
 20
-533.0322227453858
  0
VERTEX
  8
1
 10
807.4192397227625
 20
-528.0462227453858
  0
VERTEX
  8
1
 10
807.3162397227625
 20
-523.0502227453858
  0
VERTEX
  8
1
 10
807.2032397227625
 20
-518.0552227453858
  0
VERTEX
  8
1
 10
807.1002397227625
 20
-513.0692227453858
  0
VERTEX
  8
1
 10
806.9882397227625
 20
-508.0732227453858
  0
VERTEX
  8
1
 10
806.8852397227625
 20
-503.07722274538577
  0
VERTEX
  8
1
 10
806.7722397227625
 20
-498.0922227453858
  0
VERTEX
  8
1
 10
806.6692397227625
 20
-493.0962227453858
  0
VERTEX
  8
1
 10
806.5562397227625
 20
-488.1002227453858
  0
VERTEX
  8
1
 10
806.4532397227625
 20
-483.1142227453858
  0
VERTEX
  8
1
 10
806.3412397227626
 20
-478.1192227453858
  0
VERTEX
  8
1
 10
806.2382397227625
 20
-473.1232227453858
  0
VERTEX
  8
1
 10
806.1352397227625
 20
-468.13722274538577
  0
VERTEX
  8
1
 10
806.0222397227625
 20
-463.1412227453858
  0
VERTEX
  8
1
 10
805.9192397227625
 20
-458.1462227453858
  0
VERTEX
  8
1
 10
805.8072397227625
 20
-453.16022274538574
  0
VERTEX
  8
1
 10
805.7042397227625
 20
-448.16422274538576
  0
VERTEX
  8
1
 10
805.5912397227626
 20
-443.1682227453858
  0
VERTEX
  8
1
 10
805.4882397227625
 20
-438.18322274538576
  0
VERTEX
  8
1
 10
805.3752397227626
 20
-433.1872227453858
  0
VERTEX
  8
1
 10
805.2732397227625
 20
-428.1912227453858
  0
VERTEX
  8
1
 10
805.1602397227625
 20
-423.2052227453858
  0
VERTEX
  8
1
 10
805.0572397227625
 20
-418.20922274538583
  0
VERTEX
  8
1
 10
804.9442397227625
 20
-413.2142227453858
  0
VERTEX
  8
1
 10
804.8412397227625
 20
-408.2282227453858
  0
VERTEX
  8
1
 10
804.7282397227625
 20
-403.23222274538574
  0
VERTEX
  8
1
 10
804.6262397227625
 20
-398.23622274538576
  0
VERTEX
  8
1
 10
804.5132397227625
 20
-393.2512227453858
  0
VERTEX
  8
1
 10
804.4102397227625
 20
-388.25522274538577
  0
VERTEX
  8
1
 10
804.2972397227625
 20
-383.2592227453858
  0
VERTEX
  8
1
 10
804.1942397227625
 20
-378.2732227453858
  0
VERTEX
  8
1
 10
804.0822397227626
 20
-373.2782227453858
  0
VERTEX
  8
1
 10
803.9792397227625
 20
-368.2822227453858
  0
VERTEX
  8
1
 10
803.8662397227625
 20
-363.2962227453858
  0
VERTEX
  8
1
 10
803.7632397227625
 20
-358.3002227453858
  0
VERTEX
  8
1
 10
803.6502397227625
 20
-353.3052227453858
  0
VERTEX
  8
1
 10
803.5472397227625
 20
-348.31922274538584
  0
VERTEX
  8
1
 10
803.4452397227625
 20
-343.3232227453858
  0
VERTEX
  8
1
 10
803.3322397227626
 20
-338.32722274538577
  0
VERTEX
  8
1
 10
803.3062397227625
 20
-337.10622274538576
  0
VERTEX
  8
1
 10
800.3068844317648
 20
-337.16841469313084
  0
VERTEX
  8
1
 10
803.3062397227625
 20
-337.10622274538576
  0
VERTEX
  8
1
 10
803.3034549341957
 20
-336.93900753395263
  0
VERTEX
  8
1
 10
803.2292397227625
 20
-333.34222274538575
  0
VERTEX
  8
1
 10
803.1162397227625
 20
-328.3462227453858
  0
VERTEX
  8
1
 10
803.0142397227625
 20
-323.3502227453858
  0
VERTEX
  8
1
 10
802.9012397227625
 20
-318.3642227453858
  0
VERTEX
  8
1
 10
802.7982397227624
 20
-313.3682227453858
  0
VERTEX
  8
1
 10
802.6852397227625
 20
-308.3732227453858
  0
VERTEX
  8
1
 10
802.5832397227625
 20
-303.3872227453858
  0
VERTEX
  8
1
 10
802.4702397227625
 20
-298.3912227453858
  0
VERTEX
  8
1
 10
802.3672397227625
 20
-293.3952227453858
  0
VERTEX
  8
1
 10
802.2542397227625
 20
-288.4102227453858
  0
VERTEX
  8
1
 10
802.1522397227625
 20
-283.4142227453858
  0
VERTEX
  8
1
 10
802.0392397227625
 20
-278.4182227453858
  0
VERTEX
  8
1
 10
801.9362397227625
 20
-273.4322227453858
  0
VERTEX
  8
1
 10
801.8232397227625
 20
-268.4372227453858
  0
VERTEX
  8
1
 10
801.7212397227624
 20
-263.4412227453858
  0
VERTEX
  8
1
 10
801.6082397227625
 20
-258.45522274538575
  0
VERTEX
  8
1
 10
801.5052397227626
 20
-253.45922274538577
  0
VERTEX
  8
1
 10
801.3932397227625
 20
-248.46422274538577
  0
VERTEX
  8
1
 10
801.2902397227625
 20
-243.47822274538578
  0
VERTEX
  8
1
 10
801.1772397227625
 20
-238.48222274538574
  0
VERTEX
  8
1
 10
801.0742397227625
 20
-233.48622274538576
  0
VERTEX
  8
1
 10
800.9622397227624
 20
-228.50022274538583
  0
VERTEX
  8
1
 10
800.8592397227625
 20
-223.50522274538582
  0
VERTEX
  8
1
 10
800.7462397227625
 20
-218.50922274538584
  0
VERTEX
  8
1
 10
800.6332397227625
 20
-213.5232227453858
  0
VERTEX
  8
1
 10
800.5312397227625
 20
-208.5272227453858
  0
VERTEX
  8
1
 10
800.4182397227625
 20
-203.5322227453858
  0
VERTEX
  8
1
 10
800.3152397227625
 20
-198.54622274538582
  0
VERTEX
  8
1
 10
800.2022397227624
 20
-193.55022274538578
  0
VERTEX
  8
1
 10
800.1002397227625
 20
-188.5542227453858
  0
VERTEX
  8
1
 10
799.9872397227625
 20
-183.5692227453858
  0
VERTEX
  8
1
 10
799.8842397227625
 20
-178.5732227453858
  0
VERTEX
  8
1
 10
799.7712397227625
 20
-173.57722274538577
  0
VERTEX
  8
1
 10
799.6692397227625
 20
-168.59122274538578
  0
VERTEX
  8
1
 10
799.5562397227625
 20
-163.59622274538577
  0
VERTEX
  8
1
 10
799.4532397227625
 20
-158.6002227453858
  0
VERTEX
  8
1
 10
799.3402397227625
 20
-153.61422274538575
  0
VERTEX
  8
1
 10
799.2382397227625
 20
-148.61822274538576
  0
VERTEX
  8
1
 10
799.1252397227624
 20
-143.62322274538576
  0
VERTEX
  8
1
 10
799.0222397227625
 20
-138.63722274538583
  0
VERTEX
  8
1
 10
798.9092397227625
 20
-133.6412227453858
  0
VERTEX
  8
1
 10
798.8072397227625
 20
-128.6452227453858
  0
VERTEX
  8
1
 10
798.6942397227625
 20
-123.6592227453858
  0
VERTEX
  8
1
 10
798.5912397227625
 20
-118.6642227453858
  0
VERTEX
  8
1
 10
798.4792397227625
 20
-113.66822274538582
  0
VERTEX
  8
1
 10
798.3762397227625
 20
-108.68222274538577
  0
VERTEX
  8
1
 10
798.2632397227625
 20
-103.68622274538579
  0
VERTEX
  8
1
 10
798.1602397227625
 20
-98.69122274538579
  0
VERTEX
  8
1
 10
798.0482397227624
 20
-93.7052227453858
  0
VERTEX
  8
1
 10
797.9452397227625
 20
-88.70922274538576
  0
VERTEX
  8
1
 10
797.8322397227626
 20
-83.71322274538578
  0
VERTEX
  8
1
 10
797.7292397227625
 20
-78.72822274538576
  0
VERTEX
  8
1
 10
797.6172397227625
 20
-73.73222274538584
  0
VERTEX
  8
1
 10
797.5142397227626
 20
-68.73622274538586
  0
VERTEX
  8
1
 10
797.4012397227625
 20
-63.75022274538587
  0
VERTEX
  8
1
 10
797.2982397227624
 20
-58.755222745385865
  0
VERTEX
  8
1
 10
797.1862397227625
 20
-53.75922274538577
  0
VERTEX
  8
1
 10
797.0832397227625
 20
-48.77322274538578
  0
VERTEX
  8
1
 10
796.9702397227625
 20
-43.7772227453858
  0
VERTEX
  8
1
 10
796.9488436831585
 20
-42.476222745385755
  0
VERTEX
  8
1
 10
793.9490255301682
 20
-42.44319171467218
  0
VERTEX
  8
1
 10
796.9488436831585
 20
-42.476222745385755
  0
VERTEX
  8
1
 10
797.0252397227625
 20
-38.782222745385795
  0
VERTEX
  8
1
 10
797.1382397227625
 20
-33.796222745385805
  0
VERTEX
  8
1
 10
797.2412397227625
 20
-28.800222745385824
  0
VERTEX
  8
1
 10
797.3542397227625
 20
-23.80522274538582
  0
VERTEX
  8
1
 10
797.4572397227626
 20
-18.81922274538583
  0
VERTEX
  8
1
 10
797.5962397227624
 20
-12.446222745385782
  0
VERTEX
  8
1
 10
784.5962397227624
 20
-12.446222745385782
  0
VERTEX
  8
1
 10
760.6262397227625
 20
-12.446222745385782
  0
VERTEX
  8
1
 10
738.2102397227625
 20
-12.446222745385782
  0
VERTEX
  8
1
 10
715.8042397227625
 20
-12.446222745385782
  0
VERTEX
  8
1
 10
693.3992397227626
 20
-12.446222745385782
  0
VERTEX
  8
1
 10
670.9932397227625
 20
-12.446222745385782
  0
VERTEX
  8
1
 10
669.4297429163198
 20
-12.446222745385782
  0
VERTEX
  8
1
 10
648.5772397227624
 20
-12.446222745385782
  0
VERTEX
  8
1
 10
626.1712397227625
 20
-12.446222745385782
  0
VERTEX
  8
1
 10
603.7652397227625
 20
-12.446222745385782
  0
VERTEX
  8
1
 10
581.3592397227626
 20
-12.446222745385782
  0
VERTEX
  8
1
 10
554.2662397227625
 20
-12.446222745385782
  0
VERTEX
  8
1
 10
541.2662397227625
 20
-12.446222745385782
  0
VERTEX
  8
1
 10
541.2662397227625
 20
-12.446222745385782
  0
VERTEX
  8
1
 10
541.7242397227626
 20
-32.78922274538586
  0
VERTEX
  8
1
 10
541.7468424570508
 20
-33.78896727095359
  0
SEQEND
  0
ENDBLK
  0
BLOCK
  2
8
  8
1
 10
0
 20
0
 70
64
  0
POLYLINE
  8
1
  62
3
10
0
 20
0
 66
1
  0
VERTEX
  8
1
 10
680.7962397227625
 20
-1098.0662227453859
  0
VERTEX
  8
1
 10
684.7423898742352
 20
-1098.720362624947
  0
SEQEND
  0
ENDBLK
  0
BLOCK
  2
9
  8
1
 10
0
 20
0
 70
64
  0
POLYLINE
  8
1
  62
3
10
0
 20
0
 66
1
  0
VERTEX
  8
1
 10
680.7962397227625
 20
-1098.0662227453859
  0
VERTEX
  8
1
 10
680.1420998432013
 20
-1102.0123728968586
  0
SEQEND
  0
ENDBLK
  0
BLOCK
  2
10
  8
1
 10
0
 20
0
 70
64
  0
POLYLINE
  8
1
  62
3
10
0
 20
0
 66
1
  0
VERTEX
  8
1
 10
528.9562397227625
 20
-1072.8962227453858
  0
VERTEX
  8
1
 10
525.0100895712898
 20
-1072.2420828658246
  0
SEQEND
  0
ENDBLK
  0
BLOCK
  2
11
  8
1
 10
0
 20
0
 70
64
  0
POLYLINE
  8
1
  62
3
10
0
 20
0
 66
1
  0
VERTEX
  8
1
 10
528.9562397227625
 20
-1072.8962227453858
  0
VERTEX
  8
1
 10
528.3020998432013
 20
-1076.8423728968585
  0
SEQEND
  0
ENDBLK
  0
BLOCK
  2
12
  8
1
 10
0
 20
0
 70
64
  0
POLYLINE
  8
1
  62
3
10
0
 20
0
 66
1
  0
VERTEX
  8
1
 10
631.1662397227625
 20
-926.9162227453858
  0
VERTEX
  8
1
 10
634.4191359991314
 20
-924.5884199583815
  0
SEQEND
  0
ENDBLK
  0
BLOCK
  2
13
  8
1
 10
0
 20
0
 70
64
  0
POLYLINE
  8
1
  62
3
10
0
 20
0
 66
1
  0
VERTEX
  8
1
 10
631.1662397227625
 20
-926.9162227453858
  0
VERTEX
  8
1
 10
628.8384369357581
 20
-923.6633264690169
  0
SEQEND
  0
ENDBLK
  0
BLOCK
  2
14
  8
1
 10
0
 20
0
 70
64
  0
POLYLINE
  8
1
  62
3
10
0
 20
0
 66
1
  0
VERTEX
  8
1
 10
938.5617026716604
 20
-12.276964066954221
  0
VERTEX
  8
1
 10
961.4727026716604
 20
-12.276964066954221
  0
VERTEX
  8
1
 10
984.3937026716604
 20
-12.276964066954221
  0
VERTEX
  8
1
 10
1007.3037026716604
 20
-12.276964066954221
  0
VERTEX
  8
1
 10
1030.2147026716605
 20
-12.276964066954221
  0
VERTEX
  8
1
 10
1053.1357026716605
 20
-12.296964066954203
  0
VERTEX
  8
1
 10
1076.0467026716603
 20
-12.356964066954262
  0
VERTEX
  8
1
 10
1098.9577026716604
 20
-12.416964066954208
  0
VERTEX
  8
1
 10
1121.8777026716605
 20
-12.476964066954267
  0
VERTEX
  8
1
 10
1141.6417026716604
 20
-12.276964066954221
  0
VERTEX
  8
1
 10
1154.6417026716604
 20
-12.556964066954194
  0
VERTEX
  8
1
 10
1154.5297026716605
 20
-17.5519640669542
  0
VERTEX
  8
1
 10
1154.4277026716604
 20
-22.546964066954203
  0
VERTEX
  8
1
 10
1154.3157026716603
 20
-27.531964066954217
  0
VERTEX
  8
1
 10
1154.2127026716605
 20
-32.525964066954245
  0
VERTEX
  8
1
 10
1154.1007026716604
 20
-37.52096406695425
  0
VERTEX
  8
1
 10
1154.0017026716605
 20
-42.29696406695432
  0
VERTEX
  8
1
 10
1151.0023247431684
 20
-42.235873625188944
  0
VERTEX
  8
1
 10
1154.0017026716605
 20
-42.29696406695432
  0
VERTEX
  8
1
 10
1154.0020007781836
 20
-42.36696406695425
  0
VERTEX
  8
1
 10
1154.0047026716604
 20
-42.515964066954254
  0
VERTEX
  8
1
 10
1154.1157026716605
 20
-47.51096406695426
  0
VERTEX
  8
1
 10
1154.2177026716604
 20
-52.50596406695426
  0
VERTEX
  8
1
 10
1154.3297026716605
 20
-57.49096406695428
  0
VERTEX
  8
1
 10
1154.4317026716603
 20
-62.48596406695428
  0
VERTEX
  8
1
 10
1154.5427026716604
 20
-67.48096406695429
  0
VERTEX
  8
1
 10
1154.6447026716605
 20
-72.47496406695431
  0
VERTEX
  8
1
 10
1154.7567026716604
 20
-77.46996406695426
  0
VERTEX
  8
1
 10
1154.8577026716605
 20
-82.46496406695427
  0
VERTEX
  8
1
 10
1154.9697026716603
 20
-87.44996406695428
  0
VERTEX
  8
1
 10
1155.0717026716604
 20
-92.44496406695428
  0
VERTEX
  8
1
 10
1155.1827026716605
 20
-97.43996406695423
  0
VERTEX
  8
1
 10
1155.2847026716604
 20
-102.43496406695424
  0
VERTEX
  8
1
 10
1155.3967026716605
 20
-107.42996406695424
  0
VERTEX
  8
1
 10
1155.4987026716603
 20
-112.42396406695427
  0
VERTEX
  8
1
 10
1155.6097026716604
 20
-117.40896406695428
  0
VERTEX
  8
1
 10
1155.7117026716605
 20
-122.40396406695429
  0
VERTEX
  8
1
 10
1155.8237026716604
 20
-127.39896406695429
  0
VERTEX
  8
1
 10
1155.9247026716605
 20
-132.39396406695425
  0
VERTEX
  8
1
 10
1156.0367026716604
 20
-137.38896406695426
  0
VERTEX
  8
1
 10
1156.1387026716604
 20
-142.38396406695426
  0
VERTEX
  8
1
 10
1156.2497026716605
 20
-147.36896406695428
  0
VERTEX
  8
1
 10
1156.3517026716604
 20
-152.3629640669543
  0
VERTEX
  8
1
 10
1156.4637026716605
 20
-157.3579640669543
  0
VERTEX
  8
1
 10
1156.5657026716603
 20
-162.3529640669543
  0
VERTEX
  8
1
 10
1156.6767026716605
 20
-167.34796406695426
  0
VERTEX
  8
1
 10
1156.7787026716605
 20
-172.34296406695427
  0
VERTEX
  8
1
 10
1156.8907026716604
 20
-177.32796406695428
  0
VERTEX
  8
1
 10
1156.9917026716605
 20
-182.32296406695428
  0
VERTEX
  8
1
 10
1157.1037026716604
 20
-187.3179640669543
  0
VERTEX
  8
1
 10
1157.2057026716604
 20
-192.31196406695432
  0
VERTEX
  8
1
 10
1157.3167026716606
 20
-197.30696406695432
  0
VERTEX
  8
1
 10
1157.4187026716604
 20
-202.30196406695433
  0
VERTEX
  8
1
 10
1157.5307026716605
 20
-207.28696406695428
  0
VERTEX
  8
1
 10
1157.6327026716604
 20
-212.2819640669543
  0
VERTEX
  8
1
 10
1157.7437026716605
 20
-217.2769640669543
  0
VERTEX
  8
1
 10
1157.8457026716605
 20
-222.2719640669543
  0
VERTEX
  8
1
 10
1157.9577026716604
 20
-227.2669640669543
  0
VERTEX
  8
1
 10
1158.0587026716605
 20
-232.26096406695433
  0
VERTEX
  8
1
 10
1158.1707026716604
 20
-237.24596406695434
  0
VERTEX
  8
1
 10
1158.2727026716605
 20
-242.2409640669543
  0
VERTEX
  8
1
 10
1158.3837026716606
 20
-247.2359640669543
  0
VERTEX
  8
1
 10
1158.4857026716604
 20
-252.2309640669543
  0
VERTEX
  8
1
 10
1158.5977026716605
 20
-257.2259640669543
  0
VERTEX
  8
1
 10
1158.6997026716604
 20
-262.2209640669543
  0
VERTEX
  8
1
 10
1158.8107026716605
 20
-267.20596406695427
  0
VERTEX
  8
1
 10
1158.9127026716606
 20
-272.1999640669543
  0
VERTEX
  8
1
 10
1159.0247026716604
 20
-277.19496406695424
  0
VERTEX
  8
1
 10
1159.1357026716605
 20
-282.18996406695425
  0
VERTEX
  8
1
 10
1159.2377026716604
 20
-287.18496406695425
  0
VERTEX
  8
1
 10
1159.3400089625582
 20
-291.75696406695425
  0
VERTEX
  8
1
 10
1159.3497026716605
 20
-292.17996406695426
  0
VERTEX
  8
1
 10
1159.4517026716603
 20
-297.16496406695427
  0
VERTEX
  8
1
 10
1159.5627026716604
 20
-302.1599640669543
  0
VERTEX
  8
1
 10
1159.6647026716605
 20
-307.1549640669543
  0
VERTEX
  8
1
 10
1159.7767026716604
 20
-312.1489640669543
  0
VERTEX
  8
1
 10
1159.8787026716604
 20
-317.14396406695425
  0
VERTEX
  8
1
 10
1159.9897026716603
 20
-322.13896406695426
  0
VERTEX
  8
1
 10
1160.0917026716604
 20
-327.12396406695433
  0
VERTEX
  8
1
 10
1160.2037026716605
 20
-332.1189640669543
  0
VERTEX
  8
1
 10
1160.3017026716605
 20
-336.9369640669543
  0
VERTEX
  8
1
 10
1157.302323233979
 20
-336.9979803665322
  0
VERTEX
  8
1
 10
1160.3017026716605
 20
-336.9369640669543
  0
VERTEX
  8
1
 10
1160.3013082635694
 20
-336.9169640669543
  0
VERTEX
  8
1
 10
1160.3057026716604
 20
-337.1139640669543
  0
VERTEX
  8
1
 10
1160.4167026716605
 20
-342.1089640669543
  0
VERTEX
  8
1
 10
1160.5187026716603
 20
-347.1039640669543
  0
VERTEX
  8
1
 10
1160.6207026716604
 20
-352.09796406695426
  0
VERTEX
  8
1
 10
1160.7327026716605
 20
-357.0829640669543
  0
VERTEX
  8
1
 10
1160.8347026716604
 20
-362.0779640669543
  0
VERTEX
  8
1
 10
1160.9457026716605
 20
-367.0729640669543
  0
VERTEX
  8
1
 10
1161.0477026716603
 20
-372.0679640669543
  0
VERTEX
  8
1
 10
1161.1597026716604
 20
-377.0629640669543
  0
VERTEX
  8
1
 10
1161.2617026716605
 20
-382.0579640669543
  0
VERTEX
  8
1
 10
1161.3727026716604
 20
-387.0429640669543
  0
VERTEX
  8
1
 10
1161.4747026716605
 20
-392.0369640669543
  0
VERTEX
  8
1
 10
1161.5867026716605
 20
-397.0319640669543
  0
VERTEX
  8
1
 10
1161.6887026716604
 20
-402.02696406695424
  0
VERTEX
  8
1
 10
1161.8007026716605
 20
-407.02196406695424
  0
VERTEX
  8
1
 10
1161.9017026716604
 20
-412.01696406695424
  0
VERTEX
  8
1
 10
1162.0137026716604
 20
-417.00196406695426
  0
VERTEX
  8
1
 10
1162.1157026716605
 20
-421.99696406695426
  0
VERTEX
  8
1
 10
1162.2277026716604
 20
-426.99196406695427
  0
VERTEX
  8
1
 10
1162.3297026716605
 20
-431.9859640669543
  0
VERTEX
  8
1
 10
1162.4407026716603
 20
-436.9809640669543
  0
VERTEX
  8
1
 10
1162.5427026716604
 20
-441.9759640669543
  0
VERTEX
  8
1
 10
1162.6547026716605
 20
-446.9609640669543
  0
VERTEX
  8
1
 10
1162.7567026716604
 20
-451.9559640669543
  0
VERTEX
  8
1
 10
1162.8687026716605
 20
-456.9509640669543
  0
VERTEX
  8
1
 10
1162.9697026716603
 20
-461.9459640669543
  0
VERTEX
  8
1
 10
1163.0817026716604
 20
-466.9399640669543
  0
VERTEX
  8
1
 10
1163.1837026716605
 20
-471.9349640669543
  0
VERTEX
  8
1
 10
1163.2957026716604
 20
-476.91996406695426
  0
VERTEX
  8
1
 10
1163.3967026716605
 20
-481.91496406695427
  0
VERTEX
  8
1
 10
1163.5087026716606
 20
-486.9099640669543
  0
VERTEX
  8
1
 10
1163.6107026716604
 20
-491.9049640669543
  0
VERTEX
  8
1
 10
1163.7227026716605
 20
-496.8999640669543
  0
VERTEX
  8
1
 10
1163.8247026716604
 20
-501.8949640669543
  0
VERTEX
  8
1
 10
1163.9357026716605
 20
-506.87896406695427
  0
VERTEX
  8
1
 10
1164.0377026716606
 20
-511.8739640669543
  0
VERTEX
  8
1
 10
1164.1497026716604
 20
-516.8689640669543
  0
VERTEX
  8
1
 10
1164.2517026716605
 20
-521.8639640669544
  0
VERTEX
  8
1
 10
1164.3637026716603
 20
-526.8589640669543
  0
VERTEX
  8
1
 10
1164.4647026716605
 20
-531.8539640669543
  0
VERTEX
  8
1
 10
1164.5767026716603
 20
-536.8389640669542
  0
VERTEX
  8
1
 10
1164.6709481061146
 20
-541.4569640669542
  0
VERTEX
  8
1
 10
1164.6727026716603
 20
-541.8339640669542
  0
VERTEX
  8
1
 10
1164.7407026716605
 20
-546.8289640669542
  0
VERTEX
  8
1
 10
1164.8097026716605
 20
-551.8249640669542
  0
VERTEX
  8
1
 10
1164.8787026716604
 20
-556.8209640669543
  0
VERTEX
  8
1
 10
1164.9477026716604
 20
-561.8159640669543
  0
VERTEX
  8
1
 10
1164.9775324736663
 20
-564.391798106553
  0
VERTEX
  8
1
 10
1165.0307026716605
 20
-566.8019640669543
  0
VERTEX
  8
1
 10
1165.1397026716604
 20
-571.7969640669543
  0
VERTEX
  8
1
 10
1165.2487026716603
 20
-576.7929640669543
  0
VERTEX
  8
1
 10
1165.3587026716605
 20
-581.7879640669543
  0
VERTEX
  8
1
 10
1165.4777026716604
 20
-586.7729640669543
  0
VERTEX
  8
1
 10
1165.4843767376317
 20
-587.1069640669542
  0
VERTEX
  8
1
 10
1165.6287026716604
 20
-591.7679640669543
  0
VERTEX
  8
1
 10
1165.7827026716604
 20
-596.7619640669542
  0
VERTEX
  8
1
 10
1165.9467026716604
 20
-601.7569640669542
  0
VERTEX
  8
1
 10
1166.1107026716604
 20
-606.7409640669542
  0
VERTEX
  8
1
 10
1166.200239016251
 20
-609.8269640669542
  0
VERTEX
  8
1
 10
1166.2747026716604
 20
-611.7349640669543
  0
VERTEX
  8
1
 10
1166.4787026716604
 20
-616.7279640669542
  0
VERTEX
  8
1
 10
1166.6827026716605
 20
-621.7209640669543
  0
VERTEX
  8
1
 10
1166.8803646713645
 20
-626.5372985670282
  0
VERTEX
  8
1
 10
1163.8828805718995
 20
-626.6601361567715
  0
VERTEX
  8
1
 10
1166.8803646713645
 20
-626.5372985670282
  0
VERTEX
  8
1
 10
1166.8817026716604
 20
-626.5769640669542
  0
VERTEX
  8
1
 10
1166.8877026716605
 20
-626.7039640669542
  0
VERTEX
  8
1
 10
1167.0937026716604
 20
-631.6969640669543
  0
VERTEX
  8
1
 10
1167.1250274596093
 20
-632.5269640669542
  0
VERTEX
  8
1
 10
1167.3247026716604
 20
-636.6879640669542
  0
VERTEX
  8
1
 10
1167.5837026716604
 20
-641.6689640669542
  0
VERTEX
  8
1
 10
1167.8337026716604
 20
-646.6599640669542
  0
VERTEX
  8
1
 10
1168.0827026716604
 20
-651.6509640669542
  0
VERTEX
  8
1
 10
1168.2561536835196
 20
-655.2569640669542
  0
VERTEX
  8
1
 10
1168.3367026716605
 20
-656.6409640669542
  0
VERTEX
  8
1
 10
1168.6367026716605
 20
-661.6189640669543
  0
VERTEX
  8
1
 10
1168.9277026716604
 20
-666.6079640669542
  0
VERTEX
  8
1
 10
1169.2277026716604
 20
-671.5959640669543
  0
VERTEX
  8
1
 10
1169.5177026716606
 20
-676.5839640669542
  0
VERTEX
  8
1
 10
1169.5944344839704
 20
-677.9442322546441
  0
VERTEX
  8
1
 10
1169.8367026716605
 20
-681.5609640669542
  0
VERTEX
  8
1
 10
1170.1797026716604
 20
-686.5459640669542
  0
VERTEX
  8
1
 10
1170.5227026716605
 20
-691.5309640669542
  0
VERTEX
  8
1
 10
1170.8657026716605
 20
-696.5159640669542
  0
VERTEX
  8
1
 10
1171.1399483754938
 20
-700.6187183631209
  0
VERTEX
  8
1
 10
1171.2077026716604
 20
-701.4909640669542
  0
VERTEX
  8
1
 10
1171.5847026716604
 20
-706.4719640669542
  0
VERTEX
  8
1
 10
1171.9807026716603
 20
-711.4539640669542
  0
VERTEX
  8
1
 10
1172.3677026716605
 20
-716.4349640669542
  0
VERTEX
  8
1
 10
1172.7537026716604
 20
-721.4069640669542
  0
VERTEX
  8
1
 10
1172.884394961564
 20
-723.2269640669542
  0
VERTEX
  8
1
 10
1173.1587026716604
 20
-726.3839640669543
  0
VERTEX
  8
1
 10
1173.6207026716604
 20
-731.3599640669543
  0
VERTEX
  8
1
 10
1173.8988498196838
 20
-734.5569640669543
  0
VERTEX
  8
1
 10
1174.0917026716604
 20
-736.3309640669543
  0
VERTEX
  8
1
 10
1174.6517026716604
 20
-741.2949640669542
  0
VERTEX
  8
1
 10
1175.1617026716604
 20
-745.8169640669543
  0
VERTEX
  8
1
 10
1175.2207026716605
 20
-746.2579640669543
  0
VERTEX
  8
1
 10
1175.8727026716604
 20
-751.2089640669542
  0
VERTEX
  8
1
 10
1176.5247026716604
 20
-756.1609640669542
  0
VERTEX
  8
1
 10
1176.6417026716604
 20
-757.0369640669543
  0
VERTEX
  8
1
 10
1177.2667026716604
 20
-761.1009640669542
  0
VERTEX
  8
1
 10
1178.0167026716604
 20
-766.0389640669542
  0
VERTEX
  8
1
 10
1178.356114177814
 20
-768.2169640669542
  0
VERTEX
  8
1
 10
1178.8467026716603
 20
-770.9659640669543
  0
VERTEX
  8
1
 10
1179.7047026716605
 20
-775.8859640669542
  0
VERTEX
  8
1
 10
1180.3288192793239
 20
-779.3798474592908
  0
VERTEX
  8
1
 10
1180.6117026716604
 20
-780.7899640669542
  0
VERTEX
  8
1
 10
1181.5617026716604
 20
-785.7009640669543
  0
VERTEX
  8
1
 10
1182.54106319002
 20
-790.4871772275011
  0
VERTEX
  8
1
 10
1182.5647026716604
 20
-790.5909640669543
  0
VERTEX
  8
1
 10
1183.6017026716604
 20
-795.4709640669543
  0
VERTEX
  8
1
 10
1184.6877026716604
 20
-800.3519640669542
  0
VERTEX
  8
1
 10
1184.9492332278646
 20
-801.5569640669543
  0
VERTEX
  8
1
 10
1185.8257026716606
 20
-805.2129640669542
  0
VERTEX
  8
1
 10
1187.0987026716605
 20
-810.0389640669542
  0
VERTEX
  8
1
 10
1187.7389314300663
 20
-812.2591844216954
  0
VERTEX
  8
1
 10
1188.6287026716604
 20
-814.7939640669542
  0
VERTEX
  8
1
 10
1190.1547026716603
 20
-819.5459640669543
  0
VERTEX
  8
1
 10
1191.7017026716603
 20
-824.2969640669543
  0
VERTEX
  8
1
 10
1192.4814324684141
 20
-826.657054134703
  0
VERTEX
  8
1
 10
1193.3177026716605
 20
-829.0229640669543
  0
VERTEX
  8
1
 10
1194.9317026716603
 20
-833.7439640669543
  0
VERTEX
  8
1
 10
1196.5567026716603
 20
-838.4649640669543
  0
VERTEX
  8
1
 10
1197.5104656590072
 20
-841.1640430711719
  0
VERTEX
  8
1
 10
1198.2607026716605
 20
-843.1619640669543
  0
VERTEX
  8
1
 10
1199.9787026716604
 20
-847.8519640669542
  0
VERTEX
  8
1
 10
1201.6877026716604
 20
-852.5409640669542
  0
VERTEX
  8
1
 10
1202.84698067336
 20
-855.6107246818159
  0
VERTEX
  8
1
 10
1203.4877026716604
 20
-857.2089640669543
  0
VERTEX
  8
1
 10
1205.2917026716605
 20
-861.8639640669543
  0
VERTEX
  8
1
 10
1207.0947026716603
 20
-866.5189640669543
  0
VERTEX
  8
1
 10
1208.438737044725
 20
-869.880699744844
  0
VERTEX
  8
1
 10
1208.9797026716606
 20
-871.1419640669542
  0
VERTEX
  8
1
 10
1210.8997026716604
 20
-875.7529640669542
  0
VERTEX
  8
1
 10
1212.403365316698
 20
-879.2587712981885
  0
VERTEX
  8
1
 10
1212.9017026716606
 20
-880.3289640669542
  0
VERTEX
  8
1
 10
1214.9617026716605
 20
-884.8819640669543
  0
VERTEX
  8
1
 10
1216.6185064964634
 20
-888.4496165261527
  0
VERTEX
  8
1
 10
1217.0907026716604
 20
-889.3899640669542
  0
VERTEX
  8
1
 10
1219.2777026716603
 20
-893.8809640669542
  0
VERTEX
  8
1
 10
1221.1037171424773
 20
-897.5459568315458
  0
VERTEX
  8
1
 10
1221.5287026716605
 20
-898.3379640669542
  0
VERTEX
  8
1
 10
1223.8517026716604
 20
-902.7619640669542
  0
VERTEX
  8
1
 10
1225.9149835248581
 20
-906.6903236403555
  0
VERTEX
  8
1
 10
1226.1747026716605
 20
-907.1859640669542
  0
VERTEX
  8
1
 10
1228.4977026716604
 20
-911.5999640669543
  0
VERTEX
  8
1
 10
1232.1417026716604
 20
-918.5269640669543
  0
VERTEX
  8
1
 10
1227.1327026716604
 20
-920.6729640669543
  0
VERTEX
  8
1
 10
1222.1337026716606
 20
-922.8189640669542
  0
VERTEX
  8
1
 10
1219.6627702125038
 20
-923.872964886495
  0
VERTEX
  8
1
 10
1217.1257026716605
 20
-924.9569640669542
  0
VERTEX
  8
1
 10
1217.0617026716604
 20
-924.9869640669542
  0
VERTEX
  8
1
 10
1214.936825023737
 20
-926.0020864190308
  0
VERTEX
  8
1
 10
1212.86031003186
 20
-927.1655714271541
  0
VERTEX
  8
1
 10
1212.3247026716604
 20
-927.5139640669541
  0
VERTEX
  8
1
 10
1210.869834636488
 20
-928.4509353481909
  0
VERTEX
  8
1
 10
1208.8348894522394
 20
-929.9492565750196
  0
VERTEX
  8
1
 10
1207.9307026716606
 20
-930.7089640669542
  0
VERTEX
  8
1
 10
1206.9053753481658
 20
-931.5419431235953
  0
VERTEX
  8
1
 10
1205.0386617403135
 20
-933.265911438295
  0
VERTEX
  8
1
 10
1203.9357026716605
 20
-934.4059640669542
  0
VERTEX
  8
1
 10
1203.4676681350302
 20
-934.8911748562898
  0
VERTEX
  8
1
 10
1201.140524498874
 20
-937.864583575397
  0
VERTEX
  8
1
 10
1200.6057026716603
 20
-938.6679640669543
  0
VERTEX
  8
1
 10
1199.0438672179998
 20
-941.1334950254244
  0
VERTEX
  8
1
 10
1197.8557026716603
 20
-943.3639640669543
  0
VERTEX
  8
1
 10
1197.2144257178024
 20
-944.5941292207987
  0
VERTEX
  8
1
 10
1195.6517026716606
 20
-948.2669640669543
  0
VERTEX
  8
1
 10
1195.6347026716605
 20
-948.3259640669543
  0
VERTEX
  8
1
 10
1193.9117026716604
 20
-953.4929640669542
  0
VERTEX
  8
1
 10
1193.387187830349
 20
-955.1597910884393
  0
VERTEX
  8
1
 10
1192.4497026716604
 20
-958.7339640669542
  0
VERTEX
  8
1
 10
1191.561650340675
 20
-962.2569902324469
  0
VERTEX
  8
1
 10
1191.2017026716603
 20
-964.0329640669542
  0
VERTEX
  8
1
 10
1190.1997026716604
 20
-969.3859640669542
  0
VERTEX
  8
1
 10
1190.1803040974014
 20
-969.4883626412135
  0
VERTEX
  8
1
 10
1189.3417026716604
 20
-975.2769640669543
  0
VERTEX
  8
1
 10
1191.3217026716604
 20
-975.5369640669543
  0
VERTEX
  8
1
 10
1191.1010472856294
 20
-977.4289053102528
  0
VERTEX
  8
1
 10
1188.1277026716605
 20
-997.7139640669542
  0
VERTEX
  8
1
 10
1184.7477026716604
 20
-1019.8659640669542
  0
VERTEX
  8
1
 10
1181.3567026716605
 20
-1042.0169640669544
  0
VERTEX
  8
1
 10
1177.9667026716604
 20
-1064.1689640669545
  0
VERTEX
  8
1
 10
1174.5767026716603
 20
-1086.3199640669543
  0
VERTEX
  8
1
 10
1171.1867026716604
 20
-1108.4719640669543
  0
VERTEX
  8
1
 10
1167.7967026716606
 20
-1130.6329640669544
  0
VERTEX
  8
1
 10
1165.0978226157429
 20
-1148.26425626172
  0
VERTEX
  8
1
 10
1163.2817026716605
 20
-1160.1669640669545
  0
VERTEX
  8
1
 10
1147.599510145779
 20
-1157.2614470376418
  0
VERTEX
  8
1
 10
1140.4367026716604
 20
-1155.9449640669543
  0
VERTEX
  8
1
 10
1139.440251586645
 20
-1155.7634734492688
  0
VERTEX
  8
1
 10
1131.7928027437424
 20
-1154.4767409151298
  0
VERTEX
  8
1
 10
1124.4903968944832
 20
-1153.3612751594026
  0
VERTEX
  8
1
 10
1117.5017026716605
 20
-1152.4069640669543
  0
VERTEX
  8
1
 10
1117.4837026716605
 20
-1152.4049640669543
  0
VERTEX
  8
1
 10
1110.7857794364622
 20
-1151.6024417914175
  0
VERTEX
  8
1
 10
1104.330293225987
 20
-1150.9384688329717
  0
VERTEX
  8
1
 10
1094.3747026716605
 20
-1150.1189640669543
  0
VERTEX
  8
1
 10
1091.7231864832543
 20
-1149.9062983234674
  0
VERTEX
  8
1
 10
1079.4932142507719
 20
-1149.2132310091577
  0
VERTEX
  8
1
 10
1054.4817026716605
 20
-1148.3069640669544
  0
VERTEX
  8
1
 10
1054.0247026716604
 20
-1142.2969640669544
  0
VERTEX
  8
1
 10
1053.6350915419641
 20
-1137.1773868889106
  0
VERTEX
  8
1
 10
1053.5657026716603
 20
-1136.2859640669542
  0
VERTEX
  8
1
 10
1053.3899851802828
 20
-1134.3114998873236
  0
VERTEX
  8
1
 10
1053.0414200458347
 20
-1131.6911723454086
  0
VERTEX
  8
1
 10
1052.7987026716605
 20
-1130.3089640669543
  0
VERTEX
  8
1
 10
1052.5893116133154
 20
-1129.0872305496546
  0
VERTEX
  8
1
 10
1052.0336226922561
 20
-1126.4998560818865
  0
VERTEX
  8
1
 10
1051.4857026716604
 20
-1124.4259640669545
  0
VERTEX
  8
1
 10
1051.3620043929866
 20
-1123.9455153101346
  0
VERTEX
  8
1
 10
1050.5941142922663
 20
-1121.4214835707255
  0
VERTEX
  8
1
 10
1049.7162124217944
 20
-1118.9274433309404
  0
VERTEX
  8
1
 10
1049.6257026716605
 20
-1118.7009640669542
  0
VERTEX
  8
1
 10
1048.7546763505015
 20
-1116.4737551810128
  0
VERTEX
  8
1
 10
1047.6738233495419
 20
-1114.049312117733
  0
VERTEX
  8
1
 10
1047.2337026716605
 20
-1113.1679640669543
  0
VERTEX
  8
1
 10
1046.5076892440727
 20
-1111.6856918774254
  0
VERTEX
  8
1
 10
1045.2491605910466
 20
-1109.3615531745115
  0
VERTEX
  8
1
 10
1044.3587026716605
 20
-1107.8779640669543
  0
VERTEX
  8
1
 10
1043.8940229868751
 20
-1107.0962700073858
  0
VERTEX
  8
1
 10
1042.4440980211418
 20
-1104.877551044394
  0
VERTEX
  8
1
 10
1041.0047026716604
 20
-1102.8689640669543
  0
VERTEX
  8
1
 10
1040.9060186390634
 20
-1102.7287222196887
  0
VERTEX
  8
1
 10
1039.2882742469117
 20
-1100.6414928510685
  0
VERTEX
  8
1
 10
1037.5906426305883
 20
-1098.6244270073996
  0
VERTEX
  8
1
 10
1037.2037026716605
 20
-1098.2049640669543
  0
VERTEX
  8
1
 10
1035.7082818584008
 20
-1096.5731618064017
  0
VERTEX
  8
1
 10
1033.7458724873745
 20
-1094.5999272813112
  0
VERTEX
  8
1
 10
1032.9907026716605
 20
-1093.8999640669542
  0
VERTEX
  8
1
 10
1031.6917752872398
 20
-1092.7153821184636
  0
VERTEX
  8
1
 10
1029.550630073921
 20
-1090.925712702925
  0
VERTEX
  8
1
 10
1028.3767026716605
 20
-1090.0239640669545
  0
VERTEX
  8
1
 10
1027.3374210914585
 20
-1089.2326824867525
  0
VERTEX
  8
1
 10
1025.0617585344444
 20
-1087.6370199297382
  0
VERTEX
  8
1
 10
1023.4397026716604
 20
-1086.6019640669545
  0
VERTEX
  8
1
 10
1022.7117750015079
 20
-1086.1427403496807
  0
VERTEX
  8
1
 10
1020.302727789871
 20
-1084.762128453992
  0
VERTEX
  8
1
 10
1018.1857026716605
 20
-1083.6559640669543
  0
VERTEX
  8
1
 10
1017.8317502977467
 20
-1083.4729974052148
  0
VERTEX
  8
1
 10
1015.3016937711702
 20
-1082.2949578366113
  0
VERTEX
  8
1
 10
1012.7217026716604
 20
-1081.2369640669542
  0
VERTEX
  8
1
 10
1012.6807026716605
 20
-1081.2229640669543
  0
VERTEX
  8
1
 10
1010.1110284463186
 20
-1080.2862065022175
  0
VERTEX
  8
1
 10
1007.457716669965
 20
-1079.4437472916668
  0
VERTEX
  8
1
 10
1006.9697026716605
 20
-1079.3109640669543
  0
VERTEX
  8
1
 10
1004.7670305992717
 20
-1078.7189611183785
  0
VERTEX
  8
1
 10
1002.0444027164356
 20
-1078.1157095459225
  0
VERTEX
  8
1
 10
1001.0967026716604
 20
-1077.9429640669543
  0
VERTEX
  8
1
 10
999.069201361657
 20
-1077.6471725094545
  0
VERTEX
  8
1
 10
995.1337026716604
 20
-1077.1039640669544
  0
VERTEX
  8
1
 10
989.1467026716605
 20
-1076.3699640669543
  0
VERTEX
  8
1
 10
988.4271573444811
 20
-1076.2753915612855
  0
VERTEX
  8
1
 10
983.1527026716604
 20
-1075.7199640669544
  0
VERTEX
  8
1
 10
977.8229188332261
 20
-1075.1591664147663
  0
VERTEX
  8
1
 10
977.1527026716604
 20
-1075.1059640669544
  0
VERTEX
  8
1
 10
971.1487026716604
 20
-1074.5929640669544
  0
VERTEX
  8
1
 10
967.2159443981582
 20
-1074.243512907885
  0
VERTEX
  8
1
 10
965.1387026716604
 20
-1074.1139640669544
  0
VERTEX
  8
1
 10
959.1217026716604
 20
-1073.7199640669544
  0
VERTEX
  8
1
 10
956.5838667743334
 20
-1073.5358446530504
  0
VERTEX
  8
1
 10
953.1087026716605
 20
-1073.3739640669544
  0
VERTEX
  8
1
 10
947.0837026716604
 20
-1073.1049640669544
  0
VERTEX
  8
1
 10
945.5632714212906
 20
-1073.0216979954198
  0
VERTEX
  8
1
 10
941.0637026716604
 20
-1072.8859640669543
  0
VERTEX
  8
1
 10
935.0347026716604
 20
-1072.7339640669543
  0
VERTEX
  8
1
 10
934.5423186483189
 20
-1072.7163531696374
  0
VERTEX
  8
1
 10
929.0037026716604
 20
-1072.6619640669544
  0
VERTEX
  8
1
 10
923.5033336470973
 20
-1072.6175077254331
  0
VERTEX
  8
1
 10
922.9737026716605
 20
-1072.6269640669543
  0
VERTEX
  8
1
 10
916.9477026716604
 20
-1072.7039640669543
  0
VERTEX
  8
1
 10
912.336253216073
 20
-1072.7621934604595
  0
VERTEX
  8
1
 10
910.9207026716605
 20
-1072.7789640669544
  0
VERTEX
  8
1
 10
904.8937026716604
 20
-1072.8599640669543
  0
VERTEX
  8
1
 10
897.8917026716605
 20
-1072.9569640669545
  0
VERTEX
  8
1
 10
898.1059982204002
 20
-1062.1826685182145
  0
VERTEX
  8
1
 10
898.4947026716604
 20
-1041.9139640669543
  0
VERTEX
  8
1
 10
898.8867026716605
 20
-1021.6779640669541
  0
VERTEX
  8
1
 10
899.2787026716604
 20
-1001.4319640669543
  0
VERTEX
  8
1
 10
899.6707026716605
 20
-981.1949640669542
  0
VERTEX
  8
1
 10
900.0627026716604
 20
-960.9489640669542
  0
VERTEX
  8
1
 10
900.4547026716605
 20
-940.7119640669542
  0
VERTEX
  8
1
 10
900.8467026716604
 20
-920.4659640669543
  0
VERTEX
  8
1
 10
901.0107540201502
 20
-911.3088613699748
  0
VERTEX
  8
1
 10
901.3714448167719
 20
-900.4974797767313
  0
VERTEX
  8
1
 10
901.3897026716604
 20
-900.2369640669542
  0
VERTEX
  8
1
 10
903.1587026716604
 20
-880.0659640669543
  0
VERTEX
  8
1
 10
905.0177026716605
 20
-859.9059640669542
  0
VERTEX
  8
1
 10
905.8892393252299
 20
-850.1921460997941
  0
VERTEX
  8
1
 10
906.8907026716604
 20
-839.7489640669543
  0
VERTEX
  8
1
 10
908.7527026716605
 20
-819.5879640669542
  0
VERTEX
  8
1
 10
910.5525070814277
 20
-799.9972427212036
  0
VERTEX
  8
1
 10
910.6077026716605
 20
-799.4359640669542
  0
VERTEX
  8
1
 10
912.4197026716604
 20
-779.2649640669542
  0
VERTEX
  8
1
 10
913.9513002786798
 20
-762.0413360083072
  0
VERTEX
  8
1
 10
914.1117026716604
 20
-760.5169640669542
  0
VERTEX
  8
1
 10
917.0978269708314
 20
-760.805168282573
  0
VERTEX
  8
1
 10
914.1117026716604
 20
-760.5169640669542
  0
VERTEX
  8
1
 10
914.2347026716604
 20
-759.1049640669543
  0
VERTEX
  8
1
 10
916.0507026716605
 20
-738.9369640669543
  0
VERTEX
  8
1
 10
917.4185593010654
 20
-724.0774787634302
  0
VERTEX
  8
1
 10
917.8307026716604
 20
-718.7719640669542
  0
VERTEX
  8
1
 10
919.2280159654184
 20
-701.352438749451
  0
VERTEX
  8
1
 10
919.4327026716604
 20
-698.5889640669542
  0
VERTEX
  8
1
 10
920.890833547015
 20
-678.617398629277
  0
VERTEX
  8
1
 10
920.9057026716605
 20
-678.3979640669543
  0
VERTEX
  8
1
 10
922.2667026716605
 20
-658.2079640669542
  0
VERTEX
  8
1
 10
922.4220643497765
 20
-655.881207579112
  0
VERTEX
  8
1
 10
923.5087026716604
 20
-637.9919640669542
  0
VERTEX
  8
1
 10
923.8033244930446
 20
-633.1373543685613
  0
VERTEX
  8
1
 10
924.6407026716604
 20
-617.7799640669542
  0
VERTEX
  8
1
 10
925.0447282026773
 20
-610.362286053169
  0
VERTEX
  8
1
 10
925.6637026716604
 20
-597.5619640669543
  0
VERTEX
  8
1
 10
926.1411272979972
 20
-587.5972517537858
  0
VERTEX
  8
1
 10
926.5657026716605
 20
-577.3389640669542
  0
VERTEX
  8
1
 10
927.080975728558
 20
-564.8823275385055
  0
VERTEX
  8
1
 10
927.3337026716604
 20
-557.1119640669542
  0
VERTEX
  8
1
 10
927.8136195192802
 20
-542.0998806043686
  0
VERTEX
  8
1
 10
927.9787026716605
 20
-536.8709640669542
  0
VERTEX
  8
1
 10
928.6187026716605
 20
-516.6399640669542
  0
VERTEX
  8
1
 10
929.2587026716604
 20
-496.4089640669543
  0
VERTEX
  8
1
 10
929.7898820421818
 20
-479.5854073737247
  0
VERTEX
  8
1
 10
929.8867026716605
 20
-476.1669640669543
  0
VERTEX
  8
1
 10
930.4527026716604
 20
-455.9339640669543
  0
VERTEX
  8
1
 10
931.0177026716605
 20
-435.6909640669543
  0
VERTEX
  8
1
 10
931.5367735472125
 20
-417.1202501499195
  0
VERTEX
  8
1
 10
931.5787026716604
 20
-415.4579640669543
  0
VERTEX
  8
1
 10
931.9055210884413
 20
-402.79192497165093
  0
VERTEX
  8
1
 10
931.9317026716604
 20
-401.8569640669543
  0
VERTEX
  8
1
 10
934.9306952038993
 20
-401.9347058933783
  0
VERTEX
  8
1
 10
931.9317026716604
 20
-401.8569640669543
  0
VERTEX
  8
1
 10
932.1017026716604
 20
-395.2239640669543
  0
VERTEX
  8
1
 10
932.6157026716604
 20
-374.9799640669543
  0
VERTEX
  8
1
 10
933.1397026716604
 20
-354.7449640669543
  0
VERTEX
  8
1
 10
933.1417026716605
 20
-354.6469640669543
  0
VERTEX
  8
1
 10
933.6107026716604
 20
-334.4999640669543
  0
VERTEX
  8
1
 10
934.0927026716604
 20
-314.2649640669543
  0
VERTEX
  8
1
 10
934.5637026716604
 20
-294.0199640669543
  0
VERTEX
  8
1
 10
934.6071782394026
 20
-292.1733136884595
  0
VERTEX
  8
1
 10
934.9947026716604
 20
-273.78396406695424
  0
VERTEX
  8
1
 10
935.4207026716605
 20
-253.53796406695432
  0
VERTEX
  8
1
 10
935.8457026716604
 20
-233.30196406695427
  0
VERTEX
  8
1
 10
935.9224427812592
 20
-229.67980399388847
  0
VERTEX
  8
1
 10
936.2327026716605
 20
-213.06596406695428
  0
VERTEX
  8
1
 10
936.6097026716604
 20
-192.81896406695432
  0
VERTEX
  8
1
 10
936.9867026716604
 20
-172.5819640669543
  0
VERTEX
  8
1
 10
937.087700474739
 20
-167.1836325643888
  0
VERTEX
  8
1
 10
937.3317026716604
 20
-152.33496406695429
  0
VERTEX
  8
1
 10
937.6637026716604
 20
-132.09696406695429
  0
VERTEX
  8
1
 10
937.9957026716604
 20
-111.84996406695431
  0
VERTEX
  8
1
 10
938.1129219859354
 20
-104.6928178574377
  0
VERTEX
  8
1
 10
938.2967026716605
 20
-91.61196406695426
  0
VERTEX
  8
1
 10
938.5717026716604
 20
-71.36396406695432
  0
VERTEX
  8
1
 10
938.8557026716604
 20
-51.12596406695427
  0
VERTEX
  8
1
 10
938.938377085354
 20
-42.4969756874945
  0
VERTEX
  8
1
 10
941.9380602559061
 20
-42.54057472769402
  0
VERTEX
  8
1
 10
938.938377085354
 20
-42.4969756874945
  0
VERTEX
  8
1
 10
938.9817026716604
 20
-42.456964066954285
  0
VERTEX
  8
1
 10
938.5617026716604
 20
-12.276964066954221
  0
VERTEX
  8
1
 10
938.5617026716604
 20
-12.276964066954221
  0
VERTEX
  8
1
 10
961.4727026716604
 20
-12.276964066954221
  0
VERTEX
  8
1
 10
962.4727026716604
 20
-12.276964066954221
  0
SEQEND
  0
ENDBLK
  0
BLOCK
  2
15
  8
1
 10
0
 20
0
 70
64
  0
POLYLINE
  8
1
  62
3
10
0
 20
0
 66
1
  0
VERTEX
  8
1
 10
995.0452062283395
 20
-1084.3900127669542
  0
VERTEX
  8
1
 10
972.1342062283395
 20
-1084.3900127669542
  0
VERTEX
  8
1
 10
949.2132062283395
 20
-1084.3900127669542
  0
VERTEX
  8
1
 10
926.3032062283395
 20
-1084.3900127669542
  0
VERTEX
  8
1
 10
903.3922062283395
 20
-1084.3900127669542
  0
VERTEX
  8
1
 10
880.4712062283395
 20
-1084.4100127669542
  0
VERTEX
  8
1
 10
857.5602062283394
 20
-1084.4700127669541
  0
VERTEX
  8
1
 10
834.6492062283395
 20
-1084.530012766954
  0
VERTEX
  8
1
 10
811.7292062283395
 20
-1084.5900127669543
  0
VERTEX
  8
1
 10
791.9652062283394
 20
-1084.3900127669542
  0
VERTEX
  8
1
 10
778.9652062283394
 20
-1084.6700127669542
  0
VERTEX
  8
1
 10
779.0772062283395
 20
-1089.6650127669543
  0
VERTEX
  8
1
 10
779.1792062283395
 20
-1094.6600127669542
  0
VERTEX
  8
1
 10
779.2912062283394
 20
-1099.6450127669543
  0
VERTEX
  8
1
 10
779.3942062283395
 20
-1104.6390127669542
  0
VERTEX
  8
1
 10
779.5062062283395
 20
-1109.6340127669544
  0
VERTEX
  8
1
 10
779.6052062283395
 20
-1114.4100127669542
  0
VERTEX
  8
1
 10
782.6045841568314
 20
-1114.3489223251888
  0
VERTEX
  8
1
 10
779.6052062283395
 20
-1114.4100127669542
  0
VERTEX
  8
1
 10
779.6049081218164
 20
-1114.4800127669544
  0
VERTEX
  8
1
 10
779.6022062283395
 20
-1114.6290127669542
  0
VERTEX
  8
1
 10
779.4912062283395
 20
-1119.6240127669541
  0
VERTEX
  8
1
 10
779.3892062283394
 20
-1124.6190127669543
  0
VERTEX
  8
1
 10
779.2772062283395
 20
-1129.6040127669542
  0
VERTEX
  8
1
 10
779.1752062283394
 20
-1134.5990127669543
  0
VERTEX
  8
1
 10
779.0642062283395
 20
-1139.5940127669544
  0
VERTEX
  8
1
 10
778.9622062283395
 20
-1144.5880127669543
  0
VERTEX
  8
1
 10
778.8502062283394
 20
-1149.5830127669542
  0
VERTEX
  8
1
 10
778.7492062283395
 20
-1154.5780127669543
  0
VERTEX
  8
1
 10
778.6372062283394
 20
-1159.5630127669542
  0
VERTEX
  8
1
 10
778.5352062283395
 20
-1164.5580127669543
  0
VERTEX
  8
1
 10
778.4242062283395
 20
-1169.5530127669542
  0
VERTEX
  8
1
 10
778.3222062283395
 20
-1174.5480127669541
  0
VERTEX
  8
1
 10
778.2102062283395
 20
-1179.5430127669542
  0
VERTEX
  8
1
 10
778.1082062283394
 20
-1184.5370127669541
  0
VERTEX
  8
1
 10
777.9972062283395
 20
-1189.5220127669543
  0
VERTEX
  8
1
 10
777.8952062283395
 20
-1194.5170127669542
  0
VERTEX
  8
1
 10
777.7832062283394
 20
-1199.5120127669543
  0
VERTEX
  8
1
 10
777.6822062283395
 20
-1204.5070127669542
  0
VERTEX
  8
1
 10
777.5702062283394
 20
-1209.5020127669543
  0
VERTEX
  8
1
 10
777.4682062283395
 20
-1214.4970127669542
  0
VERTEX
  8
1
 10
777.3572062283395
 20
-1219.4820127669543
  0
VERTEX
  8
1
 10
777.2552062283395
 20
-1224.4760127669542
  0
VERTEX
  8
1
 10
777.1432062283395
 20
-1229.4710127669543
  0
VERTEX
  8
1
 10
777.0412062283394
 20
-1234.4660127669542
  0
VERTEX
  8
1
 10
776.9302062283394
 20
-1239.4610127669541
  0
VERTEX
  8
1
 10
776.8282062283395
 20
-1244.4560127669542
  0
VERTEX
  8
1
 10
776.7162062283394
 20
-1249.4410127669541
  0
VERTEX
  8
1
 10
776.6152062283395
 20
-1254.4360127669543
  0
VERTEX
  8
1
 10
776.5032062283394
 20
-1259.4310127669544
  0
VERTEX
  8
1
 10
776.4012062283394
 20
-1264.4250127669543
  0
VERTEX
  8
1
 10
776.2902062283395
 20
-1269.4200127669544
  0
VERTEX
  8
1
 10
776.1882062283395
 20
-1274.4150127669543
  0
VERTEX
  8
1
 10
776.0762062283395
 20
-1279.4000127669542
  0
VERTEX
  8
1
 10
775.9742062283394
 20
-1284.3950127669543
  0
VERTEX
  8
1
 10
775.8632062283394
 20
-1289.3900127669542
  0
VERTEX
  8
1
 10
775.7612062283395
 20
-1294.3850127669543
  0
VERTEX
  8
1
 10
775.6492062283394
 20
-1299.3800127669542
  0
VERTEX
  8
1
 10
775.5482062283395
 20
-1304.3740127669544
  0
VERTEX
  8
1
 10
775.4362062283394
 20
-1309.3590127669543
  0
VERTEX
  8
1
 10
775.3342062283394
 20
-1314.3540127669542
  0
VERTEX
  8
1
 10
775.2232062283394
 20
-1319.3490127669543
  0
VERTEX
  8
1
 10
775.1212062283395
 20
-1324.3440127669544
  0
VERTEX
  8
1
 10
775.0092062283395
 20
-1329.3390127669543
  0
VERTEX
  8
1
 10
774.9072062283394
 20
-1334.3340127669542
  0
VERTEX
  8
1
 10
774.7962062283395
 20
-1339.3190127669543
  0
VERTEX
  8
1
 10
774.6942062283395
 20
-1344.3130127669542
  0
VERTEX
  8
1
 10
774.5822062283395
 20
-1349.3080127669543
  0
VERTEX
  8
1
 10
774.4712062283395
 20
-1354.3030127669542
  0
VERTEX
  8
1
 10
774.3692062283394
 20
-1359.2980127669541
  0
VERTEX
  8
1
 10
774.2668999374418
 20
-1363.8700127669542
  0
VERTEX
  8
1
 10
774.2572062283394
 20
-1364.2930127669542
  0
VERTEX
  8
1
 10
774.1552062283395
 20
-1369.2780127669541
  0
VERTEX
  8
1
 10
774.0442062283395
 20
-1374.2730127669543
  0
VERTEX
  8
1
 10
773.9422062283395
 20
-1379.2680127669544
  0
VERTEX
  8
1
 10
773.8302062283394
 20
-1384.2620127669543
  0
VERTEX
  8
1
 10
773.7282062283394
 20
-1389.2570127669542
  0
VERTEX
  8
1
 10
773.6172062283395
 20
-1394.2520127669543
  0
VERTEX
  8
1
 10
773.5152062283395
 20
-1399.2370127669544
  0
VERTEX
  8
1
 10
773.4032062283395
 20
-1404.2320127669543
  0
VERTEX
  8
1
 10
773.3052062283394
 20
-1409.0500127669543
  0
VERTEX
  8
1
 10
776.3045856660208
 20
-1409.1110290665322
  0
VERTEX
  8
1
 10
773.3052062283394
 20
-1409.0500127669543
  0
VERTEX
  8
1
 10
773.3056006364304
 20
-1409.0300127669543
  0
VERTEX
  8
1
 10
773.3012062283394
 20
-1409.2270127669542
  0
VERTEX
  8
1
 10
773.1902062283394
 20
-1414.2220127669543
  0
VERTEX
  8
1
 10
773.0882062283395
 20
-1419.2170127669542
  0
VERTEX
  8
1
 10
772.9862062283395
 20
-1424.2110127669544
  0
VERTEX
  8
1
 10
772.8742062283395
 20
-1429.1960127669543
  0
VERTEX
  8
1
 10
772.7722062283394
 20
-1434.1910127669544
  0
VERTEX
  8
1
 10
772.6612062283394
 20
-1439.1860127669543
  0
VERTEX
  8
1
 10
772.5592062283395
 20
-1444.1810127669544
  0
VERTEX
  8
1
 10
772.4472062283394
 20
-1449.1760127669543
  0
VERTEX
  8
1
 10
772.3452062283395
 20
-1454.1710127669542
  0
VERTEX
  8
1
 10
772.2342062283394
 20
-1459.1560127669543
  0
VERTEX
  8
1
 10
772.1322062283394
 20
-1464.1500127669542
  0
VERTEX
  8
1
 10
772.0202062283395
 20
-1469.1450127669543
  0
VERTEX
  8
1
 10
771.9182062283394
 20
-1474.1400127669542
  0
VERTEX
  8
1
 10
771.8062062283395
 20
-1479.1350127669543
  0
VERTEX
  8
1
 10
771.7052062283394
 20
-1484.1300127669542
  0
VERTEX
  8
1
 10
771.5932062283395
 20
-1489.1150127669544
  0
VERTEX
  8
1
 10
771.4912062283395
 20
-1494.1100127669542
  0
VERTEX
  8
1
 10
771.3792062283394
 20
-1499.1050127669544
  0
VERTEX
  8
1
 10
771.2772062283395
 20
-1504.0990127669543
  0
VERTEX
  8
1
 10
771.1662062283394
 20
-1509.0940127669544
  0
VERTEX
  8
1
 10
771.0642062283395
 20
-1514.0890127669543
  0
VERTEX
  8
1
 10
770.9522062283395
 20
-1519.0740127669542
  0
VERTEX
  8
1
 10
770.8502062283394
 20
-1524.0690127669543
  0
VERTEX
  8
1
 10
770.7382062283394
 20
-1529.0640127669542
  0
VERTEX
  8
1
 10
770.6372062283394
 20
-1534.0590127669543
  0
VERTEX
  8
1
 10
770.5252062283395
 20
-1539.0530127669542
  0
VERTEX
  8
1
 10
770.4232062283395
 20
-1544.0480127669543
  0
VERTEX
  8
1
 10
770.3112062283394
 20
-1549.0330127669542
  0
VERTEX
  8
1
 10
770.2102062283395
 20
-1554.0280127669544
  0
VERTEX
  8
1
 10
770.0982062283394
 20
-1559.0230127669543
  0
VERTEX
  8
1
 10
769.9962062283395
 20
-1564.0180127669544
  0
VERTEX
  8
1
 10
769.8842062283395
 20
-1569.0130127669543
  0
VERTEX
  8
1
 10
769.7822062283394
 20
-1574.0080127669542
  0
VERTEX
  8
1
 10
769.6712062283395
 20
-1578.9920127669543
  0
VERTEX
  8
1
 10
769.5692062283395
 20
-1583.9870127669542
  0
VERTEX
  8
1
 10
769.4572062283395
 20
-1588.9820127669543
  0
VERTEX
  8
1
 10
769.3552062283395
 20
-1593.9770127669542
  0
VERTEX
  8
1
 10
769.2432062283394
 20
-1598.9720127669543
  0
VERTEX
  8
1
 10
769.1422062283394
 20
-1603.9670127669542
  0
VERTEX
  8
1
 10
769.0302062283395
 20
-1608.9520127669543
  0
VERTEX
  8
1
 10
768.9359607938853
 20
-1613.5700127669543
  0
VERTEX
  8
1
 10
768.9342062283395
 20
-1613.9470127669542
  0
VERTEX
  8
1
 10
768.8662062283395
 20
-1618.9420127669543
  0
VERTEX
  8
1
 10
768.7972062283395
 20
-1623.9380127669542
  0
VERTEX
  8
1
 10
768.7282062283394
 20
-1628.9340127669543
  0
VERTEX
  8
1
 10
768.6592062283395
 20
-1633.9290127669542
  0
VERTEX
  8
1
 10
768.6293764263335
 20
-1636.5048468065531
  0
VERTEX
  8
1
 10
768.5762062283395
 20
-1638.9150127669543
  0
VERTEX
  8
1
 10
768.4672062283394
 20
-1643.9100127669542
  0
VERTEX
  8
1
 10
768.3582062283394
 20
-1648.9060127669543
  0
VERTEX
  8
1
 10
768.2482062283394
 20
-1653.9010127669542
  0
VERTEX
  8
1
 10
768.1292062283394
 20
-1658.8860127669543
  0
VERTEX
  8
1
 10
768.1225321623683
 20
-1659.2200127669544
  0
VERTEX
  8
1
 10
767.9782062283394
 20
-1663.8810127669542
  0
VERTEX
  8
1
 10
767.8242062283396
 20
-1668.8750127669543
  0
VERTEX
  8
1
 10
767.6602062283395
 20
-1673.8700127669542
  0
VERTEX
  8
1
 10
767.4962062283395
 20
-1678.8540127669542
  0
VERTEX
  8
1
 10
767.4066698837489
 20
-1681.9400127669542
  0
VERTEX
  8
1
 10
767.3322062283395
 20
-1683.8480127669543
  0
VERTEX
  8
1
 10
767.1282062283394
 20
-1688.8410127669542
  0
VERTEX
  8
1
 10
766.9242062283395
 20
-1693.8340127669542
  0
VERTEX
  8
1
 10
766.7265442286355
 20
-1698.6503472670283
  0
VERTEX
  8
1
 10
769.7240283281005
 20
-1698.7731848567716
  0
VERTEX
  8
1
 10
766.7265442286355
 20
-1698.6503472670283
  0
VERTEX
  8
1
 10
766.7252062283394
 20
-1698.6900127669542
  0
VERTEX
  8
1
 10
766.7192062283395
 20
-1698.8170127669543
  0
VERTEX
  8
1
 10
766.5132062283394
 20
-1703.8100127669543
  0
VERTEX
  8
1
 10
766.4818814403905
 20
-1704.6400127669542
  0
VERTEX
  8
1
 10
766.2822062283394
 20
-1708.8010127669543
  0
VERTEX
  8
1
 10
766.0232062283394
 20
-1713.7820127669543
  0
VERTEX
  8
1
 10
765.7732062283394
 20
-1718.7730127669543
  0
VERTEX
  8
1
 10
765.5242062283394
 20
-1723.7640127669542
  0
VERTEX
  8
1
 10
765.3507552164803
 20
-1727.3700127669542
  0
VERTEX
  8
1
 10
765.2702062283395
 20
-1728.7540127669542
  0
VERTEX
  8
1
 10
764.9702062283395
 20
-1733.7320127669543
  0
VERTEX
  8
1
 10
764.6792062283395
 20
-1738.7210127669543
  0
VERTEX
  8
1
 10
764.3792062283395
 20
-1743.7090127669542
  0
VERTEX
  8
1
 10
764.0892062283394
 20
-1748.6970127669542
  0
VERTEX
  8
1
 10
764.0124744160294
 20
-1750.057280954644
  0
VERTEX
  8
1
 10
763.7702062283395
 20
-1753.6740127669543
  0
VERTEX
  8
1
 10
763.4272062283394
 20
-1758.6590127669542
  0
VERTEX
  8
1
 10
763.0842062283394
 20
-1763.6440127669543
  0
VERTEX
  8
1
 10
762.7412062283395
 20
-1768.6290127669542
  0
VERTEX
  8
1
 10
762.4669605245062
 20
-1772.731767063121
  0
VERTEX
  8
1
 10
762.3992062283395
 20
-1773.6040127669542
  0
VERTEX
  8
1
 10
762.0222062283394
 20
-1778.5850127669544
  0
VERTEX
  8
1
 10
761.6262062283395
 20
-1783.5670127669543
  0
VERTEX
  8
1
 10
761.2392062283394
 20
-1788.5480127669543
  0
VERTEX
  8
1
 10
760.8532062283394
 20
-1793.5200127669543
  0
VERTEX
  8
1
 10
760.7225139384358
 20
-1795.3400127669543
  0
VERTEX
  8
1
 10
760.4482062283395
 20
-1798.4970127669542
  0
VERTEX
  8
1
 10
759.9862062283394
 20
-1803.4730127669543
  0
VERTEX
  8
1
 10
759.7080590803162
 20
-1806.6700127669542
  0
VERTEX
  8
1
 10
759.5152062283395
 20
-1808.4440127669543
  0
VERTEX
  8
1
 10
758.9552062283394
 20
-1813.4080127669542
  0
VERTEX
  8
1
 10
758.4452062283394
 20
-1817.9300127669542
  0
VERTEX
  8
1
 10
758.3862062283395
 20
-1818.3710127669542
  0
VERTEX
  8
1
 10
757.7342062283394
 20
-1823.3220127669542
  0
VERTEX
  8
1
 10
757.0822062283395
 20
-1828.2740127669542
  0
VERTEX
  8
1
 10
756.9652062283394
 20
-1829.1500127669542
  0
VERTEX
  8
1
 10
756.3402062283394
 20
-1833.2140127669543
  0
VERTEX
  8
1
 10
755.5902062283394
 20
-1838.1520127669544
  0
VERTEX
  8
1
 10
755.2507947221859
 20
-1840.3300127669543
  0
VERTEX
  8
1
 10
754.7602062283395
 20
-1843.0790127669543
  0
VERTEX
  8
1
 10
753.9022062283394
 20
-1847.9990127669544
  0
VERTEX
  8
1
 10
753.2780896206762
 20
-1851.492896159291
  0
VERTEX
  8
1
 10
752.9952062283394
 20
-1852.9030127669544
  0
VERTEX
  8
1
 10
752.0452062283395
 20
-1857.8140127669542
  0
VERTEX
  8
1
 10
751.0658457099798
 20
-1862.600225927501
  0
VERTEX
  8
1
 10
751.0422062283394
 20
-1862.7040127669543
  0
VERTEX
  8
1
 10
750.0052062283394
 20
-1867.5840127669542
  0
VERTEX
  8
1
 10
748.9192062283395
 20
-1872.4650127669543
  0
VERTEX
  8
1
 10
748.6576756721354
 20
-1873.6700127669542
  0
VERTEX
  8
1
 10
747.7812062283394
 20
-1877.3260127669544
  0
VERTEX
  8
1
 10
746.5082062283395
 20
-1882.1520127669544
  0
VERTEX
  8
1
 10
745.8679774699335
 20
-1884.3722331216954
  0
VERTEX
  8
1
 10
744.9782062283394
 20
-1886.9070127669543
  0
VERTEX
  8
1
 10
743.4522062283395
 20
-1891.6590127669542
  0
VERTEX
  8
1
 10
741.9052062283395
 20
-1896.4100127669542
  0
VERTEX
  8
1
 10
741.1254764315858
 20
-1898.770102834703
  0
VERTEX
  8
1
 10
740.2892062283395
 20
-1901.1360127669543
  0
VERTEX
  8
1
 10
738.6752062283394
 20
-1905.8570127669543
  0
VERTEX
  8
1
 10
737.0502062283394
 20
-1910.5780127669543
  0
VERTEX
  8
1
 10
736.0964432409927
 20
-1913.277091771172
  0
VERTEX
  8
1
 10
735.3462062283395
 20
-1915.2750127669542
  0
VERTEX
  8
1
 10
733.6282062283394
 20
-1919.9650127669543
  0
VERTEX
  8
1
 10
731.9192062283395
 20
-1924.6540127669543
  0
VERTEX
  8
1
 10
730.7599282266401
 20
-1927.7237733818158
  0
VERTEX
  8
1
 10
730.1192062283394
 20
-1929.3220127669542
  0
VERTEX
  8
1
 10
728.3152062283394
 20
-1933.9770127669542
  0
VERTEX
  8
1
 10
726.5122062283394
 20
-1938.6320127669544
  0
VERTEX
  8
1
 10
725.1681718552749
 20
-1941.993748444844
  0
VERTEX
  8
1
 10
724.6272062283394
 20
-1943.2550127669542
  0
VERTEX
  8
1
 10
722.7072062283394
 20
-1947.8660127669543
  0
VERTEX
  8
1
 10
721.2035435833018
 20
-1951.3718199981886
  0
VERTEX
  8
1
 10
720.7052062283394
 20
-1952.4420127669543
  0
VERTEX
  8
1
 10
718.6452062283395
 20
-1956.9950127669542
  0
VERTEX
  8
1
 10
716.9884024035366
 20
-1960.5626652261528
  0
VERTEX
  8
1
 10
716.5162062283396
 20
-1961.5030127669543
  0
VERTEX
  8
1
 10
714.3292062283394
 20
-1965.9940127669543
  0
VERTEX
  8
1
 10
712.5031917575227
 20
-1969.659005531546
  0
VERTEX
  8
1
 10
712.0782062283395
 20
-1970.4510127669544
  0
VERTEX
  8
1
 10
709.7552062283394
 20
-1974.8750127669543
  0
VERTEX
  8
1
 10
707.6919253751419
 20
-1978.8033723403555
  0
VERTEX
  8
1
 10
707.4322062283395
 20
-1979.2990127669543
  0
VERTEX
  8
1
 10
705.1092062283394
 20
-1983.7130127669543
  0
VERTEX
  8
1
 10
701.4652062283394
 20
-1990.6400127669542
  0
VERTEX
  8
1
 10
706.4742062283394
 20
-1992.7860127669544
  0
VERTEX
  8
1
 10
711.4732062283394
 20
-1994.9320127669541
  0
VERTEX
  8
1
 10
713.9441386874961
 20
-1995.986013586495
  0
VERTEX
  8
1
 10
716.4812062283395
 20
-1997.0700127669543
  0
VERTEX
  8
1
 10
716.5452062283395
 20
-1997.1000127669543
  0
VERTEX
  8
1
 10
718.6700838762631
 20
-1998.1151351190308
  0
VERTEX
  8
1
 10
720.7465988681398
 20
-1999.278620127154
  0
VERTEX
  8
1
 10
721.2822062283394
 20
-1999.6270127669543
  0
VERTEX
  8
1
 10
722.7370742635119
 20
-2000.5639840481908
  0
VERTEX
  8
1
 10
724.7720194477606
 20
-2002.0623052750195
  0
VERTEX
  8
1
 10
725.6762062283394
 20
-2002.8220127669542
  0
VERTEX
  8
1
 10
726.7015335518342
 20
-2003.6549918235953
  0
VERTEX
  8
1
 10
728.5682471596863
 20
-2005.378960138295
  0
VERTEX
  8
1
 10
729.6712062283395
 20
-2006.5190127669543
  0
VERTEX
  8
1
 10
730.1392407649696
 20
-2007.0042235562898
  0
VERTEX
  8
1
 10
732.4663844011259
 20
-2009.9776322753971
  0
VERTEX
  8
1
 10
733.0012062283395
 20
-2010.7810127669543
  0
VERTEX
  8
1
 10
734.563041682
 20
-2013.2465437254243
  0
VERTEX
  8
1
 10
735.7512062283395
 20
-2015.4770127669542
  0
VERTEX
  8
1
 10
736.3924831821973
 20
-2016.7071779207988
  0
VERTEX
  8
1
 10
737.9552062283394
 20
-2020.3800127669542
  0
VERTEX
  8
1
 10
737.9722062283395
 20
-2020.4390127669542
  0
VERTEX
  8
1
 10
739.6952062283394
 20
-2025.606012766954
  0
VERTEX
  8
1
 10
740.2197210696511
 20
-2027.2728397884393
  0
VERTEX
  8
1
 10
741.1572062283394
 20
-2030.8470127669543
  0
VERTEX
  8
1
 10
742.045258559325
 20
-2034.370038932447
  0
VERTEX
  8
1
 10
742.4052062283395
 20
-2036.1460127669543
  0
VERTEX
  8
1
 10
743.4072062283394
 20
-2041.4990127669541
  0
VERTEX
  8
1
 10
743.4266048025986
 20
-2041.6014113412136
  0
VERTEX
  8
1
 10
744.2652062283395
 20
-2047.3900127669542
  0
VERTEX
  8
1
 10
742.2852062283395
 20
-2047.6500127669542
  0
VERTEX
  8
1
 10
742.5058616143704
 20
-2049.541954010253
  0
VERTEX
  8
1
 10
745.4792062283394
 20
-2069.827012766954
  0
VERTEX
  8
1
 10
748.8592062283394
 20
-2091.979012766954
  0
VERTEX
  8
1
 10
752.2502062283395
 20
-2114.130012766954
  0
VERTEX
  8
1
 10
755.6402062283395
 20
-2136.2820127669543
  0
VERTEX
  8
1
 10
759.0302062283395
 20
-2158.433012766954
  0
VERTEX
  8
1
 10
762.4202062283396
 20
-2180.585012766954
  0
VERTEX
  8
1
 10
765.8102062283394
 20
-2202.746012766954
  0
VERTEX
  8
1
 10
768.509086284257
 20
-2220.37730496172
  0
VERTEX
  8
1
 10
770.3252062283395
 20
-2232.280012766954
  0
VERTEX
  8
1
 10
786.0073987542208
 20
-2229.3744957376416
  0
VERTEX
  8
1
 10
793.1702062283396
 20
-2228.058012766954
  0
VERTEX
  8
1
 10
794.1666573133549
 20
-2227.8765221492686
  0
VERTEX
  8
1
 10
801.8141061562574
 20
-2226.5897896151296
  0
VERTEX
  8
1
 10
809.1165120055168
 20
-2225.4743238594024
  0
VERTEX
  8
1
 10
816.1052062283395
 20
-2224.520012766954
  0
VERTEX
  8
1
 10
816.1232062283395
 20
-2224.518012766954
  0
VERTEX
  8
1
 10
822.8211294635378
 20
-2223.7154904914173
  0
VERTEX
  8
1
 10
829.2766156740131
 20
-2223.0515175329715
  0
VERTEX
  8
1
 10
839.2322062283395
 20
-2222.232012766954
  0
VERTEX
  8
1
 10
841.8837224167456
 20
-2222.0193470234667
  0
VERTEX
  8
1
 10
854.113694649228
 20
-2221.326279709157
  0
VERTEX
  8
1
 10
879.1252062283395
 20
-2220.420012766954
  0
VERTEX
  8
1
 10
879.5822062283395
 20
-2214.410012766954
  0
VERTEX
  8
1
 10
879.9718173580359
 20
-2209.29043558891
  0
VERTEX
  8
1
 10
880.0412062283394
 20
-2208.399012766954
  0
VERTEX
  8
1
 10
880.216923719717
 20
-2206.424548587323
  0
VERTEX
  8
1
 10
880.5654888541652
 20
-2203.804221045408
  0
VERTEX
  8
1
 10
880.8082062283395
 20
-2202.422012766954
  0
VERTEX
  8
1
 10
881.0175972866843
 20
-2201.200279249654
  0
VERTEX
  8
1
 10
881.5732862077436
 20
-2198.6129047818863
  0
VERTEX
  8
1
 10
882.1212062283395
 20
-2196.539012766954
  0
VERTEX
  8
1
 10
882.2449045070133
 20
-2196.058564010134
  0
VERTEX
  8
1
 10
883.0127946077334
 20
-2193.5345322707253
  0
VERTEX
  8
1
 10
883.8906964782054
 20
-2191.0404920309397
  0
VERTEX
  8
1
 10
883.9812062283395
 20
-2190.814012766954
  0
VERTEX
  8
1
 10
884.8522325494982
 20
-2188.5868038810127
  0
VERTEX
  8
1
 10
885.933085550458
 20
-2186.162360817733
  0
VERTEX
  8
1
 10
886.3732062283395
 20
-2185.281012766954
  0
VERTEX
  8
1
 10
887.0992196559272
 20
-2183.798740577425
  0
VERTEX
  8
1
 10
888.3577483089534
 20
-2181.4746018745113
  0
VERTEX
  8
1
 10
889.2482062283395
 20
-2179.991012766954
  0
VERTEX
  8
1
 10
889.7128859131249
 20
-2179.2093187073856
  0
VERTEX
  8
1
 10
891.1628108788581
 20
-2176.9905997443934
  0
VERTEX
  8
1
 10
892.6022062283395
 20
-2174.982012766954
  0
VERTEX
  8
1
 10
892.7008902609364
 20
-2174.8417709196883
  0
VERTEX
  8
1
 10
894.3186346530883
 20
-2172.754541551068
  0
VERTEX
  8
1
 10
896.0162662694117
 20
-2170.7374757073994
  0
VERTEX
  8
1
 10
896.4032062283395
 20
-2170.318012766954
  0
VERTEX
  8
1
 10
897.8986270415992
 20
-2168.6862105064015
  0
VERTEX
  8
1
 10
899.8610364126253
 20
-2166.712975981311
  0
VERTEX
  8
1
 10
900.6162062283395
 20
-2166.013012766954
  0
VERTEX
  8
1
 10
901.9151336127602
 20
-2164.8284308184634
  0
VERTEX
  8
1
 10
904.0562788260789
 20
-2163.0387614029246
  0
VERTEX
  8
1
 10
905.2302062283395
 20
-2162.137012766954
  0
VERTEX
  8
1
 10
906.2694878085414
 20
-2161.3457311867523
  0
VERTEX
  8
1
 10
908.5451503655555
 20
-2159.750068629738
  0
VERTEX
  8
1
 10
910.1672062283395
 20
-2158.7150127669543
  0
VERTEX
  8
1
 10
910.8951338984921
 20
-2158.2557890496805
  0
VERTEX
  8
1
 10
913.3041811101289
 20
-2156.8751771539914
  0
VERTEX
  8
1
 10
915.4212062283394
 20
-2155.769012766954
  0
VERTEX
  8
1
 10
915.7751586022532
 20
-2155.5860461052143
  0
VERTEX
  8
1
 10
918.3052151288298
 20
-2154.408006536611
  0
VERTEX
  8
1
 10
920.8852062283395
 20
-2153.350012766954
  0
VERTEX
  8
1
 10
920.9262062283394
 20
-2153.336012766954
  0
VERTEX
  8
1
 10
923.4958804536814
 20
-2152.3992552022173
  0
VERTEX
  8
1
 10
926.1491922300349
 20
-2151.5567959916666
  0
VERTEX
  8
1
 10
926.6372062283394
 20
-2151.424012766954
  0
VERTEX
  8
1
 10
928.8398783007283
 20
-2150.832009818378
  0
VERTEX
  8
1
 10
931.5625061835643
 20
-2150.228758245922
  0
VERTEX
  8
1
 10
932.5102062283395
 20
-2150.056012766954
  0
VERTEX
  8
1
 10
934.5377075383429
 20
-2149.7602212094544
  0
VERTEX
  8
1
 10
938.4732062283394
 20
-2149.217012766954
  0
VERTEX
  8
1
 10
944.4602062283395
 20
-2148.483012766954
  0
VERTEX
  8
1
 10
945.1797515555188
 20
-2148.3884402612853
  0
VERTEX
  8
1
 10
950.4542062283394
 20
-2147.833012766954
  0
VERTEX
  8
1
 10
955.7839900667738
 20
-2147.272215114766
  0
VERTEX
  8
1
 10
956.4542062283394
 20
-2147.219012766954
  0
VERTEX
  8
1
 10
962.4582062283395
 20
-2146.7060127669542
  0
VERTEX
  8
1
 10
966.3909645018417
 20
-2146.3565616078845
  0
VERTEX
  8
1
 10
968.4682062283395
 20
-2146.227012766954
  0
VERTEX
  8
1
 10
974.4852062283395
 20
-2145.833012766954
  0
VERTEX
  8
1
 10
977.0230421256665
 20
-2145.64889335305
  0
VERTEX
  8
1
 10
980.4982062283394
 20
-2145.487012766954
  0
VERTEX
  8
1
 10
986.5232062283395
 20
-2145.218012766954
  0
VERTEX
  8
1
 10
988.0436374787093
 20
-2145.1347466954194
  0
VERTEX
  8
1
 10
992.5432062283395
 20
-2144.999012766954
  0
VERTEX
  8
1
 10
998.5722062283395
 20
-2144.847012766954
  0
VERTEX
  8
1
 10
999.064590251681
 20
-2144.829401869637
  0
VERTEX
  8
1
 10
1004.6032062283394
 20
-2144.775012766954
  0
VERTEX
  8
1
 10
1010.1035752529026
 20
-2144.730556425433
  0
VERTEX
  8
1
 10
1010.6332062283395
 20
-2144.740012766954
  0
VERTEX
  8
1
 10
1016.6592062283395
 20
-2144.817012766954
  0
VERTEX
  8
1
 10
1021.270655683927
 20
-2144.875242160459
  0
VERTEX
  8
1
 10
1022.6862062283395
 20
-2144.892012766954
  0
VERTEX
  8
1
 10
1028.7132062283395
 20
-2144.973012766954
  0
VERTEX
  8
1
 10
1035.7152062283394
 20
-2145.070012766954
  0
VERTEX
  8
1
 10
1035.5009106795997
 20
-2134.295717218214
  0
VERTEX
  8
1
 10
1035.1122062283396
 20
-2114.027012766954
  0
VERTEX
  8
1
 10
1034.7202062283395
 20
-2093.791012766954
  0
VERTEX
  8
1
 10
1034.3282062283395
 20
-2073.545012766954
  0
VERTEX
  8
1
 10
1033.9362062283394
 20
-2053.3080127669546
  0
VERTEX
  8
1
 10
1033.5442062283394
 20
-2033.0620127669542
  0
VERTEX
  8
1
 10
1033.1522062283395
 20
-2012.8250127669542
  0
VERTEX
  8
1
 10
1032.7602062283395
 20
-1992.5790127669543
  0
VERTEX
  8
1
 10
1032.5961548798498
 20
-1983.4219100699747
  0
VERTEX
  8
1
 10
1032.235464083228
 20
-1972.6105284767314
  0
VERTEX
  8
1
 10
1032.2172062283394
 20
-1972.3500127669543
  0
VERTEX
  8
1
 10
1030.4482062283396
 20
-1952.1790127669542
  0
VERTEX
  8
1
 10
1028.5892062283394
 20
-1932.0190127669543
  0
VERTEX
  8
1
 10
1027.71766957477
 20
-1922.305194799794
  0
VERTEX
  8
1
 10
1026.7162062283394
 20
-1911.8620127669542
  0
VERTEX
  8
1
 10
1024.8542062283395
 20
-1891.7010127669544
  0
VERTEX
  8
1
 10
1023.0544018185722
 20
-1872.1102914212038
  0
VERTEX
  8
1
 10
1022.9992062283395
 20
-1871.5490127669543
  0
VERTEX
  8
1
 10
1021.1872062283395
 20
-1851.3780127669543
  0
VERTEX
  8
1
 10
1019.6556086213201
 20
-1834.1543847083074
  0
VERTEX
  8
1
 10
1019.4952062283395
 20
-1832.6300127669542
  0
VERTEX
  8
1
 10
1016.5090819291685
 20
-1832.918216982573
  0
VERTEX
  8
1
 10
1019.4952062283395
 20
-1832.6300127669542
  0
VERTEX
  8
1
 10
1019.3722062283395
 20
-1831.2180127669542
  0
VERTEX
  8
1
 10
1017.5562062283394
 20
-1811.0500127669543
  0
VERTEX
  8
1
 10
1016.1883495989345
 20
-1796.1905274634303
  0
VERTEX
  8
1
 10
1015.7762062283394
 20
-1790.8850127669543
  0
VERTEX
  8
1
 10
1014.3788929345815
 20
-1773.465487449451
  0
VERTEX
  8
1
 10
1014.1742062283395
 20
-1770.7020127669543
  0
VERTEX
  8
1
 10
1012.716075352985
 20
-1750.730447329277
  0
VERTEX
  8
1
 10
1012.7012062283395
 20
-1750.5110127669543
  0
VERTEX
  8
1
 10
1011.3402062283395
 20
-1730.3210127669543
  0
VERTEX
  8
1
 10
1011.1848445502234
 20
-1727.994256279112
  0
VERTEX
  8
1
 10
1010.0982062283394
 20
-1710.1050127669544
  0
VERTEX
  8
1
 10
1009.8035844069553
 20
-1705.2504030685614
  0
VERTEX
  8
1
 10
1008.9662062283395
 20
-1689.8930127669544
  0
VERTEX
  8
1
 10
1008.5621806973226
 20
-1682.475334753169
  0
VERTEX
  8
1
 10
1007.9432062283395
 20
-1669.6750127669543
  0
VERTEX
  8
1
 10
1007.4657816020027
 20
-1659.710300453786
  0
VERTEX
  8
1
 10
1007.0412062283394
 20
-1649.4520127669543
  0
VERTEX
  8
1
 10
1006.5259331714419
 20
-1636.9953762385055
  0
VERTEX
  8
1
 10
1006.2732062283395
 20
-1629.2250127669543
  0
VERTEX
  8
1
 10
1005.7932893807197
 20
-1614.2129293043688
  0
VERTEX
  8
1
 10
1005.6282062283394
 20
-1608.9840127669543
  0
VERTEX
  8
1
 10
1004.9882062283394
 20
-1588.7530127669543
  0
VERTEX
  8
1
 10
1004.3482062283394
 20
-1568.5220127669543
  0
VERTEX
  8
1
 10
1003.8170268578181
 20
-1551.6984560737246
  0
VERTEX
  8
1
 10
1003.7202062283395
 20
-1548.2800127669543
  0
VERTEX
  8
1
 10
1003.1542062283395
 20
-1528.0470127669544
  0
VERTEX
  8
1
 10
1002.5892062283394
 20
-1507.8040127669542
  0
VERTEX
  8
1
 10
1002.0701353527874
 20
-1489.2332988499195
  0
VERTEX
  8
1
 10
1002.0282062283395
 20
-1487.5710127669543
  0
VERTEX
  8
1
 10
1001.7013878115586
 20
-1474.9049736716509
  0
VERTEX
  8
1
 10
1001.6752062283394
 20
-1473.9700127669541
  0
VERTEX
  8
1
 10
998.6762136961006
 20
-1474.0477545933784
  0
VERTEX
  8
1
 10
1001.6752062283394
 20
-1473.9700127669541
  0
VERTEX
  8
1
 10
1001.5052062283395
 20
-1467.3370127669543
  0
VERTEX
  8
1
 10
1000.9912062283395
 20
-1447.0930127669542
  0
VERTEX
  8
1
 10
1000.4672062283395
 20
-1426.8580127669543
  0
VERTEX
  8
1
 10
1000.4652062283395
 20
-1426.7600127669543
  0
VERTEX
  8
1
 10
999.9962062283395
 20
-1406.6130127669542
  0
VERTEX
  8
1
 10
999.5142062283395
 20
-1386.3780127669543
  0
VERTEX
  8
1
 10
999.0432062283395
 20
-1366.1330127669542
  0
VERTEX
  8
1
 10
998.9997306605973
 20
-1364.2863623884593
  0
VERTEX
  8
1
 10
998.6122062283395
 20
-1345.8970127669543
  0
VERTEX
  8
1
 10
998.1862062283395
 20
-1325.6510127669542
  0
VERTEX
  8
1
 10
997.7612062283395
 20
-1305.4150127669543
  0
VERTEX
  8
1
 10
997.6844661187407
 20
-1301.7928526938883
  0
VERTEX
  8
1
 10
997.3742062283395
 20
-1285.1790127669542
  0
VERTEX
  8
1
 10
996.9972062283395
 20
-1264.9320127669544
  0
VERTEX
  8
1
 10
996.6202062283395
 20
-1244.6950127669543
  0
VERTEX
  8
1
 10
996.5192084252609
 20
-1239.2966812643888
  0
VERTEX
  8
1
 10
996.2752062283395
 20
-1224.4480127669542
  0
VERTEX
  8
1
 10
995.9432062283395
 20
-1204.2100127669544
  0
VERTEX
  8
1
 10
995.6112062283395
 20
-1183.9630127669543
  0
VERTEX
  8
1
 10
995.4939869140646
 20
-1176.8058665574376
  0
VERTEX
  8
1
 10
995.3102062283394
 20
-1163.7250127669543
  0
VERTEX
  8
1
 10
995.0352062283395
 20
-1143.4770127669542
  0
VERTEX
  8
1
 10
994.7512062283395
 20
-1123.2390127669544
  0
VERTEX
  8
1
 10
994.668531814646
 20
-1114.6100243874946
  0
VERTEX
  8
1
 10
991.6688486440938
 20
-1114.653623427694
  0
VERTEX
  8
1
 10
994.668531814646
 20
-1114.6100243874946
  0
VERTEX
  8
1
 10
994.6252062283395
 20
-1114.5700127669543
  0
VERTEX
  8
1
 10
995.0452062283395
 20
-1084.3900127669542
  0
VERTEX
  8
1
 10
995.0452062283395
 20
-1084.3900127669542
  0
VERTEX
  8
1
 10
972.1342062283395
 20
-1084.3900127669542
  0
VERTEX
  8
1
 10
971.1342062283395
 20
-1084.3900127669542
  0
SEQEND
  0
ENDBLK
  0
BLOCK
  2
16
  8
1
 10
0
 20
0
 70
64
  0
POLYLINE
  8
1
  62
3
10
0
 20
0
 66
1
  0
VERTEX
  8
1
 10
1259.8053051533213
 20
-14.754424377908931
  0
VERTEX
  8
1
 10
1279.8053051533213
 20
-14.75442437790893
  0
VERTEX
  8
1
 10
1299.8053051533213
 20
-14.75442437790893
  0
VERTEX
  8
1
 10
1329.8053051533213
 20
-14.754424377908927
  0
VERTEX
  8
1
 10
1332.3053051533213
 20
-17.254424377908926
  0
VERTEX
  8
1
 10
1334.8053051533213
 20
-19.754424377908926
  0
VERTEX
  8
1
 10
1349.8053051533213
 20
-34.754424377908926
  0
VERTEX
  8
1
 10
1349.8053051533213
 20
-58.586424377908926
  0
VERTEX
  8
1
 10
1349.8053051533213
 20
-82.41842437790893
  0
VERTEX
  8
1
 10
1349.8053051533213
 20
-106.24942437790894
  0
VERTEX
  8
1
 10
1349.8053051533213
 20
-130.08142437790895
  0
VERTEX
  8
1
 10
1349.8053051533213
 20
-153.91342437790894
  0
VERTEX
  8
1
 10
1349.8053051533213
 20
-177.74542437790893
  0
VERTEX
  8
1
 10
1349.8053051533213
 20
-201.57642437790895
  0
VERTEX
  8
1
 10
1349.8053051533213
 20
-225.40842437790894
  0
VERTEX
  8
1
 10
1349.8053051533213
 20
-249.24042437790894
  0
VERTEX
  8
1
 10
1349.8053051533213
 20
-273.07242437790893
  0
VERTEX
  8
1
 10
1349.8053051533213
 20
-296.9144243779089
  0
VERTEX
  8
1
 10
1349.8053051533213
 20
-320.74542437790893
  0
VERTEX
  8
1
 10
1349.8053051533213
 20
-344.5774243779089
  0
VERTEX
  8
1
 10
1349.8053051533213
 20
-368.4094243779089
  0
VERTEX
  8
1
 10
1349.8053051533213
 20
-392.24142437790897
  0
VERTEX
  8
1
 10
1349.8053051533213
 20
-416.07242437790893
  0
VERTEX
  8
1
 10
1349.8053051533213
 20
-439.9044243779089
  0
VERTEX
  8
1
 10
1349.8053051533213
 20
-463.736424377909
  0
VERTEX
  8
1
 10
1349.8053051533213
 20
-487.5684243779089
  0
VERTEX
  8
1
 10
1349.8053051533213
 20
-511.40042437790896
  0
VERTEX
  8
1
 10
1349.8053051533213
 20
-535.2314243779089
  0
VERTEX
  8
1
 10
1349.8053051533213
 20
-559.0634243779089
  0
VERTEX
  8
1
 10
1349.8053051533213
 20
-568.2412077156783
  0
VERTEX
  8
1
 10
1349.8053051533213
 20
-582.8954243779089
  0
VERTEX
  8
1
 10
1349.8053051533213
 20
-606.727424377909
  0
VERTEX
  8
1
 10
1349.8053051533213
 20
-630.5584243779089
  0
VERTEX
  8
1
 10
1349.8053051533213
 20
-654.3904243779089
  0
VERTEX
  8
1
 10
1349.8053051533213
 20
-678.222424377909
  0
VERTEX
  8
1
 10
1349.8053051533213
 20
-702.0544243779088
  0
VERTEX
  8
1
 10
1349.8053051533213
 20
-725.8864243779088
  0
VERTEX
  8
1
 10
1349.8053051533213
 20
-749.717424377909
  0
VERTEX
  8
1
 10
1349.8053051533213
 20
-773.5594243779088
  0
VERTEX
  8
1
 10
1349.8053051533213
 20
-797.3914243779088
  0
VERTEX
  8
1
 10
1349.8053051533213
 20
-821.2234243779089
  0
VERTEX
  8
1
 10
1349.8053051533213
 20
-845.0544243779088
  0
VERTEX
  8
1
 10
1349.8053051533213
 20
-868.8864243779088
  0
VERTEX
  8
1
 10
1349.8053051533213
 20
-892.718424377909
  0
VERTEX
  8
1
 10
1349.8053051533213
 20
-916.5504243779089
  0
VERTEX
  8
1
 10
1349.8053051533213
 20
-940.3824243779088
  0
VERTEX
  8
1
 10
1349.8053051533213
 20
-964.213424377909
  0
VERTEX
  8
1
 10
1349.8053051533213
 20
-988.045424377909
  0
VERTEX
  8
1
 10
1349.8053051533213
 20
-1011.8774243779088
  0
VERTEX
  8
1
 10
1349.8053051533213
 20
-1035.709424377909
  0
VERTEX
  8
1
 10
1349.8053051533213
 20
-1059.540424377909
  0
VERTEX
  8
1
 10
1349.8053051533213
 20
-1083.3724243779088
  0
VERTEX
  8
1
 10
1349.8053051533213
 20
-1122.864424377909
  0
VERTEX
  8
1
 10
1334.8053051533213
 20
-1122.864424377909
  0
VERTEX
  8
1
 10
1329.8053051533213
 20
-1122.864424377909
  0
VERTEX
  8
1
 10
1309.8053051533213
 20
-1122.864424377909
  0
VERTEX
  8
1
 10
1289.8053051533213
 20
-1122.864424377909
  0
VERTEX
  8
1
 10
1269.8053051533213
 20
-1122.864424377909
  0
VERTEX
  8
1
 10
1239.8053051533213
 20
-1122.864424377909
  0
VERTEX
  8
1
 10
1239.8053051533213
 20
-1099.032424377909
  0
VERTEX
  8
1
 10
1239.8053051533213
 20
-1075.2004243779088
  0
VERTEX
  8
1
 10
1239.8053051533213
 20
-1051.369424377909
  0
VERTEX
  8
1
 10
1239.8053051533213
 20
-1027.5374243779088
  0
VERTEX
  8
1
 10
1239.8053051533213
 20
-1003.7054243779089
  0
VERTEX
  8
1
 10
1239.8053051533213
 20
-979.8734243779088
  0
VERTEX
  8
1
 10
1239.8053051533213
 20
-956.0424243779089
  0
VERTEX
  8
1
 10
1239.8053051533213
 20
-932.2104243779089
  0
VERTEX
  8
1
 10
1239.8053051533213
 20
-908.3784243779089
  0
VERTEX
  8
1
 10
1239.8053051533213
 20
-884.5464243779089
  0
VERTEX
  8
1
 10
1239.8053051533213
 20
-860.7044243779089
  0
VERTEX
  8
1
 10
1239.8053051533213
 20
-836.8734243779088
  0
VERTEX
  8
1
 10
1239.8053051533213
 20
-813.0414243779089
  0
VERTEX
  8
1
 10
1239.8053051533213
 20
-789.2094243779089
  0
VERTEX
  8
1
 10
1239.8053051533213
 20
-765.3774243779089
  0
VERTEX
  8
1
 10
1239.8053051533213
 20
-741.5464243779089
  0
VERTEX
  8
1
 10
1239.8053051533213
 20
-717.7144243779089
  0
VERTEX
  8
1
 10
1239.8053051533213
 20
-693.8824243779088
  0
VERTEX
  8
1
 10
1239.8053051533213
 20
-670.0504243779088
  0
VERTEX
  8
1
 10
1239.8053051533213
 20
-646.218424377909
  0
VERTEX
  8
1
 10
1239.8053051533213
 20
-622.3874243779089
  0
VERTEX
  8
1
 10
1239.8053051533213
 20
-598.5554243779088
  0
VERTEX
  8
1
 10
1239.8053051533213
 20
-574.7234243779089
  0
VERTEX
  8
1
 10
1239.8053051533213
 20
-568.2436830949704
  0
VERTEX
  8
1
 10
1239.8053051533213
 20
-550.891424377909
  0
VERTEX
  8
1
 10
1239.8053051533213
 20
-527.0604243779089
  0
VERTEX
  8
1
 10
1239.8053051533213
 20
-503.22842437790894
  0
VERTEX
  8
1
 10
1239.8053051533213
 20
-479.39642437790894
  0
VERTEX
  8
1
 10
1239.8053051533213
 20
-455.56442437790895
  0
VERTEX
  8
1
 10
1239.8053051533213
 20
-431.73242437790896
  0
VERTEX
  8
1
 10
1239.8053051533213
 20
-407.90142437790894
  0
VERTEX
  8
1
 10
1239.8053051533213
 20
-384.05942437790895
  0
VERTEX
  8
1
 10
1239.8053051533213
 20
-360.22742437790896
  0
VERTEX
  8
1
 10
1239.8053051533213
 20
-336.3954243779089
  0
VERTEX
  8
1
 10
1239.8053051533213
 20
-312.56442437790895
  0
VERTEX
  8
1
 10
1239.8053051533213
 20
-288.73242437790896
  0
VERTEX
  8
1
 10
1239.8053051533213
 20
-264.90042437790896
  0
VERTEX
  8
1
 10
1239.8053051533213
 20
-241.0684243779089
  0
VERTEX
  8
1
 10
1239.8053051533213
 20
-217.23642437790892
  0
VERTEX
  8
1
 10
1239.8053051533213
 20
-193.40542437790896
  0
VERTEX
  8
1
 10
1239.8053051533213
 20
-169.57342437790896
  0
VERTEX
  8
1
 10
1239.8053051533213
 20
-145.7414243779089
  0
VERTEX
  8
1
 10
1239.8053051533213
 20
-121.90942437790893
  0
VERTEX
  8
1
 10
1239.8053051533213
 20
-98.07842437790895
  0
VERTEX
  8
1
 10
1239.8053051533213
 20
-74.24642437790892
  0
VERTEX
  8
1
 10
1239.8053051533213
 20
-34.75442437790893
  0
VERTEX
  8
1
 10
1254.8053051533213
 20
-19.754424377908933
  0
VERTEX
  8
1
 10
1257.3053051533213
 20
-17.254424377908933
  0
VERTEX
  8
1
 10
1259.8053051533213
 20
-14.754424377908931
  0
VERTEX
  8
1
 10
1259.8053051533213
 20
-14.754424377908931
  0
VERTEX
  8
1
 10
1279.8053051533213
 20
-14.75442437790893
  0
VERTEX
  8
1
 10
1280.8053051533213
 20
-14.75442437790893
  0
SEQEND
  0
ENDBLK
  0
BLOCK
  2
17
  8
1
 10
0
 20
0
 70
64
  0
POLYLINE
  8
1
  62
3
10
0
 20
0
 66
1
  0
VERTEX
  8
1
 10
1388.6768567983659
 20
-41.635458197333584
  0
VERTEX
  8
1
 10
1358.6768567983659
 20
-11.635458197333584
  0
VERTEX
  8
1
 10
1358.6768567983659
 20
-711.6354581973335
  0
VERTEX
  8
1
 10
1388.6768567983659
 20
-741.6354581973335
  0
VERTEX
  8
1
 10
1388.6768567983659
 20
-41.635458197333584
  0
VERTEX
  8
1
 10
1388.6768567983659
 20
-41.635458197333584
  0
VERTEX
  8
1
 10
1358.6768567983659
 20
-11.635458197333584
  0
VERTEX
  8
1
 10
1358.6768567983659
 20
-12.635458197333584
  0
SEQEND
  0
ENDBLK
  0
BLOCK
  2
18
  8
1
 10
0
 20
0
 70
64
  0
POLYLINE
  8
1
  62
3
10
0
 20
0
 66
1
  0
VERTEX
  8
1
 10
616.2683581289864
 20
-1251.5513888847117
  0
VERTEX
  8
1
 10
600.4456585725845
 20
-1247.4610243353934
  0
VERTEX
  8
1
 10
593.3813581289863
 20
-1245.6353888847118
  0
VERTEX
  8
1
 10
570.5023581289864
 20
-1239.7123888847118
  0
VERTEX
  8
1
 10
547.6143581289864
 20
-1233.7893888847118
  0
VERTEX
  8
1
 10
546.2050937851913
 20
-1233.426146547774
  0
VERTEX
  8
1
 10
530.8491359139582
 20
-1229.6719089618869
  0
VERTEX
  8
1
 10
524.6443581289864
 20
-1228.2273888847117
  0
VERTEX
  8
1
 10
514.9427919569737
 20
-1225.9770798788077
  0
VERTEX
  8
1
 10
501.5763581289864
 20
-1223.0723888847117
  0
VERTEX
  8
1
 10
498.6765289146455
 20
-1222.4449617695827
  0
VERTEX
  8
1
 10
482.164703622464
 20
-1219.1514284157752
  0
VERTEX
  8
1
 10
478.3893581289864
 20
-1218.4713888847118
  0
VERTEX
  8
1
 10
464.1265006453614
 20
-1215.898408848532
  0
VERTEX
  8
1
 10
455.10135812898636
 20
-1214.4233888847118
  0
VERTEX
  8
1
 10
445.98553075735083
 20
-1212.9407129724896
  0
VERTEX
  8
1
 10
431.74335812898636
 20
-1210.8343888847119
  0
VERTEX
  8
1
 10
427.86610788848543
 20
-1210.2617084858755
  0
VERTEX
  8
1
 10
409.87923676721505
 20
-1207.815254712386
  0
VERTEX
  8
1
 10
408.3243581289864
 20
-1207.6203888847117
  0
VERTEX
  8
1
 10
392.12935403448637
 20
-1205.6067048260695
  0
VERTEX
  8
1
 10
384.8553581289864
 20
-1204.7593888847118
  0
VERTEX
  8
1
 10
374.78499207449147
 20
-1203.585532771164
  0
VERTEX
  8
1
 10
361.3693581289864
 20
-1202.1333888847118
  0
VERTEX
  8
1
 10
341.5080173565343
 20
-1199.995140205021
  0
VERTEX
  8
1
 10
327.5783581289864
 20
-1198.4913888847118
  0
VERTEX
  8
1
 10
330.02072368256967
 20
-1177.4811797778677
  0
VERTEX
  8
1
 10
330.2268589815437
 20
-1176.8462688582695
  0
VERTEX
  8
1
 10
330.3793581289864
 20
-1176.3943888847118
  0
VERTEX
  8
1
 10
336.85461979112824
 20
-1156.9256896151949
  0
VERTEX
  8
1
 10
339.62835812898635
 20
-1148.6013888847117
  0
VERTEX
  8
1
 10
345.269528611521
 20
-1149.3888330453763
  0
VERTEX
  8
1
 10
350.9107433061189
 20
-1150.1863275586684
  0
VERTEX
  8
1
 10
362.95435812898637
 20
-1151.8743888847118
  0
VERTEX
  8
1
 10
365.89700580915604
 20
-1152.277599165618
  0
VERTEX
  8
1
 10
380.78816553267006
 20
-1154.19700396496
  0
VERTEX
  8
1
 10
386.31835812898635
 20
-1154.8573888847118
  0
VERTEX
  8
1
 10
395.7117832247876
 20
-1155.920675254373
  0
VERTEX
  8
1
 10
409.73635812898635
 20
-1157.3853888847118
  0
VERTEX
  8
1
 10
410.65333869907545
 20
-1157.4785467469592
  0
VERTEX
  8
1
 10
425.6170085808868
 20
-1158.8646218667166
  0
VERTEX
  8
1
 10
433.1943581289864
 20
-1159.5003888847118
  0
VERTEX
  8
1
 10
440.5866208022479
 20
-1160.0700448777686
  0
VERTEX
  8
1
 10
455.5729290276223
 20
-1161.083962397466
  0
VERTEX
  8
1
 10
456.6863581289864
 20
-1161.1493888847117
  0
VERTEX
  8
1
 10
470.5813424805484
 20
-1161.909001659987
  0
VERTEX
  8
1
 10
480.2093581289864
 20
-1162.3573888847118
  0
VERTEX
  8
1
 10
487.3766887695755
 20
-1162.6275035189951
  0
VERTEX
  8
1
 10
503.7563581289864
 20
-1163.1073888847118
  0
VERTEX
  8
1
 10
504.2012157332234
 20
-1163.1151670011145
  0
VERTEX
  8
1
 10
521.0151519168941
 20
-1163.2779663703163
  0
VERTEX
  8
1
 10
527.3053581289864
 20
-1163.2903888847118
  0
VERTEX
  8
1
 10
537.8396289439695
 20
-1163.1542891969038
  0
VERTEX
  8
1
 10
550.8533581289864
 20
-1162.8853888847118
  0
VERTEX
  8
1
 10
554.6520329178361
 20
-1162.7668306217618
  0
VERTEX
  8
1
 10
571.4591071388603
 20
-1162.1011392147539
  0
VERTEX
  8
1
 10
574.3853581289864
 20
-1161.9623888847118
  0
VERTEX
  8
1
 10
588.2500762546083
 20
-1161.0506828639714
  0
VERTEX
  8
1
 10
605.0273487435494
 20
-1159.8167203290816
  0
VERTEX
  8
1
 10
621.2783581289864
 20
-1158.6213888847117
  0
VERTEX
  8
1
 10
621.2783581289864
 20
-1170.6359184954947
  0
VERTEX
  8
1
 10
621.2823581289864
 20
-1192.7763888847117
  0
VERTEX
  8
1
 10
621.2853581289863
 20
-1213.9903888847118
  0
VERTEX
  8
1
 10
621.2425859854153
 20
-1231.4881178937076
  0
VERTEX
  8
1
 10
616.2683581289864
 20
-1251.5513888847117
  0
VERTEX
  8
1
 10
616.2683581289864
 20
-1251.5513888847117
  0
VERTEX
  8
1
 10
600.4456585725845
 20
-1247.4610243353934
  0
VERTEX
  8
1
 10
599.4774671973338
 20
-1247.2108135025142
  0
SEQEND
  0
ENDBLK
  0
BLOCK
  2
19
  8
1
 10
0
 20
0
 70
64
  0
POLYLINE
  8
1
  62
3
10
0
 20
0
 66
1
  0
VERTEX
  8
1
 10
1100.5940264710136
 20
-1255.3790676847118
  0
VERTEX
  8
1
 10
1116.4167260274157
 20
-1251.2887031353935
  0
VERTEX
  8
1
 10
1123.4810264710138
 20
-1249.4630676847119
  0
VERTEX
  8
1
 10
1146.3600264710137
 20
-1243.5400676847119
  0
VERTEX
  8
1
 10
1169.2480264710136
 20
-1237.6170676847119
  0
VERTEX
  8
1
 10
1170.657290814809
 20
-1237.253825347774
  0
VERTEX
  8
1
 10
1186.013248686042
 20
-1233.499587761887
  0
VERTEX
  8
1
 10
1192.2180264710137
 20
-1232.0550676847117
  0
VERTEX
  8
1
 10
1201.9195926430264
 20
-1229.8047586788077
  0
VERTEX
  8
1
 10
1215.2860264710137
 20
-1226.9000676847118
  0
VERTEX
  8
1
 10
1218.1858556853547
 20
-1226.2726405695828
  0
VERTEX
  8
1
 10
1234.697680977536
 20
-1222.9791072157752
  0
VERTEX
  8
1
 10
1238.4730264710138
 20
-1222.2990676847119
  0
VERTEX
  8
1
 10
1252.7358839546387
 20
-1219.726087648532
  0
VERTEX
  8
1
 10
1261.7610264710138
 20
-1218.2510676847119
  0
VERTEX
  8
1
 10
1270.8768538426493
 20
-1216.7683917724896
  0
VERTEX
  8
1
 10
1285.1190264710137
 20
-1214.6620676847117
  0
VERTEX
  8
1
 10
1288.9962767115146
 20
-1214.0893872858755
  0
VERTEX
  8
1
 10
1306.983147832785
 20
-1211.6429335123858
  0
VERTEX
  8
1
 10
1308.5380264710138
 20
-1211.4480676847118
  0
VERTEX
  8
1
 10
1324.7330305655137
 20
-1209.4343836260696
  0
VERTEX
  8
1
 10
1332.0070264710137
 20
-1208.5870676847119
  0
VERTEX
  8
1
 10
1342.0773925255087
 20
-1207.413211571164
  0
VERTEX
  8
1
 10
1355.4930264710138
 20
-1205.9610676847117
  0
VERTEX
  8
1
 10
1375.3543672434657
 20
-1203.822819005021
  0
VERTEX
  8
1
 10
1389.2840264710137
 20
-1202.3190676847119
  0
VERTEX
  8
1
 10
1386.8416609174305
 20
-1181.3088585778678
  0
VERTEX
  8
1
 10
1386.6355256184565
 20
-1180.6739476582695
  0
VERTEX
  8
1
 10
1386.4830264710138
 20
-1180.2220676847119
  0
VERTEX
  8
1
 10
1380.0077648088718
 20
-1160.753368415195
  0
VERTEX
  8
1
 10
1377.2340264710137
 20
-1152.4290676847118
  0
VERTEX
  8
1
 10
1371.5928559884792
 20
-1153.2165118453763
  0
VERTEX
  8
1
 10
1365.9516412938813
 20
-1154.0140063586682
  0
VERTEX
  8
1
 10
1353.9080264710137
 20
-1155.7020676847117
  0
VERTEX
  8
1
 10
1350.9653787908442
 20
-1156.105277965618
  0
VERTEX
  8
1
 10
1336.07421906733
 20
-1158.02468276496
  0
VERTEX
  8
1
 10
1330.5440264710137
 20
-1158.6850676847118
  0
VERTEX
  8
1
 10
1321.1506013752125
 20
-1159.748354054373
  0
VERTEX
  8
1
 10
1307.1260264710138
 20
-1161.2130676847119
  0
VERTEX
  8
1
 10
1306.2090459009246
 20
-1161.3062255469592
  0
VERTEX
  8
1
 10
1291.2453760191133
 20
-1162.6923006667164
  0
VERTEX
  8
1
 10
1283.6680264710137
 20
-1163.3280676847119
  0
VERTEX
  8
1
 10
1276.2757637977522
 20
-1163.8977236777687
  0
VERTEX
  8
1
 10
1261.2894555723778
 20
-1164.911641197466
  0
VERTEX
  8
1
 10
1260.1760264710138
 20
-1164.9770676847118
  0
VERTEX
  8
1
 10
1246.2810421194517
 20
-1165.7366804599872
  0
VERTEX
  8
1
 10
1236.6530264710136
 20
-1166.1850676847118
  0
VERTEX
  8
1
 10
1229.4856958304247
 20
-1166.455182318995
  0
VERTEX
  8
1
 10
1213.1060264710138
 20
-1166.9350676847118
  0
VERTEX
  8
1
 10
1212.6611688667767
 20
-1166.9428458011146
  0
VERTEX
  8
1
 10
1195.847232683106
 20
-1167.1056451703164
  0
VERTEX
  8
1
 10
1189.5570264710138
 20
-1167.1180676847118
  0
VERTEX
  8
1
 10
1179.0227556560305
 20
-1166.981967996904
  0
VERTEX
  8
1
 10
1166.0090264710138
 20
-1166.7130676847119
  0
VERTEX
  8
1
 10
1162.2103516821642
 20
-1166.5945094217618
  0
VERTEX
  8
1
 10
1145.4032774611399
 20
-1165.928818014754
  0
VERTEX
  8
1
 10
1142.4770264710137
 20
-1165.7900676847119
  0
VERTEX
  8
1
 10
1128.6123083453917
 20
-1164.8783616639714
  0
VERTEX
  8
1
 10
1111.8350358564508
 20
-1163.6443991290816
  0
VERTEX
  8
1
 10
1095.5840264710137
 20
-1162.4490676847117
  0
VERTEX
  8
1
 10
1095.5840264710137
 20
-1174.4635972954948
  0
VERTEX
  8
1
 10
1095.5800264710138
 20
-1196.6040676847117
  0
VERTEX
  8
1
 10
1095.5770264710138
 20
-1217.8180676847119
  0
VERTEX
  8
1
 10
1095.6197986145849
 20
-1235.3157966937076
  0
VERTEX
  8
1
 10
1100.5940264710136
 20
-1255.3790676847118
  0
VERTEX
  8
1
 10
1100.5940264710136
 20
-1255.3790676847118
  0
VERTEX
  8
1
 10
1116.4167260274157
 20
-1251.2887031353935
  0
VERTEX
  8
1
 10
1117.3849174026664
 20
-1251.0384923025142
  0
SEQEND
  0
ENDBLK
  0
BLOCK
  2
20
  8
1
 10
0
 20
0
 70
64
  0
POLYLINE
  8
1
  62
3
10
0
 20
0
 66
1
  0
VERTEX
  8
1
 10
472.58715333439375
 20
-12.922401396834601
  0
VERTEX
  8
1
 10
473.37822123092604
 20
-18.6440517581766
  0
VERTEX
  8
1
 10
473.46544463588435
 20
-19.39712069569657
  0
VERTEX
  8
1
 10
474.2326786989452
 20
-27.596610096773418
  0
VERTEX
  8
1
 10
474.27983412540675
 20
-28.349548515579613
  0
VERTEX
  8
1
 10
474.58515333439374
 20
-34.82240139683459
  0
VERTEX
  8
1
 10
474.62320341298096
 20
-36.56139982509001
  0
VERTEX
  8
1
 10
474.6214661859587
 20
-37.32614436553533
  0
VERTEX
  8
1
 10
474.4232589190681
 20
-45.34028970334826
  0
VERTEX
  8
1
 10
474.43315333439375
 20
-56.83240139683459
  0
VERTEX
  8
1
 10
474.51315333439373
 20
-78.8614013968346
  0
VERTEX
  8
1
 10
474.59215333439374
 20
-100.8894013968346
  0
VERTEX
  8
1
 10
474.6721533343937
 20
-122.90840139683459
  0
VERTEX
  8
1
 10
474.7521533343937
 20
-144.93640139683458
  0
VERTEX
  8
1
 10
474.8311533343937
 20
-166.9554013968346
  0
VERTEX
  8
1
 10
474.9211533343937
 20
-188.9834013968346
  0
VERTEX
  8
1
 10
475.01410873029806
 20
-216.31741726371575
  0
VERTEX
  8
1
 10
475.0571533343937
 20
-228.2824013968346
  0
VERTEX
  8
1
 10
459.7471533343937
 20
-227.8281710060341
  0
VERTEX
  8
1
 10
455.06315333439375
 20
-227.6904013968346
  0
VERTEX
  8
1
 10
451.8071533343937
 20
-227.58472016901283
  0
VERTEX
  8
1
 10
444.3671533343937
 20
-227.45146983378953
  0
VERTEX
  8
1
 10
437.28715333439374
 20
-227.45128188258406
  0
VERTEX
  8
1
 10
435.06615333439373
 20
-227.48540139683462
  0
VERTEX
  8
1
 10
430.52715333439374
 20
-227.57192747410068
  0
VERTEX
  8
1
 10
424.03715333439374
 20
-227.8026452104262
  0
VERTEX
  8
1
 10
420.0171533343937
 20
-228.00450292979548
  0
VERTEX
  8
1
 10
415.9971533343937
 20
-227.7663936564349
  0
VERTEX
  8
1
 10
415.11115333439375
 20
-227.72740139683458
  0
VERTEX
  8
1
 10
409.50434895423945
 20
-227.55848899991975
  0
VERTEX
  8
1
 10
402.7409673091599
 20
-227.46612190151114
  0
VERTEX
  8
1
 10
395.6574267700126
 20
-227.47693268445767
  0
VERTEX
  8
1
 10
395.1101533343937
 20
-227.48740139683457
  0
VERTEX
  8
1
 10
388.2194395650284
 20
-227.5912673176236
  0
VERTEX
  8
1
 10
380.28207385019186
 20
-227.82605016540322
  0
VERTEX
  8
1
 10
364.97715333439373
 20
-228.2824013968346
  0
VERTEX
  8
1
 10
365.02258548158636
 20
-216.31375453037776
  0
VERTEX
  8
1
 10
365.0591533343937
 20
-206.24940139683463
  0
VERTEX
  8
1
 10
365.13815333439373
 20
-184.2264013968346
  0
VERTEX
  8
1
 10
365.2181533343937
 20
-162.19440139683462
  0
VERTEX
  8
1
 10
365.2971533343937
 20
-140.1714013968346
  0
VERTEX
  8
1
 10
365.3771533343937
 20
-118.1384013968346
  0
VERTEX
  8
1
 10
365.45715333439375
 20
-96.1154013968346
  0
VERTEX
  8
1
 10
365.5361533343937
 20
-74.08340139683459
  0
VERTEX
  8
1
 10
365.61615333439374
 20
-52.06040139683459
  0
VERTEX
  8
1
 10
365.7141839251151
 20
-45.35283798847378
  0
VERTEX
  8
1
 10
365.6260535580559
 20
-37.34556719370403
  0
VERTEX
  8
1
 10
365.6448322681938
 20
-36.58142776538999
  0
VERTEX
  8
1
 10
365.9292700782334
 20
-28.364169615235923
  0
VERTEX
  8
1
 10
365.967937472203
 20
-27.610463083131762
  0
VERTEX
  8
1
 10
366.6424282334529
 20
-19.40299901160438
  0
VERTEX
  8
1
 10
366.7211133860581
 20
-18.649223418139883
  0
VERTEX
  8
1
 10
367.4471533343937
 20
-12.922401396834601
  0
VERTEX
  8
1
 10
385.4840191100818
 20
-19.809989885753026
  0
VERTEX
  8
1
 10
386.1601533343937
 20
-20.068401396834588
  0
VERTEX
  8
1
 10
420.0171533343937
 20
-32.99240139683458
  0
VERTEX
  8
1
 10
454.54900204947035
 20
-19.80653492693655
  0
VERTEX
  8
1
 10
472.58715333439375
 20
-12.922401396834587
  0
VERTEX
  8
1
 10
472.58715333439375
 20
-12.922401396834601
  0
VERTEX
  8
1
 10
473.37822123092604
 20
-18.6440517581766
  0
VERTEX
  8
1
 10
473.49327599301904
 20
-19.637410908594873
  0
SEQEND
  0
ENDBLK
  0
BLOCK
  2
21
  8
1
 10
0
 20
0
 70
64
  0
POLYLINE
  8
1
  62
3
10
0
 20
0
 66
1
  0
VERTEX
  8
1
 10
188.02342840216323
 20
-1188.9528788858802
  0
VERTEX
  8
1
 10
188.81936245681726
 20
-1198.0726604367023
  0
VERTEX
  8
1
 10
189.9774284021632
 20
-1211.3828788858802
  0
VERTEX
  8
1
 10
191.9294284021632
 20
-1233.8128788858803
  0
VERTEX
  8
1
 10
193.8704284021632
 20
-1256.2528788858801
  0
VERTEX
  8
1
 10
195.8224284021632
 20
-1278.6828788858802
  0
VERTEX
  8
1
 10
197.77342840216323
 20
-1301.1128788858803
  0
VERTEX
  8
1
 10
200.74680968815088
 20
-1335.3060093562194
  0
VERTEX
  8
1
 10
201.35342840216322
 20
-1342.2628788858801
  0
VERTEX
  8
1
 10
183.2634284021632
 20
-1361.9928788858801
  0
VERTEX
  8
1
 10
160.46242840216323
 20
-1361.9928788858801
  0
VERTEX
  8
1
 10
137.65142840216322
 20
-1361.9928788858801
  0
VERTEX
  8
1
 10
114.8504284021632
 20
-1361.9928788858801
  0
VERTEX
  8
1
 10
92.03942840216321
 20
-1361.9928788858801
  0
VERTEX
  8
1
 10
69.23842840216321
 20
-1361.9928788858801
  0
VERTEX
  8
1
 10
46.43742840216321
 20
-1361.9928788858801
  0
VERTEX
  8
1
 10
23.413428402163216
 20
-1361.9928788858801
  0
VERTEX
  8
1
 10
5.323428402163216
 20
-1342.2628788858801
  0
VERTEX
  8
1
 10
5.930327185631996
 20
-1335.3069353351962
  0
VERTEX
  8
1
 10
7.277428402163216
 20
-1319.8328788858803
  0
VERTEX
  8
1
 10
9.231428402163216
 20
-1297.4028788858802
  0
VERTEX
  8
1
 10
9.363428402163215
 20
-1295.8428788858803
  0
VERTEX
  8
1
 10
12.352137893804036
 20
-1296.1029088352632
  0
VERTEX
  8
1
 10
9.363428402163215
 20
-1295.8428788858803
  0
VERTEX
  8
1
 10
9.591583685379012
 20
-1293.26335758856
  0
VERTEX
  8
1
 10
11.182428402163216
 20
-1274.9628788858802
  0
VERTEX
  8
1
 10
13.123428402163217
 20
-1252.53287888588
  0
VERTEX
  8
1
 10
15.074428402163216
 20
-1230.1028788858803
  0
VERTEX
  8
1
 10
17.85786155156349
 20
-1198.0738755958103
  0
VERTEX
  8
1
 10
18.653428402163215
 20
-1188.9528788858802
  0
VERTEX
  8
1
 10
27.043432155765945
 20
-1185.1443528804234
  0
VERTEX
  8
1
 10
39.128428402163216
 20
-1179.6678788858803
  0
VERTEX
  8
1
 10
59.604428402163215
 20
-1170.3678788858801
  0
VERTEX
  8
1
 10
80.08142840216321
 20
-1161.0778788858802
  0
VERTEX
  8
1
 10
96.69627487945738
 20
-1153.537168743622
  0
VERTEX
  8
1
 10
103.34342840216321
 20
-1150.5228788858801
  0
VERTEX
  8
1
 10
109.97918592621643
 20
-1153.535460099973
  0
VERTEX
  8
1
 10
131.1794284021632
 20
-1163.1538788858802
  0
VERTEX
  8
1
 10
151.65142840216322
 20
-1172.4518788858802
  0
VERTEX
  8
1
 10
179.6327175189952
 20
-1185.141362741627
  0
VERTEX
  8
1
 10
188.0234284021632
 20
-1188.9528788858802
  0
VERTEX
  8
1
 10
188.02342840216323
 20
-1188.9528788858802
  0
VERTEX
  8
1
 10
188.81936245681726
 20
-1198.0726604367023
  0
VERTEX
  8
1
 10
188.9060407782072
 20
-1199.068896788479
  0
SEQEND
  0
ENDBLK
  0
BLOCK
  2
22
  8
1
 10
0
 20
0
 70
64
  0
POLYLINE
  8
1
  62
3
10
0
 20
0
 66
1
  0
VERTEX
  8
1
 10
403.47954809692584
 20
-1389.4036778755178
  0
VERTEX
  8
1
 10
385.38954809692586
 20
-1409.1236778755176
  0
VERTEX
  8
1
 10
362.5885480969258
 20
-1409.1236778755176
  0
VERTEX
  8
1
 10
339.77754809692584
 20
-1409.1236778755176
  0
VERTEX
  8
1
 10
316.97654809692585
 20
-1409.1236778755176
  0
VERTEX
  8
1
 10
294.1655480969258
 20
-1409.1236778755176
  0
VERTEX
  8
1
 10
271.36454809692583
 20
-1409.1236778755176
  0
VERTEX
  8
1
 10
248.56354809692584
 20
-1409.1236778755176
  0
VERTEX
  8
1
 10
225.53954809692584
 20
-1409.1236778755176
  0
VERTEX
  8
1
 10
207.44954809692584
 20
-1389.4036778755178
  0
VERTEX
  8
1
 10
208.05644701174873
 20
-1382.447749824618
  0
VERTEX
  8
1
 10
209.40254809692584
 20
-1366.9726778755178
  0
VERTEX
  8
1
 10
211.34454809692585
 20
-1344.5406778755178
  0
VERTEX
  8
1
 10
213.29654809692585
 20
-1322.1096778755177
  0
VERTEX
  8
1
 10
215.24754809692584
 20
-1299.6776778755177
  0
VERTEX
  8
1
 10
217.19954809692584
 20
-1277.2466778755177
  0
VERTEX
  8
1
 10
219.98398598471735
 20
-1245.2251887008963
  0
VERTEX
  8
1
 10
220.77954809692585
 20
-1236.0936778755176
  0
VERTEX
  8
1
 10
229.16935749619972
 20
-1232.287031554492
  0
VERTEX
  8
1
 10
241.25654809692583
 20
-1226.7976778755176
  0
VERTEX
  8
1
 10
261.7325480969258
 20
-1217.4976778755176
  0
VERTEX
  8
1
 10
282.2085480969258
 20
-1208.2086778755177
  0
VERTEX
  8
1
 10
298.82237956458783
 20
-1200.6679735643397
  0
VERTEX
  8
1
 10
305.46954809692585
 20
-1197.6536778755178
  0
VERTEX
  8
1
 10
312.10503171274183
 20
-1200.6660363176763
  0
VERTEX
  8
1
 10
325.94054809692585
 20
-1206.9426778755178
  0
VERTEX
  8
1
 10
346.41254809692583
 20
-1216.2406778755178
  0
VERTEX
  8
1
 10
366.88454809692587
 20
-1225.5286778755178
  0
VERTEX
  8
1
 10
381.75824948701387
 20
-1232.2853223104446
  0
VERTEX
  8
1
 10
390.14954809692586
 20
-1236.0936778755176
  0
VERTEX
  8
1
 10
390.9438233434018
 20
-1245.224557171539
  0
VERTEX
  8
1
 10
392.9205480969258
 20
-1267.9936778755177
  0
VERTEX
  8
1
 10
394.8725480969258
 20
-1290.4256778755177
  0
VERTEX
  8
1
 10
396.82354809692583
 20
-1312.8566778755178
  0
VERTEX
  8
1
 10
398.77554809692583
 20
-1335.2886778755178
  0
VERTEX
  8
1
 10
400.72754809692583
 20
-1357.7196778755176
  0
VERTEX
  8
1
 10
402.87393946447315
 20
-1382.446998685317
  0
VERTEX
  8
1
 10
403.47954809692584
 20
-1389.4036778755178
  0
VERTEX
  8
1
 10
403.47954809692584
 20
-1389.4036778755178
  0
VERTEX
  8
1
 10
385.38954809692586
 20
-1409.1236778755176
  0
VERTEX
  8
1
 10
384.38954809692586
 20
-1409.1236778755176
  0
SEQEND
  0
ENDBLK
  0
BLOCK
  2
23
  8
1
 10
0
 20
0
 70
64
  0
POLYLINE
  8
1
  62
3
10
0
 20
0
 66
1
  0
VERTEX
  8
1
 10
873.2465895094238
 20
-210.17000000000002
  0
VERTEX
  8
1
 10
857.9542433535055
 20
-209.69111540326458
  0
VERTEX
  8
1
 10
853.2665895094237
 20
-209.546
  0
VERTEX
  8
1
 10
850.0265895094237
 20
-209.43568786400192
  0
VERTEX
  8
1
 10
842.5765895094238
 20
-209.2897885979931
  0
VERTEX
  8
1
 10
835.4965895094238
 20
-209.2766697770915
  0
VERTEX
  8
1
 10
833.2745895094238
 20
-209.30599999999998
  0
VERTEX
  8
1
 10
828.7449761545829
 20
-209.3596661289791
  0
VERTEX
  8
1
 10
822.2526617423453
 20
-209.54180582303655
  0
VERTEX
  8
1
 10
816.0204379828525
 20
-209.82621183572002
  0
VERTEX
  8
1
 10
805.2465895094238
 20
-210.54000000000002
  0
VERTEX
  8
1
 10
805.2465895094238
 20
-205.111
  0
VERTEX
  8
1
 10
805.2465895094238
 20
-199.692
  0
VERTEX
  8
1
 10
805.2465895094238
 20
-198.09530902111322
  0
VERTEX
  8
1
 10
805.2465895094238
 20
-194.262
  0
VERTEX
  8
1
 10
805.2465895094238
 20
-188.84300000000002
  0
VERTEX
  8
1
 10
805.2465895094238
 20
-183.414
  0
VERTEX
  8
1
 10
805.2465895094238
 20
-177.995
  0
VERTEX
  8
1
 10
805.2465895094238
 20
-172.56599999999997
  0
VERTEX
  8
1
 10
805.2465895094238
 20
-167.147
  0
VERTEX
  8
1
 10
805.2465895094238
 20
-161.71699999999998
  0
VERTEX
  8
1
 10
805.2465895094238
 20
-156.298
  0
VERTEX
  8
1
 10
805.2465895094238
 20
-150.86899999999997
  0
VERTEX
  8
1
 10
805.2465895094238
 20
-145.45
  0
VERTEX
  8
1
 10
805.2465895094238
 20
-140.02100000000002
  0
VERTEX
  8
1
 10
805.2465895094238
 20
-134.591
  0
VERTEX
  8
1
 10
805.2465895094238
 20
-129.172
  0
VERTEX
  8
1
 10
805.2465895094238
 20
-123.743
  0
VERTEX
  8
1
 10
805.2465895094238
 20
-118.324
  0
VERTEX
  8
1
 10
805.2465895094238
 20
-112.895
  0
VERTEX
  8
1
 10
805.2465895094238
 20
-107.475
  0
VERTEX
  8
1
 10
805.2465895094238
 20
-102.04599999999999
  0
VERTEX
  8
1
 10
805.2465895094238
 20
-96.627
  0
VERTEX
  8
1
 10
805.2465895094238
 20
-91.198
  0
VERTEX
  8
1
 10
805.2465895094238
 20
-85.779
  0
VERTEX
  8
1
 10
805.2465895094238
 20
-80.35
  0
VERTEX
  8
1
 10
805.2465895094238
 20
-74.92
  0
VERTEX
  8
1
 10
805.2465895094238
 20
-69.502
  0
VERTEX
  8
1
 10
805.187815424594
 20
-65.5183712667181
  0
VERTEX
  8
1
 10
805.2201187920065
 20
-64.31970552710237
  0
VERTEX
  8
1
 10
805.2485895094237
 20
-64.08099999999999
  0
VERTEX
  8
1
 10
805.2747922435801
 20
-63.1117802424951
  0
VERTEX
  8
1
 10
805.5585895094238
 20
-58.681999999999995
  0
VERTEX
  8
1
 10
805.731692504596
 20
-57.277315354592886
  0
VERTEX
  8
1
 10
805.8223158607564
 20
-56.64441351349255
  0
VERTEX
  8
1
 10
805.9430692282152
 20
-56.021657285046444
  0
VERTEX
  8
1
 10
806.5255895094238
 20
-53.342999999999996
  0
VERTEX
  8
1
 10
807.1426326320718
 20
-50.73687762076645
  0
VERTEX
  8
1
 10
807.3139436651367
 20
-50.08323748028332
  0
VERTEX
  8
1
 10
807.5152653319117
 20
-49.43961648047827
  0
VERTEX
  8
1
 10
807.9635895094237
 20
-48.11699999999999
  0
VERTEX
  8
1
 10
809.1462981234002
 20
-44.68265343261173
  0
VERTEX
  8
1
 10
809.5231799797856
 20
-43.70871109751087
  0
VERTEX
  8
1
 10
809.8185895094238
 20
-43.019999999999996
  0
VERTEX
  8
1
 10
810.4543271480374
 20
-41.51943779702914
  0
VERTEX
  8
1
 10
810.7554676594856
 20
-40.859024607275416
  0
VERTEX
  8
1
 10
811.7653495166473
 20
-38.78020001547918
  0
VERTEX
  8
1
 10
812.0965895094238
 20
-38.14
  0
VERTEX
  8
1
 10
812.1085895094237
 20
-38.11999999999999
  0
VERTEX
  8
1
 10
813.165305981989
 20
-36.167005102652226
  0
VERTEX
  8
1
 10
813.5351623860439
 20
-35.54000337878023
  0
VERTEX
  8
1
 10
814.674733979451
 20
-33.67900376339706
  0
VERTEX
  8
1
 10
814.8355895094237
 20
-33.43300000000001
  0
VERTEX
  8
1
 10
815.2822513367172
 20
-32.78806433050312
  0
VERTEX
  8
1
 10
817.8289433440374
 20
-29.442753734598767
  0
VERTEX
  8
1
 10
818.0935895094237
 20
-29.11099999999999
  0
VERTEX
  8
1
 10
818.2749836564449
 20
-28.8828709015591
  0
VERTEX
  8
1
 10
821.4787672878747
 20
-25.403229636809726
  0
VERTEX
  8
1
 10
821.7595895094238
 20
-25.129000000000005
  0
VERTEX
  8
1
 10
822.4738576412117
 20
-24.449123077484643
  0
VERTEX
  8
1
 10
825.3923024078867
 20
-21.940009710759455
  0
VERTEX
  8
1
 10
825.8395895094237
 20
-21.570999999999998
  0
VERTEX
  8
1
 10
825.9065895094237
 20
-21.519999999999996
  0
VERTEX
  8
1
 10
826.4440968996691
 20
-21.123714280480513
  0
VERTEX
  8
1
 10
829.4758735047435
 20
-18.981794022621443
  0
VERTEX
  8
1
 10
830.0030287735515
 20
-18.62721022338272
  0
VERTEX
  8
1
 10
830.2725895094237
 20
-18.46199999999999
  0
VERTEX
  8
1
 10
830.5321770028729
 20
-18.304913767687367
  0
VERTEX
  8
1
 10
833.6585277305743
 20
-16.52576680289343
  0
VERTEX
  8
1
 10
834.1795281849262
 20
-16.236065576143517
  0
VERTEX
  8
1
 10
834.7104389801245
 20
-15.976606429107804
  0
VERTEX
  8
1
 10
835.0125895094237
 20
-15.835999999999999
  0
VERTEX
  8
1
 10
837.8629255470985
 20
-14.564885283100423
  0
VERTEX
  8
1
 10
838.3783446990769
 20
-14.35432641379576
  0
VERTEX
  8
1
 10
838.9039287279971
 20
-14.15354770856878
  0
VERTEX
  8
1
 10
840.0155895094238
 20
-13.759
  0
VERTEX
  8
1
 10
842.05184021168
 20
-13.064552114126982
  0
VERTEX
  8
1
 10
843.068960209836
 20
-12.767200536538368
  0
VERTEX
  8
1
 10
845.2155895094238
 20
-12.21499999999999
  0
VERTEX
  8
1
 10
846.1503510545871
 20
-11.976899995414612
  0
VERTEX
  8
1
 10
847.1460720269351
 20
-11.762459330123747
  0
VERTEX
  8
1
 10
850.1014492846775
 20
-11.230359101142142
  0
VERTEX
  8
1
 10
850.5285895094238
 20
-11.167999999999992
  0
VERTEX
  8
1
 10
851.0884397904891
 20
-11.091676083403641
  0
VERTEX
  8
1
 10
853.8977866712287
 20
-10.820020128836234
  0
VERTEX
  8
1
 10
854.906979444363
 20
-10.755089548594569
  0
VERTEX
  8
1
 10
855.9295895094237
 20
-10.727999999999994
  0
VERTEX
  8
1
 10
857.5106593603033
 20
-10.707087734050901
  0
VERTEX
  8
1
 10
861.3585895094237
 20
-10.655999999999992
  0
VERTEX
  8
1
 10
866.7775895094237
 20
-10.583999999999989
  0
VERTEX
  8
1
 10
873.2965895094237
 20
-10.5
  0
VERTEX
  8
1
 10
873.1115884223054
 20
-17.775920456236463
  0
VERTEX
  8
1
 10
873.2826311407787
 20
-25.873201126743268
  0
VERTEX
  8
1
 10
873.2465895094238
 20
-33.364999999999995
  0
VERTEX
  8
1
 10
873.2465895094238
 20
-55.583
  0
VERTEX
  8
1
 10
873.2465895094238
 20
-77.812
  0
VERTEX
  8
1
 10
873.2465895094238
 20
-100.03099999999999
  0
VERTEX
  8
1
 10
873.2465895094238
 20
-122.25
  0
VERTEX
  8
1
 10
873.2465895094238
 20
-144.478
  0
VERTEX
  8
1
 10
873.2465895094238
 20
-166.697
  0
VERTEX
  8
1
 10
873.2465895094238
 20
-198.16233881714436
  0
VERTEX
  8
1
 10
873.2465895094238
 20
-210.17000000000002
  0
VERTEX
  8
1
 10
873.2465895094238
 20
-210.17000000000002
  0
VERTEX
  8
1
 10
857.9542433535055
 20
-209.69111540326458
  0
VERTEX
  8
1
 10
856.9547221753448
 20
-209.66017328943434
  0
SEQEND
  0
ENDBLK
  0
BLOCK
  2
24
  8
1
 10
0
 20
0
 70
64
  0
POLYLINE
  8
1
  62
3
10
0
 20
0
 66
1
  0
VERTEX
  8
1
 10
1408.897800724666
 20
-1210.2925660770368
  0
VERTEX
  8
1
 10
1408.8483667416128
 20
-1223.9145469986245
  0
VERTEX
  8
1
 10
1408.670800724666
 20
-1231.8415660770368
  0
VERTEX
  8
1
 10
1408.5677854715045
 20
-1236.1443189758224
  0
VERTEX
  8
1
 10
1408.1757404823547
 20
-1248.1871901515958
  0
VERTEX
  8
1
 10
1407.949800724666
 20
-1253.380566077037
  0
VERTEX
  8
1
 10
1407.8178007246659
 20
-1256.422566077037
  0
VERTEX
  8
1
 10
1404.820783070168
 20
-1256.2888305969711
  0
VERTEX
  8
1
 10
1407.8178007246659
 20
-1256.422566077037
  0
VERTEX
  8
1
 10
1407.7248262120177
 20
-1258.4222542355349
  0
VERTEX
  8
1
 10
1407.647518705389
 20
-1260.3549515565633
  0
VERTEX
  8
1
 10
1407.0042655693105
 20
-1272.3671168824396
  0
VERTEX
  8
1
 10
1406.8458007246659
 20
-1274.901566077037
  0
VERTEX
  8
1
 10
1406.0578007246659
 20
-1287.2475154510066
  0
VERTEX
  8
1
 10
1405.398800724666
 20
-1296.4045660770369
  0
VERTEX
  8
1
 10
1404.9900155330117
 20
-1301.982766251699
  0
VERTEX
  8
1
 10
1403.7892776637495
 20
-1316.8326887217806
  0
VERTEX
  8
1
 10
1403.694800724666
 20
-1317.8895660770368
  0
VERTEX
  8
1
 10
1402.4685778806297
 20
-1331.4910435632673
  0
VERTEX
  8
1
 10
1401.607800724666
 20
-1341.162566077037
  0
VERTEX
  8
1
 10
1389.282717924958
 20
-1341.6572381900867
  0
VERTEX
  8
1
 10
1377.484800724666
 20
-1342.1275660770368
  0
VERTEX
  8
1
 10
1366.1764677041083
 20
-1342.5831943788994
  0
VERTEX
  8
1
 10
1353.3568007246658
 20
-1343.2025660770369
  0
VERTEX
  8
1
 10
1346.8451371043784
 20
-1343.5225660770368
  0
VERTEX
  8
1
 10
1329.254800724666
 20
-1344.572566077037
  0
VERTEX
  8
1
 10
1324.2194693307256
 20
-1344.8746554349639
  0
VERTEX
  8
1
 10
1307.7241746949194
 20
-1346.041505396093
  0
VERTEX
  8
1
 10
1305.1728007246659
 20
-1346.2605660770369
  0
VERTEX
  8
1
 10
1281.2667509582823
 20
-1348.3423085163572
  0
VERTEX
  8
1
 10
1281.111800724666
 20
-1348.3555660770369
  0
VERTEX
  8
1
 10
1267.6133554021662
 20
-1349.5306256901708
  0
VERTEX
  8
1
 10
1257.8742643719584
 20
-1350.4408826115553
  0
VERTEX
  8
1
 10
1257.064800724666
 20
-1350.515566077037
  0
VERTEX
  8
1
 10
1256.0978007246658
 20
-1350.602566077037
  0
VERTEX
  8
1
 10
1255.824939512545
 20
-1347.6150007206104
  0
VERTEX
  8
1
 10
1256.0978007246658
 20
-1350.602566077037
  0
VERTEX
  8
1
 10
1242.213317962333
 20
-1351.8719861398172
  0
VERTEX
  8
1
 10
1229.8079985114216
 20
-1353.258243400065
  0
VERTEX
  8
1
 10
1226.517800724666
 20
-1353.7025660770369
  0
VERTEX
  8
1
 10
1224.987800724666
 20
-1342.832566077037
  0
VERTEX
  8
1
 10
1225.252800724666
 20
-1335.5585660770369
  0
VERTEX
  8
1
 10
1225.4628007246658
 20
-1329.8385660770368
  0
VERTEX
  8
1
 10
1225.560112341232
 20
-1327.2025515012201
  0
VERTEX
  8
1
 10
1225.7218007246659
 20
-1324.1295660770368
  0
VERTEX
  8
1
 10
1226.022800724666
 20
-1318.422566077037
  0
VERTEX
  8
1
 10
1226.3161541552165
 20
-1312.8389171306274
  0
VERTEX
  8
1
 10
1226.3268007246659
 20
-1312.7045660770368
  0
VERTEX
  8
1
 10
1226.767800724666
 20
-1307.005566077037
  0
VERTEX
  8
1
 10
1226.8548891818994
 20
-1305.923199422807
  0
VERTEX
  8
1
 10
1227.334800724666
 20
-1301.314566077037
  0
VERTEX
  8
1
 10
1227.5543098293958
 20
-1299.241293315212
  0
VERTEX
  8
1
 10
1228.0488007246659
 20
-1295.6485660770368
  0
VERTEX
  8
1
 10
1228.407800724666
 20
-1293.0425660770368
  0
VERTEX
  8
1
 10
1228.936800724666
 20
-1289.9935660770368
  0
VERTEX
  8
1
 10
1229.5627846583398
 20
-1286.4825982096893
  0
VERTEX
  8
1
 10
1230.035800724666
 20
-1284.392566077037
  0
VERTEX
  8
1
 10
1230.9331532946815
 20
-1280.424748222838
  0
VERTEX
  8
1
 10
1231.381800724666
 20
-1278.833566077037
  0
VERTEX
  8
1
 10
1232.5848743467532
 20
-1274.6366594121791
  0
VERTEX
  8
1
 10
1233.032800724666
 20
-1273.3685660770368
  0
VERTEX
  8
1
 10
1234.5655011979513
 20
-1269.0689966466891
  0
VERTEX
  8
1
 10
1235.0288007246659
 20
-1268.008566077037
  0
VERTEX
  8
1
 10
1236.8956899748962
 20
-1263.7722322973407
  0
VERTEX
  8
1
 10
1237.406800724666
 20
-1262.8195660770368
  0
VERTEX
  8
1
 10
1239.6143064888056
 20
-1258.7216426855405
  0
VERTEX
  8
1
 10
1240.177800724666
 20
-1257.816566077037
  0
VERTEX
  8
1
 10
1241.1303353659969
 20
-1256.306284899839
  0
VERTEX
  8
1
 10
1242.7395058473344
 20
-1253.9770314666353
  0
VERTEX
  8
1
 10
1243.402800724666
 20
-1253.1055660770369
  0
VERTEX
  8
1
 10
1244.4969594661195
 20
-1251.6791252313683
  0
VERTEX
  8
1
 10
1246.358010178705
 20
-1249.4733133170976
  0
VERTEX
  8
1
 10
1247.0588007246658
 20
-1248.710566077037
  0
VERTEX
  8
1
 10
1248.3365732577524
 20
-1247.3366154327364
  0
VERTEX
  8
1
 10
1250.4505833264197
 20
-1245.2742762260139
  0
VERTEX
  8
1
 10
1251.1158007246659
 20
-1244.6855660770368
  0
VERTEX
  8
1
 10
1253.4801735448425
 20
-1242.6008641327746
  0
VERTEX
  8
1
 10
1255.4808007246659
 20
-1240.996566077037
  0
VERTEX
  8
1
 10
1256.650690954757
 20
-1240.063741388245
  0
VERTEX
  8
1
 10
1259.9413641330939
 20
-1237.6855161815074
  0
VERTEX
  8
1
 10
1260.069800724666
 20
-1237.601566077037
  0
VERTEX
  8
1
 10
1263.3769736651689
 20
-1235.4536534076126
  0
VERTEX
  8
1
 10
1264.908800724666
 20
-1234.546566077037
  0
VERTEX
  8
1
 10
1266.9411293527744
 20
-1233.3453677709178
  0
VERTEX
  8
1
 10
1269.892800724666
 20
-1231.757566077037
  0
VERTEX
  8
1
 10
1270.6150242222748
 20
-1231.3725443661422
  0
VERTEX
  8
1
 10
1274.406803258131
 20
-1229.5309115487962
  0
VERTEX
  8
1
 10
1275.0308007246658
 20
-1229.255566077037
  0
VERTEX
  8
1
 10
1278.3108866925286
 20
-1227.7961132420076
  0
VERTEX
  8
1
 10
1280.301800724666
 20
-1227.026566077037
  0
VERTEX
  8
1
 10
1285.6548007246658
 20
-1225.0225660770368
  0
VERTEX
  8
1
 10
1286.4688292406868
 20
-1224.719526927702
  0
VERTEX
  8
1
 10
1291.098800724666
 20
-1223.2915660770368
  0
VERTEX
  8
1
 10
1295.0323432253392
 20
-1222.0709502436287
  0
VERTEX
  8
1
 10
1296.581800724666
 20
-1221.6755660770368
  0
VERTEX
  8
1
 10
1302.1258007246659
 20
-1220.2805660770368
  0
VERTEX
  8
1
 10
1303.9569892372535
 20
-1219.8159595205489
  0
VERTEX
  8
1
 10
1307.706800724666
 20
-1219.036566077037
  0
VERTEX
  8
1
 10
1313.217800724666
 20
-1217.912566077037
  0
VERTEX
  8
1
 10
1313.3078007246659
 20
-1217.8965660770368
  0
VERTEX
  8
1
 10
1318.948800724666
 20
-1216.958566077037
  0
VERTEX
  8
1
 10
1322.770771049096
 20
-1216.322566077037
  0
VERTEX
  8
1
 10
1324.5978007246658
 20
-1216.075566077037
  0
VERTEX
  8
1
 10
1330.265800724666
 20
-1215.3285660770368
  0
VERTEX
  8
1
 10
1332.5989514275825
 20
-1215.0166827697374
  0
VERTEX
  8
1
 10
1335.9438007246658
 20
-1214.6535660770369
  0
VERTEX
  8
1
 10
1341.629800724666
 20
-1214.066566077037
  0
VERTEX
  8
1
 10
1342.6670413813777
 20
-1213.9562135330896
  0
VERTEX
  8
1
 10
1347.3268007246659
 20
-1213.5595660770368
  0
VERTEX
  8
1
 10
1352.927800724666
 20
-1213.092566077037
  0
VERTEX
  8
1
 10
1353.024800724666
 20
-1213.085566077037
  0
VERTEX
  8
1
 10
1358.733800724666
 20
-1212.7245660770368
  0
VERTEX
  8
1
 10
1364.4428007246659
 20
-1212.383566077037
  0
VERTEX
  8
1
 10
1370.151800724666
 20
-1212.0425660770368
  0
VERTEX
  8
1
 10
1373.9053187815825
 20
-1211.8122903055832
  0
VERTEX
  8
1
 10
1375.862800724666
 20
-1211.7235660770368
  0
VERTEX
  8
1
 10
1381.5778007246658
 20
-1211.4745660770368
  0
VERTEX
  8
1
 10
1387.281800724666
 20
-1211.2255660770368
  0
VERTEX
  8
1
 10
1392.996800724666
 20
-1210.9765660770368
  0
VERTEX
  8
1
 10
1395.897800724666
 20
-1210.852566077037
  0
VERTEX
  8
1
 10
1398.710800724666
 20
-1210.727566077037
  0
VERTEX
  8
1
 10
1408.897800724666
 20
-1210.2925660770368
  0
VERTEX
  8
1
 10
1408.897800724666
 20
-1210.2925660770368
  0
VERTEX
  8
1
 10
1408.8483667416128
 20
-1223.9145469986245
  0
VERTEX
  8
1
 10
1408.8259722596783
 20
-1224.9142962107667
  0
SEQEND
  0
ENDBLK
  0
BLOCK
  2
25
  8
1
 10
0
 20
0
 70
64
  0
POLYLINE
  8
1
  62
3
10
0
 20
0
 66
1
  0
VERTEX
  8
1
 10
583.4793689660594
 20
-1364.2758666640027
  0
VERTEX
  8
1
 10
580.168374640547
 20
-1363.8317146134482
  0
VERTEX
  8
1
 10
567.785864961796
 20
-1362.4462252726057
  0
VERTEX
  8
1
 10
559.4863689660594
 20
-1361.6838666640026
  0
VERTEX
  8
1
 10
553.8993689660595
 20
-1361.1658666640028
  0
VERTEX
  8
1
 10
554.1758300898325
 20
-1358.1786322830005
  0
VERTEX
  8
1
 10
553.8993689660595
 20
-1361.1658666640028
  0
VERTEX
  8
1
 10
552.1025660646626
 20
-1361.0005140416504
  0
VERTEX
  8
1
 10
542.3700012936293
 20
-1360.1002778988075
  0
VERTEX
  8
1
 10
535.4353689660594
 20
-1359.4968666640027
  0
VERTEX
  8
1
 10
528.7242910738962
 20
-1358.914704985969
  0
VERTEX
  8
1
 10
511.38536896605945
 20
-1357.4058666640028
  0
VERTEX
  8
1
 10
502.25549291123923
 20
-1356.618274257411
  0
VERTEX
  8
1
 10
487.31736896605946
 20
-1355.5538666640027
  0
VERTEX
  8
1
 10
485.7813432526383
 20
-1355.4458666640028
  0
VERTEX
  8
1
 10
463.22136896605946
 20
-1354.1008666640028
  0
VERTEX
  8
1
 10
463.13936896605946
 20
-1354.0958666640026
  0
VERTEX
  8
1
 10
443.819841523131
 20
-1353.153906717937
  0
VERTEX
  8
1
 10
439.10836896605946
 20
-1352.9618666640026
  0
VERTEX
  8
1
 10
420.72619312041536
 20
-1352.223818525008
  0
VERTEX
  8
1
 10
408.38936896605946
 20
-1351.7258666640028
  0
VERTEX
  8
1
 10
407.51685873031846
 20
-1342.0612008449991
  0
VERTEX
  8
1
 10
406.45936896605946
 20
-1330.2578666640027
  0
VERTEX
  8
1
 10
406.20535814262365
 20
-1327.3889113723815
  0
VERTEX
  8
1
 10
405.0046348650202
 20
-1312.5562906362898
  0
VERTEX
  8
1
 10
404.72836896605946
 20
-1308.7848666640027
  0
VERTEX
  8
1
 10
403.9393689660594
 20
-1297.812410454985
  0
VERTEX
  8
1
 10
403.2663689660594
 20
-1287.2828666640028
  0
VERTEX
  8
1
 10
402.99540854588577
 20
-1282.9527980086923
  0
VERTEX
  8
1
 10
402.35218343305377
 20
-1270.9198760551567
  0
VERTEX
  8
1
 10
402.26487653670074
 20
-1268.987162256688
  0
VERTEX
  8
1
 10
402.1793689660594
 20
-1266.9858666640027
  0
VERTEX
  8
1
 10
405.1765244853248
 20
-1266.8552573483428
  0
VERTEX
  8
1
 10
402.1793689660594
 20
-1266.9858666640027
  0
VERTEX
  8
1
 10
402.1243689660594
 20
-1265.7628666640028
  0
VERTEX
  8
1
 10
401.828876965793
 20
-1258.7625086675998
  0
VERTEX
  8
1
 10
401.43245385332006
 20
-1246.7092206859845
  0
VERTEX
  8
1
 10
401.37636896605943
 20
-1244.2258666640028
  0
VERTEX
  8
1
 10
401.1585379567753
 20
-1234.4891707807171
  0
VERTEX
  8
1
 10
401.09936896605944
 20
-1220.8558666640026
  0
VERTEX
  8
1
 10
414.08936896605945
 20
-1221.4158666640028
  0
VERTEX
  8
1
 10
421.72436896605944
 20
-1221.7498666640026
  0
VERTEX
  8
1
 10
427.43836896605944
 20
-1221.9988666640027
  0
VERTEX
  8
1
 10
433.15236896605944
 20
-1222.2378666640027
  0
VERTEX
  8
1
 10
436.0829586947813
 20
-1222.375590531024
  0
VERTEX
  8
1
 10
438.85336896605946
 20
-1222.5498666640028
  0
VERTEX
  8
1
 10
442.4179492235427
 20
-1222.7671355242824
  0
VERTEX
  8
1
 10
444.56236896605947
 20
-1222.8988666640028
  0
VERTEX
  8
1
 10
445.40936896605945
 20
-1222.9458666640028
  0
VERTEX
  8
1
 10
445.2299430170784
 20
-1225.9404962452418
  0
VERTEX
  8
1
 10
445.40936896605945
 20
-1222.9458666640028
  0
VERTEX
  8
1
 10
450.27036896605944
 20
-1223.2408666640026
  0
VERTEX
  8
1
 10
455.97936896605944
 20
-1223.5728666640027
  0
VERTEX
  8
1
 10
457.07099707977557
 20
-1223.642042359283
  0
VERTEX
  8
1
 10
461.6793689660594
 20
-1224.0348666640027
  0
VERTEX
  8
1
 10
467.3193689660594
 20
-1224.5158666640027
  0
VERTEX
  8
1
 10
467.37736896605946
 20
-1224.5228666640028
  0
VERTEX
  8
1
 10
473.06336896605944
 20
-1225.1188666640028
  0
VERTEX
  8
1
 10
477.39509687212626
 20
-1225.5806275598495
  0
VERTEX
  8
1
 10
478.7443689660594
 20
-1225.7578666640027
  0
VERTEX
  8
1
 10
484.41236896605943
 20
-1226.5108666640028
  0
VERTEX
  8
1
 10
487.2022575870334
 20
-1226.8858666640028
  0
VERTEX
  8
1
 10
490.06636896605943
 20
-1227.3638666640027
  0
VERTEX
  8
1
 10
495.70536896605944
 20
-1228.2958666640027
  0
VERTEX
  8
1
 10
496.78275401702274
 20
-1228.4758666640028
  0
VERTEX
  8
1
 10
501.32236896605946
 20
-1229.4028666640027
  0
VERTEX
  8
1
 10
506.02618528078534
 20
-1230.3742672682517
  0
VERTEX
  8
1
 10
506.91336896605947
 20
-1230.5968666640026
  0
VERTEX
  8
1
 10
512.4473689660595
 20
-1231.9988666640027
  0
VERTEX
  8
1
 10
514.9618806806741
 20
-1232.6440165476492
  0
VERTEX
  8
1
 10
517.9443689660594
 20
-1233.5728666640027
  0
VERTEX
  8
1
 10
523.4073689660595
 20
-1235.2628666640028
  0
VERTEX
  8
1
 10
523.5150620961708
 20
-1235.2958666640027
  0
VERTEX
  8
1
 10
528.7783689660595
 20
-1237.2388666640027
  0
VERTEX
  8
1
 10
530.4093689660594
 20
-1237.8858666640028
  0
VERTEX
  8
1
 10
529.315830002811
 20
-1240.67946157663
  0
VERTEX
  8
1
 10
530.4093689660594
 20
-1237.8858666640028
  0
VERTEX
  8
1
 10
531.7222748768496
 20
-1238.391244126832
  0
VERTEX
  8
1
 10
534.0473689660595
 20
-1239.4328666640026
  0
VERTEX
  8
1
 10
535.575296282238
 20
-1240.106308633743
  0
VERTEX
  8
1
 10
539.2163689660595
 20
-1241.8698666640028
  0
VERTEX
  8
1
 10
539.3775089397046
 20
-1241.9483712712781
  0
VERTEX
  8
1
 10
543.0572926264266
 20
-1243.916766251808
  0
VERTEX
  8
1
 10
544.2333689660595
 20
-1244.6098666640028
  0
VERTEX
  8
1
 10
546.6151731784568
 20
-1246.0242528995402
  0
VERTEX
  8
1
 10
549.0923689660594
 20
-1247.6328666640027
  0
VERTEX
  8
1
 10
550.0492993159539
 20
-1248.2558388039606
  0
VERTEX
  8
1
 10
553.3365149557125
 20
-1250.616725059864
  0
VERTEX
  8
1
 10
553.7453689660595
 20
-1250.9418666640026
  0
VERTEX
  8
1
 10
556.5185952721964
 20
-1253.1666975798269
  0
VERTEX
  8
1
 10
558.1403689660594
 20
-1254.5968666640026
  0
VERTEX
  8
1
 10
559.5449014975654
 20
-1255.845127010637
  0
VERTEX
  8
1
 10
561.6537579037926
 20
-1257.9126420581765
  0
VERTEX
  8
1
 10
562.2583689660594
 20
-1258.5598666640028
  0
VERTEX
  8
1
 10
563.6372879168256
 20
-1260.0425349918326
  0
VERTEX
  8
1
 10
565.4986473230825
 20
-1262.2535236509286
  0
VERTEX
  8
1
 10
565.9843689660595
 20
-1262.8868666640028
  0
VERTEX
  8
1
 10
567.2421247112914
 20
-1264.5413468347115
  0
VERTEX
  8
1
 10
568.8618465929992
 20
-1266.8810965282485
  0
VERTEX
  8
1
 10
569.2813689660595
 20
-1267.5458666640027
  0
VERTEX
  8
1
 10
570.3780344995139
 20
-1269.298146172902
  0
VERTEX
  8
1
 10
572.1133689660594
 20
-1272.5068666640027
  0
VERTEX
  8
1
 10
573.090937280795
 20
-1274.3319216410289
  0
VERTEX
  8
1
 10
574.5613689660595
 20
-1277.6618666640027
  0
VERTEX
  8
1
 10
575.4298118740801
 20
-1279.6427533442823
  0
VERTEX
  8
1
 10
576.6263689660594
 20
-1282.9928666640028
  0
VERTEX
  8
1
 10
577.4108329077264
 20
-1285.200111374559
  0
VERTEX
  8
1
 10
578.3433689660594
 20
-1288.4388666640027
  0
VERTEX
  8
1
 10
579.0698582297875
 20
-1290.9975391508854
  0
VERTEX
  8
1
 10
579.7463689660594
 20
-1293.9758666640028
  0
VERTEX
  8
1
 10
580.435324308644
 20
-1297.0432736277207
  0
VERTEX
  8
1
 10
580.8893689660595
 20
-1299.5778666640026
  0
VERTEX
  8
1
 10
581.5457145228924
 20
-1303.3117305560852
  0
VERTEX
  8
1
 10
581.8053689660594
 20
-1305.2168666640027
  0
VERTEX
  8
1
 10
582.4693689660594
 20
-1310.1258666640026
  0
VERTEX
  8
1
 10
582.5473689660594
 20
-1310.8898666640027
  0
VERTEX
  8
1
 10
583.1393689660595
 20
-1316.5058666640027
  0
VERTEX
  8
1
 10
583.1443689660595
 20
-1316.5778666640026
  0
VERTEX
  8
1
 10
583.5873689660594
 20
-1322.2768666640027
  0
VERTEX
  8
1
 10
583.6752337127463
 20
-1323.407427090735
  0
VERTEX
  8
1
 10
583.9243689660594
 20
-1327.9828666640028
  0
VERTEX
  8
1
 10
584.2243689660595
 20
-1333.6898666640027
  0
VERTEX
  8
1
 10
584.4394454628035
 20
-1337.7790188657295
  0
VERTEX
  8
1
 10
584.5003689660595
 20
-1339.4068666640028
  0
VERTEX
  8
1
 10
584.7043689660594
 20
-1345.1168666640028
  0
VERTEX
  8
1
 10
584.9083689660595
 20
-1350.8368666640026
  0
VERTEX
  8
1
 10
584.9993689660595
 20
-1353.3758666640026
  0
VERTEX
  8
1
 10
584.5623689660595
 20
-1356.5168666640027
  0
VERTEX
  8
1
 10
583.4793689660594
 20
-1364.2758666640027
  0
VERTEX
  8
1
 10
583.4793689660594
 20
-1364.2758666640027
  0
VERTEX
  8
1
 10
580.168374640547
 20
-1363.8317146134482
  0
VERTEX
  8
1
 10
579.1745762492875
 20
-1363.7205176821508
  0
SEQEND
  0
ENDBLK
  0
BLOCK
  2
26
  8
1
 10
0
 20
0
 70
64
  0
POLYLINE
  8
1
  62
3
10
0
 20
0
 66
1
  0
VERTEX
  8
1
 10
525.1793689660594
 20
-1319.9058666640028
  0
VERTEX
  8
1
 10
529.1793689660594
 20
-1319.9058666640028
  0
SEQEND
  0
ENDBLK
  0
BLOCK
  2
27
  8
1
 10
0
 20
0
 70
64
  0
POLYLINE
  8
1
  62
3
10
0
 20
0
 66
1
  0
VERTEX
  8
1
 10
525.1793689660594
 20
-1319.9058666640028
  0
VERTEX
  8
1
 10
525.1793689660594
 20
-1315.9058666640028
  0
SEQEND
  0
ENDBLK
  0
BLOCK
  2
28
  8
1
 10
0
 20
0
 70
64
  0
POLYLINE
  8
1
  62
3
10
0
 20
0
 66
1
  0
VERTEX
  8
1
 10
450.63936896605946
 20
-1319.9058666640028
  0
VERTEX
  8
1
 10
446.63936896605946
 20
-1319.9058666640028
  0
SEQEND
  0
ENDBLK
  0
BLOCK
  2
29
  8
1
 10
0
 20
0
 70
64
  0
POLYLINE
  8
1
  62
3
10
0
 20
0
 66
1
  0
VERTEX
  8
1
 10
450.63936896605946
 20
-1319.9058666640028
  0
VERTEX
  8
1
 10
450.63936896605946
 20
-1315.9058666640028
  0
SEQEND
  0
ENDBLK
  0
BLOCK
  2
30
  8
1
 10
0
 20
0
 70
64
  0
POLYLINE
  8
1
  62
3
10
0
 20
0
 66
1
  0
VERTEX
  8
1
 10
928.8629027991074
 20
-235.03916186986294
  0
VERTEX
  8
1
 10
928.8629027991074
 20
-258.58916186986295
  0
VERTEX
  8
1
 10
928.8629027991074
 20
-282.14016186986294
  0
VERTEX
  8
1
 10
928.8629027991074
 20
-305.69016186986295
  0
VERTEX
  8
1
 10
928.8629027991074
 20
-315.84346759932924
  0
VERTEX
  8
1
 10
928.8629027991074
 20
-337.10916186986293
  0
VERTEX
  8
1
 10
908.8629027991074
 20
-337.10916186986293
  0
VERTEX
  8
1
 10
888.8629027991074
 20
-337.10916186986293
  0
VERTEX
  8
1
 10
868.8629027991074
 20
-337.10916186986293
  0
VERTEX
  8
1
 10
848.8629027991074
 20
-337.10916186986293
  0
VERTEX
  8
1
 10
833.8629027991074
 20
-337.10916186986293
  0
VERTEX
  8
1
 10
823.8629027991074
 20
-337.10916186986293
  0
VERTEX
  8
1
 10
823.8629027991074
 20
-326.58916186986295
  0
VERTEX
  8
1
 10
823.8629027991074
 20
-316.06916186986297
  0
VERTEX
  8
1
 10
823.8629027991074
 20
-305.5491618698629
  0
VERTEX
  8
1
 10
823.8629027991074
 20
-295.03916186986294
  0
VERTEX
  8
1
 10
823.8629027991074
 20
-214.8891618698629
  0
VERTEX
  8
1
 10
827.8234161684857
 20
-215.07544529330863
  0
VERTEX
  8
1
 10
840.5479027991073
 20
-215.89216186986295
  0
VERTEX
  8
1
 10
845.4749027991073
 20
-216.18816186986294
  0
VERTEX
  8
1
 10
847.7682481019438
 20
-216.3538165670265
  0
VERTEX
  8
1
 10
850.3969027991074
 20
-216.60416186986293
  0
VERTEX
  8
1
 10
855.3139027991074
 20
-217.01316186986293
  0
VERTEX
  8
1
 10
857.5139377619114
 20
-217.21916186986294
  0
VERTEX
  8
1
 10
860.2159027991073
 20
-217.53016186986292
  0
VERTEX
  8
1
 10
865.1219027991074
 20
-218.05416186986292
  0
VERTEX
  8
1
 10
867.0789149766811
 20
-218.27517404743656
  0
VERTEX
  8
1
 10
870.0189027991073
 20
-218.68816186986294
  0
VERTEX
  8
1
 10
874.9079027991073
 20
-219.3241618698629
  0
VERTEX
  8
1
 10
876.419811507747
 20
-219.53607057850263
  0
VERTEX
  8
1
 10
879.7809027991074
 20
-220.11816186986294
  0
VERTEX
  8
1
 10
884.6559027991074
 20
-220.91116186986295
  0
VERTEX
  8
1
 10
885.5011656193975
 20
-221.05395033073347
  0
VERTEX
  8
1
 10
889.4889027991073
 20
-221.89016186986294
  0
VERTEX
  8
1
 10
894.3269027991073
 20
-222.89316186986292
  0
VERTEX
  8
1
 10
899.1129027991074
 20
-224.10016186986292
  0
VERTEX
  8
1
 10
902.8029027991074
 20
-225.0074670299415
  0
VERTEX
  8
1
 10
903.8819027991074
 20
-225.33416186986295
  0
VERTEX
  8
1
 10
908.5959027991073
 20
-226.79116186986295
  0
VERTEX
  8
1
 10
910.9477835986031
 20
-227.4746784053812
  0
VERTEX
  8
1
 10
913.2859027991074
 20
-228.31416186986291
  0
VERTEX
  8
1
 10
917.9159027991074
 20
-230.05116186986294
  0
VERTEX
  8
1
 10
918.8229027991074
 20
-230.40916186986294
  0
VERTEX
  8
1
 10
922.4659027991074
 20
-231.95016186986294
  0
VERTEX
  8
1
 10
926.1124463962763
 20
-233.63182924897598
  0
VERTEX
  8
1
 10
928.8629027991074
 20
-235.03916186986294
  0
VERTEX
  8
1
 10
928.8629027991074
 20
-235.03916186986294
  0
VERTEX
  8
1
 10
928.8629027991074
 20
-258.58916186986295
  0
VERTEX
  8
1
 10
928.8629027991074
 20
-259.58916186986295
  0
SEQEND
  0
ENDBLK
  0
ENDSEC
  0
SECTION
  2
ENTITIES
  0
INSERT
  2
0
 10
0
 20
0
  0
INSERT
  2
1
 10
0
 20
0
  0
INSERT
  2
2
 10
0
 20
0
  0
INSERT
  2
3
 10
0
 20
0
  0
INSERT
  2
4
 10
0
 20
0
  0
INSERT
  2
5
 10
0
 20
0
  0
INSERT
  2
6
 10
0
 20
0
  0
INSERT
  2
7
 10
0
 20
0
  0
INSERT
  2
8
 10
0
 20
0
  0
INSERT
  2
9
 10
0
 20
0
  0
INSERT
  2
10
 10
0
 20
0
  0
INSERT
  2
11
 10
0
 20
0
  0
INSERT
  2
12
 10
0
 20
0
  0
INSERT
  2
13
 10
0
 20
0
  0
INSERT
  2
14
 10
0
 20
0
  0
INSERT
  2
15
 10
0
 20
0
  0
INSERT
  2
16
 10
0
 20
0
  0
INSERT
  2
17
 10
0
 20
0
  0
INSERT
  2
18
 10
0
 20
0
  0
INSERT
  2
19
 10
0
 20
0
  0
INSERT
  2
20
 10
0
 20
0
  0
INSERT
  2
21
 10
0
 20
0
  0
INSERT
  2
22
 10
0
 20
0
  0
INSERT
  2
23
 10
0
 20
0
  0
INSERT
  2
24
 10
0
 20
0
  0
INSERT
  2
25
 10
0
 20
0
  0
INSERT
  2
26
 10
0
 20
0
  0
INSERT
  2
27
 10
0
 20
0
  0
INSERT
  2
28
 10
0
 20
0
  0
INSERT
  2
29
 10
0
 20
0
  0
INSERT
  2
30
 10
0
 20
0
  0
ENDSEC
  0
EOF