  0
SECTION
  2
HEADER
  9
$ACADVER
  1
AC1009
  0
ENDSEC
  0
SECTION
  2
TABLES
  0
TABLE
  2
SCOTT
  0
ENDTAB
  0
TABLE
  2
VPORT
 70
1
  0
VPORT
  2
*ACTIVE
 70
0
 10
0.0
 20
0.0
 11
1.0
 21
1.0
 12
0.0
 22
0.0
 13
0.0
 23
0.0
 14
1.0
 24
1.0
 15
0.0
 25
0.0
 16
0.0
 26
0.0
 36
1.0
 17
0.0
 27
0.0
 37
0.0
 40
100.0
 41
2
 42
0.0
 43
0.0
 44
0.0
 50
0.0
 51
0.0
 71
0.0
 72
0.0
 73
0.0
 74
0.0
 75
0.0
 76
0.0
 77
0.0
 78
0.0
  0
ENDTAB
  0
ENDSEC
  0
SECTION
  2
BLOCKS
  0
BLOCK
  2
0
  8
1
 10
0
 20
0
 70
64
  0
POLYLINE
  8
1
  62
3
10
0
 20
0
 66
1
  0
VERTEX
  8
1
 10
379.8849708257634
 20
-202.17000000955426
  0
VERTEX
  8
1
 10
379.69497082576333
 20
-191.42000000955426
  0
VERTEX
  8
1
 10
379.53797082576335
 20
-182.2360000095543
  0
VERTEX
  8
1
 10
379.1969708257634
 20
-162.3030000095543
  0
VERTEX
  8
1
 10
378.85697082576337
 20
-142.36900000955427
  0
VERTEX
  8
1
 10
378.51597082576336
 20
-122.4350000095543
  0
VERTEX
  8
1
 10
378.17497082576335
 20
-102.50200000955425
  0
VERTEX
  8
1
 10
377.8349708257633
 20
-82.56800000955428
  0
VERTEX
  8
1
 10
377.4939708257633
 20
-62.63500000955428
  0
VERTEX
  8
1
 10
377.1449708257633
 20
-42.20000000955428
  0
VERTEX
  8
1
 10
371.6279708257633
 20
-41.73400000955427
  0
VERTEX
  8
1
 10
366.11097082576333
 20
-41.268000009554264
  0
VERTEX
  8
1
 10
364.12497082576334
 20
-41.10000000955426
  0
VERTEX
  8
1
 10
362.30497082576335
 20
-40.95000000955428
  0
VERTEX
  8
1
 10
360.6149708257633
 20
-40.65400000955429
  0
VERTEX
  8
1
 10
360.53497082576337
 20
-40.64000000955428
  0
VERTEX
  8
1
 10
357.1149708257633
 20
-39.59000000955427
  0
VERTEX
  8
1
 10
355.42297082576334
 20
-38.81100000955427
  0
VERTEX
  8
1
 10
353.7249708257633
 20
-38.030000009554264
  0
VERTEX
  8
1
 10
350.54597082576333
 20
-36.21100000955425
  0
VERTEX
  8
1
 10
350.2649708257633
 20
-36.050000009554246
  0
VERTEX
  8
1
 10
346.5949708257633
 20
-33.73000000955425
  0
VERTEX
  8
1
 10
345.8639708257633
 20
-33.25900000955425
  0
VERTEX
  8
1
 10
342.62497082576334
 20
-31.170000009554307
  0
VERTEX
  8
1
 10
341.1959708257633
 20
-30.28200000955433
  0
VERTEX
  8
1
 10
338.2149708257633
 20
-28.4300000095543
  0
VERTEX
  8
1
 10
336.4529708257634
 20
-27.4300000095543
  0
VERTEX
  8
1
 10
333.2649708257633
 20
-25.620000009554353
  0
VERTEX
  8
1
 10
331.5919708257633
 20
-24.786000009554293
  0
VERTEX
  8
1
 10
327.6449708257633
 20
-22.820000009554285
  0
VERTEX
  8
1
 10
326.6139708257633
 20
-22.36300000955429
  0
VERTEX
  8
1
 10
324.55497082576335
 20
-21.45000000955428
  0
VERTEX
  8
1
 10
321.51097082576337
 20
-20.21800000955431
  0
VERTEX
  8
1
 10
321.24497082576335
 20
-20.110000009554362
  0
VERTEX
  8
1
 10
317.7149708257633
 20
-18.810000009554294
  0
VERTEX
  8
1
 10
316.3039708257633
 20
-18.346000009554352
  0
VERTEX
  8
1
 10
313.94497082576333
 20
-17.570000009554285
  0
VERTEX
  8
1
 10
311.0159708257633
 20
-16.710000009554385
  0
VERTEX
  8
1
 10
309.92497082576335
 20
-16.390000009554335
  0
VERTEX
  8
1
 10
305.66397082576333
 20
-15.297000009554376
  0
VERTEX
  8
1
 10
305.63497082576333
 20
-15.290000009554314
  0
VERTEX
  8
1
 10
301.05497082576335
 20
-14.280000009554323
  0
VERTEX
  8
1
 10
300.2529708257633
 20
-14.12800000955428
  0
VERTEX
  8
1
 10
296.18497082576334
 20
-13.360000009554364
  0
VERTEX
  8
1
 10
294.80497082576335
 20
-13.145000009554332
  0
VERTEX
  8
1
 10
290.9949708257633
 20
-12.550000009554305
  0
VERTEX
  8
1
 10
289.3279708257633
 20
-12.342000009554335
  0
VERTEX
  8
1
 10
285.4749708257633
 20
-11.860000009554364
  0
VERTEX
  8
1
 10
283.82897082576335
 20
-11.702000009554348
  0
VERTEX
  8
1
 10
279.62497082576334
 20
-11.300000009554305
  0
VERTEX
  8
1
 10
278.31497082576334
 20
-11.21200000955434
  0
VERTEX
  8
1
 10
273.4049708257633
 20
-10.880000009554346
  0
VERTEX
  8
1
 10
272.7899708257633
 20
-10.855000009554368
  0
VERTEX
  8
1
 10
267.2589708257633
 20
-10.62800000955428
  0
VERTEX
  8
1
 10
266.81497082576334
 20
-10.610000009554364
  0
VERTEX
  8
1
 10
261.72297082576335
 20
-10.530000009554323
  0
VERTEX
  8
1
 10
259.8449708257633
 20
-10.50000000955435
  0
VERTEX
  8
1
 10
256.18997082576334
 20
-10.603000009554302
  0
VERTEX
  8
1
 10
253.81497082576334
 20
-10.67000000955431
  0
VERTEX
  8
1
 10
250.66997082576333
 20
-10.959000009554297
  0
VERTEX
  8
1
 10
248.1649708257633
 20
-11.190000009554291
  0
VERTEX
  8
1
 10
245.18797082576333
 20
-11.6800000095543
  0
VERTEX
  8
1
 10
242.8749708257633
 20
-12.060000009554296
  0
VERTEX
  8
1
 10
239.77497082576332
 20
-12.810000009554296
  0
VERTEX
  8
1
 10
237.95497082576333
 20
-13.25000000955435
  0
VERTEX
  8
1
 10
234.47697082576332
 20
-14.38900000955436
  0
VERTEX
  8
1
 10
233.3749708257633
 20
-14.75000000955435
  0
VERTEX
  8
1
 10
229.34097082576332
 20
-16.436000009554384
  0
VERTEX
  8
1
 10
229.11497082576332
 20
-16.53000000955432
  0
VERTEX
  8
1
 10
225.17497082576332
 20
-18.59000000955438
  0
VERTEX
  8
1
 10
224.4639708257633
 20
-19.04100000955429
  0
VERTEX
  8
1
 10
221.5349708257633
 20
-20.900000009554326
  0
VERTEX
  8
1
 10
219.89097082576333
 20
-22.147000009554283
  0
VERTEX
  8
1
 10
218.18497082576332
 20
-23.44000000955429
  0
VERTEX
  8
1
 10
215.66297082576332
 20
-25.707000009554342
  0
VERTEX
  8
1
 10
215.11497082576332
 20
-26.20000000955428
  0
VERTEX
  8
1
 10
212.29497082576333
 20
-29.170000009554307
  0
VERTEX
  8
1
 10
211.85197082576332
 20
-29.713000009554314
  0
VERTEX
  8
1
 10
209.72497082576334
 20
-32.32000000955434
  0
VERTEX
  8
1
 10
208.47397082576333
 20
-34.09200000955433
  0
VERTEX
  8
1
 10
207.39497082576332
 20
-35.62000000955435
  0
VERTEX
  8
1
 10
205.48797082576334
 20
-38.747000009554306
  0
VERTEX
  8
1
 10
205.28497082576334
 20
-39.08000000955433
  0
VERTEX
  8
1
 10
203.37497082576334
 20
-42.6800000095543
  0
VERTEX
  8
1
 10
202.92697082576333
 20
-43.650000009554326
  0
VERTEX
  8
1
 10
201.67497082576332
 20
-46.36000000955436
  0
VERTEX
  8
1
 10
200.71997082576334
 20
-48.72400000955434
  0
VERTEX
  8
1
 10
200.14497082576332
 20
-50.150000009554326
  0
VERTEX
  8
1
 10
198.81097082576332
 20
-53.91900000955433
  0
VERTEX
  8
1
 10
198.77497082576332
 20
-54.02000000955433
  0
VERTEX
  8
1
 10
197.56497082576334
 20
-57.95000000955434
  0
VERTEX
  8
1
 10
197.22197082576332
 20
-59.22100000955435
  0
VERTEX
  8
1
 10
196.49497082576335
 20
-61.91000000955432
  0
VERTEX
  8
1
 10
195.89697082576333
 20
-64.59200000955434
  0
VERTEX
  8
1
 10
194.71497082576334
 20
-69.89000000955434
  0
VERTEX
  8
1
 10
194.69597082576334
 20
-69.99700000955431
  0
VERTEX
  8
1
 10
193.74697082576333
 20
-75.45100000955432
  0
VERTEX
  8
1
 10
193.33497082576335
 20
-77.82000000955435
  0
VERTEX
  8
1
 10
192.89697082576333
 20
-80.92100000955435
  0
VERTEX
  8
1
 10
192.24497082576335
 20
-85.54000000955432
  0
VERTEX
  8
1
 10
192.13797082576335
 20
-86.40500000955433
  0
VERTEX
  8
1
 10
191.45597082576333
 20
-91.89900000955436
  0
VERTEX
  8
1
 10
191.44497082576333
 20
-91.99000000955436
  0
VERTEX
  8
1
 10
191.32497082576333
 20
-92.94000000955435
  0
VERTEX
  8
1
 10
190.78397082576333
 20
-97.39500000955434
  0
VERTEX
  8
1
 10
190.48497082576333
 20
-99.86000000955437
  0
VERTEX
  8
1
 10
189.60497082576333
 20
-106.16000000955432
  0
VERTEX
  8
1
 10
188.83897082576334
 20
-100.67700000955432
  0
VERTEX
  8
1
 10
188.72497082576334
 20
-99.86000000955437
  0
VERTEX
  8
1
 10
188.15697082576335
 20
-95.18300000955435
  0
VERTEX
  8
1
 10
187.88497082576333
 20
-92.94000000955435
  0
VERTEX
  8
1
 10
187.76497082576333
 20
-91.98000000955432
  0
VERTEX
  8
1
 10
187.48397082576335
 20
-89.68800000955434
  0
VERTEX
  8
1
 10
186.97497082576334
 20
-85.54000000955432
  0
VERTEX
  8
1
 10
186.78397082576333
 20
-84.19600000955433
  0
VERTEX
  8
1
 10
186.00397082576333
 20
-78.71500000955433
  0
VERTEX
  8
1
 10
185.87497082576334
 20
-77.81000000955436
  0
VERTEX
  8
1
 10
185.08297082576334
 20
-73.25600000955433
  0
VERTEX
  8
1
 10
184.49497082576335
 20
-69.88000000955435
  0
VERTEX
  8
1
 10
184.03597082576334
 20
-67.82300000955433
  0
VERTEX
  8
1
 10
182.82897082576332
 20
-62.42000000955431
  0
VERTEX
  8
1
 10
182.71497082576334
 20
-61.91000000955432
  0
VERTEX
  8
1
 10
181.64497082576332
 20
-57.940000009554346
  0
VERTEX
  8
1
 10
181.37897082576333
 20
-57.07800000955432
  0
VERTEX
  8
1
 10
180.43497082576334
 20
-54.02000000955433
  0
VERTEX
  8
1
 10
179.66097082576334
 20
-51.81800000955433
  0
VERTEX
  8
1
 10
179.07497082576333
 20
-50.150000009554326
  0
VERTEX
  8
1
 10
177.66497082576333
 20
-46.65700000955433
  0
VERTEX
  8
1
 10
177.54497082576333
 20
-46.36000000955436
  0
VERTEX
  8
1
 10
175.83497082576332
 20
-42.67000000955431
  0
VERTEX
  8
1
 10
175.29597082576333
 20
-41.65700000955433
  0
VERTEX
  8
1
 10
173.92497082576332
 20
-39.08000000955433
  0
VERTEX
  8
1
 10
172.56297082576333
 20
-36.84700000955433
  0
VERTEX
  8
1
 10
171.81497082576334
 20
-35.62000000955435
  0
VERTEX
  8
1
 10
169.47497082576334
 20
-32.31000000955435
  0
VERTEX
  8
1
 10
169.44897082576333
 20
-32.27800000955431
  0
VERTEX
  8
1
 10
166.91497082576333
 20
-29.170000009554307
  0
VERTEX
  8
1
 10
165.86797082576334
 20
-28.063000009554337
  0
VERTEX
  8
1
 10
164.10497082576333
 20
-26.20000000955428
  0
VERTEX
  8
1
 10
161.89197082576334
 20
-24.22400000955428
  0
VERTEX
  8
1
 10
161.01497082576333
 20
-23.44000000955429
  0
VERTEX
  8
1
 10
157.67497082576332
 20
-20.900000009554326
  0
VERTEX
  8
1
 10
157.53997082576333
 20
-20.81500000955429
  0
VERTEX
  8
1
 10
154.0349708257633
 20
-18.59000000955438
  0
VERTEX
  8
1
 10
152.81197082576332
 20
-17.95000000955428
  0
VERTEX
  8
1
 10
150.0949708257633
 20
-16.53000000955432
  0
VERTEX
  8
1
 10
147.8209708257633
 20
-15.577000009554348
  0
VERTEX
  8
1
 10
145.8449708257633
 20
-14.75000000955435
  0
VERTEX
  8
1
 10
142.62197082576333
 20
-13.697000009554353
  0
VERTEX
  8
1
 10
141.25497082576334
 20
-13.25000000955435
  0
VERTEX
  8
1
 10
137.2729708257633
 20
-12.289000009554337
  0
VERTEX
  8
1
 10
136.32497082576333
 20
-12.060000009554296
  0
VERTEX
  8
1
 10
131.8259708257633
 20
-11.317000009554357
  0
VERTEX
  8
1
 10
131.05497082576332
 20
-11.190000009554291
  0
VERTEX
  8
1
 10
126.31997082576332
 20
-10.755000009554346
  0
VERTEX
  8
1
 10
125.39497082576332
 20
-10.67000000955431
  0
VERTEX
  8
1
 10
120.78997082576332
 20
-10.540000009554314
  0
VERTEX
  8
1
 10
119.35497082576332
 20
-10.50000000955435
  0
VERTEX
  8
1
 10
115.25497082576332
 20
-10.565000009554291
  0
VERTEX
  8
1
 10
112.39497082576332
 20
-10.610000009554364
  0
VERTEX
  8
1
 10
109.72197082576332
 20
-10.720000009554377
  0
VERTEX
  8
1
 10
105.80497082576332
 20
-10.880000009554346
  0
VERTEX
  8
1
 10
104.19297082576333
 20
-10.989000009554383
  0
VERTEX
  8
1
 10
99.59497082576333
 20
-11.300000009554305
  0
VERTEX
  8
1
 10
98.67197082576332
 20
-11.390000009554337
  0
VERTEX
  8
1
 10
93.72497082576332
 20
-11.870000009554355
  0
VERTEX
  8
1
 10
93.16297082576332
 20
-11.939000009554315
  0
VERTEX
  8
1
 10
88.21497082576332
 20
-12.550000009554305
  0
VERTEX
  8
1
 10
87.67197082576332
 20
-12.635000009554341
  0
VERTEX
  8
1
 10
83.03497082576332
 20
-13.360000009554364
  0
VERTEX
  8
1
 10
82.20697082576332
 20
-13.516000009554313
  0
VERTEX
  8
1
 10
78.15497082576333
 20
-14.280000009554323
  0
VERTEX
  8
1
 10
76.77497082576332
 20
-14.584000009554297
  0
VERTEX
  8
1
 10
73.56497082576333
 20
-15.290000009554314
  0
VERTEX
  8
1
 10
71.38697082576333
 20
-15.850000009554373
  0
VERTEX
  8
1
 10
69.28497082576332
 20
-16.390000009554335
  0
VERTEX
  8
1
 10
66.05597082576332
 20
-17.338000009554314
  0
VERTEX
  8
1
 10
65.26497082576333
 20
-17.570000009554285
  0
VERTEX
  8
1
 10
61.494970825763346
 20
-18.810000009554294
  0
VERTEX
  8
1
 10
60.79797082576334
 20
-19.067000009554356
  0
VERTEX
  8
1
 10
57.964970825763345
 20
-20.110000009554362
  0
VERTEX
  8
1
 10
55.63197082576335
 20
-21.05100000955428
  0
VERTEX
  8
1
 10
54.64497082576332
 20
-21.45000000955428
  0
VERTEX
  8
1
 10
51.56497082576334
 20
-22.820000009554285
  0
VERTEX
  8
1
 10
50.581970825763335
 20
-23.310000009554294
  0
VERTEX
  8
1
 10
45.944970825763335
 20
-25.620000009554353
  0
VERTEX
  8
1
 10
45.63697082576334
 20
-25.795000009554307
  0
VERTEX
  8
1
 10
40.994970825763346
 20
-28.4300000095543
  0
VERTEX
  8
1
 10
40.82697082576334
 20
-28.53400000955434
  0
VERTEX
  8
1
 10
36.57497082576333
 20
-31.170000009554307
  0
VERTEX
  8
1
 10
36.12697082576332
 20
-31.460000009554328
  0
VERTEX
  8
1
 10
32.61497082576332
 20
-33.73000000955437
  0
VERTEX
  8
1
 10
31.46997082576334
 20
-34.45400000955441
  0
VERTEX
  8
1
 10
28.944970825763335
 20
-36.05000000955436
  0
VERTEX
  8
1
 10
26.73197082576334
 20
-37.31300000955439
  0
VERTEX
  8
1
 10
25.474970825763336
 20
-38.03000000955438
  0
VERTEX
  8
1
 10
22.10497082576333
 20
-39.59000000955438
  0
VERTEX
  8
1
 10
21.756970825763347
 20
-39.696000009554375
  0
VERTEX
  8
1
 10
18.664970825763334
 20
-40.64000000955439
  0
VERTEX
  8
1
 10
16.904970825763343
 20
-40.950000009554394
  0
VERTEX
  8
1
 10
16.411970825763348
 20
-40.990000009554414
  0
VERTEX
  8
1
 10
15.07497082576333
 20
-41.10000000955437
  0
VERTEX
  8
1
 10
10.894970825763323
 20
-41.4570000095544
  0
VERTEX
  8
1
 10
2.0649708257633392
 20
-42.210000009554385
  0
VERTEX
  8
1
 10
1.9249708257633245
 20
-47.02000000955439
  0
VERTEX
  8
1
 10
1.6569708257633238
 20
-62.607000009554376
  0
VERTEX
  8
1
 10
1.6349708257633324
 20
-63.89000000955439
  0
VERTEX
  8
1
 10
1.5649708257633392
 20
-80.7600000095544
  0
VERTEX
  8
1
 10
1.5849708257633495
 20
-83.0080000095544
  0
VERTEX
  8
1
 10
1.714970825763345
 20
-97.73000000955437
  0
VERTEX
  8
1
 10
1.8449708257633404
 20
-103.4070000095544
  0
VERTEX
  8
1
 10
2.0649708257633392
 20
-113.00000000955441
  0
VERTEX
  8
1
 10
2.45797082576334
 20
-123.79800000955441
  0
VERTEX
  8
1
 10
2.6249708257633415
 20
-128.37000000955442
  0
VERTEX
  8
1
 10
3.4149708257633336
 20
-143.73000000955443
  0
VERTEX
  8
1
 10
3.44397082576333
 20
-144.17500000955437
  0
VERTEX
  8
1
 10
4.424970825763353
 20
-159.2100000095544
  0
VERTEX
  8
1
 10
4.878970825763361
 20
-164.5240000095544
  0
VERTEX
  8
1
 10
5.414970825763362
 20
-170.81000000955436
  0
VERTEX
  8
1
 10
6.524970825763376
 20
-182.49000000955442
  0
VERTEX
  8
1
 10
6.771970825763361
 20
-184.8370000095544
  0
VERTEX
  8
1
 10
7.554970825763377
 20
-192.29000000955438
  0
VERTEX
  8
1
 10
10.538550735710146
 20
-191.97654998010472
  0
VERTEX
  8
1
 10
7.554970825763377
 20
-192.29000000955438
  0
VERTEX
  8
1
 10
7.554970825763377
 20
-192.29000000955438
  0
VERTEX
  8
1
 10
7.734970825763355
 20
-194.0100000095544
  0
VERTEX
  8
1
 10
9.01197082576337
 20
-205.11500000955442
  0
VERTEX
  8
1
 10
9.074970825763359
 20
-205.66000000955438
  0
VERTEX
  8
1
 10
10.844970825763369
 20
-219.7700000095544
  0
VERTEX
  8
1
 10
11.586970825763359
 20
-225.35300000955436
  0
VERTEX
  8
1
 10
12.734970825763355
 20
-233.99000000955442
  0
VERTEX
  8
1
 10
14.37097082576335
 20
-245.56400000955438
  0
VERTEX
  8
1
 10
14.724970825763364
 20
-248.0700000095544
  0
VERTEX
  8
1
 10
16.84497082576337
 20
-262.2100000095544
  0
VERTEX
  8
1
 10
18.234970825763355
 20
-271.4300000095544
  0
VERTEX
  8
1
 10
29.86497082576335
 20
-271.2700000095544
  0
VERTEX
  8
1
 10
40.36097082576336
 20
-271.12100000955434
  0
VERTEX
  8
1
 10
51.65497082576337
 20
-270.96000000955434
  0
VERTEX
  8
1
 10
62.48797082576337
 20
-270.89500000955434
  0
VERTEX
  8
1
 10
69.89497082576337
 20
-270.8500000095543
  0
VERTEX
  8
1
 10
84.61597082576337
 20
-270.92600000955434
  0
VERTEX
  8
1
 10
91.28497082576337
 20
-270.96000000955434
  0
VERTEX
  8
1
 10
106.74197082576336
 20
-271.2180000095543
  0
VERTEX
  8
1
 10
106.85497082576336
 20
-271.2200000095543
  0
VERTEX
  8
1
 10
128.85797082576337
 20
-271.9320000095543
  0
VERTEX
  8
1
 10
131.89497082576338
 20
-272.0300000095543
  0
VERTEX
  8
1
 10
144.79497082576336
 20
-272.44000000955435
  0
VERTEX
  8
1
 10
150.9739708257634
 20
-272.67400000955433
  0
VERTEX
  8
1
 10
154.28497082576337
 20
-272.8000000095543
  0
VERTEX
  8
1
 10
154.399053154603
 20
-269.8021699239346
  0
VERTEX
  8
1
 10
154.28497082576337
 20
-272.8000000095543
  0
VERTEX
  8
1
 10
154.28497082576337
 20
-272.8000000095543
  0
VERTEX
  8
1
 10
168.84497082576337
 20
-273.3500000095543
  0
VERTEX
  8
1
 10
173.08097082576336
 20
-273.59900000955435
  0
VERTEX
  8
1
 10
180.57497082576336
 20
-274.0400000095543
  0
VERTEX
  8
1
 10
189.61497082576338
 20
-274.7900000095543
  0
VERTEX
  8
1
 10
190.57497082576336
 20
-274.71000000955434
  0
VERTEX
  8
1
 10
190.3258343862022
 20
-271.7203627348197
  0
VERTEX
  8
1
 10
190.57497082576336
 20
-274.71000000955434
  0
VERTEX
  8
1
 10
190.57497082576336
 20
-274.71000000955434
  0
VERTEX
  8
1
 10
195.0509708257634
 20
-274.3380000095543
  0
VERTEX
  8
1
 10
198.64497082576338
 20
-274.0400000095543
  0
VERTEX
  8
1
 10
210.37497082576337
 20
-273.3500000095543
  0
VERTEX
  8
1
 10
234.36497082576338
 20
-272.44000000955435
  0
VERTEX
  8
1
 10
234.54497082576336
 20
-261.9400000095543
  0
VERTEX
  8
1
 10
234.59497082576337
 20
-259.2300000095544
  0
VERTEX
  8
1
 10
234.74497082576337
 20
-256.75000000955436
  0
VERTEX
  8
1
 10
234.8609708257634
 20
-255.69100000955433
  0
VERTEX
  8
1
 10
235.01497082576338
 20
-254.28000000955433
  0
VERTEX
  8
1
 10
235.40497082576337
 20
-251.83000000955434
  0
VERTEX
  8
1
 10
235.75997082576336
 20
-250.09500000955433
  0
VERTEX
  8
1
 10
235.90497082576337
 20
-249.39000000955434
  0
VERTEX
  8
1
 10
236.50497082576337
 20
-246.98000000955437
  0
VERTEX
  8
1
 10
237.21897082576336
 20
-244.61900000955433
  0
VERTEX
  8
1
 10
237.22497082576336
 20
-244.60000000955438
  0
VERTEX
  8
1
 10
238.05497082576335
 20
-242.26000000955435
  0
VERTEX
  8
1
 10
238.98497082576336
 20
-239.96000000955434
  0
VERTEX
  8
1
 10
239.27197082576336
 20
-239.33700000955434
  0
VERTEX
  8
1
 10
240.02497082576338
 20
-237.70000000955434
  0
VERTEX
  8
1
 10
241.16497082576336
 20
-235.49000000955436
  0
VERTEX
  8
1
 10
241.85497082576336
 20
-234.29400000955434
  0
VERTEX
  8
1
 10
242.40497082576337
 20
-233.34000000955433
  0
VERTEX
  8
1
 10
243.74497082576337
 20
-231.25000000955436
  0
VERTEX
  8
1
 10
244.95097082576336
 20
-229.5500000095543
  0
VERTEX
  8
1
 10
245.18497082576337
 20
-229.22000000955433
  0
VERTEX
  8
1
 10
246.70497082576335
 20
-227.26000000955435
  0
VERTEX
  8
1
 10
248.32497082576336
 20
-225.36000000955437
  0
VERTEX
  8
1
 10
248.51997082576338
 20
-225.15000000955433
  0
VERTEX
  8
1
 10
250.10497082576336
 20
-223.45000000955434
  0
VERTEX
  8
1
 10
251.98497082576336
 20
-221.62000000955436
  0
VERTEX
  8
1
 10
252.51997082576338
 20
-221.13900000955437
  0
VERTEX
  8
1
 10
253.93497082576337
 20
-219.87000000955436
  0
VERTEX
  8
1
 10
255.95497082576338
 20
-218.21000000955434
  0
VERTEX
  8
1
 10
256.8759708257634
 20
-217.5210000095543
  0
VERTEX
  8
1
 10
258.05497082576335
 20
-216.64000000955434
  0
VERTEX
  8
1
 10
260.2149708257634
 20
-215.17000000955431
  0
VERTEX
  8
1
 10
261.55697082576336
 20
-214.3390000095543
  0
VERTEX
  8
1
 10
262.44497082576333
 20
-213.79000000955432
  0
VERTEX
  8
1
 10
264.73497082576336
 20
-212.50000000955436
  0
VERTEX
  8
1
 10
266.51597082576336
 20
-211.60600000955435
  0
VERTEX
  8
1
 10
267.06497082576334
 20
-211.33000000955434
  0
VERTEX
  8
1
 10
269.4549708257634
 20
-210.25000000955436
  0
VERTEX
  8
1
 10
271.7119708257634
 20
-209.36200000955432
  0
VERTEX
  8
1
 10
271.8949708257634
 20
-209.29000000955432
  0
VERTEX
  8
1
 10
274.36497082576335
 20
-208.4300000095543
  0
VERTEX
  8
1
 10
276.8749708257634
 20
-207.6800000095543
  0
VERTEX
  8
1
 10
277.1039708257634
 20
-207.6220000095543
  0
VERTEX
  8
1
 10
279.41497082576336
 20
-207.04000000955432
  0
VERTEX
  8
1
 10
281.98497082576336
 20
-206.51000000955435
  0
VERTEX
  8
1
 10
282.64097082576336
 20
-206.40700000955434
  0
VERTEX
  8
1
 10
284.78497082576337
 20
-206.07000000955435
  0
VERTEX
  8
1
 10
288.24497082576335
 20
-205.53900000955434
  0
VERTEX
  8
1
 10
293.8509708257634
 20
-204.6800000095543
  0
VERTEX
  8
1
 10
294.7649708257634
 20
-204.54000000955432
  0
VERTEX
  8
1
 10
299.4759708257634
 20
-203.95800000955433
  0
VERTEX
  8
1
 10
304.7149708257634
 20
-203.3100000095543
  0
VERTEX
  8
1
 10
305.10497082576336
 20
-203.27200000955435
  0
VERTEX
  8
1
 10
310.7499708257634
 20
-202.72900000955434
  0
VERTEX
  8
1
 10
314.68497082576334
 20
-202.35000000955438
  0
VERTEX
  8
1
 10
316.3989708257634
 20
-202.23200000955433
  0
VERTEX
  8
1
 10
322.0559708257633
 20
-201.84100000955436
  0
VERTEX
  8
1
 10
324.68497082576334
 20
-201.66000000955432
  0
VERTEX
  8
1
 10
327.71897082576334
 20
-201.53700000955433
  0
VERTEX
  8
1
 10
333.38397082576336
 20
-201.30800000955435
  0
VERTEX
  8
1
 10
335.05497082576335
 20
-201.24000000955436
  0
VERTEX
  8
1
 10
339.0539708257634
 20
-201.18200000955437
  0
VERTEX
  8
1
 10
344.72397082576333
 20
-201.10000000955438
  0
VERTEX
  8
1
 10
345.42497082576335
 20
-201.09000000955433
  0
VERTEX
  8
1
 10
350.3949708257634
 20
-201.15200000955429
  0
VERTEX
  8
1
 10
355.80497082576335
 20
-201.22000000955427
  0
VERTEX
  8
1
 10
356.06397082576336
 20
-201.23000000955432
  0
VERTEX
  8
1
 10
361.73197082576337
 20
-201.45100000955432
  0
VERTEX
  8
1
 10
366.30497082576335
 20
-201.6300000095543
  0
VERTEX
  8
1
 10
367.3989708257634
 20
-201.6730000095543
  0
VERTEX
  8
1
 10
373.06497082576334
 20
-201.8990000095543
  0
VERTEX
  8
1
 10
379.8849708257634
 20
-202.17000000955426
  0
VERTEX
  8
1
 10
379.8849708257634
 20
-202.17000000955426
  0
VERTEX
  8
1
 10
379.69497082576333
 20
-191.42000000955426
  0
VERTEX
  8
1
 10
379.67787837537094
 20
-190.42014609615512
  0
SEQEND
  0
ENDBLK
  0
BLOCK
  2
1
  8
1
 10
0
 20
0
 70
64
  0
POLYLINE
  8
1
  62
3
10
0
 20
0
 66
1
  0
VERTEX
  8
1
 10
388.54872678158165
 20
-202.17000000000002
  0
VERTEX
  8
1
 10
388.7387267815816
 20
-191.42000000000002
  0
VERTEX
  8
1
 10
388.89572678158163
 20
-182.23600000000002
  0
VERTEX
  8
1
 10
389.23672678158164
 20
-162.303
  0
VERTEX
  8
1
 10
389.5767267815816
 20
-142.369
  0
VERTEX
  8
1
 10
389.9177267815816
 20
-122.43500000000003
  0
VERTEX
  8
1
 10
390.25872678158163
 20
-102.50200000000002
  0
VERTEX
  8
1
 10
390.5987267815816
 20
-82.56800000000003
  0
VERTEX
  8
1
 10
390.9397267815816
 20
-62.63500000000002
  0
VERTEX
  8
1
 10
391.28872678158166
 20
-42.20000000000002
  0
VERTEX
  8
1
 10
396.8057267815816
 20
-41.734000000000016
  0
VERTEX
  8
1
 10
402.32272678158165
 20
-41.268000000000015
  0
VERTEX
  8
1
 10
404.30872678158164
 20
-41.10000000000001
  0
VERTEX
  8
1
 10
406.1287267815816
 20
-40.95000000000001
  0
VERTEX
  8
1
 10
407.81872678158163
 20
-40.65400000000001
  0
VERTEX
  8
1
 10
407.8987267815816
 20
-40.64000000000001
  0
VERTEX
  8
1
 10
411.31872678158163
 20
-39.59000000000001
  0
VERTEX
  8
1
 10
413.01072678158164
 20
-38.811000000000014
  0
VERTEX
  8
1
 10
414.7087267815816
 20
-38.030000000000015
  0
VERTEX
  8
1
 10
417.8877267815816
 20
-36.21100000000001
  0
VERTEX
  8
1
 10
418.16872678158165
 20
-36.05000000000001
  0
VERTEX
  8
1
 10
421.8387267815816
 20
-33.73000000000002
  0
VERTEX
  8
1
 10
422.5697267815816
 20
-33.259000000000015
  0
VERTEX
  8
1
 10
425.80872678158164
 20
-31.170000000000012
  0
VERTEX
  8
1
 10
427.2377267815816
 20
-30.282000000000014
  0
VERTEX
  8
1
 10
430.2187267815816
 20
-28.430000000000014
  0
VERTEX
  8
1
 10
431.9807267815816
 20
-27.430000000000014
  0
VERTEX
  8
1
 10
435.16872678158165
 20
-25.62000000000001
  0
VERTEX
  8
1
 10
436.84172678158166
 20
-24.78600000000001
  0
VERTEX
  8
1
 10
440.78872678158166
 20
-22.820000000000014
  0
VERTEX
  8
1
 10
441.8197267815816
 20
-22.363000000000014
  0
VERTEX
  8
1
 10
443.8787267815816
 20
-21.450000000000014
  0
VERTEX
  8
1
 10
446.9227267815816
 20
-20.218000000000014
  0
VERTEX
  8
1
 10
447.18872678158164
 20
-20.110000000000014
  0
VERTEX
  8
1
 10
450.7187267815816
 20
-18.81000000000001
  0
VERTEX
  8
1
 10
452.1297267815816
 20
-18.34600000000001
  0
VERTEX
  8
1
 10
454.4887267815816
 20
-17.570000000000014
  0
VERTEX
  8
1
 10
457.4177267815816
 20
-16.71000000000001
  0
VERTEX
  8
1
 10
458.50872678158163
 20
-16.39000000000001
  0
VERTEX
  8
1
 10
462.76972678158165
 20
-15.297000000000011
  0
VERTEX
  8
1
 10
462.79872678158165
 20
-15.290000000000012
  0
VERTEX
  8
1
 10
467.37872678158163
 20
-14.280000000000012
  0
VERTEX
  8
1
 10
468.1807267815816
 20
-14.12800000000001
  0
VERTEX
  8
1
 10
472.24872678158164
 20
-13.36000000000001
  0
VERTEX
  8
1
 10
473.62872678158163
 20
-13.14500000000001
  0
VERTEX
  8
1
 10
477.43872678158164
 20
-12.550000000000011
  0
VERTEX
  8
1
 10
479.1057267815816
 20
-12.342000000000011
  0
VERTEX
  8
1
 10
482.9587267815816
 20
-11.86000000000001
  0
VERTEX
  8
1
 10
484.60472678158163
 20
-11.70200000000001
  0
VERTEX
  8
1
 10
488.80872678158164
 20
-11.30000000000001
  0
VERTEX
  8
1
 10
490.1187267815816
 20
-11.21200000000001
  0
VERTEX
  8
1
 10
495.0287267815816
 20
-10.88000000000001
  0
VERTEX
  8
1
 10
495.6437267815816
 20
-10.85500000000001
  0
VERTEX
  8
1
 10
501.1747267815816
 20
-10.628000000000009
  0
VERTEX
  8
1
 10
501.6187267815816
 20
-10.610000000000008
  0
VERTEX
  8
1
 10
506.7107267815816
 20
-10.530000000000008
  0
VERTEX
  8
1
 10
508.5887267815816
 20
-10.500000000000009
  0
VERTEX
  8
1
 10
512.2437267815816
 20
-10.603000000000009
  0
VERTEX
  8
1
 10
514.6187267815816
 20
-10.670000000000009
  0
VERTEX
  8
1
 10
517.7637267815816
 20
-10.959000000000009
  0
VERTEX
  8
1
 10
520.2687267815816
 20
-11.190000000000008
  0
VERTEX
  8
1
 10
523.2457267815817
 20
-11.680000000000009
  0
VERTEX
  8
1
 10
525.5587267815816
 20
-12.060000000000008
  0
VERTEX
  8
1
 10
528.6587267815817
 20
-12.810000000000008
  0
VERTEX
  8
1
 10
530.4787267815816
 20
-13.250000000000007
  0
VERTEX
  8
1
 10
533.9567267815817
 20
-14.389000000000006
  0
VERTEX
  8
1
 10
535.0587267815816
 20
-14.750000000000007
  0
VERTEX
  8
1
 10
539.0927267815816
 20
-16.436000000000007
  0
VERTEX
  8
1
 10
539.3187267815816
 20
-16.53000000000001
  0
VERTEX
  8
1
 10
543.2587267815816
 20
-18.590000000000007
  0
VERTEX
  8
1
 10
543.9697267815816
 20
-19.041000000000007
  0
VERTEX
  8
1
 10
546.8987267815817
 20
-20.900000000000006
  0
VERTEX
  8
1
 10
548.5427267815816
 20
-22.147000000000006
  0
VERTEX
  8
1
 10
550.2487267815816
 20
-23.440000000000005
  0
VERTEX
  8
1
 10
552.7707267815816
 20
-25.707000000000008
  0
VERTEX
  8
1
 10
553.3187267815816
 20
-26.200000000000003
  0
VERTEX
  8
1
 10
556.1387267815816
 20
-29.17
  0
VERTEX
  8
1
 10
556.5817267815817
 20
-29.713000000000005
  0
VERTEX
  8
1
 10
558.7087267815816
 20
-32.32000000000001
  0
VERTEX
  8
1
 10
559.9597267815816
 20
-34.092
  0
VERTEX
  8
1
 10
561.0387267815817
 20
-35.620000000000005
  0
VERTEX
  8
1
 10
562.9457267815816
 20
-38.747
  0
VERTEX
  8
1
 10
563.1487267815817
 20
-39.08
  0
VERTEX
  8
1
 10
565.0587267815816
 20
-42.68
  0
VERTEX
  8
1
 10
565.5067267815816
 20
-43.650000000000006
  0
VERTEX
  8
1
 10
566.7587267815816
 20
-46.36000000000001
  0
VERTEX
  8
1
 10
567.7137267815816
 20
-48.724000000000004
  0
VERTEX
  8
1
 10
568.2887267815817
 20
-50.150000000000006
  0
VERTEX
  8
1
 10
569.6227267815816
 20
-53.919000000000004
  0
VERTEX
  8
1
 10
569.6587267815817
 20
-54.02
  0
VERTEX
  8
1
 10
570.8687267815816
 20
-57.95
  0
VERTEX
  8
1
 10
571.2117267815817
 20
-59.221000000000004
  0
VERTEX
  8
1
 10
571.9387267815816
 20
-61.910000000000004
  0
VERTEX
  8
1
 10
572.5367267815816
 20
-64.59200000000001
  0
VERTEX
  8
1
 10
573.7187267815816
 20
-69.89
  0
VERTEX
  8
1
 10
573.7377267815816
 20
-69.997
  0
VERTEX
  8
1
 10
574.6867267815816
 20
-75.45100000000001
  0
VERTEX
  8
1
 10
575.0987267815816
 20
-77.82000000000001
  0
VERTEX
  8
1
 10
575.5367267815816
 20
-80.921
  0
VERTEX
  8
1
 10
576.1887267815816
 20
-85.54
  0
VERTEX
  8
1
 10
576.2957267815816
 20
-86.40500000000002
  0
VERTEX
  8
1
 10
576.9777267815816
 20
-91.89900000000002
  0
VERTEX
  8
1
 10
576.9887267815816
 20
-91.99000000000001
  0
VERTEX
  8
1
 10
577.1087267815816
 20
-92.94000000000001
  0
VERTEX
  8
1
 10
577.6497267815816
 20
-97.39500000000001
  0
VERTEX
  8
1
 10
577.9487267815816
 20
-99.86000000000001
  0
VERTEX
  8
1
 10
578.8287267815816
 20
-106.16000000000001
  0
VERTEX
  8
1
 10
579.5947267815816
 20
-100.677
  0
VERTEX
  8
1
 10
579.7087267815816
 20
-99.86000000000001
  0
VERTEX
  8
1
 10
580.2767267815816
 20
-95.183
  0
VERTEX
  8
1
 10
580.5487267815816
 20
-92.94000000000001
  0
VERTEX
  8
1
 10
580.6687267815817
 20
-91.98
  0
VERTEX
  8
1
 10
580.9497267815816
 20
-89.68800000000002
  0
VERTEX
  8
1
 10
581.4587267815816
 20
-85.54
  0
VERTEX
  8
1
 10
581.6497267815816
 20
-84.19600000000001
  0
VERTEX
  8
1
 10
582.4297267815816
 20
-78.715
  0
VERTEX
  8
1
 10
582.5587267815816
 20
-77.81000000000002
  0
VERTEX
  8
1
 10
583.3507267815817
 20
-73.256
  0
VERTEX
  8
1
 10
583.9387267815816
 20
-69.88
  0
VERTEX
  8
1
 10
584.3977267815816
 20
-67.82300000000001
  0
VERTEX
  8
1
 10
585.6047267815816
 20
-62.42
  0
VERTEX
  8
1
 10
585.7187267815816
 20
-61.910000000000004
  0
VERTEX
  8
1
 10
586.7887267815817
 20
-57.940000000000005
  0
VERTEX
  8
1
 10
587.0547267815816
 20
-57.078
  0
VERTEX
  8
1
 10
587.9987267815816
 20
-54.02
  0
VERTEX
  8
1
 10
588.7727267815816
 20
-51.818000000000005
  0
VERTEX
  8
1
 10
589.3587267815816
 20
-50.150000000000006
  0
VERTEX
  8
1
 10
590.7687267815816
 20
-46.657000000000004
  0
VERTEX
  8
1
 10
590.8887267815816
 20
-46.36000000000001
  0
VERTEX
  8
1
 10
592.5987267815816
 20
-42.67
  0
VERTEX
  8
1
 10
593.1377267815816
 20
-41.657000000000004
  0
VERTEX
  8
1
 10
594.5087267815816
 20
-39.08
  0
VERTEX
  8
1
 10
595.8707267815817
 20
-36.84700000000001
  0
VERTEX
  8
1
 10
596.6187267815816
 20
-35.620000000000005
  0
VERTEX
  8
1
 10
598.9587267815816
 20
-32.31
  0
VERTEX
  8
1
 10
598.9847267815816
 20
-32.278000000000006
  0
VERTEX
  8
1
 10
601.5187267815816
 20
-29.17
  0
VERTEX
  8
1
 10
602.5657267815816
 20
-28.063000000000002
  0
VERTEX
  8
1
 10
604.3287267815816
 20
-26.200000000000003
  0
VERTEX
  8
1
 10
606.5417267815816
 20
-24.224000000000004
  0
VERTEX
  8
1
 10
607.4187267815817
 20
-23.440000000000005
  0
VERTEX
  8
1
 10
610.7587267815816
 20
-20.900000000000006
  0
VERTEX
  8
1
 10
610.8937267815816
 20
-20.815000000000005
  0
VERTEX
  8
1
 10
614.3987267815817
 20
-18.590000000000003
  0
VERTEX
  8
1
 10
615.6217267815816
 20
-17.950000000000003
  0
VERTEX
  8
1
 10
618.3387267815816
 20
-16.53
  0
VERTEX
  8
1
 10
620.6127267815816
 20
-15.577000000000004
  0
VERTEX
  8
1
 10
622.5887267815816
 20
-14.750000000000002
  0
VERTEX
  8
1
 10
625.8117267815816
 20
-13.697000000000001
  0
VERTEX
  8
1
 10
627.1787267815816
 20
-13.250000000000002
  0
VERTEX
  8
1
 10
631.1607267815816
 20
-12.289000000000001
  0
VERTEX
  8
1
 10
632.1087267815816
 20
-12.06
  0
VERTEX
  8
1
 10
636.6077267815816
 20
-11.317
  0
VERTEX
  8
1
 10
637.3787267815816
 20
-11.190000000000001
  0
VERTEX
  8
1
 10
642.1137267815816
 20
-10.755
  0
VERTEX
  8
1
 10
643.0387267815817
 20
-10.67
  0
VERTEX
  8
1
 10
647.6437267815816
 20
-10.54
  0
VERTEX
  8
1
 10
649.0787267815816
 20
-10.5
  0
VERTEX
  8
1
 10
653.1787267815816
 20
-10.565
  0
VERTEX
  8
1
 10
656.0387267815817
 20
-10.61
  0
VERTEX
  8
1
 10
658.7117267815817
 20
-10.719999999999999
  0
VERTEX
  8
1
 10
662.6287267815816
 20
-10.879999999999999
  0
VERTEX
  8
1
 10
664.2407267815817
 20
-10.988999999999999
  0
VERTEX
  8
1
 10
668.8387267815816
 20
-11.299999999999999
  0
VERTEX
  8
1
 10
669.7617267815816
 20
-11.389999999999999
  0
VERTEX
  8
1
 10
674.7087267815816
 20
-11.869999999999997
  0
VERTEX
  8
1
 10
675.2707267815816
 20
-11.938999999999998
  0
VERTEX
  8
1
 10
680.2187267815816
 20
-12.549999999999999
  0
VERTEX
  8
1
 10
680.7617267815816
 20
-12.634999999999998
  0
VERTEX
  8
1
 10
685.3987267815817
 20
-13.359999999999998
  0
VERTEX
  8
1
 10
686.2267267815816
 20
-13.515999999999998
  0
VERTEX
  8
1
 10
690.2787267815816
 20
-14.279999999999998
  0
VERTEX
  8
1
 10
691.6587267815817
 20
-14.583999999999998
  0
VERTEX
  8
1
 10
694.8687267815816
 20
-15.289999999999997
  0
VERTEX
  8
1
 10
697.0467267815816
 20
-15.849999999999998
  0
VERTEX
  8
1
 10
699.1487267815817
 20
-16.389999999999997
  0
VERTEX
  8
1
 10
702.3777267815816
 20
-17.337999999999997
  0
VERTEX
  8
1
 10
703.1687267815817
 20
-17.57
  0
VERTEX
  8
1
 10
706.9387267815816
 20
-18.809999999999995
  0
VERTEX
  8
1
 10
707.6357267815816
 20
-19.067
  0
VERTEX
  8
1
 10
710.4687267815816
 20
-20.109999999999996
  0
VERTEX
  8
1
 10
712.8017267815816
 20
-21.050999999999995
  0
VERTEX
  8
1
 10
713.7887267815817
 20
-21.449999999999996
  0
VERTEX
  8
1
 10
716.8687267815816
 20
-22.819999999999997
  0
VERTEX
  8
1
 10
717.8517267815816
 20
-23.309999999999995
  0
VERTEX
  8
1
 10
722.4887267815816
 20
-25.619999999999997
  0
VERTEX
  8
1
 10
722.7967267815816
 20
-25.794999999999995
  0
VERTEX
  8
1
 10
727.4387267815816
 20
-28.429999999999993
  0
VERTEX
  8
1
 10
727.6067267815816
 20
-28.533999999999992
  0
VERTEX
  8
1
 10
731.8587267815816
 20
-31.16999999999999
  0
VERTEX
  8
1
 10
732.3067267815816
 20
-31.459999999999994
  0
VERTEX
  8
1
 10
735.8187267815816
 20
-33.72999999999999
  0
VERTEX
  8
1
 10
736.9637267815816
 20
-34.45399999999999
  0
VERTEX
  8
1
 10
739.4887267815816
 20
-36.05
  0
VERTEX
  8
1
 10
741.7017267815816
 20
-37.31299999999999
  0
VERTEX
  8
1
 10
742.9587267815816
 20
-38.029999999999994
  0
VERTEX
  8
1
 10
746.3287267815816
 20
-39.589999999999996
  0
VERTEX
  8
1
 10
746.6767267815816
 20
-39.696
  0
VERTEX
  8
1
 10
749.7687267815816
 20
-40.63999999999999
  0
VERTEX
  8
1
 10
751.5287267815816
 20
-40.949999999999996
  0
VERTEX
  8
1
 10
752.0217267815816
 20
-40.98999999999999
  0
VERTEX
  8
1
 10
753.3587267815816
 20
-41.09999999999999
  0
VERTEX
  8
1
 10
757.5387267815817
 20
-41.45699999999999
  0
VERTEX
  8
1
 10
766.3687267815816
 20
-42.20999999999999
  0
VERTEX
  8
1
 10
766.5087267815816
 20
-47.01999999999999
  0
VERTEX
  8
1
 10
766.7767267815816
 20
-62.60699999999999
  0
VERTEX
  8
1
 10
766.7987267815816
 20
-63.889999999999986
  0
VERTEX
  8
1
 10
766.8687267815816
 20
-80.75999999999999
  0
VERTEX
  8
1
 10
766.8487267815816
 20
-83.008
  0
VERTEX
  8
1
 10
766.7187267815816
 20
-97.72999999999999
  0
VERTEX
  8
1
 10
766.5887267815816
 20
-103.407
  0
VERTEX
  8
1
 10
766.3687267815816
 20
-113.0
  0
VERTEX
  8
1
 10
765.9757267815817
 20
-123.798
  0
VERTEX
  8
1
 10
765.8087267815816
 20
-128.37
  0
VERTEX
  8
1
 10
765.0187267815816
 20
-143.73000000000002
  0
VERTEX
  8
1
 10
764.9897267815816
 20
-144.175
  0
VERTEX
  8
1
 10
764.0087267815816
 20
-159.21
  0
VERTEX
  8
1
 10
763.5547267815816
 20
-164.524
  0
VERTEX
  8
1
 10
763.0187267815816
 20
-170.81
  0
VERTEX
  8
1
 10
761.9087267815817
 20
-182.49
  0
VERTEX
  8
1
 10
761.6617267815816
 20
-184.83700000000002
  0
VERTEX
  8
1
 10
760.8787267815816
 20
-192.29000000000002
  0
VERTEX
  8
1
 10
757.8951468716348
 20
-191.97654997055037
  0
VERTEX
  8
1
 10
760.8787267815816
 20
-192.29000000000002
  0
VERTEX
  8
1
 10
760.8787267815816
 20
-192.29000000000002
  0
VERTEX
  8
1
 10
760.6987267815816
 20
-194.01000000000002
  0
VERTEX
  8
1
 10
759.4217267815816
 20
-205.115
  0
VERTEX
  8
1
 10
759.3587267815816
 20
-205.66
  0
VERTEX
  8
1
 10
757.5887267815816
 20
-219.77
  0
VERTEX
  8
1
 10
756.8467267815817
 20
-225.353
  0
VERTEX
  8
1
 10
755.6987267815816
 20
-233.99
  0
VERTEX
  8
1
 10
754.0627267815817
 20
-245.56400000000002
  0
VERTEX
  8
1
 10
753.7087267815816
 20
-248.07000000000002
  0
VERTEX
  8
1
 10
751.5887267815816
 20
-262.21000000000004
  0
VERTEX
  8
1
 10
750.1987267815816
 20
-271.43000000000006
  0
VERTEX
  8
1
 10
738.5687267815816
 20
-271.27
  0
VERTEX
  8
1
 10
728.0727267815817
 20
-271.121
  0
VERTEX
  8
1
 10
716.7787267815817
 20
-270.96000000000004
  0
VERTEX
  8
1
 10
705.9457267815817
 20
-270.895
  0
VERTEX
  8
1
 10
698.5387267815817
 20
-270.85
  0
VERTEX
  8
1
 10
683.8177267815817
 20
-270.92600000000004
  0
VERTEX
  8
1
 10
677.1487267815817
 20
-270.96000000000004
  0
VERTEX
  8
1
 10
661.6917267815817
 20
-271.21799999999996
  0
VERTEX
  8
1
 10
661.5787267815816
 20
-271.22
  0
VERTEX
  8
1
 10
639.5757267815816
 20
-271.932
  0
VERTEX
  8
1
 10
636.5387267815817
 20
-272.03
  0
VERTEX
  8
1
 10
623.6387267815817
 20
-272.44000000000005
  0
VERTEX
  8
1
 10
617.4597267815816
 20
-272.674
  0
VERTEX
  8
1
 10
614.1487267815817
 20
-272.79999999999995
  0
VERTEX
  8
1
 10
614.034644452742
 20
-269.80216991438033
  0
VERTEX
  8
1
 10
614.1487267815817
 20
-272.79999999999995
  0
VERTEX
  8
1
 10
614.1487267815817
 20
-272.79999999999995
  0
VERTEX
  8
1
 10
599.5887267815816
 20
-273.35
  0
VERTEX
  8
1
 10
595.3527267815816
 20
-273.59900000000005
  0
VERTEX
  8
1
 10
587.8587267815816
 20
-274.03999999999996
  0
VERTEX
  8
1
 10
578.8187267815816
 20
-274.78999999999996
  0
VERTEX
  8
1
 10
577.8587267815816
 20
-274.71000000000004
  0
VERTEX
  8
1
 10
578.1078632211428
 20
-271.7203627252653
  0
VERTEX
  8
1
 10
577.8587267815816
 20
-274.71000000000004
  0
VERTEX
  8
1
 10
577.8587267815816
 20
-274.71000000000004
  0
VERTEX
  8
1
 10
573.3827267815816
 20
-274.33799999999997
  0
VERTEX
  8
1
 10
569.7887267815817
 20
-274.03999999999996
  0
VERTEX
  8
1
 10
558.0587267815816
 20
-273.35
  0
VERTEX
  8
1
 10
534.0687267815816
 20
-272.44000000000005
  0
VERTEX
  8
1
 10
533.8887267815817
 20
-261.94
  0
VERTEX
  8
1
 10
533.8387267815816
 20
-259.23
  0
VERTEX
  8
1
 10
533.6887267815816
 20
-256.75
  0
VERTEX
  8
1
 10
533.5727267815817
 20
-255.691
  0
VERTEX
  8
1
 10
533.4187267815817
 20
-254.28
  0
VERTEX
  8
1
 10
533.0287267815817
 20
-251.83
  0
VERTEX
  8
1
 10
532.6737267815816
 20
-250.095
  0
VERTEX
  8
1
 10
532.5287267815817
 20
-249.39000000000001
  0
VERTEX
  8
1
 10
531.9287267815816
 20
-246.98000000000002
  0
VERTEX
  8
1
 10
531.2147267815816
 20
-244.619
  0
VERTEX
  8
1
 10
531.2087267815816
 20
-244.60000000000002
  0
VERTEX
  8
1
 10
530.3787267815817
 20
-242.26000000000002
  0
VERTEX
  8
1
 10
529.4487267815816
 20
-239.96
  0
VERTEX
  8
1
 10
529.1617267815816
 20
-239.33700000000002
  0
VERTEX
  8
1
 10
528.4087267815817
 20
-237.70000000000002
  0
VERTEX
  8
1
 10
527.2687267815817
 20
-235.49
  0
VERTEX
  8
1
 10
526.5787267815816
 20
-234.294
  0
VERTEX
  8
1
 10
526.0287267815817
 20
-233.34
  0
VERTEX
  8
1
 10
524.6887267815816
 20
-231.25
  0
VERTEX
  8
1
 10
523.4827267815816
 20
-229.55
  0
VERTEX
  8
1
 10
523.2487267815816
 20
-229.22
  0
VERTEX
  8
1
 10
521.7287267815816
 20
-227.26000000000002
  0
VERTEX
  8
1
 10
520.1087267815816
 20
-225.36
  0
VERTEX
  8
1
 10
519.9137267815817
 20
-225.15
  0
VERTEX
  8
1
 10
518.3287267815816
 20
-223.45000000000002
  0
VERTEX
  8
1
 10
516.4487267815816
 20
-221.62
  0
VERTEX
  8
1
 10
515.9137267815817
 20
-221.139
  0
VERTEX
  8
1
 10
514.4987267815816
 20
-219.87
  0
VERTEX
  8
1
 10
512.4787267815816
 20
-218.21
  0
VERTEX
  8
1
 10
511.55772678158166
 20
-217.52100000000002
  0
VERTEX
  8
1
 10
510.37872678158163
 20
-216.64000000000001
  0
VERTEX
  8
1
 10
508.2187267815816
 20
-215.17000000000002
  0
VERTEX
  8
1
 10
506.8767267815816
 20
-214.339
  0
VERTEX
  8
1
 10
505.98872678158165
 20
-213.79000000000002
  0
VERTEX
  8
1
 10
503.6987267815816
 20
-212.5
  0
VERTEX
  8
1
 10
501.9177267815816
 20
-211.60600000000002
  0
VERTEX
  8
1
 10
501.36872678158164
 20
-211.33
  0
VERTEX
  8
1
 10
498.9787267815816
 20
-210.25
  0
VERTEX
  8
1
 10
496.72172678158165
 20
-209.36200000000002
  0
VERTEX
  8
1
 10
496.53872678158166
 20
-209.29000000000002
  0
VERTEX
  8
1
 10
494.06872678158163
 20
-208.43
  0
VERTEX
  8
1
 10
491.55872678158164
 20
-207.68
  0
VERTEX
  8
1
 10
491.3297267815816
 20
-207.622
  0
VERTEX
  8
1
 10
489.0187267815816
 20
-207.04000000000002
  0
VERTEX
  8
1
 10
486.4487267815816
 20
-206.51000000000002
  0
VERTEX
  8
1
 10
485.7927267815816
 20
-206.407
  0
VERTEX
  8
1
 10
483.6487267815816
 20
-206.07000000000002
  0
VERTEX
  8
1
 10
480.18872678158164
 20
-205.53900000000002
  0
VERTEX
  8
1
 10
474.58272678158164
 20
-204.68
  0
VERTEX
  8
1
 10
473.66872678158165
 20
-204.54000000000002
  0
VERTEX
  8
1
 10
468.95772678158164
 20
-203.958
  0
VERTEX
  8
1
 10
463.7187267815816
 20
-203.31
  0
VERTEX
  8
1
 10
463.3287267815816
 20
-203.27200000000002
  0
VERTEX
  8
1
 10
457.68372678158164
 20
-202.729
  0
VERTEX
  8
1
 10
453.74872678158164
 20
-202.35000000000002
  0
VERTEX
  8
1
 10
452.03472678158164
 20
-202.232
  0
VERTEX
  8
1
 10
446.3777267815816
 20
-201.841
  0
VERTEX
  8
1
 10
443.7487267815816
 20
-201.66
  0
VERTEX
  8
1
 10
440.7147267815816
 20
-201.537
  0
VERTEX
  8
1
 10
435.0497267815816
 20
-201.30800000000002
  0
VERTEX
  8
1
 10
433.3787267815816
 20
-201.24
  0
VERTEX
  8
1
 10
429.3797267815816
 20
-201.18200000000002
  0
VERTEX
  8
1
 10
423.7097267815816
 20
-201.10000000000002
  0
VERTEX
  8
1
 10
423.00872678158163
 20
-201.09
  0
VERTEX
  8
1
 10
418.03872678158166
 20
-201.15200000000002
  0
VERTEX
  8
1
 10
412.6287267815816
 20
-201.22
  0
VERTEX
  8
1
 10
412.3697267815816
 20
-201.23000000000002
  0
VERTEX
  8
1
 10
406.7017267815816
 20
-201.45100000000002
  0
VERTEX
  8
1
 10
402.1287267815816
 20
-201.63000000000002
  0
VERTEX
  8
1
 10
401.03472678158164
 20
-201.673
  0
VERTEX
  8
1
 10
395.3687267815816
 20
-201.899
  0
VERTEX
  8
1
 10
388.54872678158165
 20
-202.17000000000002
  0
VERTEX
  8
1
 10
388.54872678158165
 20
-202.17000000000002
  0
VERTEX
  8
1
 10
388.7387267815816
 20
-191.42000000000002
  0
VERTEX
  8
1
 10
388.755819231974
 20
-190.42014608660088
  0
SEQEND
  0
ENDBLK
  0
ENDSEC
  0
SECTION
  2
ENTITIES
  0
INSERT
  2
0
 10
0
 20
0
  0
INSERT
  2
1
 10
0
 20
0
  0
ENDSEC
  0
EOF