  0
SECTION
  2
HEADER
  9
$ACADVER
  1
AC1009
  0
ENDSEC
  0
SECTION
  2
TABLES
  0
TABLE
  2
SCOTT
  0
ENDTAB
  0
TABLE
  2
VPORT
 70
1
  0
VPORT
  2
*ACTIVE
 70
0
 10
0.0
 20
0.0
 11
1.0
 21
1.0
 12
0.0
 22
0.0
 13
0.0
 23
0.0
 14
1.0
 24
1.0
 15
0.0
 25
0.0
 16
0.0
 26
0.0
 36
1.0
 17
0.0
 27
0.0
 37
0.0
 40
100.0
 41
2
 42
0.0
 43
0.0
 44
0.0
 50
0.0
 51
0.0
 71
0.0
 72
0.0
 73
0.0
 74
0.0
 75
0.0
 76
0.0
 77
0.0
 78
0.0
  0
ENDTAB
  0
ENDSEC
  0
SECTION
  2
BLOCKS
  0
BLOCK
  2
0
  8
1
 10
0
 20
0
 70
64
  0
POLYLINE
  8
1
  62
3
10
0
 20
0
 66
1
  0
VERTEX
  8
1
 10
379.8849708257634
 20
-202.17000000955426
  0
VERTEX
  8
1
 10
379.69497082576333
 20
-191.42000000955426
  0
VERTEX
  8
1
 10
379.53797082576335
 20
-182.2360000095543
  0
VERTEX
  8
1
 10
379.1969708257634
 20
-162.3030000095543
  0
VERTEX
  8
1
 10
378.85697082576337
 20
-142.36900000955427
  0
VERTEX
  8
1
 10
378.51597082576336
 20
-122.4350000095543
  0
VERTEX
  8
1
 10
378.17497082576335
 20
-102.50200000955425
  0
VERTEX
  8
1
 10
377.8349708257633
 20
-82.56800000955428
  0
VERTEX
  8
1
 10
377.4939708257633
 20
-62.63500000955428
  0
VERTEX
  8
1
 10
377.1449708257633
 20
-42.20000000955428
  0
VERTEX
  8
1
 10
371.6279708257633
 20
-41.73400000955427
  0
VERTEX
  8
1
 10
366.11097082576333
 20
-41.268000009554264
  0
VERTEX
  8
1
 10
364.12497082576334
 20
-41.10000000955426
  0
VERTEX
  8
1
 10
362.30497082576335
 20
-40.95000000955428
  0
VERTEX
  8
1
 10
360.6149708257633
 20
-40.65400000955429
  0
VERTEX
  8
1
 10
360.53497082576337
 20
-40.64000000955428
  0
VERTEX
  8
1
 10
357.1149708257633
 20
-39.59000000955427
  0
VERTEX
  8
1
 10
355.42297082576334
 20
-38.81100000955427
  0
VERTEX
  8
1
 10
353.7249708257633
 20
-38.030000009554264
  0
VERTEX
  8
1
 10
350.54597082576333
 20
-36.21100000955425
  0
VERTEX
  8
1
 10
350.2649708257633
 20
-36.050000009554246
  0
VERTEX
  8
1
 10
346.5949708257633
 20
-33.73000000955425
  0
VERTEX
  8
1
 10
345.8639708257633
 20
-33.25900000955425
  0
VERTEX
  8
1
 10
342.62497082576334
 20
-31.170000009554307
  0
VERTEX
  8
1
 10
341.1959708257633
 20
-30.28200000955433
  0
VERTEX
  8
1
 10
338.2149708257633
 20
-28.4300000095543
  0
VERTEX
  8
1
 10
336.4529708257634
 20
-27.4300000095543
  0
VERTEX
  8
1
 10
333.2649708257633
 20
-25.620000009554353
  0
VERTEX
  8
1
 10
331.5919708257633
 20
-24.786000009554293
  0
VERTEX
  8
1
 10
327.6449708257633
 20
-22.820000009554285
  0
VERTEX
  8
1
 10
326.6139708257633
 20
-22.36300000955429
  0
VERTEX
  8
1
 10
324.55497082576335
 20
-21.45000000955428
  0
VERTEX
  8
1
 10
321.51097082576337
 20
-20.21800000955431
  0
VERTEX
  8
1
 10
321.24497082576335
 20
-20.110000009554362
  0
VERTEX
  8
1
 10
317.7149708257633
 20
-18.810000009554294
  0
VERTEX
  8
1
 10
316.3039708257633
 20
-18.346000009554352
  0
VERTEX
  8
1
 10
313.94497082576333
 20
-17.570000009554285
  0
VERTEX
  8
1
 10
311.0159708257633
 20
-16.710000009554385
  0
VERTEX
  8
1
 10
309.92497082576335
 20
-16.390000009554335
  0
VERTEX
  8
1
 10
305.66397082576333
 20
-15.297000009554376
  0
VERTEX
  8
1
 10
305.63497082576333
 20
-15.290000009554314
  0
VERTEX
  8
1
 10
301.05497082576335
 20
-14.280000009554323
  0
VERTEX
  8
1
 10
300.2529708257633
 20
-14.12800000955428
  0
VERTEX
  8
1
 10
296.18497082576334
 20
-13.360000009554364
  0
VERTEX
  8
1
 10
294.80497082576335
 20
-13.145000009554332
  0
VERTEX
  8
1
 10
290.9949708257633
 20
-12.550000009554305
  0
VERTEX
  8
1
 10
289.3279708257633
 20
-12.342000009554335
  0
VERTEX
  8
1
 10
285.4749708257633
 20
-11.860000009554364
  0
VERTEX
  8
1
 10
283.82897082576335
 20
-11.702000009554348
  0
VERTEX
  8
1
 10
279.62497082576334
 20
-11.300000009554305
  0
VERTEX
  8
1
 10
278.31497082576334
 20
-11.21200000955434
  0
VERTEX
  8
1
 10
273.4049708257633
 20
-10.880000009554346
  0
VERTEX
  8
1
 10
272.7899708257633
 20
-10.855000009554368
  0
VERTEX
  8
1
 10
267.2589708257633
 20
-10.62800000955428
  0
VERTEX
  8
1
 10
266.81497082576334
 20
-10.610000009554364
  0
VERTEX
  8
1
 10
261.72297082576335
 20
-10.530000009554323
  0
VERTEX
  8
1
 10
259.8449708257633
 20
-10.50000000955435
  0
VERTEX
  8
1
 10
256.18997082576334
 20
-10.603000009554302
  0
VERTEX
  8
1
 10
253.81497082576334
 20
-10.67000000955431
  0
VERTEX
  8
1
 10
250.66997082576333
 20
-10.959000009554297
  0
VERTEX
  8
1
 10
248.1649708257633
 20
-11.190000009554291
  0
VERTEX
  8
1
 10
245.18797082576333
 20
-11.6800000095543
  0
VERTEX
  8
1
 10
242.8749708257633
 20
-12.060000009554296
  0
VERTEX
  8
1
 10
239.77497082576332
 20
-12.810000009554296
  0
VERTEX
  8
1
 10
237.95497082576333
 20
-13.25000000955435
  0
VERTEX
  8
1
 10
234.47697082576332
 20
-14.38900000955436
  0
VERTEX
  8
1
 10
233.3749708257633
 20
-14.75000000955435
  0
VERTEX
  8
1
 10
229.34097082576332
 20
-16.436000009554384
  0
VERTEX
  8
1
 10
229.11497082576332
 20
-16.53000000955432
  0
VERTEX
  8
1
 10
225.17497082576332
 20
-18.59000000955438
  0
VERTEX
  8
1
 10
224.4639708257633
 20
-19.04100000955429
  0
VERTEX
  8
1
 10
221.5349708257633
 20
-20.900000009554326
  0
VERTEX
  8
1
 10
219.89097082576333
 20
-22.147000009554283
  0
VERTEX
  8
1
 10
218.18497082576332
 20
-23.44000000955429
  0
VERTEX
  8
1
 10
215.66297082576332
 20
-25.707000009554342
  0
VERTEX
  8
1
 10
215.11497082576332
 20
-26.20000000955428
  0
VERTEX
  8
1
 10
212.29497082576333
 20
-29.170000009554307
  0
VERTEX
  8
1
 10
211.85197082576332
 20
-29.713000009554314
  0
VERTEX
  8
1
 10
209.72497082576334
 20
-32.32000000955434
  0
VERTEX
  8
1
 10
208.47397082576333
 20
-34.09200000955433
  0
VERTEX
  8
1
 10
207.39497082576332
 20
-35.62000000955435
  0
VERTEX
  8
1
 10
205.48797082576334
 20
-38.747000009554306
  0
VERTEX
  8
1
 10
205.28497082576334
 20
-39.08000000955433
  0
VERTEX
  8
1
 10
203.37497082576334
 20
-42.6800000095543
  0
VERTEX
  8
1
 10
202.92697082576333
 20
-43.650000009554326
  0
VERTEX
  8
1
 10
201.67497082576332
 20
-46.36000000955436
  0
VERTEX
  8
1
 10
200.71997082576334
 20
-48.72400000955434
  0
VERTEX
  8
1
 10
200.14497082576332
 20
-50.150000009554326
  0
VERTEX
  8
1
 10
198.81097082576332
 20
-53.91900000955433
  0
VERTEX
  8
1
 10
198.77497082576332
 20
-54.02000000955433
  0
VERTEX
  8
1
 10
197.56497082576334
 20
-57.95000000955434
  0
VERTEX
  8
1
 10
197.22197082576332
 20
-59.22100000955435
  0
VERTEX
  8
1
 10
196.49497082576335
 20
-61.91000000955432
  0
VERTEX
  8
1
 10
195.89697082576333
 20
-64.59200000955434
  0
VERTEX
  8
1
 10
194.71497082576334
 20
-69.89000000955434
  0
VERTEX
  8
1
 10
194.69597082576334
 20
-69.99700000955431
  0
VERTEX
  8
1
 10
193.74697082576333
 20
-75.45100000955432
  0
VERTEX
  8
1
 10
193.33497082576335
 20
-77.82000000955435
  0
VERTEX
  8
1
 10
192.89697082576333
 20
-80.92100000955435
  0
VERTEX
  8
1
 10
192.24497082576335
 20
-85.54000000955432
  0
VERTEX
  8
1
 10
192.13797082576335
 20
-86.40500000955433
  0
VERTEX
  8
1
 10
191.45597082576333
 20
-91.89900000955436
  0
VERTEX
  8
1
 10
191.44497082576333
 20
-91.99000000955436
  0
VERTEX
  8
1
 10
191.32497082576333
 20
-92.94000000955435
  0
VERTEX
  8
1
 10
190.78397082576333
 20
-97.39500000955434
  0
VERTEX
  8
1
 10
190.48497082576333
 20
-99.86000000955437
  0
VERTEX
  8
1
 10
189.60497082576333
 20
-106.16000000955432
  0
VERTEX
  8
1
 10
188.83897082576334
 20
-100.67700000955432
  0
VERTEX
  8
1
 10
188.72497082576334
 20
-99.86000000955437
  0
VERTEX
  8
1
 10
188.15697082576335
 20
-95.18300000955435
  0
VERTEX
  8
1
 10
187.88497082576333
 20
-92.94000000955435
  0
VERTEX
  8
1
 10
187.76497082576333
 20
-91.98000000955432
  0
VERTEX
  8
1
 10
187.48397082576335
 20
-89.68800000955434
  0
VERTEX
  8
1
 10
186.97497082576334
 20
-85.54000000955432
  0
VERTEX
  8
1
 10
186.78397082576333
 20
-84.19600000955433
  0
VERTEX
  8
1
 10
186.00397082576333
 20
-78.71500000955433
  0
VERTEX
  8
1
 10
185.87497082576334
 20
-77.81000000955436
  0
VERTEX
  8
1
 10
185.08297082576334
 20
-73.25600000955433
  0
VERTEX
  8
1
 10
184.49497082576335
 20
-69.88000000955435
  0
VERTEX
  8
1
 10
184.03597082576334
 20
-67.82300000955433
  0
VERTEX
  8
1
 10
182.82897082576332
 20
-62.42000000955431
  0
VERTEX
  8
1
 10
182.71497082576334
 20
-61.91000000955432
  0
VERTEX
  8
1
 10
181.64497082576332
 20
-57.940000009554346
  0
VERTEX
  8
1
 10
181.37897082576333
 20
-57.07800000955432
  0
VERTEX
  8
1
 10
180.43497082576334
 20
-54.02000000955433
  0
VERTEX
  8
1
 10
179.66097082576334
 20
-51.81800000955433
  0
VERTEX
  8
1
 10
179.07497082576333
 20
-50.150000009554326
  0
VERTEX
  8
1
 10
177.66497082576333
 20
-46.65700000955433
  0
VERTEX
  8
1
 10
177.54497082576333
 20
-46.36000000955436
  0
VERTEX
  8
1
 10
175.83497082576332
 20
-42.67000000955431
  0
VERTEX
  8
1
 10
175.29597082576333
 20
-41.65700000955433
  0
VERTEX
  8
1
 10
173.92497082576332
 20
-39.08000000955433
  0
VERTEX
  8
1
 10
172.56297082576333
 20
-36.84700000955433
  0
VERTEX
  8
1
 10
171.81497082576334
 20
-35.62000000955435
  0
VERTEX
  8
1
 10
169.47497082576334
 20
-32.31000000955435
  0
VERTEX
  8
1
 10
169.44897082576333
 20
-32.27800000955431
  0
VERTEX
  8
1
 10
166.91497082576333
 20
-29.170000009554307
  0
VERTEX
  8
1
 10
165.86797082576334
 20
-28.063000009554337
  0
VERTEX
  8
1
 10
164.10497082576333
 20
-26.20000000955428
  0
VERTEX
  8
1
 10
161.89197082576334
 20
-24.22400000955428
  0
VERTEX
  8
1
 10
161.01497082576333
 20
-23.44000000955429
  0
VERTEX
  8
1
 10
157.67497082576332
 20
-20.900000009554326
  0
VERTEX
  8
1
 10
157.53997082576333
 20
-20.81500000955429
  0
VERTEX
  8
1
 10
154.0349708257633
 20
-18.59000000955438
  0
VERTEX
  8
1
 10
152.81197082576332
 20
-17.95000000955428
  0
VERTEX
  8
1
 10
150.0949708257633
 20
-16.53000000955432
  0
VERTEX
  8
1
 10
147.8209708257633
 20
-15.577000009554348
  0
VERTEX
  8
1
 10
145.8449708257633
 20
-14.75000000955435
  0
VERTEX
  8
1
 10
142.62197082576333
 20
-13.697000009554353
  0
VERTEX
  8
1
 10
141.25497082576334
 20
-13.25000000955435
  0
VERTEX
  8
1
 10
137.2729708257633
 20
-12.289000009554337
  0
VERTEX
  8
1
 10
136.32497082576333
 20
-12.060000009554296
  0
VERTEX
  8
1
 10
131.8259708257633
 20
-11.317000009554357
  0
VERTEX
  8
1
 10
131.05497082576332
 20
-11.190000009554291
  0
VERTEX
  8
1
 10
126.31997082576332
 20
-10.755000009554346
  0
VERTEX
  8
1
 10
125.39497082576332
 20
-10.67000000955431
  0
VERTEX
  8
1
 10
120.78997082576332
 20
-10.540000009554314
  0
VERTEX
  8
1
 10
119.35497082576332
 20
-10.50000000955435
  0
VERTEX
  8
1
 10
115.25497082576332
 20
-10.565000009554291
  0
VERTEX
  8
1
 10
112.39497082576332
 20
-10.610000009554364
  0
VERTEX
  8
1
 10
109.72197082576332
 20
-10.720000009554377
  0
VERTEX
  8
1
 10
105.80497082576332
 20
-10.880000009554346
  0
VERTEX
  8
1
 10
104.19297082576333
 20
-10.989000009554383
  0
VERTEX
  8
1
 10
99.59497082576333
 20
-11.300000009554305
  0
VERTEX
  8
1
 10
98.67197082576332
 20
-11.390000009554337
  0
VERTEX
  8
1
 10
93.72497082576332
 20
-11.870000009554355
  0
VERTEX
  8
1
 10
93.16297082576332
 20
-11.939000009554315
  0
VERTEX
  8
1
 10
88.21497082576332
 20
-12.550000009554305
  0
VERTEX
  8
1
 10
87.67197082576332
 20
-12.635000009554341
  0
VERTEX
  8
1
 10
83.03497082576332
 20
-13.360000009554364
  0
VERTEX
  8
1
 10
82.20697082576332
 20
-13.516000009554313
  0
VERTEX
  8
1
 10
78.15497082576333
 20
-14.280000009554323
  0
VERTEX
  8
1
 10
76.77497082576332
 20
-14.584000009554297
  0
VERTEX
  8
1
 10
73.56497082576333
 20
-15.290000009554314
  0
VERTEX
  8
1
 10
71.38697082576333
 20
-15.850000009554373
  0
VERTEX
  8
1
 10
69.28497082576332
 20
-16.390000009554335
  0
VERTEX
  8
1
 10
66.05597082576332
 20
-17.338000009554314
  0
VERTEX
  8
1
 10
65.26497082576333
 20
-17.570000009554285
  0
VERTEX
  8
1
 10
61.494970825763346
 20
-18.810000009554294
  0
VERTEX
  8
1
 10
60.79797082576334
 20
-19.067000009554356
  0
VERTEX
  8
1
 10
57.964970825763345
 20
-20.110000009554362
  0
VERTEX
  8
1
 10
55.63197082576335
 20
-21.05100000955428
  0
VERTEX
  8
1
 10
54.64497082576332
 20
-21.45000000955428
  0
VERTEX
  8
1
 10
51.56497082576334
 20
-22.820000009554285
  0
VERTEX
  8
1
 10
50.581970825763335
 20
-23.310000009554294
  0
VERTEX
  8
1
 10
45.944970825763335
 20
-25.620000009554353
  0
VERTEX
  8
1
 10
45.63697082576334
 20
-25.795000009554307
  0
VERTEX
  8
1
 10
40.994970825763346
 20
-28.4300000095543
  0
VERTEX
  8
1
 10
40.82697082576334
 20
-28.53400000955434
  0
VERTEX
  8
1
 10
36.57497082576333
 20
-31.170000009554307
  0
VERTEX
  8
1
 10
36.12697082576332
 20
-31.460000009554328
  0
VERTEX
  8
1
 10
32.61497082576332
 20
-33.73000000955437
  0
VERTEX
  8
1
 10
31.46997082576334
 20
-34.45400000955441
  0
VERTEX
  8
1
 10
28.944970825763335
 20
-36.05000000955436
  0
VERTEX
  8
1
 10
26.73197082576334
 20
-37.31300000955439
  0
VERTEX
  8
1
 10
25.474970825763336
 20
-38.03000000955438
  0
VERTEX
  8
1
 10
22.10497082576333
 20
-39.59000000955438
  0
VERTEX
  8
1
 10
21.756970825763347
 20
-39.696000009554375
  0
VERTEX
  8
1
 10
18.664970825763334
 20
-40.64000000955439
  0
VERTEX
  8
1
 10
16.904970825763343
 20
-40.950000009554394
  0
VERTEX
  8
1
 10
16.411970825763348
 20
-40.990000009554414
  0
VERTEX
  8
1
 10
15.07497082576333
 20
-41.10000000955437
  0
VERTEX
  8
1
 10
10.894970825763323
 20
-41.4570000095544
  0
VERTEX
  8
1
 10
2.0649708257633392
 20
-42.210000009554385
  0
VERTEX
  8
1
 10
1.9249708257633245
 20
-47.02000000955439
  0
VERTEX
  8
1
 10
1.6569708257633238
 20
-62.607000009554376
  0
VERTEX
  8
1
 10
1.6349708257633324
 20
-63.89000000955439
  0
VERTEX
  8
1
 10
1.5649708257633392
 20
-80.7600000095544
  0
VERTEX
  8
1
 10
1.5849708257633495
 20
-83.0080000095544
  0
VERTEX
  8
1
 10
1.714970825763345
 20
-97.73000000955437
  0
VERTEX
  8
1
 10
1.8449708257633404
 20
-103.4070000095544
  0
VERTEX
  8
1
 10
2.0649708257633392
 20
-113.00000000955441
  0
VERTEX
  8
1
 10
2.45797082576334
 20
-123.79800000955441
  0
VERTEX
  8
1
 10
2.6249708257633415
 20
-128.37000000955442
  0
VERTEX
  8
1
 10
3.4149708257633336
 20
-143.73000000955443
  0
VERTEX
  8
1
 10
3.44397082576333
 20
-144.17500000955437
  0
VERTEX
  8
1
 10
4.424970825763353
 20
-159.2100000095544
  0
VERTEX
  8
1
 10
4.878970825763361
 20
-164.5240000095544
  0
VERTEX
  8
1
 10
5.414970825763362
 20
-170.81000000955436
  0
VERTEX
  8
1
 10
6.524970825763376
 20
-182.49000000955442
  0
VERTEX
  8
1
 10
6.771970825763361
 20
-184.8370000095544
  0
VERTEX
  8
1
 10
7.554970825763377
 20
-192.29000000955438
  0
VERTEX
  8
1
 10
10.538550735710146
 20
-191.97654998010472
  0
VERTEX
  8
1
 10
7.554970825763377
 20
-192.29000000955438
  0
VERTEX
  8
1
 10
7.554970825763377
 20
-192.29000000955438
  0
VERTEX
  8
1
 10
7.734970825763355
 20
-194.0100000095544
  0
VERTEX
  8
1
 10
9.01197082576337
 20
-205.11500000955442
  0
VERTEX
  8
1
 10
9.074970825763359
 20
-205.66000000955438
  0
VERTEX
  8
1
 10
10.844970825763369
 20
-219.7700000095544
  0
VERTEX
  8
1
 10
11.586970825763359
 20
-225.35300000955436
  0
VERTEX
  8
1
 10
12.734970825763355
 20
-233.99000000955442
  0
VERTEX
  8
1
 10
14.37097082576335
 20
-245.56400000955438
  0
VERTEX
  8
1
 10
14.724970825763364
 20
-248.0700000095544
  0
VERTEX
  8
1
 10
16.84497082576337
 20
-262.2100000095544
  0
VERTEX
  8
1
 10
18.234970825763355
 20
-271.4300000095544
  0
VERTEX
  8
1
 10
29.86497082576335
 20
-271.2700000095544
  0
VERTEX
  8
1
 10
40.36097082576336
 20
-271.12100000955434
  0
VERTEX
  8
1
 10
51.65497082576337
 20
-270.96000000955434
  0
VERTEX
  8
1
 10
62.48797082576337
 20
-270.89500000955434
  0
VERTEX
  8
1
 10
69.89497082576337
 20
-270.8500000095543
  0
VERTEX
  8
1
 10
84.61597082576337
 20
-270.92600000955434
  0
VERTEX
  8
1
 10
91.28497082576337
 20
-270.96000000955434
  0
VERTEX
  8
1
 10
106.74197082576336
 20
-271.2180000095543
  0
VERTEX
  8
1
 10
106.85497082576336
 20
-271.2200000095543
  0
VERTEX
  8
1
 10
128.85797082576337
 20
-271.9320000095543
  0
VERTEX
  8
1
 10
131.89497082576338
 20
-272.0300000095543
  0
VERTEX
  8
1
 10
144.79497082576336
 20
-272.44000000955435
  0
VERTEX
  8
1
 10
150.9739708257634
 20
-272.67400000955433
  0
VERTEX
  8
1
 10
154.28497082576337
 20
-272.8000000095543
  0
VERTEX
  8
1
 10
154.399053154603
 20
-269.8021699239346
  0
VERTEX
  8
1
 10
154.28497082576337
 20
-272.8000000095543
  0
VERTEX
  8
1
 10
154.28497082576337
 20
-272.8000000095543
  0
VERTEX
  8
1
 10
168.84497082576337
 20
-273.3500000095543
  0
VERTEX
  8
1
 10
173.08097082576336
 20
-273.59900000955435
  0
VERTEX
  8
1
 10
180.57497082576336
 20
-274.0400000095543
  0
VERTEX
  8
1
 10
189.61497082576338
 20
-274.7900000095543
  0
VERTEX
  8
1
 10
190.57497082576336
 20
-274.71000000955434
  0
VERTEX
  8
1
 10
190.3258343862022
 20
-271.7203627348197
  0
VERTEX
  8
1
 10
190.57497082576336
 20
-274.71000000955434
  0
VERTEX
  8
1
 10
190.57497082576336
 20
-274.71000000955434
  0
VERTEX
  8
1
 10
195.0509708257634
 20
-274.3380000095543
  0
VERTEX
  8
1
 10
198.64497082576338
 20
-274.0400000095543
  0
VERTEX
  8
1
 10
210.37497082576337
 20
-273.3500000095543
  0
VERTEX
  8
1
 10
234.36497082576338
 20
-272.44000000955435
  0
VERTEX
  8
1
 10
234.54497082576336
 20
-261.9400000095543
  0
VERTEX
  8
1
 10
234.59497082576337
 20
-259.2300000095544
  0
VERTEX
  8
1
 10
234.74497082576337
 20
-256.75000000955436
  0
VERTEX
  8
1
 10
234.8609708257634
 20
-255.69100000955433
  0
VERTEX
  8
1
 10
235.01497082576338
 20
-254.28000000955433
  0
VERTEX
  8
1
 10
235.40497082576337
 20
-251.83000000955434
  0
VERTEX
  8
1
 10
235.75997082576336
 20
-250.09500000955433
  0
VERTEX
  8
1
 10
235.90497082576337
 20
-249.39000000955434
  0
VERTEX
  8
1
 10
236.50497082576337
 20
-246.98000000955437
  0
VERTEX
  8
1
 10
237.21897082576336
 20
-244.61900000955433
  0
VERTEX
  8
1
 10
237.22497082576336
 20
-244.60000000955438
  0
VERTEX
  8
1
 10
238.05497082576335
 20
-242.26000000955435
  0
VERTEX
  8
1
 10
238.98497082576336
 20
-239.96000000955434
  0
VERTEX
  8
1
 10
239.27197082576336
 20
-239.33700000955434
  0
VERTEX
  8
1
 10
240.02497082576338
 20
-237.70000000955434
  0
VERTEX
  8
1
 10
241.16497082576336
 20
-235.49000000955436
  0
VERTEX
  8
1
 10
241.85497082576336
 20
-234.29400000955434
  0
VERTEX
  8
1
 10
242.40497082576337
 20
-233.34000000955433
  0
VERTEX
  8
1
 10
243.74497082576337
 20
-231.25000000955436
  0
VERTEX
  8
1
 10
244.95097082576336
 20
-229.5500000095543
  0
VERTEX
  8
1
 10
245.18497082576337
 20
-229.22000000955433
  0
VERTEX
  8
1
 10
246.70497082576335
 20
-227.26000000955435
  0
VERTEX
  8
1
 10
248.32497082576336
 20
-225.36000000955437
  0
VERTEX
  8
1
 10
248.51997082576338
 20
-225.15000000955433
  0
VERTEX
  8
1
 10
250.10497082576336
 20
-223.45000000955434
  0
VERTEX
  8
1
 10
251.98497082576336
 20
-221.62000000955436
  0
VERTEX
  8
1
 10
252.51997082576338
 20
-221.13900000955437
  0
VERTEX
  8
1
 10
253.93497082576337
 20
-219.87000000955436
  0
VERTEX
  8
1
 10
255.95497082576338
 20
-218.21000000955434
  0
VERTEX
  8
1
 10
256.8759708257634
 20
-217.5210000095543
  0
VERTEX
  8
1
 10
258.05497082576335
 20
-216.64000000955434
  0
VERTEX
  8
1
 10
260.2149708257634
 20
-215.17000000955431
  0
VERTEX
  8
1
 10
261.55697082576336
 20
-214.3390000095543
  0
VERTEX
  8
1
 10
262.44497082576333
 20
-213.79000000955432
  0
VERTEX
  8
1
 10
264.73497082576336
 20
-212.50000000955436
  0
VERTEX
  8
1
 10
266.51597082576336
 20
-211.60600000955435
  0
VERTEX
  8
1
 10
267.06497082576334
 20
-211.33000000955434
  0
VERTEX
  8
1
 10
269.4549708257634
 20
-210.25000000955436
  0
VERTEX
  8
1
 10
271.7119708257634
 20
-209.36200000955432
  0
VERTEX
  8
1
 10
271.8949708257634
 20
-209.29000000955432
  0
VERTEX
  8
1
 10
274.36497082576335
 20
-208.4300000095543
  0
VERTEX
  8
1
 10
276.8749708257634
 20
-207.6800000095543
  0
VERTEX
  8
1
 10
277.1039708257634
 20
-207.6220000095543
  0
VERTEX
  8
1
 10
279.41497082576336
 20
-207.04000000955432
  0
VERTEX
  8
1
 10
281.98497082576336
 20
-206.51000000955435
  0
VERTEX
  8
1
 10
282.64097082576336
 20
-206.40700000955434
  0
VERTEX
  8
1
 10
284.78497082576337
 20
-206.07000000955435
  0
VERTEX
  8
1
 10
288.24497082576335
 20
-205.53900000955434
  0
VERTEX
  8
1
 10
293.8509708257634
 20
-204.6800000095543
  0
VERTEX
  8
1
 10
294.7649708257634
 20
-204.54000000955432
  0
VERTEX
  8
1
 10
299.4759708257634
 20
-203.95800000955433
  0
VERTEX
  8
1
 10
304.7149708257634
 20
-203.3100000095543
  0
VERTEX
  8
1
 10
305.10497082576336
 20
-203.27200000955435
  0
VERTEX
  8
1
 10
310.7499708257634
 20
-202.72900000955434
  0
VERTEX
  8
1
 10
314.68497082576334
 20
-202.35000000955438
  0
VERTEX
  8
1
 10
316.3989708257634
 20
-202.23200000955433
  0
VERTEX
  8
1
 10
322.0559708257633
 20
-201.84100000955436
  0
VERTEX
  8
1
 10
324.68497082576334
 20
-201.66000000955432
  0
VERTEX
  8
1
 10
327.71897082576334
 20
-201.53700000955433
  0
VERTEX
  8
1
 10
333.38397082576336
 20
-201.30800000955435
  0
VERTEX
  8
1
 10
335.05497082576335
 20
-201.24000000955436
  0
VERTEX
  8
1
 10
339.0539708257634
 20
-201.18200000955437
  0
VERTEX
  8
1
 10
344.72397082576333
 20
-201.10000000955438
  0
VERTEX
  8
1
 10
345.42497082576335
 20
-201.09000000955433
  0
VERTEX
  8
1
 10
350.3949708257634
 20
-201.15200000955429
  0
VERTEX
  8
1
 10
355.80497082576335
 20
-201.22000000955427
  0
VERTEX
  8
1
 10
356.06397082576336
 20
-201.23000000955432
  0
VERTEX
  8
1
 10
361.73197082576337
 20
-201.45100000955432
  0
VERTEX
  8
1
 10
366.30497082576335
 20
-201.6300000095543
  0
VERTEX
  8
1
 10
367.3989708257634
 20
-201.6730000095543
  0
VERTEX
  8
1
 10
373.06497082576334
 20
-201.8990000095543
  0
VERTEX
  8
1
 10
379.8849708257634
 20
-202.17000000955426
  0
VERTEX
  8
1
 10
379.8849708257634
 20
-202.17000000955426
  0
VERTEX
  8
1
 10
379.69497082576333
 20
-191.42000000955426
  0
VERTEX
  8
1
 10
379.67787837537094
 20
-190.42014609615512
  0
SEQEND
  0
ENDBLK
  0
BLOCK
  2
1
  8
1
 10
0
 20
0
 70
64
  0
POLYLINE
  8
1
  62
3
10
0
 20
0
 66
1
  0
VERTEX
  8
1
 10
759.0747421184185
 20
-202.17000000000002
  0
VERTEX
  8
1
 10
758.8847421184184
 20
-191.42000000000002
  0
VERTEX
  8
1
 10
758.7277421184185
 20
-182.23600000000005
  0
VERTEX
  8
1
 10
758.3867421184185
 20
-162.30300000000005
  0
VERTEX
  8
1
 10
758.0467421184185
 20
-142.36900000000003
  0
VERTEX
  8
1
 10
757.7057421184185
 20
-122.43500000000006
  0
VERTEX
  8
1
 10
757.3647421184185
 20
-102.50200000000001
  0
VERTEX
  8
1
 10
757.0247421184184
 20
-82.56800000000004
  0
VERTEX
  8
1
 10
756.6837421184184
 20
-62.63500000000004
  0
VERTEX
  8
1
 10
756.3347421184185
 20
-42.20000000000004
  0
VERTEX
  8
1
 10
750.8177421184184
 20
-41.73400000000003
  0
VERTEX
  8
1
 10
745.3007421184184
 20
-41.26800000000002
  0
VERTEX
  8
1
 10
743.3147421184185
 20
-41.100000000000016
  0
VERTEX
  8
1
 10
741.4947421184185
 20
-40.95000000000004
  0
VERTEX
  8
1
 10
739.8047421184184
 20
-40.654000000000046
  0
VERTEX
  8
1
 10
739.7247421184185
 20
-40.640000000000036
  0
VERTEX
  8
1
 10
736.3047421184184
 20
-39.590000000000025
  0
VERTEX
  8
1
 10
734.6127421184185
 20
-38.81100000000003
  0
VERTEX
  8
1
 10
732.9147421184184
 20
-38.03000000000002
  0
VERTEX
  8
1
 10
729.7357421184184
 20
-36.211000000000006
  0
VERTEX
  8
1
 10
729.4547421184184
 20
-36.050000000000004
  0
VERTEX
  8
1
 10
725.7847421184184
 20
-33.73000000000001
  0
VERTEX
  8
1
 10
725.0537421184184
 20
-33.25900000000001
  0
VERTEX
  8
1
 10
721.8147421184185
 20
-31.170000000000066
  0
VERTEX
  8
1
 10
720.3857421184184
 20
-30.28200000000009
  0
VERTEX
  8
1
 10
717.4047421184184
 20
-28.430000000000057
  0
VERTEX
  8
1
 10
715.6427421184185
 20
-27.430000000000057
  0
VERTEX
  8
1
 10
712.4547421184184
 20
-25.62000000000011
  0
VERTEX
  8
1
 10
710.7817421184184
 20
-24.78600000000005
  0
VERTEX
  8
1
 10
706.8347421184185
 20
-22.820000000000043
  0
VERTEX
  8
1
 10
705.8037421184184
 20
-22.36300000000005
  0
VERTEX
  8
1
 10
703.7447421184185
 20
-21.45000000000004
  0
VERTEX
  8
1
 10
700.7007421184185
 20
-20.218000000000067
  0
VERTEX
  8
1
 10
700.4347421184184
 20
-20.11000000000012
  0
VERTEX
  8
1
 10
696.9047421184184
 20
-18.810000000000052
  0
VERTEX
  8
1
 10
695.4937421184184
 20
-18.34600000000011
  0
VERTEX
  8
1
 10
693.1347421184184
 20
-17.570000000000043
  0
VERTEX
  8
1
 10
690.2057421184185
 20
-16.710000000000143
  0
VERTEX
  8
1
 10
689.1147421184185
 20
-16.390000000000093
  0
VERTEX
  8
1
 10
684.8537421184184
 20
-15.297000000000134
  0
VERTEX
  8
1
 10
684.8247421184184
 20
-15.290000000000072
  0
VERTEX
  8
1
 10
680.2447421184185
 20
-14.280000000000081
  0
VERTEX
  8
1
 10
679.4427421184184
 20
-14.128000000000037
  0
VERTEX
  8
1
 10
675.3747421184185
 20
-13.360000000000122
  0
VERTEX
  8
1
 10
673.9947421184185
 20
-13.14500000000009
  0
VERTEX
  8
1
 10
670.1847421184184
 20
-12.550000000000063
  0
VERTEX
  8
1
 10
668.5177421184185
 20
-12.342000000000093
  0
VERTEX
  8
1
 10
664.6647421184184
 20
-11.860000000000122
  0
VERTEX
  8
1
 10
663.0187421184185
 20
-11.702000000000107
  0
VERTEX
  8
1
 10
658.8147421184184
 20
-11.300000000000063
  0
VERTEX
  8
1
 10
657.5047421184184
 20
-11.212000000000097
  0
VERTEX
  8
1
 10
652.5947421184185
 20
-10.880000000000104
  0
VERTEX
  8
1
 10
651.9797421184185
 20
-10.855000000000127
  0
VERTEX
  8
1
 10
646.4487421184184
 20
-10.628000000000037
  0
VERTEX
  8
1
 10
646.0047421184184
 20
-10.610000000000122
  0
VERTEX
  8
1
 10
640.9127421184185
 20
-10.530000000000081
  0
VERTEX
  8
1
 10
639.0347421184184
 20
-10.500000000000108
  0
VERTEX
  8
1
 10
635.3797421184184
 20
-10.60300000000006
  0
VERTEX
  8
1
 10
633.0047421184184
 20
-10.670000000000067
  0
VERTEX
  8
1
 10
629.8597421184185
 20
-10.959000000000055
  0
VERTEX
  8
1
 10
627.3547421184185
 20
-11.19000000000005
  0
VERTEX
  8
1
 10
624.3777421184184
 20
-11.680000000000058
  0
VERTEX
  8
1
 10
622.0647421184184
 20
-12.060000000000054
  0
VERTEX
  8
1
 10
618.9647421184184
 20
-12.810000000000054
  0
VERTEX
  8
1
 10
617.1447421184184
 20
-13.250000000000108
  0
VERTEX
  8
1
 10
613.6667421184185
 20
-14.389000000000118
  0
VERTEX
  8
1
 10
612.5647421184184
 20
-14.750000000000108
  0
VERTEX
  8
1
 10
608.5307421184184
 20
-16.436000000000142
  0
VERTEX
  8
1
 10
608.3047421184184
 20
-16.53000000000008
  0
VERTEX
  8
1
 10
604.3647421184185
 20
-18.59000000000014
  0
VERTEX
  8
1
 10
603.6537421184184
 20
-19.041000000000047
  0
VERTEX
  8
1
 10
600.7247421184185
 20
-20.900000000000084
  0
VERTEX
  8
1
 10
599.0807421184185
 20
-22.14700000000004
  0
VERTEX
  8
1
 10
597.3747421184185
 20
-23.440000000000047
  0
VERTEX
  8
1
 10
594.8527421184184
 20
-25.7070000000001
  0
VERTEX
  8
1
 10
594.3047421184184
 20
-26.20000000000004
  0
VERTEX
  8
1
 10
591.4847421184185
 20
-29.170000000000066
  0
VERTEX
  8
1
 10
591.0417421184185
 20
-29.713000000000072
  0
VERTEX
  8
1
 10
588.9147421184184
 20
-32.3200000000001
  0
VERTEX
  8
1
 10
587.6637421184184
 20
-34.09200000000009
  0
VERTEX
  8
1
 10
586.5847421184185
 20
-35.62000000000011
  0
VERTEX
  8
1
 10
584.6777421184185
 20
-38.747000000000064
  0
VERTEX
  8
1
 10
584.4747421184185
 20
-39.08000000000009
  0
VERTEX
  8
1
 10
582.5647421184184
 20
-42.68000000000006
  0
VERTEX
  8
1
 10
582.1167421184184
 20
-43.650000000000084
  0
VERTEX
  8
1
 10
580.8647421184185
 20
-46.36000000000012
  0
VERTEX
  8
1
 10
579.9097421184184
 20
-48.724000000000096
  0
VERTEX
  8
1
 10
579.3347421184185
 20
-50.150000000000084
  0
VERTEX
  8
1
 10
578.0007421184184
 20
-53.91900000000009
  0
VERTEX
  8
1
 10
577.9647421184185
 20
-54.02000000000009
  0
VERTEX
  8
1
 10
576.7547421184184
 20
-57.950000000000095
  0
VERTEX
  8
1
 10
576.4117421184185
 20
-59.22100000000011
  0
VERTEX
  8
1
 10
575.6847421184184
 20
-61.910000000000075
  0
VERTEX
  8
1
 10
575.0867421184184
 20
-64.5920000000001
  0
VERTEX
  8
1
 10
573.9047421184184
 20
-69.8900000000001
  0
VERTEX
  8
1
 10
573.8857421184184
 20
-69.99700000000007
  0
VERTEX
  8
1
 10
572.9367421184185
 20
-75.45100000000008
  0
VERTEX
  8
1
 10
572.5247421184184
 20
-77.8200000000001
  0
VERTEX
  8
1
 10
572.0867421184184
 20
-80.9210000000001
  0
VERTEX
  8
1
 10
571.4347421184184
 20
-85.54000000000008
  0
VERTEX
  8
1
 10
571.3277421184184
 20
-86.40500000000009
  0
VERTEX
  8
1
 10
570.6457421184184
 20
-91.89900000000011
  0
VERTEX
  8
1
 10
570.6347421184184
 20
-91.99000000000012
  0
VERTEX
  8
1
 10
570.5147421184184
 20
-92.94000000000011
  0
VERTEX
  8
1
 10
569.9737421184185
 20
-97.3950000000001
  0
VERTEX
  8
1
 10
569.6747421184184
 20
-99.86000000000013
  0
VERTEX
  8
1
 10
568.7947421184184
 20
-106.16000000000008
  0
VERTEX
  8
1
 10
568.0287421184184
 20
-100.67700000000008
  0
VERTEX
  8
1
 10
567.9147421184184
 20
-99.86000000000013
  0
VERTEX
  8
1
 10
567.3467421184184
 20
-95.1830000000001
  0
VERTEX
  8
1
 10
567.0747421184185
 20
-92.94000000000011
  0
VERTEX
  8
1
 10
566.9547421184185
 20
-91.98000000000008
  0
VERTEX
  8
1
 10
566.6737421184184
 20
-89.6880000000001
  0
VERTEX
  8
1
 10
566.1647421184184
 20
-85.54000000000008
  0
VERTEX
  8
1
 10
565.9737421184185
 20
-84.19600000000008
  0
VERTEX
  8
1
 10
565.1937421184184
 20
-78.71500000000009
  0
VERTEX
  8
1
 10
565.0647421184184
 20
-77.81000000000012
  0
VERTEX
  8
1
 10
564.2727421184185
 20
-73.25600000000009
  0
VERTEX
  8
1
 10
563.6847421184184
 20
-69.88000000000011
  0
VERTEX
  8
1
 10
563.2257421184185
 20
-67.82300000000009
  0
VERTEX
  8
1
 10
562.0187421184185
 20
-62.420000000000066
  0
VERTEX
  8
1
 10
561.9047421184184
 20
-61.910000000000075
  0
VERTEX
  8
1
 10
560.8347421184185
 20
-57.940000000000104
  0
VERTEX
  8
1
 10
560.5687421184184
 20
-57.07800000000008
  0
VERTEX
  8
1
 10
559.6247421184185
 20
-54.02000000000009
  0
VERTEX
  8
1
 10
558.8507421184185
 20
-51.81800000000009
  0
VERTEX
  8
1
 10
558.2647421184184
 20
-50.150000000000084
  0
VERTEX
  8
1
 10
556.8547421184185
 20
-46.65700000000009
  0
VERTEX
  8
1
 10
556.7347421184185
 20
-46.36000000000012
  0
VERTEX
  8
1
 10
555.0247421184184
 20
-42.670000000000066
  0
VERTEX
  8
1
 10
554.4857421184184
 20
-41.65700000000009
  0
VERTEX
  8
1
 10
553.1147421184185
 20
-39.08000000000009
  0
VERTEX
  8
1
 10
551.7527421184184
 20
-36.84700000000009
  0
VERTEX
  8
1
 10
551.0047421184184
 20
-35.62000000000011
  0
VERTEX
  8
1
 10
548.6647421184184
 20
-32.31000000000011
  0
VERTEX
  8
1
 10
548.6387421184185
 20
-32.27800000000007
  0
VERTEX
  8
1
 10
546.1047421184185
 20
-29.170000000000066
  0
VERTEX
  8
1
 10
545.0577421184184
 20
-28.063000000000095
  0
VERTEX
  8
1
 10
543.2947421184184
 20
-26.20000000000004
  0
VERTEX
  8
1
 10
541.0817421184184
 20
-24.22400000000004
  0
VERTEX
  8
1
 10
540.2047421184184
 20
-23.440000000000047
  0
VERTEX
  8
1
 10
536.8647421184185
 20
-20.900000000000084
  0
VERTEX
  8
1
 10
536.7297421184185
 20
-20.815000000000047
  0
VERTEX
  8
1
 10
533.2247421184185
 20
-18.59000000000014
  0
VERTEX
  8
1
 10
532.0017421184184
 20
-17.95000000000004
  0
VERTEX
  8
1
 10
529.2847421184184
 20
-16.53000000000008
  0
VERTEX
  8
1
 10
527.0107421184184
 20
-15.577000000000107
  0
VERTEX
  8
1
 10
525.0347421184184
 20
-14.750000000000108
  0
VERTEX
  8
1
 10
521.8117421184185
 20
-13.697000000000111
  0
VERTEX
  8
1
 10
520.4447421184184
 20
-13.250000000000108
  0
VERTEX
  8
1
 10
516.4627421184184
 20
-12.289000000000096
  0
VERTEX
  8
1
 10
515.5147421184184
 20
-12.060000000000054
  0
VERTEX
  8
1
 10
511.0157421184184
 20
-11.317000000000116
  0
VERTEX
  8
1
 10
510.24474211841846
 20
-11.19000000000005
  0
VERTEX
  8
1
 10
505.50974211841844
 20
-10.755000000000104
  0
VERTEX
  8
1
 10
504.58474211841843
 20
-10.670000000000067
  0
VERTEX
  8
1
 10
499.9797421184184
 20
-10.540000000000072
  0
VERTEX
  8
1
 10
498.5447421184184
 20
-10.500000000000108
  0
VERTEX
  8
1
 10
494.44474211841845
 20
-10.56500000000005
  0
VERTEX
  8
1
 10
491.58474211841843
 20
-10.610000000000122
  0
VERTEX
  8
1
 10
488.91174211841843
 20
-10.720000000000136
  0
VERTEX
  8
1
 10
484.99474211841846
 20
-10.880000000000104
  0
VERTEX
  8
1
 10
483.38274211841843
 20
-10.989000000000141
  0
VERTEX
  8
1
 10
478.7847421184184
 20
-11.300000000000063
  0
VERTEX
  8
1
 10
477.8617421184184
 20
-11.390000000000095
  0
VERTEX
  8
1
 10
472.9147421184184
 20
-11.870000000000113
  0
VERTEX
  8
1
 10
472.3527421184184
 20
-11.939000000000073
  0
VERTEX
  8
1
 10
467.4047421184184
 20
-12.550000000000063
  0
VERTEX
  8
1
 10
466.8617421184184
 20
-12.6350000000001
  0
VERTEX
  8
1
 10
462.2247421184184
 20
-13.360000000000122
  0
VERTEX
  8
1
 10
461.39674211841844
 20
-13.516000000000071
  0
VERTEX
  8
1
 10
457.3447421184184
 20
-14.280000000000081
  0
VERTEX
  8
1
 10
455.9647421184184
 20
-14.584000000000055
  0
VERTEX
  8
1
 10
452.75474211841845
 20
-15.290000000000072
  0
VERTEX
  8
1
 10
450.57674211841845
 20
-15.850000000000131
  0
VERTEX
  8
1
 10
448.4747421184184
 20
-16.390000000000093
  0
VERTEX
  8
1
 10
445.24574211841843
 20
-17.338000000000072
  0
VERTEX
  8
1
 10
444.45474211841844
 20
-17.570000000000043
  0
VERTEX
  8
1
 10
440.68474211841846
 20
-18.810000000000052
  0
VERTEX
  8
1
 10
439.98774211841845
 20
-19.067000000000114
  0
VERTEX
  8
1
 10
437.1547421184184
 20
-20.11000000000012
  0
VERTEX
  8
1
 10
434.82174211841846
 20
-21.051000000000037
  0
VERTEX
  8
1
 10
433.83474211841843
 20
-21.45000000000004
  0
VERTEX
  8
1
 10
430.75474211841845
 20
-22.820000000000043
  0
VERTEX
  8
1
 10
429.77174211841844
 20
-23.310000000000052
  0
VERTEX
  8
1
 10
425.13474211841844
 20
-25.62000000000011
  0
VERTEX
  8
1
 10
424.82674211841845
 20
-25.795000000000066
  0
VERTEX
  8
1
 10
420.18474211841846
 20
-28.430000000000057
  0
VERTEX
  8
1
 10
420.01674211841845
 20
-28.5340000000001
  0
VERTEX
  8
1
 10
415.76474211841844
 20
-31.170000000000066
  0
VERTEX
  8
1
 10
415.31674211841846
 20
-31.460000000000086
  0
VERTEX
  8
1
 10
411.8047421184184
 20
-33.730000000000125
  0
VERTEX
  8
1
 10
410.6597421184184
 20
-34.45400000000017
  0
VERTEX
  8
1
 10
408.13474211841844
 20
-36.05000000000012
  0
VERTEX
  8
1
 10
405.9217421184185
 20
-37.31300000000015
  0
VERTEX
  8
1
 10
404.6647421184184
 20
-38.030000000000136
  0
VERTEX
  8
1
 10
401.2947421184184
 20
-39.59000000000014
  0
VERTEX
  8
1
 10
400.94674211841846
 20
-39.69600000000013
  0
VERTEX
  8
1
 10
397.85474211841847
 20
-40.64000000000015
  0
VERTEX
  8
1
 10
396.0947421184185
 20
-40.95000000000015
  0
VERTEX
  8
1
 10
395.60174211841843
 20
-40.99000000000017
  0
VERTEX
  8
1
 10
394.26474211841844
 20
-41.10000000000013
  0
VERTEX
  8
1
 10
390.08474211841843
 20
-41.45700000000016
  0
VERTEX
  8
1
 10
381.25474211841845
 20
-42.21000000000014
  0
VERTEX
  8
1
 10
381.11474211841846
 20
-47.020000000000145
  0
VERTEX
  8
1
 10
380.84674211841843
 20
-62.607000000000134
  0
VERTEX
  8
1
 10
380.82474211841844
 20
-63.89000000000015
  0
VERTEX
  8
1
 10
380.75474211841845
 20
-80.76000000000016
  0
VERTEX
  8
1
 10
380.77474211841843
 20
-83.00800000000015
  0
VERTEX
  8
1
 10
380.9047421184184
 20
-97.73000000000013
  0
VERTEX
  8
1
 10
381.0347421184184
 20
-103.40700000000015
  0
VERTEX
  8
1
 10
381.25474211841845
 20
-113.00000000000017
  0
VERTEX
  8
1
 10
381.6477421184185
 20
-123.79800000000017
  0
VERTEX
  8
1
 10
381.81474211841845
 20
-128.37000000000018
  0
VERTEX
  8
1
 10
382.60474211841847
 20
-143.7300000000002
  0
VERTEX
  8
1
 10
382.63374211841847
 20
-144.17500000000013
  0
VERTEX
  8
1
 10
383.61474211841846
 20
-159.21000000000015
  0
VERTEX
  8
1
 10
384.06874211841847
 20
-164.52400000000017
  0
VERTEX
  8
1
 10
384.60474211841847
 20
-170.81000000000012
  0
VERTEX
  8
1
 10
385.7147421184185
 20
-182.49000000000018
  0
VERTEX
  8
1
 10
385.96174211841844
 20
-184.83700000000016
  0
VERTEX
  8
1
 10
386.74474211841846
 20
-192.29000000000013
  0
VERTEX
  8
1
 10
389.72832202836526
 20
-191.97654997055048
  0
VERTEX
  8
1
 10
386.74474211841846
 20
-192.29000000000013
  0
VERTEX
  8
1
 10
386.74474211841846
 20
-192.29000000000013
  0
VERTEX
  8
1
 10
386.92474211841846
 20
-194.01000000000016
  0
VERTEX
  8
1
 10
388.20174211841845
 20
-205.11500000000018
  0
VERTEX
  8
1
 10
388.26474211841844
 20
-205.66000000000014
  0
VERTEX
  8
1
 10
390.0347421184185
 20
-219.77000000000015
  0
VERTEX
  8
1
 10
390.7767421184185
 20
-225.35300000000012
  0
VERTEX
  8
1
 10
391.92474211841846
 20
-233.99000000000018
  0
VERTEX
  8
1
 10
393.5607421184185
 20
-245.56400000000014
  0
VERTEX
  8
1
 10
393.9147421184185
 20
-248.07000000000016
  0
VERTEX
  8
1
 10
396.0347421184185
 20
-262.21000000000015
  0
VERTEX
  8
1
 10
397.42474211841846
 20
-271.4300000000002
  0
VERTEX
  8
1
 10
409.05474211841846
 20
-271.27000000000015
  0
VERTEX
  8
1
 10
419.5507421184185
 20
-271.1210000000001
  0
VERTEX
  8
1
 10
430.8447421184185
 20
-270.9600000000001
  0
VERTEX
  8
1
 10
441.67774211841845
 20
-270.8950000000001
  0
VERTEX
  8
1
 10
449.0847421184185
 20
-270.8500000000001
  0
VERTEX
  8
1
 10
463.8057421184185
 20
-270.9260000000001
  0
VERTEX
  8
1
 10
470.4747421184185
 20
-270.9600000000001
  0
VERTEX
  8
1
 10
485.93174211841847
 20
-271.2180000000001
  0
VERTEX
  8
1
 10
486.04474211841847
 20
-271.2200000000001
  0
VERTEX
  8
1
 10
508.04774211841845
 20
-271.9320000000001
  0
VERTEX
  8
1
 10
511.0847421184185
 20
-272.0300000000001
  0
VERTEX
  8
1
 10
523.9847421184185
 20
-272.4400000000001
  0
VERTEX
  8
1
 10
530.1637421184184
 20
-272.6740000000001
  0
VERTEX
  8
1
 10
533.4747421184185
 20
-272.80000000000007
  0
VERTEX
  8
1
 10
533.5888244472582
 20
-269.8021699143804
  0
VERTEX
  8
1
 10
533.4747421184185
 20
-272.80000000000007
  0
VERTEX
  8
1
 10
533.4747421184185
 20
-272.80000000000007
  0
VERTEX
  8
1
 10
548.0347421184185
 20
-273.3500000000001
  0
VERTEX
  8
1
 10
552.2707421184185
 20
-273.5990000000001
  0
VERTEX
  8
1
 10
559.7647421184184
 20
-274.0400000000001
  0
VERTEX
  8
1
 10
568.8047421184185
 20
-274.7900000000001
  0
VERTEX
  8
1
 10
569.7647421184184
 20
-274.7100000000001
  0
VERTEX
  8
1
 10
569.5156056788574
 20
-271.72036272526543
  0
VERTEX
  8
1
 10
569.7647421184184
 20
-274.7100000000001
  0
VERTEX
  8
1
 10
569.7647421184184
 20
-274.7100000000001
  0
VERTEX
  8
1
 10
574.2407421184184
 20
-274.3380000000001
  0
VERTEX
  8
1
 10
577.8347421184185
 20
-274.0400000000001
  0
VERTEX
  8
1
 10
589.5647421184185
 20
-273.3500000000001
  0
VERTEX
  8
1
 10
613.5547421184185
 20
-272.4400000000001
  0
VERTEX
  8
1
 10
613.7347421184185
 20
-261.94000000000005
  0
VERTEX
  8
1
 10
613.7847421184185
 20
-259.23000000000013
  0
VERTEX
  8
1
 10
613.9347421184185
 20
-256.7500000000001
  0
VERTEX
  8
1
 10
614.0507421184185
 20
-255.6910000000001
  0
VERTEX
  8
1
 10
614.2047421184185
 20
-254.2800000000001
  0
VERTEX
  8
1
 10
614.5947421184185
 20
-251.8300000000001
  0
VERTEX
  8
1
 10
614.9497421184185
 20
-250.09500000000008
  0
VERTEX
  8
1
 10
615.0947421184185
 20
-249.3900000000001
  0
VERTEX
  8
1
 10
615.6947421184185
 20
-246.98000000000013
  0
VERTEX
  8
1
 10
616.4087421184184
 20
-244.61900000000009
  0
VERTEX
  8
1
 10
616.4147421184184
 20
-244.60000000000014
  0
VERTEX
  8
1
 10
617.2447421184185
 20
-242.2600000000001
  0
VERTEX
  8
1
 10
618.1747421184185
 20
-239.9600000000001
  0
VERTEX
  8
1
 10
618.4617421184184
 20
-239.3370000000001
  0
VERTEX
  8
1
 10
619.2147421184185
 20
-237.7000000000001
  0
VERTEX
  8
1
 10
620.3547421184185
 20
-235.49000000000012
  0
VERTEX
  8
1
 10
621.0447421184185
 20
-234.2940000000001
  0
VERTEX
  8
1
 10
621.5947421184185
 20
-233.3400000000001
  0
VERTEX
  8
1
 10
622.9347421184185
 20
-231.2500000000001
  0
VERTEX
  8
1
 10
624.1407421184185
 20
-229.55000000000007
  0
VERTEX
  8
1
 10
624.3747421184185
 20
-229.22000000000008
  0
VERTEX
  8
1
 10
625.8947421184184
 20
-227.2600000000001
  0
VERTEX
  8
1
 10
627.5147421184184
 20
-225.36000000000013
  0
VERTEX
  8
1
 10
627.7097421184185
 20
-225.1500000000001
  0
VERTEX
  8
1
 10
629.2947421184185
 20
-223.4500000000001
  0
VERTEX
  8
1
 10
631.1747421184185
 20
-221.62000000000012
  0
VERTEX
  8
1
 10
631.7097421184185
 20
-221.13900000000012
  0
VERTEX
  8
1
 10
633.1247421184185
 20
-219.87000000000012
  0
VERTEX
  8
1
 10
635.1447421184184
 20
-218.2100000000001
  0
VERTEX
  8
1
 10
636.0657421184185
 20
-217.52100000000007
  0
VERTEX
  8
1
 10
637.2447421184185
 20
-216.6400000000001
  0
VERTEX
  8
1
 10
639.4047421184184
 20
-215.17000000000007
  0
VERTEX
  8
1
 10
640.7467421184185
 20
-214.33900000000006
  0
VERTEX
  8
1
 10
641.6347421184184
 20
-213.79000000000008
  0
VERTEX
  8
1
 10
643.9247421184185
 20
-212.5000000000001
  0
VERTEX
  8
1
 10
645.7057421184185
 20
-211.6060000000001
  0
VERTEX
  8
1
 10
646.2547421184184
 20
-211.3300000000001
  0
VERTEX
  8
1
 10
648.6447421184184
 20
-210.2500000000001
  0
VERTEX
  8
1
 10
650.9017421184185
 20
-209.36200000000008
  0
VERTEX
  8
1
 10
651.0847421184185
 20
-209.29000000000008
  0
VERTEX
  8
1
 10
653.5547421184185
 20
-208.43000000000006
  0
VERTEX
  8
1
 10
656.0647421184185
 20
-207.68000000000006
  0
VERTEX
  8
1
 10
656.2937421184184
 20
-207.62200000000007
  0
VERTEX
  8
1
 10
658.6047421184185
 20
-207.04000000000008
  0
VERTEX
  8
1
 10
661.1747421184185
 20
-206.5100000000001
  0
VERTEX
  8
1
 10
661.8307421184185
 20
-206.4070000000001
  0
VERTEX
  8
1
 10
663.9747421184185
 20
-206.0700000000001
  0
VERTEX
  8
1
 10
667.4347421184185
 20
-205.5390000000001
  0
VERTEX
  8
1
 10
673.0407421184185
 20
-204.68000000000006
  0
VERTEX
  8
1
 10
673.9547421184185
 20
-204.54000000000008
  0
VERTEX
  8
1
 10
678.6657421184185
 20
-203.95800000000008
  0
VERTEX
  8
1
 10
683.9047421184184
 20
-203.31000000000006
  0
VERTEX
  8
1
 10
684.2947421184185
 20
-203.2720000000001
  0
VERTEX
  8
1
 10
689.9397421184185
 20
-202.7290000000001
  0
VERTEX
  8
1
 10
693.8747421184185
 20
-202.35000000000014
  0
VERTEX
  8
1
 10
695.5887421184185
 20
-202.23200000000008
  0
VERTEX
  8
1
 10
701.2457421184184
 20
-201.84100000000012
  0
VERTEX
  8
1
 10
703.8747421184185
 20
-201.66000000000008
  0
VERTEX
  8
1
 10
706.9087421184184
 20
-201.5370000000001
  0
VERTEX
  8
1
 10
712.5737421184185
 20
-201.3080000000001
  0
VERTEX
  8
1
 10
714.2447421184185
 20
-201.24000000000012
  0
VERTEX
  8
1
 10
718.2437421184185
 20
-201.18200000000013
  0
VERTEX
  8
1
 10
723.9137421184184
 20
-201.10000000000014
  0
VERTEX
  8
1
 10
724.6147421184185
 20
-201.0900000000001
  0
VERTEX
  8
1
 10
729.5847421184185
 20
-201.15200000000004
  0
VERTEX
  8
1
 10
734.9947421184185
 20
-201.22000000000003
  0
VERTEX
  8
1
 10
735.2537421184185
 20
-201.23000000000008
  0
VERTEX
  8
1
 10
740.9217421184185
 20
-201.45100000000008
  0
VERTEX
  8
1
 10
745.4947421184185
 20
-201.63000000000005
  0
VERTEX
  8
1
 10
746.5887421184185
 20
-201.67300000000006
  0
VERTEX
  8
1
 10
752.2547421184184
 20
-201.89900000000006
  0
VERTEX
  8
1
 10
759.0747421184185
 20
-202.17000000000002
  0
VERTEX
  8
1
 10
759.0747421184185
 20
-202.17000000000002
  0
VERTEX
  8
1
 10
758.8847421184184
 20
-191.42000000000002
  0
VERTEX
  8
1
 10
758.867649668026
 20
-190.42014608660088
  0
SEQEND
  0
ENDBLK
  0
BLOCK
  2
2
  8
1
 10
0
 20
0
 70
64
  0
POLYLINE
  8
1
  62
3
10
0
 20
0
 66
1
  0
VERTEX
  8
1
 10
767.7384980815815
 20
-202.17000000000002
  0
VERTEX
  8
1
 10
767.9284980815814
 20
-191.42000000000002
  0
VERTEX
  8
1
 10
768.0854980815815
 20
-182.23600000000002
  0
VERTEX
  8
1
 10
768.4264980815815
 20
-162.303
  0
VERTEX
  8
1
 10
768.7664980815814
 20
-142.369
  0
VERTEX
  8
1
 10
769.1074980815815
 20
-122.43500000000003
  0
VERTEX
  8
1
 10
769.4484980815814
 20
-102.50200000000002
  0
VERTEX
  8
1
 10
769.7884980815815
 20
-82.56800000000003
  0
VERTEX
  8
1
 10
770.1294980815815
 20
-62.63500000000002
  0
VERTEX
  8
1
 10
770.4784980815815
 20
-42.20000000000002
  0
VERTEX
  8
1
 10
775.9954980815814
 20
-41.734000000000016
  0
VERTEX
  8
1
 10
781.5124980815815
 20
-41.268000000000015
  0
VERTEX
  8
1
 10
783.4984980815815
 20
-41.10000000000001
  0
VERTEX
  8
1
 10
785.3184980815814
 20
-40.95000000000001
  0
VERTEX
  8
1
 10
787.0084980815815
 20
-40.65400000000001
  0
VERTEX
  8
1
 10
787.0884980815815
 20
-40.64000000000001
  0
VERTEX
  8
1
 10
790.5084980815815
 20
-39.59000000000001
  0
VERTEX
  8
1
 10
792.2004980815815
 20
-38.811000000000014
  0
VERTEX
  8
1
 10
793.8984980815815
 20
-38.030000000000015
  0
VERTEX
  8
1
 10
797.0774980815814
 20
-36.21100000000001
  0
VERTEX
  8
1
 10
797.3584980815815
 20
-36.05000000000001
  0
VERTEX
  8
1
 10
801.0284980815815
 20
-33.73000000000002
  0
VERTEX
  8
1
 10
801.7594980815815
 20
-33.259000000000015
  0
VERTEX
  8
1
 10
804.9984980815815
 20
-31.170000000000012
  0
VERTEX
  8
1
 10
806.4274980815815
 20
-30.282000000000014
  0
VERTEX
  8
1
 10
809.4084980815815
 20
-28.430000000000014
  0
VERTEX
  8
1
 10
811.1704980815814
 20
-27.430000000000014
  0
VERTEX
  8
1
 10
814.3584980815815
 20
-25.62000000000001
  0
VERTEX
  8
1
 10
816.0314980815815
 20
-24.78600000000001
  0
VERTEX
  8
1
 10
819.9784980815815
 20
-22.820000000000014
  0
VERTEX
  8
1
 10
821.0094980815815
 20
-22.363000000000014
  0
VERTEX
  8
1
 10
823.0684980815814
 20
-21.450000000000014
  0
VERTEX
  8
1
 10
826.1124980815814
 20
-20.218000000000014
  0
VERTEX
  8
1
 10
826.3784980815815
 20
-20.110000000000014
  0
VERTEX
  8
1
 10
829.9084980815815
 20
-18.81000000000001
  0
VERTEX
  8
1
 10
831.3194980815815
 20
-18.34600000000001
  0
VERTEX
  8
1
 10
833.6784980815814
 20
-17.570000000000014
  0
VERTEX
  8
1
 10
836.6074980815815
 20
-16.71000000000001
  0
VERTEX
  8
1
 10
837.6984980815814
 20
-16.39000000000001
  0
VERTEX
  8
1
 10
841.9594980815815
 20
-15.297000000000011
  0
VERTEX
  8
1
 10
841.9884980815815
 20
-15.290000000000012
  0
VERTEX
  8
1
 10
846.5684980815814
 20
-14.280000000000012
  0
VERTEX
  8
1
 10
847.3704980815814
 20
-14.12800000000001
  0
VERTEX
  8
1
 10
851.4384980815814
 20
-13.36000000000001
  0
VERTEX
  8
1
 10
852.8184980815814
 20
-13.14500000000001
  0
VERTEX
  8
1
 10
856.6284980815815
 20
-12.550000000000011
  0
VERTEX
  8
1
 10
858.2954980815815
 20
-12.342000000000011
  0
VERTEX
  8
1
 10
862.1484980815815
 20
-11.86000000000001
  0
VERTEX
  8
1
 10
863.7944980815814
 20
-11.70200000000001
  0
VERTEX
  8
1
 10
867.9984980815815
 20
-11.30000000000001
  0
VERTEX
  8
1
 10
869.3084980815814
 20
-11.21200000000001
  0
VERTEX
  8
1
 10
874.2184980815814
 20
-10.88000000000001
  0
VERTEX
  8
1
 10
874.8334980815814
 20
-10.85500000000001
  0
VERTEX
  8
1
 10
880.3644980815815
 20
-10.628000000000009
  0
VERTEX
  8
1
 10
880.8084980815814
 20
-10.610000000000008
  0
VERTEX
  8
1
 10
885.9004980815814
 20
-10.530000000000008
  0
VERTEX
  8
1
 10
887.7784980815815
 20
-10.500000000000009
  0
VERTEX
  8
1
 10
891.4334980815814
 20
-10.603000000000009
  0
VERTEX
  8
1
 10
893.8084980815814
 20
-10.670000000000009
  0
VERTEX
  8
1
 10
896.9534980815814
 20
-10.959000000000009
  0
VERTEX
  8
1
 10
899.4584980815814
 20
-11.190000000000008
  0
VERTEX
  8
1
 10
902.4354980815815
 20
-11.680000000000009
  0
VERTEX
  8
1
 10
904.7484980815815
 20
-12.060000000000008
  0
VERTEX
  8
1
 10
907.8484980815815
 20
-12.810000000000008
  0
VERTEX
  8
1
 10
909.6684980815814
 20
-13.250000000000007
  0
VERTEX
  8
1
 10
913.1464980815815
 20
-14.389000000000006
  0
VERTEX
  8
1
 10
914.2484980815815
 20
-14.750000000000007
  0
VERTEX
  8
1
 10
918.2824980815815
 20
-16.436000000000007
  0
VERTEX
  8
1
 10
918.5084980815815
 20
-16.53000000000001
  0
VERTEX
  8
1
 10
922.4484980815814
 20
-18.590000000000007
  0
VERTEX
  8
1
 10
923.1594980815814
 20
-19.041000000000007
  0
VERTEX
  8
1
 10
926.0884980815815
 20
-20.900000000000006
  0
VERTEX
  8
1
 10
927.7324980815814
 20
-22.147000000000006
  0
VERTEX
  8
1
 10
929.4384980815814
 20
-23.440000000000005
  0
VERTEX
  8
1
 10
931.9604980815815
 20
-25.707000000000008
  0
VERTEX
  8
1
 10
932.5084980815815
 20
-26.200000000000003
  0
VERTEX
  8
1
 10
935.3284980815814
 20
-29.17
  0
VERTEX
  8
1
 10
935.7714980815815
 20
-29.713000000000005
  0
VERTEX
  8
1
 10
937.8984980815815
 20
-32.32000000000001
  0
VERTEX
  8
1
 10
939.1494980815814
 20
-34.092
  0
VERTEX
  8
1
 10
940.2284980815815
 20
-35.620000000000005
  0
VERTEX
  8
1
 10
942.1354980815814
 20
-38.747
  0
VERTEX
  8
1
 10
942.3384980815815
 20
-39.08
  0
VERTEX
  8
1
 10
944.2484980815815
 20
-42.68
  0
VERTEX
  8
1
 10
944.6964980815815
 20
-43.650000000000006
  0
VERTEX
  8
1
 10
945.9484980815814
 20
-46.36000000000001
  0
VERTEX
  8
1
 10
946.9034980815815
 20
-48.724000000000004
  0
VERTEX
  8
1
 10
947.4784980815815
 20
-50.150000000000006
  0
VERTEX
  8
1
 10
948.8124980815815
 20
-53.919000000000004
  0
VERTEX
  8
1
 10
948.8484980815815
 20
-54.02
  0
VERTEX
  8
1
 10
950.0584980815814
 20
-57.95
  0
VERTEX
  8
1
 10
950.4014980815815
 20
-59.221000000000004
  0
VERTEX
  8
1
 10
951.1284980815815
 20
-61.910000000000004
  0
VERTEX
  8
1
 10
951.7264980815814
 20
-64.59200000000001
  0
VERTEX
  8
1
 10
952.9084980815815
 20
-69.89
  0
VERTEX
  8
1
 10
952.9274980815815
 20
-69.997
  0
VERTEX
  8
1
 10
953.8764980815814
 20
-75.45100000000001
  0
VERTEX
  8
1
 10
954.2884980815815
 20
-77.82000000000001
  0
VERTEX
  8
1
 10
954.7264980815814
 20
-80.921
  0
VERTEX
  8
1
 10
955.3784980815815
 20
-85.54
  0
VERTEX
  8
1
 10
955.4854980815815
 20
-86.40500000000002
  0
VERTEX
  8
1
 10
956.1674980815815
 20
-91.89900000000002
  0
VERTEX
  8
1
 10
956.1784980815814
 20
-91.99000000000001
  0
VERTEX
  8
1
 10
956.2984980815814
 20
-92.94000000000001
  0
VERTEX
  8
1
 10
956.8394980815815
 20
-97.39500000000001
  0
VERTEX
  8
1
 10
957.1384980815815
 20
-99.86000000000001
  0
VERTEX
  8
1
 10
958.0184980815815
 20
-106.16000000000001
  0
VERTEX
  8
1
 10
958.7844980815814
 20
-100.677
  0
VERTEX
  8
1
 10
958.8984980815815
 20
-99.86000000000001
  0
VERTEX
  8
1
 10
959.4664980815814
 20
-95.183
  0
VERTEX
  8
1
 10
959.7384980815815
 20
-92.94000000000001
  0
VERTEX
  8
1
 10
959.8584980815815
 20
-91.98
  0
VERTEX
  8
1
 10
960.1394980815815
 20
-89.68800000000002
  0
VERTEX
  8
1
 10
960.6484980815815
 20
-85.54
  0
VERTEX
  8
1
 10
960.8394980815815
 20
-84.19600000000001
  0
VERTEX
  8
1
 10
961.6194980815815
 20
-78.715
  0
VERTEX
  8
1
 10
961.7484980815815
 20
-77.81000000000002
  0
VERTEX
  8
1
 10
962.5404980815815
 20
-73.256
  0
VERTEX
  8
1
 10
963.1284980815815
 20
-69.88
  0
VERTEX
  8
1
 10
963.5874980815814
 20
-67.82300000000001
  0
VERTEX
  8
1
 10
964.7944980815814
 20
-62.42
  0
VERTEX
  8
1
 10
964.9084980815815
 20
-61.910000000000004
  0
VERTEX
  8
1
 10
965.9784980815815
 20
-57.940000000000005
  0
VERTEX
  8
1
 10
966.2444980815815
 20
-57.078
  0
VERTEX
  8
1
 10
967.1884980815814
 20
-54.02
  0
VERTEX
  8
1
 10
967.9624980815814
 20
-51.818000000000005
  0
VERTEX
  8
1
 10
968.5484980815814
 20
-50.150000000000006
  0
VERTEX
  8
1
 10
969.9584980815814
 20
-46.657000000000004
  0
VERTEX
  8
1
 10
970.0784980815814
 20
-46.36000000000001
  0
VERTEX
  8
1
 10
971.7884980815815
 20
-42.67
  0
VERTEX
  8
1
 10
972.3274980815814
 20
-41.657000000000004
  0
VERTEX
  8
1
 10
973.6984980815814
 20
-39.08
  0
VERTEX
  8
1
 10
975.0604980815815
 20
-36.84700000000001
  0
VERTEX
  8
1
 10
975.8084980815814
 20
-35.620000000000005
  0
VERTEX
  8
1
 10
978.1484980815815
 20
-32.31
  0
VERTEX
  8
1
 10
978.1744980815814
 20
-32.278000000000006
  0
VERTEX
  8
1
 10
980.7084980815814
 20
-29.17
  0
VERTEX
  8
1
 10
981.7554980815814
 20
-28.063000000000002
  0
VERTEX
  8
1
 10
983.5184980815815
 20
-26.200000000000003
  0
VERTEX
  8
1
 10
985.7314980815814
 20
-24.224000000000004
  0
VERTEX
  8
1
 10
986.6084980815815
 20
-23.440000000000005
  0
VERTEX
  8
1
 10
989.9484980815814
 20
-20.900000000000006
  0
VERTEX
  8
1
 10
990.0834980815814
 20
-20.815000000000005
  0
VERTEX
  8
1
 10
993.5884980815815
 20
-18.590000000000003
  0
VERTEX
  8
1
 10
994.8114980815815
 20
-17.950000000000003
  0
VERTEX
  8
1
 10
997.5284980815815
 20
-16.53
  0
VERTEX
  8
1
 10
999.8024980815815
 20
-15.577000000000004
  0
VERTEX
  8
1
 10
1001.7784980815815
 20
-14.750000000000002
  0
VERTEX
  8
1
 10
1005.0014980815814
 20
-13.697000000000001
  0
VERTEX
  8
1
 10
1006.3684980815815
 20
-13.250000000000002
  0
VERTEX
  8
1
 10
1010.3504980815815
 20
-12.289000000000001
  0
VERTEX
  8
1
 10
1011.2984980815814
 20
-12.06
  0
VERTEX
  8
1
 10
1015.7974980815815
 20
-11.317
  0
VERTEX
  8
1
 10
1016.5684980815814
 20
-11.190000000000001
  0
VERTEX
  8
1
 10
1021.3034980815814
 20
-10.755
  0
VERTEX
  8
1
 10
1022.2284980815815
 20
-10.67
  0
VERTEX
  8
1
 10
1026.8334980815814
 20
-10.54
  0
VERTEX
  8
1
 10
1028.2684980815816
 20
-10.5
  0
VERTEX
  8
1
 10
1032.3684980815815
 20
-10.565
  0
VERTEX
  8
1
 10
1035.2284980815814
 20
-10.61
  0
VERTEX
  8
1
 10
1037.9014980815814
 20
-10.719999999999999
  0
VERTEX
  8
1
 10
1041.8184980815815
 20
-10.879999999999999
  0
VERTEX
  8
1
 10
1043.4304980815814
 20
-10.988999999999999
  0
VERTEX
  8
1
 10
1048.0284980815813
 20
-11.299999999999999
  0
VERTEX
  8
1
 10
1048.9514980815816
 20
-11.389999999999999
  0
VERTEX
  8
1
 10
1053.8984980815815
 20
-11.869999999999997
  0
VERTEX
  8
1
 10
1054.4604980815814
 20
-11.938999999999998
  0
VERTEX
  8
1
 10
1059.4084980815815
 20
-12.549999999999999
  0
VERTEX
  8
1
 10
1059.9514980815816
 20
-12.634999999999998
  0
VERTEX
  8
1
 10
1064.5884980815815
 20
-13.359999999999998
  0
VERTEX
  8
1
 10
1065.4164980815815
 20
-13.515999999999998
  0
VERTEX
  8
1
 10
1069.4684980815814
 20
-14.279999999999998
  0
VERTEX
  8
1
 10
1070.8484980815815
 20
-14.583999999999998
  0
VERTEX
  8
1
 10
1074.0584980815815
 20
-15.289999999999997
  0
VERTEX
  8
1
 10
1076.2364980815814
 20
-15.849999999999998
  0
VERTEX
  8
1
 10
1078.3384980815815
 20
-16.389999999999997
  0
VERTEX
  8
1
 10
1081.5674980815816
 20
-17.337999999999997
  0
VERTEX
  8
1
 10
1082.3584980815815
 20
-17.57
  0
VERTEX
  8
1
 10
1086.1284980815815
 20
-18.809999999999995
  0
VERTEX
  8
1
 10
1086.8254980815814
 20
-19.067
  0
VERTEX
  8
1
 10
1089.6584980815815
 20
-20.109999999999996
  0
VERTEX
  8
1
 10
1091.9914980815815
 20
-21.050999999999995
  0
VERTEX
  8
1
 10
1092.9784980815814
 20
-21.449999999999996
  0
VERTEX
  8
1
 10
1096.0584980815815
 20
-22.819999999999997
  0
VERTEX
  8
1
 10
1097.0414980815815
 20
-23.309999999999995
  0
VERTEX
  8
1
 10
1101.6784980815814
 20
-25.619999999999997
  0
VERTEX
  8
1
 10
1101.9864980815814
 20
-25.794999999999995
  0
VERTEX
  8
1
 10
1106.6284980815815
 20
-28.429999999999993
  0
VERTEX
  8
1
 10
1106.7964980815814
 20
-28.533999999999992
  0
VERTEX
  8
1
 10
1111.0484980815816
 20
-31.16999999999999
  0
VERTEX
  8
1
 10
1111.4964980815814
 20
-31.459999999999994
  0
VERTEX
  8
1
 10
1115.0084980815814
 20
-33.72999999999999
  0
VERTEX
  8
1
 10
1116.1534980815813
 20
-34.45399999999999
  0
VERTEX
  8
1
 10
1118.6784980815814
 20
-36.05
  0
VERTEX
  8
1
 10
1120.8914980815814
 20
-37.31299999999999
  0
VERTEX
  8
1
 10
1122.1484980815815
 20
-38.029999999999994
  0
VERTEX
  8
1
 10
1125.5184980815816
 20
-39.589999999999996
  0
VERTEX
  8
1
 10
1125.8664980815815
 20
-39.696
  0
VERTEX
  8
1
 10
1128.9584980815814
 20
-40.63999999999999
  0
VERTEX
  8
1
 10
1130.7184980815814
 20
-40.949999999999996
  0
VERTEX
  8
1
 10
1131.2114980815813
 20
-40.98999999999999
  0
VERTEX
  8
1
 10
1132.5484980815816
 20
-41.09999999999999
  0
VERTEX
  8
1
 10
1136.7284980815814
 20
-41.45699999999999
  0
VERTEX
  8
1
 10
1145.5584980815815
 20
-42.20999999999999
  0
VERTEX
  8
1
 10
1145.6984980815814
 20
-47.01999999999999
  0
VERTEX
  8
1
 10
1145.9664980815814
 20
-62.60699999999999
  0
VERTEX
  8
1
 10
1145.9884980815814
 20
-63.889999999999986
  0
VERTEX
  8
1
 10
1146.0584980815815
 20
-80.75999999999999
  0
VERTEX
  8
1
 10
1146.0384980815816
 20
-83.008
  0
VERTEX
  8
1
 10
1145.9084980815815
 20
-97.72999999999999
  0
VERTEX
  8
1
 10
1145.7784980815813
 20
-103.407
  0
VERTEX
  8
1
 10
1145.5584980815815
 20
-113.0
  0
VERTEX
  8
1
 10
1145.1654980815815
 20
-123.798
  0
VERTEX
  8
1
 10
1144.9984980815814
 20
-128.37
  0
VERTEX
  8
1
 10
1144.2084980815814
 20
-143.73000000000002
  0
VERTEX
  8
1
 10
1144.1794980815814
 20
-144.175
  0
VERTEX
  8
1
 10
1143.1984980815814
 20
-159.21
  0
VERTEX
  8
1
 10
1142.7444980815815
 20
-164.524
  0
VERTEX
  8
1
 10
1142.2084980815814
 20
-170.81
  0
VERTEX
  8
1
 10
1141.0984980815815
 20
-182.49
  0
VERTEX
  8
1
 10
1140.8514980815814
 20
-184.83700000000002
  0
VERTEX
  8
1
 10
1140.0684980815815
 20
-192.29000000000002
  0
VERTEX
  8
1
 10
1137.0849181716346
 20
-191.97654997055037
  0
VERTEX
  8
1
 10
1140.0684980815815
 20
-192.29000000000002
  0
VERTEX
  8
1
 10
1140.0684980815815
 20
-192.29000000000002
  0
VERTEX
  8
1
 10
1139.8884980815815
 20
-194.01000000000002
  0
VERTEX
  8
1
 10
1138.6114980815814
 20
-205.115
  0
VERTEX
  8
1
 10
1138.5484980815816
 20
-205.66
  0
VERTEX
  8
1
 10
1136.7784980815813
 20
-219.77
  0
VERTEX
  8
1
 10
1136.0364980815814
 20
-225.353
  0
VERTEX
  8
1
 10
1134.8884980815815
 20
-233.99
  0
VERTEX
  8
1
 10
1133.2524980815815
 20
-245.56400000000002
  0
VERTEX
  8
1
 10
1132.8984980815815
 20
-248.07000000000002
  0
VERTEX
  8
1
 10
1130.7784980815816
 20
-262.21000000000004
  0
VERTEX
  8
1
 10
1129.3884980815815
 20
-271.43000000000006
  0
VERTEX
  8
1
 10
1117.7584980815816
 20
-271.27
  0
VERTEX
  8
1
 10
1107.2624980815815
 20
-271.121
  0
VERTEX
  8
1
 10
1095.9684980815814
 20
-270.96000000000004
  0
VERTEX
  8
1
 10
1085.1354980815815
 20
-270.895
  0
VERTEX
  8
1
 10
1077.7284980815814
 20
-270.85
  0
VERTEX
  8
1
 10
1063.0074980815814
 20
-270.92600000000004
  0
VERTEX
  8
1
 10
1056.3384980815815
 20
-270.96000000000004
  0
VERTEX
  8
1
 10
1040.8814980815814
 20
-271.21799999999996
  0
VERTEX
  8
1
 10
1040.7684980815816
 20
-271.22
  0
VERTEX
  8
1
 10
1018.7654980815814
 20
-271.932
  0
VERTEX
  8
1
 10
1015.7284980815815
 20
-272.03
  0
VERTEX
  8
1
 10
1002.8284980815815
 20
-272.44000000000005
  0
VERTEX
  8
1
 10
996.6494980815814
 20
-272.674
  0
VERTEX
  8
1
 10
993.3384980815815
 20
-272.79999999999995
  0
VERTEX
  8
1
 10
993.2244157527418
 20
-269.80216991438033
  0
VERTEX
  8
1
 10
993.3384980815815
 20
-272.79999999999995
  0
VERTEX
  8
1
 10
993.3384980815815
 20
-272.79999999999995
  0
VERTEX
  8
1
 10
978.7784980815815
 20
-273.35
  0
VERTEX
  8
1
 10
974.5424980815815
 20
-273.59900000000005
  0
VERTEX
  8
1
 10
967.0484980815814
 20
-274.03999999999996
  0
VERTEX
  8
1
 10
958.0084980815815
 20
-274.78999999999996
  0
VERTEX
  8
1
 10
957.0484980815814
 20
-274.71000000000004
  0
VERTEX
  8
1
 10
957.2976345211426
 20
-271.7203627252653
  0
VERTEX
  8
1
 10
957.0484980815814
 20
-274.71000000000004
  0
VERTEX
  8
1
 10
957.0484980815814
 20
-274.71000000000004
  0
VERTEX
  8
1
 10
952.5724980815814
 20
-274.33799999999997
  0
VERTEX
  8
1
 10
948.9784980815815
 20
-274.03999999999996
  0
VERTEX
  8
1
 10
937.2484980815815
 20
-273.35
  0
VERTEX
  8
1
 10
913.2584980815815
 20
-272.44000000000005
  0
VERTEX
  8
1
 10
913.0784980815815
 20
-261.94
  0
VERTEX
  8
1
 10
913.0284980815815
 20
-259.23
  0
VERTEX
  8
1
 10
912.8784980815815
 20
-256.75
  0
VERTEX
  8
1
 10
912.7624980815815
 20
-255.691
  0
VERTEX
  8
1
 10
912.6084980815815
 20
-254.28
  0
VERTEX
  8
1
 10
912.2184980815815
 20
-251.83
  0
VERTEX
  8
1
 10
911.8634980815815
 20
-250.095
  0
VERTEX
  8
1
 10
911.7184980815815
 20
-249.39000000000001
  0
VERTEX
  8
1
 10
911.1184980815815
 20
-246.98000000000002
  0
VERTEX
  8
1
 10
910.4044980815814
 20
-244.619
  0
VERTEX
  8
1
 10
910.3984980815815
 20
-244.60000000000002
  0
VERTEX
  8
1
 10
909.5684980815815
 20
-242.26000000000002
  0
VERTEX
  8
1
 10
908.6384980815815
 20
-239.96
  0
VERTEX
  8
1
 10
908.3514980815814
 20
-239.33700000000002
  0
VERTEX
  8
1
 10
907.5984980815815
 20
-237.70000000000002
  0
VERTEX
  8
1
 10
906.4584980815815
 20
-235.49
  0
VERTEX
  8
1
 10
905.7684980815815
 20
-234.294
  0
VERTEX
  8
1
 10
905.2184980815815
 20
-233.34
  0
VERTEX
  8
1
 10
903.8784980815815
 20
-231.25
  0
VERTEX
  8
1
 10
902.6724980815815
 20
-229.55
  0
VERTEX
  8
1
 10
902.4384980815814
 20
-229.22
  0
VERTEX
  8
1
 10
900.9184980815814
 20
-227.26000000000002
  0
VERTEX
  8
1
 10
899.2984980815814
 20
-225.36
  0
VERTEX
  8
1
 10
899.1034980815815
 20
-225.15
  0
VERTEX
  8
1
 10
897.5184980815815
 20
-223.45000000000002
  0
VERTEX
  8
1
 10
895.6384980815815
 20
-221.62
  0
VERTEX
  8
1
 10
895.1034980815815
 20
-221.139
  0
VERTEX
  8
1
 10
893.6884980815814
 20
-219.87
  0
VERTEX
  8
1
 10
891.6684980815814
 20
-218.21
  0
VERTEX
  8
1
 10
890.7474980815815
 20
-217.52100000000002
  0
VERTEX
  8
1
 10
889.5684980815815
 20
-216.64000000000001
  0
VERTEX
  8
1
 10
887.4084980815815
 20
-215.17000000000002
  0
VERTEX
  8
1
 10
886.0664980815815
 20
-214.339
  0
VERTEX
  8
1
 10
885.1784980815814
 20
-213.79000000000002
  0
VERTEX
  8
1
 10
882.8884980815815
 20
-212.5
  0
VERTEX
  8
1
 10
881.1074980815815
 20
-211.60600000000002
  0
VERTEX
  8
1
 10
880.5584980815814
 20
-211.33
  0
VERTEX
  8
1
 10
878.1684980815814
 20
-210.25
  0
VERTEX
  8
1
 10
875.9114980815815
 20
-209.36200000000002
  0
VERTEX
  8
1
 10
875.7284980815815
 20
-209.29000000000002
  0
VERTEX
  8
1
 10
873.2584980815815
 20
-208.43
  0
VERTEX
  8
1
 10
870.7484980815815
 20
-207.68
  0
VERTEX
  8
1
 10
870.5194980815814
 20
-207.622
  0
VERTEX
  8
1
 10
868.2084980815815
 20
-207.04000000000002
  0
VERTEX
  8
1
 10
865.6384980815815
 20
-206.51000000000002
  0
VERTEX
  8
1
 10
864.9824980815815
 20
-206.407
  0
VERTEX
  8
1
 10
862.8384980815815
 20
-206.07000000000002
  0
VERTEX
  8
1
 10
859.3784980815815
 20
-205.53900000000002
  0
VERTEX
  8
1
 10
853.7724980815815
 20
-204.68
  0
VERTEX
  8
1
 10
852.8584980815815
 20
-204.54000000000002
  0
VERTEX
  8
1
 10
848.1474980815815
 20
-203.958
  0
VERTEX
  8
1
 10
842.9084980815815
 20
-203.31
  0
VERTEX
  8
1
 10
842.5184980815815
 20
-203.27200000000002
  0
VERTEX
  8
1
 10
836.8734980815815
 20
-202.729
  0
VERTEX
  8
1
 10
832.9384980815814
 20
-202.35000000000002
  0
VERTEX
  8
1
 10
831.2244980815815
 20
-202.232
  0
VERTEX
  8
1
 10
825.5674980815814
 20
-201.841
  0
VERTEX
  8
1
 10
822.9384980815814
 20
-201.66
  0
VERTEX
  8
1
 10
819.9044980815814
 20
-201.537
  0
VERTEX
  8
1
 10
814.2394980815815
 20
-201.30800000000002
  0
VERTEX
  8
1
 10
812.5684980815814
 20
-201.24
  0
VERTEX
  8
1
 10
808.5694980815815
 20
-201.18200000000002
  0
VERTEX
  8
1
 10
802.8994980815814
 20
-201.10000000000002
  0
VERTEX
  8
1
 10
802.1984980815814
 20
-201.09
  0
VERTEX
  8
1
 10
797.2284980815815
 20
-201.15200000000002
  0
VERTEX
  8
1
 10
791.8184980815814
 20
-201.22
  0
VERTEX
  8
1
 10
791.5594980815815
 20
-201.23000000000002
  0
VERTEX
  8
1
 10
785.8914980815814
 20
-201.45100000000002
  0
VERTEX
  8
1
 10
781.3184980815814
 20
-201.63000000000002
  0
VERTEX
  8
1
 10
780.2244980815815
 20
-201.673
  0
VERTEX
  8
1
 10
774.5584980815814
 20
-201.899
  0
VERTEX
  8
1
 10
767.7384980815815
 20
-202.17000000000002
  0
VERTEX
  8
1
 10
767.7384980815815
 20
-202.17000000000002
  0
VERTEX
  8
1
 10
767.9284980815814
 20
-191.42000000000002
  0
VERTEX
  8
1
 10
767.9455905319738
 20
-190.42014608660088
  0
SEQEND
  0
ENDBLK
  0
BLOCK
  2
3
  8
1
 10
0
 20
0
 70
64
  0
POLYLINE
  8
1
  62
3
10
0
 20
0
 66
1
  0
VERTEX
  8
1
 10
1146.9282693815815
 20
-202.17000000000002
  0
VERTEX
  8
1
 10
1147.1182693815815
 20
-191.42000000000002
  0
VERTEX
  8
1
 10
1147.2752693815814
 20
-182.23600000000002
  0
VERTEX
  8
1
 10
1147.6162693815816
 20
-162.303
  0
VERTEX
  8
1
 10
1147.9562693815815
 20
-142.369
  0
VERTEX
  8
1
 10
1148.2972693815816
 20
-122.43500000000003
  0
VERTEX
  8
1
 10
1148.6382693815815
 20
-102.50200000000002
  0
VERTEX
  8
1
 10
1148.9782693815814
 20
-82.56800000000003
  0
VERTEX
  8
1
 10
1149.3192693815815
 20
-62.63500000000002
  0
VERTEX
  8
1
 10
1149.6682693815815
 20
-42.20000000000002
  0
VERTEX
  8
1
 10
1155.1852693815815
 20
-41.734000000000016
  0
VERTEX
  8
1
 10
1160.7022693815816
 20
-41.268000000000015
  0
VERTEX
  8
1
 10
1162.6882693815814
 20
-41.10000000000001
  0
VERTEX
  8
1
 10
1164.5082693815816
 20
-40.95000000000001
  0
VERTEX
  8
1
 10
1166.1982693815817
 20
-40.65400000000001
  0
VERTEX
  8
1
 10
1166.2782693815816
 20
-40.64000000000001
  0
VERTEX
  8
1
 10
1169.6982693815817
 20
-39.59000000000001
  0
VERTEX
  8
1
 10
1171.3902693815814
 20
-38.811000000000014
  0
VERTEX
  8
1
 10
1173.0882693815815
 20
-38.030000000000015
  0
VERTEX
  8
1
 10
1176.2672693815816
 20
-36.21100000000001
  0
VERTEX
  8
1
 10
1176.5482693815816
 20
-36.05000000000001
  0
VERTEX
  8
1
 10
1180.2182693815816
 20
-33.73000000000002
  0
VERTEX
  8
1
 10
1180.9492693815814
 20
-33.259000000000015
  0
VERTEX
  8
1
 10
1184.1882693815814
 20
-31.170000000000012
  0
VERTEX
  8
1
 10
1185.6172693815815
 20
-30.282000000000014
  0
VERTEX
  8
1
 10
1188.5982693815815
 20
-28.430000000000014
  0
VERTEX
  8
1
 10
1190.3602693815815
 20
-27.430000000000014
  0
VERTEX
  8
1
 10
1193.5482693815816
 20
-25.62000000000001
  0
VERTEX
  8
1
 10
1195.2212693815816
 20
-24.78600000000001
  0
VERTEX
  8
1
 10
1199.1682693815815
 20
-22.820000000000014
  0
VERTEX
  8
1
 10
1200.1992693815814
 20
-22.363000000000014
  0
VERTEX
  8
1
 10
1202.2582693815816
 20
-21.450000000000014
  0
VERTEX
  8
1
 10
1205.3022693815815
 20
-20.218000000000014
  0
VERTEX
  8
1
 10
1205.5682693815816
 20
-20.110000000000014
  0
VERTEX
  8
1
 10
1209.0982693815815
 20
-18.81000000000001
  0
VERTEX
  8
1
 10
1210.5092693815816
 20
-18.34600000000001
  0
VERTEX
  8
1
 10
1212.8682693815815
 20
-17.570000000000014
  0
VERTEX
  8
1
 10
1215.7972693815816
 20
-16.71000000000001
  0
VERTEX
  8
1
 10
1216.8882693815815
 20
-16.39000000000001
  0
VERTEX
  8
1
 10
1221.1492693815815
 20
-15.297000000000011
  0
VERTEX
  8
1
 10
1221.1782693815815
 20
-15.290000000000012
  0
VERTEX
  8
1
 10
1225.7582693815816
 20
-14.280000000000012
  0
VERTEX
  8
1
 10
1226.5602693815815
 20
-14.12800000000001
  0
VERTEX
  8
1
 10
1230.6282693815815
 20
-13.36000000000001
  0
VERTEX
  8
1
 10
1232.0082693815816
 20
-13.14500000000001
  0
VERTEX
  8
1
 10
1235.8182693815816
 20
-12.550000000000011
  0
VERTEX
  8
1
 10
1237.4852693815815
 20
-12.342000000000011
  0
VERTEX
  8
1
 10
1241.3382693815815
 20
-11.86000000000001
  0
VERTEX
  8
1
 10
1242.9842693815815
 20
-11.70200000000001
  0
VERTEX
  8
1
 10
1247.1882693815814
 20
-11.30000000000001
  0
VERTEX
  8
1
 10
1248.4982693815816
 20
-11.21200000000001
  0
VERTEX
  8
1
 10
1253.4082693815815
 20
-10.88000000000001
  0
VERTEX
  8
1
 10
1254.0232693815815
 20
-10.85500000000001
  0
VERTEX
  8
1
 10
1259.5542693815814
 20
-10.628000000000009
  0
VERTEX
  8
1
 10
1259.9982693815816
 20
-10.610000000000008
  0
VERTEX
  8
1
 10
1265.0902693815815
 20
-10.530000000000008
  0
VERTEX
  8
1
 10
1266.9682693815816
 20
-10.500000000000009
  0
VERTEX
  8
1
 10
1270.6232693815816
 20
-10.603000000000009
  0
VERTEX
  8
1
 10
1272.9982693815816
 20
-10.670000000000009
  0
VERTEX
  8
1
 10
1276.1432693815816
 20
-10.959000000000009
  0
VERTEX
  8
1
 10
1278.6482693815815
 20
-11.190000000000008
  0
VERTEX
  8
1
 10
1281.6252693815816
 20
-11.680000000000009
  0
VERTEX
  8
1
 10
1283.9382693815814
 20
-12.060000000000008
  0
VERTEX
  8
1
 10
1287.0382693815816
 20
-12.810000000000008
  0
VERTEX
  8
1
 10
1288.8582693815815
 20
-13.250000000000007
  0
VERTEX
  8
1
 10
1292.3362693815816
 20
-14.389000000000006
  0
VERTEX
  8
1
 10
1293.4382693815814
 20
-14.750000000000007
  0
VERTEX
  8
1
 10
1297.4722693815816
 20
-16.436000000000007
  0
VERTEX
  8
1
 10
1297.6982693815814
 20
-16.53000000000001
  0
VERTEX
  8
1
 10
1301.6382693815815
 20
-18.590000000000007
  0
VERTEX
  8
1
 10
1302.3492693815815
 20
-19.041000000000007
  0
VERTEX
  8
1
 10
1305.2782693815816
 20
-20.900000000000006
  0
VERTEX
  8
1
 10
1306.9222693815816
 20
-22.147000000000006
  0
VERTEX
  8
1
 10
1308.6282693815815
 20
-23.440000000000005
  0
VERTEX
  8
1
 10
1311.1502693815814
 20
-25.707000000000008
  0
VERTEX
  8
1
 10
1311.6982693815814
 20
-26.200000000000003
  0
VERTEX
  8
1
 10
1314.5182693815816
 20
-29.17
  0
VERTEX
  8
1
 10
1314.9612693815816
 20
-29.713000000000005
  0
VERTEX
  8
1
 10
1317.0882693815815
 20
-32.32000000000001
  0
VERTEX
  8
1
 10
1318.3392693815815
 20
-34.092
  0
VERTEX
  8
1
 10
1319.4182693815815
 20
-35.620000000000005
  0
VERTEX
  8
1
 10
1321.3252693815816
 20
-38.747
  0
VERTEX
  8
1
 10
1321.5282693815816
 20
-39.08
  0
VERTEX
  8
1
 10
1323.4382693815814
 20
-42.68
  0
VERTEX
  8
1
 10
1323.8862693815815
 20
-43.650000000000006
  0
VERTEX
  8
1
 10
1325.1382693815815
 20
-46.36000000000001
  0
VERTEX
  8
1
 10
1326.0932693815816
 20
-48.724000000000004
  0
VERTEX
  8
1
 10
1326.6682693815815
 20
-50.150000000000006
  0
VERTEX
  8
1
 10
1328.0022693815815
 20
-53.919000000000004
  0
VERTEX
  8
1
 10
1328.0382693815816
 20
-54.02
  0
VERTEX
  8
1
 10
1329.2482693815816
 20
-57.95
  0
VERTEX
  8
1
 10
1329.5912693815815
 20
-59.221000000000004
  0
VERTEX
  8
1
 10
1330.3182693815816
 20
-61.910000000000004
  0
VERTEX
  8
1
 10
1330.9162693815815
 20
-64.59200000000001
  0
VERTEX
  8
1
 10
1332.0982693815815
 20
-69.89
  0
VERTEX
  8
1
 10
1332.1172693815815
 20
-69.997
  0
VERTEX
  8
1
 10
1333.0662693815816
 20
-75.45100000000001
  0
VERTEX
  8
1
 10
1333.4782693815816
 20
-77.82000000000001
  0
VERTEX
  8
1
 10
1333.9162693815815
 20
-80.921
  0
VERTEX
  8
1
 10
1334.5682693815816
 20
-85.54
  0
VERTEX
  8
1
 10
1334.6752693815815
 20
-86.40500000000002
  0
VERTEX
  8
1
 10
1335.3572693815815
 20
-91.89900000000002
  0
VERTEX
  8
1
 10
1335.3682693815815
 20
-91.99000000000001
  0
VERTEX
  8
1
 10
1335.4882693815816
 20
-92.94000000000001
  0
VERTEX
  8
1
 10
1336.0292693815816
 20
-97.39500000000001
  0
VERTEX
  8
1
 10
1336.3282693815815
 20
-99.86000000000001
  0
VERTEX
  8
1
 10
1337.2082693815817
 20
-106.16000000000001
  0
VERTEX
  8
1
 10
1337.9742693815815
 20
-100.677
  0
VERTEX
  8
1
 10
1338.0882693815815
 20
-99.86000000000001
  0
VERTEX
  8
1
 10
1338.6562693815815
 20
-95.183
  0
VERTEX
  8
1
 10
1338.9282693815815
 20
-92.94000000000001
  0
VERTEX
  8
1
 10
1339.0482693815816
 20
-91.98
  0
VERTEX
  8
1
 10
1339.3292693815815
 20
-89.68800000000002
  0
VERTEX
  8
1
 10
1339.8382693815815
 20
-85.54
  0
VERTEX
  8
1
 10
1340.0292693815816
 20
-84.19600000000001
  0
VERTEX
  8
1
 10
1340.8092693815815
 20
-78.715
  0
VERTEX
  8
1
 10
1340.9382693815814
 20
-77.81000000000002
  0
VERTEX
  8
1
 10
1341.7302693815816
 20
-73.256
  0
VERTEX
  8
1
 10
1342.3182693815816
 20
-69.88
  0
VERTEX
  8
1
 10
1342.7772693815816
 20
-67.82300000000001
  0
VERTEX
  8
1
 10
1343.9842693815815
 20
-62.42
  0
VERTEX
  8
1
 10
1344.0982693815815
 20
-61.910000000000004
  0
VERTEX
  8
1
 10
1345.1682693815815
 20
-57.940000000000005
  0
VERTEX
  8
1
 10
1345.4342693815815
 20
-57.078
  0
VERTEX
  8
1
 10
1346.3782693815815
 20
-54.02
  0
VERTEX
  8
1
 10
1347.1522693815816
 20
-51.818000000000005
  0
VERTEX
  8
1
 10
1347.7382693815816
 20
-50.150000000000006
  0
VERTEX
  8
1
 10
1349.1482693815815
 20
-46.657000000000004
  0
VERTEX
  8
1
 10
1349.2682693815816
 20
-46.36000000000001
  0
VERTEX
  8
1
 10
1350.9782693815816
 20
-42.67
  0
VERTEX
  8
1
 10
1351.5172693815816
 20
-41.657000000000004
  0
VERTEX
  8
1
 10
1352.8882693815815
 20
-39.08
  0
VERTEX
  8
1
 10
1354.2502693815816
 20
-36.84700000000001
  0
VERTEX
  8
1
 10
1354.9982693815816
 20
-35.620000000000005
  0
VERTEX
  8
1
 10
1357.3382693815815
 20
-32.31
  0
VERTEX
  8
1
 10
1357.3642693815816
 20
-32.278000000000006
  0
VERTEX
  8
1
 10
1359.8982693815815
 20
-29.17
  0
VERTEX
  8
1
 10
1360.9452693815815
 20
-28.063000000000002
  0
VERTEX
  8
1
 10
1362.7082693815814
 20
-26.200000000000003
  0
VERTEX
  8
1
 10
1364.9212693815816
 20
-24.224000000000004
  0
VERTEX
  8
1
 10
1365.7982693815816
 20
-23.440000000000005
  0
VERTEX
  8
1
 10
1369.1382693815815
 20
-20.900000000000006
  0
VERTEX
  8
1
 10
1369.2732693815815
 20
-20.815000000000005
  0
VERTEX
  8
1
 10
1372.7782693815816
 20
-18.590000000000003
  0
VERTEX
  8
1
 10
1374.0012693815816
 20
-17.950000000000003
  0
VERTEX
  8
1
 10
1376.7182693815816
 20
-16.53
  0
VERTEX
  8
1
 10
1378.9922693815815
 20
-15.577000000000004
  0
VERTEX
  8
1
 10
1380.9682693815816
 20
-14.750000000000002
  0
VERTEX
  8
1
 10
1384.1912693815816
 20
-13.697000000000001
  0
VERTEX
  8
1
 10
1385.5582693815816
 20
-13.250000000000002
  0
VERTEX
  8
1
 10
1389.5402693815815
 20
-12.289000000000001
  0
VERTEX
  8
1
 10
1390.4882693815816
 20
-12.06
  0
VERTEX
  8
1
 10
1394.9872693815814
 20
-11.317
  0
VERTEX
  8
1
 10
1395.7582693815816
 20
-11.190000000000001
  0
VERTEX
  8
1
 10
1400.4932693815815
 20
-10.755
  0
VERTEX
  8
1
 10
1401.4182693815815
 20
-10.67
  0
VERTEX
  8
1
 10
1406.0232693815815
 20
-10.54
  0
VERTEX
  8
1
 10
1407.4582693815814
 20
-10.5
  0
VERTEX
  8
1
 10
1411.5582693815816
 20
-10.565
  0
VERTEX
  8
1
 10
1414.4182693815815
 20
-10.61
  0
VERTEX
  8
1
 10
1417.0912693815815
 20
-10.719999999999999
  0
VERTEX
  8
1
 10
1421.0082693815816
 20
-10.879999999999999
  0
VERTEX
  8
1
 10
1422.6202693815815
 20
-10.988999999999999
  0
VERTEX
  8
1
 10
1427.2182693815816
 20
-11.299999999999999
  0
VERTEX
  8
1
 10
1428.1412693815814
 20
-11.389999999999999
  0
VERTEX
  8
1
 10
1433.0882693815815
 20
-11.869999999999997
  0
VERTEX
  8
1
 10
1433.6502693815814
 20
-11.938999999999998
  0
VERTEX
  8
1
 10
1438.5982693815815
 20
-12.549999999999999
  0
VERTEX
  8
1
 10
1439.1412693815814
 20
-12.634999999999998
  0
VERTEX
  8
1
 10
1443.7782693815816
 20
-13.359999999999998
  0
VERTEX
  8
1
 10
1444.6062693815816
 20
-13.515999999999998
  0
VERTEX
  8
1
 10
1448.6582693815815
 20
-14.279999999999998
  0
VERTEX
  8
1
 10
1450.0382693815816
 20
-14.583999999999998
  0
VERTEX
  8
1
 10
1453.2482693815816
 20
-15.289999999999997
  0
VERTEX
  8
1
 10
1455.4262693815815
 20
-15.849999999999998
  0
VERTEX
  8
1
 10
1457.5282693815816
 20
-16.389999999999997
  0
VERTEX
  8
1
 10
1460.7572693815816
 20
-17.337999999999997
  0
VERTEX
  8
1
 10
1461.5482693815816
 20
-17.57
  0
VERTEX
  8
1
 10
1465.3182693815816
 20
-18.809999999999995
  0
VERTEX
  8
1
 10
1466.0152693815814
 20
-19.067
  0
VERTEX
  8
1
 10
1468.8482693815815
 20
-20.109999999999996
  0
VERTEX
  8
1
 10
1471.1812693815816
 20
-21.050999999999995
  0
VERTEX
  8
1
 10
1472.1682693815815
 20
-21.449999999999996
  0
VERTEX
  8
1
 10
1475.2482693815816
 20
-22.819999999999997
  0
VERTEX
  8
1
 10
1476.2312693815816
 20
-23.309999999999995
  0
VERTEX
  8
1
 10
1480.8682693815815
 20
-25.619999999999997
  0
VERTEX
  8
1
 10
1481.1762693815815
 20
-25.794999999999995
  0
VERTEX
  8
1
 10
1485.8182693815816
 20
-28.429999999999993
  0
VERTEX
  8
1
 10
1485.9862693815815
 20
-28.533999999999992
  0
VERTEX
  8
1
 10
1490.2382693815816
 20
-31.16999999999999
  0
VERTEX
  8
1
 10
1490.6862693815815
 20
-31.459999999999994
  0
VERTEX
  8
1
 10
1494.1982693815817
 20
-33.72999999999999
  0
VERTEX
  8
1
 10
1495.3432693815816
 20
-34.45399999999999
  0
VERTEX
  8
1
 10
1497.8682693815815
 20
-36.05
  0
VERTEX
  8
1
 10
1500.0812693815815
 20
-37.31299999999999
  0
VERTEX
  8
1
 10
1501.3382693815815
 20
-38.029999999999994
  0
VERTEX
  8
1
 10
1504.7082693815814
 20
-39.589999999999996
  0
VERTEX
  8
1
 10
1505.0562693815816
 20
-39.696
  0
VERTEX
  8
1
 10
1508.1482693815815
 20
-40.63999999999999
  0
VERTEX
  8
1
 10
1509.9082693815815
 20
-40.949999999999996
  0
VERTEX
  8
1
 10
1510.4012693815816
 20
-40.98999999999999
  0
VERTEX
  8
1
 10
1511.7382693815816
 20
-41.09999999999999
  0
VERTEX
  8
1
 10
1515.9182693815815
 20
-41.45699999999999
  0
VERTEX
  8
1
 10
1524.7482693815816
 20
-42.20999999999999
  0
VERTEX
  8
1
 10
1524.8882693815815
 20
-47.01999999999999
  0
VERTEX
  8
1
 10
1525.1562693815815
 20
-62.60699999999999
  0
VERTEX
  8
1
 10
1525.1782693815815
 20
-63.889999999999986
  0
VERTEX
  8
1
 10
1525.2482693815816
 20
-80.75999999999999
  0
VERTEX
  8
1
 10
1525.2282693815814
 20
-83.008
  0
VERTEX
  8
1
 10
1525.0982693815815
 20
-97.72999999999999
  0
VERTEX
  8
1
 10
1524.9682693815816
 20
-103.407
  0
VERTEX
  8
1
 10
1524.7482693815816
 20
-113.0
  0
VERTEX
  8
1
 10
1524.3552693815816
 20
-123.798
  0
VERTEX
  8
1
 10
1524.1882693815814
 20
-128.37
  0
VERTEX
  8
1
 10
1523.3982693815815
 20
-143.73000000000002
  0
VERTEX
  8
1
 10
1523.3692693815815
 20
-144.175
  0
VERTEX
  8
1
 10
1522.3882693815815
 20
-159.21
  0
VERTEX
  8
1
 10
1521.9342693815815
 20
-164.524
  0
VERTEX
  8
1
 10
1521.3982693815815
 20
-170.81
  0
VERTEX
  8
1
 10
1520.2882693815816
 20
-182.49
  0
VERTEX
  8
1
 10
1520.0412693815815
 20
-184.83700000000002
  0
VERTEX
  8
1
 10
1519.2582693815816
 20
-192.29000000000002
  0
VERTEX
  8
1
 10
1516.2746894716347
 20
-191.97654997055037
  0
VERTEX
  8
1
 10
1519.2582693815816
 20
-192.29000000000002
  0
VERTEX
  8
1
 10
1519.2582693815816
 20
-192.29000000000002
  0
VERTEX
  8
1
 10
1519.0782693815815
 20
-194.01000000000002
  0
VERTEX
  8
1
 10
1517.8012693815815
 20
-205.115
  0
VERTEX
  8
1
 10
1517.7382693815816
 20
-205.66
  0
VERTEX
  8
1
 10
1515.9682693815816
 20
-219.77
  0
VERTEX
  8
1
 10
1515.2262693815815
 20
-225.353
  0
VERTEX
  8
1
 10
1514.0782693815815
 20
-233.99
  0
VERTEX
  8
1
 10
1512.4422693815816
 20
-245.56400000000002
  0
VERTEX
  8
1
 10
1512.0882693815815
 20
-248.07000000000002
  0
VERTEX
  8
1
 10
1509.9682693815816
 20
-262.21000000000004
  0
VERTEX
  8
1
 10
1508.5782693815815
 20
-271.43000000000006
  0
VERTEX
  8
1
 10
1496.9482693815817
 20
-271.27
  0
VERTEX
  8
1
 10
1486.4522693815816
 20
-271.121
  0
VERTEX
  8
1
 10
1475.1582693815815
 20
-270.96000000000004
  0
VERTEX
  8
1
 10
1464.3252693815816
 20
-270.895
  0
VERTEX
  8
1
 10
1456.9182693815815
 20
-270.85
  0
VERTEX
  8
1
 10
1442.1972693815815
 20
-270.92600000000004
  0
VERTEX
  8
1
 10
1435.5282693815816
 20
-270.96000000000004
  0
VERTEX
  8
1
 10
1420.0712693815815
 20
-271.21799999999996
  0
VERTEX
  8
1
 10
1419.9582693815817
 20
-271.22
  0
VERTEX
  8
1
 10
1397.9552693815815
 20
-271.932
  0
VERTEX
  8
1
 10
1394.9182693815815
 20
-272.03
  0
VERTEX
  8
1
 10
1382.0182693815816
 20
-272.44000000000005
  0
VERTEX
  8
1
 10
1375.8392693815815
 20
-272.674
  0
VERTEX
  8
1
 10
1372.5282693815816
 20
-272.79999999999995
  0
VERTEX
  8
1
 10
1372.414187052742
 20
-269.80216991438033
  0
VERTEX
  8
1
 10
1372.5282693815816
 20
-272.79999999999995
  0
VERTEX
  8
1
 10
1372.5282693815816
 20
-272.79999999999995
  0
VERTEX
  8
1
 10
1357.9682693815816
 20
-273.35
  0
VERTEX
  8
1
 10
1353.7322693815815
 20
-273.59900000000005
  0
VERTEX
  8
1
 10
1346.2382693815816
 20
-274.03999999999996
  0
VERTEX
  8
1
 10
1337.1982693815817
 20
-274.78999999999996
  0
VERTEX
  8
1
 10
1336.2382693815816
 20
-274.71000000000004
  0
VERTEX
  8
1
 10
1336.4874058211428
 20
-271.7203627252653
  0
VERTEX
  8
1
 10
1336.2382693815816
 20
-274.71000000000004
  0
VERTEX
  8
1
 10
1336.2382693815816
 20
-274.71000000000004
  0
VERTEX
  8
1
 10
1331.7622693815815
 20
-274.33799999999997
  0
VERTEX
  8
1
 10
1328.1682693815815
 20
-274.03999999999996
  0
VERTEX
  8
1
 10
1316.4382693815814
 20
-273.35
  0
VERTEX
  8
1
 10
1292.4482693815817
 20
-272.44000000000005
  0
VERTEX
  8
1
 10
1292.2682693815816
 20
-261.94
  0
VERTEX
  8
1
 10
1292.2182693815816
 20
-259.23
  0
VERTEX
  8
1
 10
1292.0682693815816
 20
-256.75
  0
VERTEX
  8
1
 10
1291.9522693815816
 20
-255.691
  0
VERTEX
  8
1
 10
1291.7982693815816
 20
-254.28
  0
VERTEX
  8
1
 10
1291.4082693815815
 20
-251.83
  0
VERTEX
  8
1
 10
1291.0532693815815
 20
-250.095
  0
VERTEX
  8
1
 10
1290.9082693815815
 20
-249.39000000000001
  0
VERTEX
  8
1
 10
1290.3082693815816
 20
-246.98000000000002
  0
VERTEX
  8
1
 10
1289.5942693815816
 20
-244.619
  0
VERTEX
  8
1
 10
1289.5882693815815
 20
-244.60000000000002
  0
VERTEX
  8
1
 10
1288.7582693815816
 20
-242.26000000000002
  0
VERTEX
  8
1
 10
1287.8282693815815
 20
-239.96
  0
VERTEX
  8
1
 10
1287.5412693815815
 20
-239.33700000000002
  0
VERTEX
  8
1
 10
1286.7882693815816
 20
-237.70000000000002
  0
VERTEX
  8
1
 10
1285.6482693815815
 20
-235.49
  0
VERTEX
  8
1
 10
1284.9582693815817
 20
-234.294
  0
VERTEX
  8
1
 10
1284.4082693815815
 20
-233.34
  0
VERTEX
  8
1
 10
1283.0682693815816
 20
-231.25
  0
VERTEX
  8
1
 10
1281.8622693815817
 20
-229.55
  0
VERTEX
  8
1
 10
1281.6282693815815
 20
-229.22
  0
VERTEX
  8
1
 10
1280.1082693815815
 20
-227.26000000000002
  0
VERTEX
  8
1
 10
1278.4882693815816
 20
-225.36
  0
VERTEX
  8
1
 10
1278.2932693815815
 20
-225.15
  0
VERTEX
  8
1
 10
1276.7082693815817
 20
-223.45000000000002
  0
VERTEX
  8
1
 10
1274.8282693815815
 20
-221.62
  0
VERTEX
  8
1
 10
1274.2932693815815
 20
-221.139
  0
VERTEX
  8
1
 10
1272.8782693815815
 20
-219.87
  0
VERTEX
  8
1
 10
1270.8582693815815
 20
-218.21
  0
VERTEX
  8
1
 10
1269.9372693815815
 20
-217.52100000000002
  0
VERTEX
  8
1
 10
1268.7582693815816
 20
-216.64000000000001
  0
VERTEX
  8
1
 10
1266.5982693815815
 20
-215.17000000000002
  0
VERTEX
  8
1
 10
1265.2562693815817
 20
-214.339
  0
VERTEX
  8
1
 10
1264.3682693815815
 20
-213.79000000000002
  0
VERTEX
  8
1
 10
1262.0782693815815
 20
-212.5
  0
VERTEX
  8
1
 10
1260.2972693815816
 20
-211.60600000000002
  0
VERTEX
  8
1
 10
1259.7482693815816
 20
-211.33
  0
VERTEX
  8
1
 10
1257.3582693815815
 20
-210.25
  0
VERTEX
  8
1
 10
1255.1012693815815
 20
-209.36200000000002
  0
VERTEX
  8
1
 10
1254.9182693815815
 20
-209.29000000000002
  0
VERTEX
  8
1
 10
1252.4482693815817
 20
-208.43
  0
VERTEX
  8
1
 10
1249.9382693815814
 20
-207.68
  0
VERTEX
  8
1
 10
1249.7092693815816
 20
-207.622
  0
VERTEX
  8
1
 10
1247.3982693815815
 20
-207.04000000000002
  0
VERTEX
  8
1
 10
1244.8282693815815
 20
-206.51000000000002
  0
VERTEX
  8
1
 10
1244.1722693815816
 20
-206.407
  0
VERTEX
  8
1
 10
1242.0282693815816
 20
-206.07000000000002
  0
VERTEX
  8
1
 10
1238.5682693815816
 20
-205.53900000000002
  0
VERTEX
  8
1
 10
1232.9622693815816
 20
-204.68
  0
VERTEX
  8
1
 10
1232.0482693815816
 20
-204.54000000000002
  0
VERTEX
  8
1
 10
1227.3372693815816
 20
-203.958
  0
VERTEX
  8
1
 10
1222.0982693815815
 20
-203.31
  0
VERTEX
  8
1
 10
1221.7082693815817
 20
-203.27200000000002
  0
VERTEX
  8
1
 10
1216.0632693815814
 20
-202.729
  0
VERTEX
  8
1
 10
1212.1282693815815
 20
-202.35000000000002
  0
VERTEX
  8
1
 10
1210.4142693815816
 20
-202.232
  0
VERTEX
  8
1
 10
1204.7572693815816
 20
-201.841
  0
VERTEX
  8
1
 10
1202.1282693815815
 20
-201.66
  0
VERTEX
  8
1
 10
1199.0942693815816
 20
-201.537
  0
VERTEX
  8
1
 10
1193.4292693815814
 20
-201.30800000000002
  0
VERTEX
  8
1
 10
1191.7582693815816
 20
-201.24
  0
VERTEX
  8
1
 10
1187.7592693815816
 20
-201.18200000000002
  0
VERTEX
  8
1
 10
1182.0892693815815
 20
-201.10000000000002
  0
VERTEX
  8
1
 10
1181.3882693815815
 20
-201.09
  0
VERTEX
  8
1
 10
1176.4182693815815
 20
-201.15200000000002
  0
VERTEX
  8
1
 10
1171.0082693815816
 20
-201.22
  0
VERTEX
  8
1
 10
1170.7492693815816
 20
-201.23000000000002
  0
VERTEX
  8
1
 10
1165.0812693815815
 20
-201.45100000000002
  0
VERTEX
  8
1
 10
1160.5082693815816
 20
-201.63000000000002
  0
VERTEX
  8
1
 10
1159.4142693815816
 20
-201.673
  0
VERTEX
  8
1
 10
1153.7482693815816
 20
-201.899
  0
VERTEX
  8
1
 10
1146.9282693815815
 20
-202.17000000000002
  0
VERTEX
  8
1
 10
1146.9282693815815
 20
-202.17000000000002
  0
VERTEX
  8
1
 10
1147.1182693815815
 20
-191.42000000000002
  0
VERTEX
  8
1
 10
1147.135361831974
 20
-190.42014608660088
  0
SEQEND
  0
ENDBLK
  0
ENDSEC
  0
SECTION
  2
ENTITIES
  0
INSERT
  2
0
 10
0
 20
0
  0
INSERT
  2
1
 10
0
 20
0
  0
INSERT
  2
2
 10
0
 20
0
  0
INSERT
  2
3
 10
0
 20
0
  0
ENDSEC
  0
EOF