  0
SECTION
  2
HEADER
  9
$ACADVER
  1
AC1009
  0
ENDSEC
  0
SECTION
  2
TABLES
  0
TABLE
  2
SCOTT
  0
ENDTAB
  0
TABLE
  2
VPORT
 70
1
  0
VPORT
  2
*ACTIVE
 70
0
 10
0.0
 20
0.0
 11
1.0
 21
1.0
 12
0.0
 22
0.0
 13
0.0
 23
0.0
 14
1.0
 24
1.0
 15
0.0
 25
0.0
 16
0.0
 26
0.0
 36
1.0
 17
0.0
 27
0.0
 37
0.0
 40
100.0
 41
2
 42
0.0
 43
0.0
 44
0.0
 50
0.0
 51
0.0
 71
0.0
 72
0.0
 73
0.0
 74
0.0
 75
0.0
 76
0.0
 77
0.0
 78
0.0
  0
ENDTAB
  0
ENDSEC
  0
SECTION
  2
BLOCKS
  0
BLOCK
  2
0
  8
1
 10
0
 20
0
 70
64
  0
POLYLINE
  8
1
  62
3
10
0
 20
0
 66
1
  0
VERTEX
  8
1
 10
4.784805475366028
 20
-141.0900000275726
  0
VERTEX
  8
1
 10
6.554805475366038
 20
-134.58000002757257
  0
VERTEX
  8
1
 10
8.484805475366045
 20
-128.1200000275726
  0
VERTEX
  8
1
 10
10.604805475366021
 20
-121.71000002757259
  0
VERTEX
  8
1
 10
12.884805475366022
 20
-115.3600000275726
  0
VERTEX
  8
1
 10
15.33480547536604
 20
-109.07000002757259
  0
VERTEX
  8
1
 10
17.944805475366024
 20
-102.85000002757259
  0
VERTEX
  8
1
 10
20.734805475366045
 20
-96.71000002757259
  0
VERTEX
  8
1
 10
23.674805475366043
 20
-90.6400000275726
  0
VERTEX
  8
1
 10
25.934805475366034
 20
-86.35000002757259
  0
VERTEX
  8
1
 10
28.34480547536603
 20
-82.15000002757259
  0
VERTEX
  8
1
 10
30.914805475366023
 20
-78.0500000275726
  0
VERTEX
  8
1
 10
33.63480547536602
 20
-74.04000002757259
  0
VERTEX
  8
1
 10
36.494805475366036
 20
-70.1400000275726
  0
VERTEX
  8
1
 10
39.50480547536603
 20
-66.35000002757259
  0
VERTEX
  8
1
 10
42.66480547536604
 20
-62.670000027572584
  0
VERTEX
  8
1
 10
45.94480547536604
 20
-59.12000002757259
  0
VERTEX
  8
1
 10
49.09480547536603
 20
-55.74000002757259
  0
VERTEX
  8
1
 10
52.34480547536603
 20
-52.450000027572585
  0
VERTEX
  8
1
 10
55.70480547536603
 20
-49.280000027572584
  0
VERTEX
  8
1
 10
59.15480547536603
 20
-46.21000002757259
  0
VERTEX
  8
1
 10
62.70480547536603
 20
-43.24000002757259
  0
VERTEX
  8
1
 10
66.33480547536604
 20
-40.3900000275726
  0
VERTEX
  8
1
 10
70.06480547536603
 20
-37.66000002757259
  0
VERTEX
  8
1
 10
73.87480547536603
 20
-35.04000002757259
  0
VERTEX
  8
1
 10
77.75480547536603
 20
-32.550000027572594
  0
VERTEX
  8
1
 10
81.72480547536604
 20
-30.170000027572588
  0
VERTEX
  8
1
 10
85.75480547536603
 20
-27.930000027572586
  0
VERTEX
  8
1
 10
89.86480547536604
 20
-25.800000027572587
  0
VERTEX
  8
1
 10
94.03480547536603
 20
-23.81000002757259
  0
VERTEX
  8
1
 10
98.26480547536603
 20
-21.950000027572585
  0
VERTEX
  8
1
 10
102.54480547536603
 20
-20.22000002757259
  0
VERTEX
  8
1
 10
106.88480547536604
 20
-18.630000027572585
  0
VERTEX
  8
1
 10
112.51480547536603
 20
-16.950000027572585
  0
VERTEX
  8
1
 10
118.20480547536604
 20
-15.450000027572587
  0
VERTEX
  8
1
 10
123.94480547536602
 20
-14.140000027572585
  0
VERTEX
  8
1
 10
129.71480547536603
 20
-13.020000027572586
  0
VERTEX
  8
1
 10
135.36480547536604
 20
-12.110000027572585
  0
VERTEX
  8
1
 10
141.04480547536605
 20
-11.400000027572585
  0
VERTEX
  8
1
 10
146.74480547536604
 20
-10.880000027572585
  0
VERTEX
  8
1
 10
152.46480547536603
 20
-10.550000027572583
  0
VERTEX
  8
1
 10
165.23480547536604
 20
-10.500000027572582
  0
VERTEX
  8
1
 10
178.00480547536603
 20
-10.550000027572583
  0
VERTEX
  8
1
 10
183.71480547536603
 20
-10.880000027572581
  0
VERTEX
  8
1
 10
189.41480547536602
 20
-11.400000027572581
  0
VERTEX
  8
1
 10
195.09480547536603
 20
-12.110000027572582
  0
VERTEX
  8
1
 10
200.74480547536604
 20
-13.020000027572582
  0
VERTEX
  8
1
 10
206.51480547536602
 20
-14.140000027572581
  0
VERTEX
  8
1
 10
212.25480547536603
 20
-15.45000002757258
  0
VERTEX
  8
1
 10
217.94480547536602
 20
-16.950000027572578
  0
VERTEX
  8
1
 10
223.57480547536602
 20
-18.630000027572578
  0
VERTEX
  8
1
 10
227.91480547536602
 20
-20.22000002757258
  0
VERTEX
  8
1
 10
232.20480547536602
 20
-21.950000027572578
  0
VERTEX
  8
1
 10
236.42480547536604
 20
-23.81000002757258
  0
VERTEX
  8
1
 10
240.59480547536603
 20
-25.80000002757258
  0
VERTEX
  8
1
 10
244.70480547536602
 20
-27.92000002757258
  0
VERTEX
  8
1
 10
248.73480547536604
 20
-30.17000002757258
  0
VERTEX
  8
1
 10
252.70480547536602
 20
-32.55000002757258
  0
VERTEX
  8
1
 10
256.594805475366
 20
-35.040000027572574
  0
VERTEX
  8
1
 10
260.394805475366
 20
-37.66000002757258
  0
VERTEX
  8
1
 10
264.12480547536603
 20
-40.39000002757258
  0
VERTEX
  8
1
 10
267.764805475366
 20
-43.24000002757258
  0
VERTEX
  8
1
 10
271.30480547536604
 20
-46.20000002757257
  0
VERTEX
  8
1
 10
274.754805475366
 20
-49.28000002757257
  0
VERTEX
  8
1
 10
278.11480547536604
 20
-52.45000002757257
  0
VERTEX
  8
1
 10
281.36480547536604
 20
-55.73000002757257
  0
VERTEX
  8
1
 10
284.514805475366
 20
-59.11000002757258
  0
VERTEX
  8
1
 10
287.80480547536604
 20
-62.67000002757257
  0
VERTEX
  8
1
 10
290.954805475366
 20
-66.35000002757256
  0
VERTEX
  8
1
 10
293.964805475366
 20
-70.14000002757257
  0
VERTEX
  8
1
 10
296.834805475366
 20
-74.04000002757256
  0
VERTEX
  8
1
 10
299.55480547536604
 20
-78.05000002757257
  0
VERTEX
  8
1
 10
302.11480547536604
 20
-82.15000002757256
  0
VERTEX
  8
1
 10
304.52480547536607
 20
-86.35000002757256
  0
VERTEX
  8
1
 10
306.78480547536606
 20
-90.64000002757257
  0
VERTEX
  8
1
 10
309.73480547536604
 20
-96.71000002757256
  0
VERTEX
  8
1
 10
312.5148054753661
 20
-102.85000002757256
  0
VERTEX
  8
1
 10
315.134805475366
 20
-109.07000002757256
  0
VERTEX
  8
1
 10
317.584805475366
 20
-115.36000002757257
  0
VERTEX
  8
1
 10
319.86480547536604
 20
-121.71000002757256
  0
VERTEX
  8
1
 10
321.974805475366
 20
-128.12000002757256
  0
VERTEX
  8
1
 10
323.91480547536605
 20
-134.58000002757257
  0
VERTEX
  8
1
 10
325.68480547536603
 20
-141.1000000275726
  0
VERTEX
  8
1
 10
328.29480547536605
 20
-150.7600000275726
  0
VERTEX
  8
1
 10
246.96480547536606
 20
-177.0200000275726
  0
VERTEX
  8
1
 10
245.52480547536607
 20
-177.4800000275726
  0
VERTEX
  8
1
 10
244.61191856749411
 20
-174.6222670985822
  0
VERTEX
  8
1
 10
245.52480547536607
 20
-177.4800000275726
  0
VERTEX
  8
1
 10
245.52480547536607
 20
-177.4800000275726
  0
VERTEX
  8
1
 10
240.20480547536604
 20
-179.2000000275726
  0
VERTEX
  8
1
 10
237.12480547536603
 20
-169.69000002757258
  0
VERTEX
  8
1
 10
236.95480547536604
 20
-168.47000002757258
  0
VERTEX
  8
1
 10
236.17480547536604
 20
-162.78000002757258
  0
VERTEX
  8
1
 10
235.09480547536606
 20
-157.3400000275726
  0
VERTEX
  8
1
 10
233.71480547536606
 20
-151.97000002757258
  0
VERTEX
  8
1
 10
232.03480547536606
 20
-146.69000002757258
  0
VERTEX
  8
1
 10
230.06480547536603
 20
-141.5200000275726
  0
VERTEX
  8
1
 10
227.79480547536605
 20
-136.46000002757256
  0
VERTEX
  8
1
 10
225.23480547536604
 20
-131.5400000275726
  0
VERTEX
  8
1
 10
222.41480547536605
 20
-126.79000002757257
  0
VERTEX
  8
1
 10
219.72480547536605
 20
-122.83000002757258
  0
VERTEX
  8
1
 10
216.79480547536605
 20
-119.06000002757258
  0
VERTEX
  8
1
 10
213.62480547536603
 20
-115.49000002757258
  0
VERTEX
  8
1
 10
210.23480547536604
 20
-112.14000002757258
  0
VERTEX
  8
1
 10
206.63480547536605
 20
-109.01000002757257
  0
VERTEX
  8
1
 10
202.83480547536604
 20
-106.12000002757257
  0
VERTEX
  8
1
 10
198.85480547536605
 20
-103.49000002757258
  0
VERTEX
  8
1
 10
195.06480547536603
 20
-101.32000002757258
  0
VERTEX
  8
1
 10
193.13480547536605
 20
-100.64000002757258
  0
VERTEX
  8
1
 10
190.70480547536604
 20
-99.90000002757257
  0
VERTEX
  8
1
 10
188.24480547536604
 20
-99.26000002757257
  0
VERTEX
  8
1
 10
185.75480547536603
 20
-98.72000002757258
  0
VERTEX
  8
1
 10
183.09480547536603
 20
-98.25000002757258
  0
VERTEX
  8
1
 10
180.40480547536603
 20
-97.89000002757258
  0
VERTEX
  8
1
 10
177.70480547536604
 20
-97.64000002757258
  0
VERTEX
  8
1
 10
175.04480547536605
 20
-97.50000002757258
  0
VERTEX
  8
1
 10
165.23480547536604
 20
-97.50000002757258
  0
VERTEX
  8
1
 10
165.23480547536604
 20
-94.50000002757258
  0
VERTEX
  8
1
 10
165.23480547536604
 20
-97.50000002757258
  0
VERTEX
  8
1
 10
165.23480547536604
 20
-97.50000002757258
  0
VERTEX
  8
1
 10
155.41480547536605
 20
-97.50000002757258
  0
VERTEX
  8
1
 10
152.75480547536603
 20
-97.64000002757258
  0
VERTEX
  8
1
 10
150.05480547536604
 20
-97.89000002757258
  0
VERTEX
  8
1
 10
147.37480547536603
 20
-98.25000002757258
  0
VERTEX
  8
1
 10
144.70480547536604
 20
-98.72000002757258
  0
VERTEX
  8
1
 10
142.21480547536603
 20
-99.26000002757257
  0
VERTEX
  8
1
 10
139.75480547536603
 20
-99.90000002757257
  0
VERTEX
  8
1
 10
137.33480547536604
 20
-100.64000002757258
  0
VERTEX
  8
1
 10
135.39480547536604
 20
-101.32000002757258
  0
VERTEX
  8
1
 10
131.61480547536604
 20
-103.49000002757258
  0
VERTEX
  8
1
 10
127.63480547536605
 20
-106.12000002757257
  0
VERTEX
  8
1
 10
123.83480547536604
 20
-109.01000002757257
  0
VERTEX
  8
1
 10
120.22480547536604
 20
-112.14000002757258
  0
VERTEX
  8
1
 10
116.83480547536604
 20
-115.49000002757258
  0
VERTEX
  8
1
 10
113.66480547536604
 20
-119.06000002757258
  0
VERTEX
  8
1
 10
110.73480547536604
 20
-122.83000002757258
  0
VERTEX
  8
1
 10
108.04480547536605
 20
-126.79000002757257
  0
VERTEX
  8
1
 10
105.22480547536604
 20
-131.5400000275726
  0
VERTEX
  8
1
 10
102.67480547536604
 20
-136.46000002757256
  0
VERTEX
  8
1
 10
100.40480547536605
 20
-141.5200000275726
  0
VERTEX
  8
1
 10
98.42480547536604
 20
-146.69000002757258
  0
VERTEX
  8
1
 10
96.74480547536605
 20
-151.9800000275726
  0
VERTEX
  8
1
 10
95.36480547536605
 20
-157.3400000275726
  0
VERTEX
  8
1
 10
94.29480547536605
 20
-162.78000002757258
  0
VERTEX
  8
1
 10
93.50480547536604
 20
-168.47000002757258
  0
VERTEX
  8
1
 10
93.33480547536605
 20
-169.69000002757258
  0
VERTEX
  8
1
 10
90.26480547536605
 20
-179.2000000275726
  0
VERTEX
  8
1
 10
84.93480547536605
 20
-177.4800000275726
  0
VERTEX
  8
1
 10
85.85612682016097
 20
-174.62497516259765
  0
VERTEX
  8
1
 10
84.93480547536605
 20
-177.4800000275726
  0
VERTEX
  8
1
 10
84.93480547536605
 20
-177.4800000275726
  0
VERTEX
  8
1
 10
83.49480547536605
 20
-177.0200000275726
  0
VERTEX
  8
1
 10
25.00379993014971
 20
-158.13430218400472
  0
VERTEX
  8
1
 10
24.082012160595696
 20
-160.98917649085269
  0
VERTEX
  8
1
 10
21.227137853747735
 20
-160.06738872129867
  0
VERTEX
  8
1
 10
21.841663033450402
 20
-158.16413918340004
  0
VERTEX
  8
1
 10
18.98678872660244
 20
-157.24235141384602
  0
VERTEX
  8
1
 10
18.372263546899774
 20
-159.14560095174465
  0
VERTEX
  8
1
 10
15.517389240051813
 20
-158.22381318219064
  0
VERTEX
  8
1
 10
16.13191441975448
 20
-156.320563644292
  0
VERTEX
  8
1
 10
13.27704011290652
 20
-155.398775874738
  0
VERTEX
  8
1
 10
12.662514933203852
 20
-157.30202541263662
  0
VERTEX
  8
1
 10
9.80764062635589
 20
-156.3802376430826
  0
VERTEX
  8
1
 10
10.422165806058558
 20
-154.47698810518398
  0
VERTEX
  8
1
 10
7.567291499210597
 20
-153.55520033562996
  0
VERTEX
  8
1
 10
6.95276631950793
 20
-155.4584498735286
  0
VERTEX
  8
1
 10
4.097892012659969
 20
-154.53666210397458
  0
VERTEX
  8
1
 10
5.019679782213984
 20
-151.68178779712662
  0
VERTEX
  8
1
 10
2.1648054753660233
 20
-150.7600000275726
  0
VERTEX
  8
1
 10
4.784805475366028
 20
-141.0900000275726
  0
VERTEX
  8
1
 10
4.784805475366028
 20
-141.0900000275726
  0
VERTEX
  8
1
 10
6.554805475366038
 20
-134.58000002757257
  0
VERTEX
  8
1
 10
6.841064582463304
 20
-133.62184778309165
  0
SEQEND
  0
ENDBLK
  0
BLOCK
  2
1
  8
1
 10
0
 20
0
 70
64
  0
POLYLINE
  8
1
  62
3
10
0
 20
0
 66
1
  0
VERTEX
  8
1
 10
331.95379383346733
 20
-141.09
  0
VERTEX
  8
1
 10
333.72379383346737
 20
-134.57999999999998
  0
VERTEX
  8
1
 10
335.6537938334674
 20
-128.12
  0
VERTEX
  8
1
 10
337.7737938334674
 20
-121.71000000000001
  0
VERTEX
  8
1
 10
340.05379383346735
 20
-115.36000000000001
  0
VERTEX
  8
1
 10
342.5037938334674
 20
-109.07000000000001
  0
VERTEX
  8
1
 10
345.11379383346735
 20
-102.85000000000001
  0
VERTEX
  8
1
 10
347.9037938334674
 20
-96.71000000000001
  0
VERTEX
  8
1
 10
350.8437938334674
 20
-90.64000000000001
  0
VERTEX
  8
1
 10
353.10379383346736
 20
-86.35000000000001
  0
VERTEX
  8
1
 10
355.5137938334674
 20
-82.15
  0
VERTEX
  8
1
 10
358.0837938334673
 20
-78.05000000000001
  0
VERTEX
  8
1
 10
360.80379383346735
 20
-74.04
  0
VERTEX
  8
1
 10
363.66379383346737
 20
-70.14000000000001
  0
VERTEX
  8
1
 10
366.67379383346736
 20
-66.35000000000001
  0
VERTEX
  8
1
 10
369.8337938334674
 20
-62.67
  0
VERTEX
  8
1
 10
373.11379383346735
 20
-59.120000000000005
  0
VERTEX
  8
1
 10
376.2637938334674
 20
-55.74000000000001
  0
VERTEX
  8
1
 10
379.5137938334674
 20
-52.45
  0
VERTEX
  8
1
 10
382.87379383346735
 20
-49.28
  0
VERTEX
  8
1
 10
386.32379383346733
 20
-46.21000000000001
  0
VERTEX
  8
1
 10
389.87379383346735
 20
-43.24000000000001
  0
VERTEX
  8
1
 10
393.5037938334674
 20
-40.390000000000015
  0
VERTEX
  8
1
 10
397.23379383346736
 20
-37.66000000000001
  0
VERTEX
  8
1
 10
401.04379383346736
 20
-35.040000000000006
  0
VERTEX
  8
1
 10
404.92379383346736
 20
-32.55000000000001
  0
VERTEX
  8
1
 10
408.8937938334674
 20
-30.170000000000005
  0
VERTEX
  8
1
 10
412.92379383346736
 20
-27.930000000000003
  0
VERTEX
  8
1
 10
417.03379383346737
 20
-25.800000000000004
  0
VERTEX
  8
1
 10
421.20379383346733
 20
-23.810000000000006
  0
VERTEX
  8
1
 10
425.43379383346735
 20
-21.950000000000003
  0
VERTEX
  8
1
 10
429.7137938334674
 20
-20.220000000000006
  0
VERTEX
  8
1
 10
434.05379383346735
 20
-18.630000000000003
  0
VERTEX
  8
1
 10
439.68379383346735
 20
-16.950000000000003
  0
VERTEX
  8
1
 10
445.37379383346735
 20
-15.450000000000005
  0
VERTEX
  8
1
 10
451.11379383346735
 20
-14.140000000000002
  0
VERTEX
  8
1
 10
456.8837938334674
 20
-13.020000000000003
  0
VERTEX
  8
1
 10
462.53379383346737
 20
-12.110000000000003
  0
VERTEX
  8
1
 10
468.2137938334674
 20
-11.400000000000002
  0
VERTEX
  8
1
 10
473.91379383346737
 20
-10.880000000000003
  0
VERTEX
  8
1
 10
479.63379383346734
 20
-10.55
  0
VERTEX
  8
1
 10
492.4037938334674
 20
-10.5
  0
VERTEX
  8
1
 10
505.17379383346736
 20
-10.55
  0
VERTEX
  8
1
 10
510.8837938334674
 20
-10.879999999999999
  0
VERTEX
  8
1
 10
516.5837938334673
 20
-11.399999999999999
  0
VERTEX
  8
1
 10
522.2637938334674
 20
-12.11
  0
VERTEX
  8
1
 10
527.9137938334674
 20
-13.02
  0
VERTEX
  8
1
 10
533.6837938334673
 20
-14.139999999999999
  0
VERTEX
  8
1
 10
539.4237938334674
 20
-15.449999999999998
  0
VERTEX
  8
1
 10
545.1137938334674
 20
-16.949999999999996
  0
VERTEX
  8
1
 10
550.7437938334674
 20
-18.629999999999995
  0
VERTEX
  8
1
 10
555.0837938334673
 20
-20.22
  0
VERTEX
  8
1
 10
559.3737938334674
 20
-21.949999999999996
  0
VERTEX
  8
1
 10
563.5937938334673
 20
-23.81
  0
VERTEX
  8
1
 10
567.7637938334674
 20
-25.799999999999997
  0
VERTEX
  8
1
 10
571.8737938334674
 20
-27.919999999999998
  0
VERTEX
  8
1
 10
575.9037938334674
 20
-30.169999999999998
  0
VERTEX
  8
1
 10
579.8737938334674
 20
-32.55
  0
VERTEX
  8
1
 10
583.7637938334674
 20
-35.03999999999999
  0
VERTEX
  8
1
 10
587.5637938334673
 20
-37.66
  0
VERTEX
  8
1
 10
591.2937938334674
 20
-40.39
  0
VERTEX
  8
1
 10
594.9337938334673
 20
-43.239999999999995
  0
VERTEX
  8
1
 10
598.4737938334674
 20
-46.19999999999999
  0
VERTEX
  8
1
 10
601.9237938334674
 20
-49.27999999999999
  0
VERTEX
  8
1
 10
605.2837938334674
 20
-52.44999999999999
  0
VERTEX
  8
1
 10
608.5337938334674
 20
-55.72999999999999
  0
VERTEX
  8
1
 10
611.6837938334673
 20
-59.11
  0
VERTEX
  8
1
 10
614.9737938334674
 20
-62.66999999999999
  0
VERTEX
  8
1
 10
618.1237938334674
 20
-66.34999999999998
  0
VERTEX
  8
1
 10
621.1337938334674
 20
-70.13999999999999
  0
VERTEX
  8
1
 10
624.0037938334674
 20
-74.03999999999998
  0
VERTEX
  8
1
 10
626.7237938334674
 20
-78.04999999999998
  0
VERTEX
  8
1
 10
629.2837938334674
 20
-82.14999999999998
  0
VERTEX
  8
1
 10
631.6937938334673
 20
-86.34999999999998
  0
VERTEX
  8
1
 10
633.9537938334673
 20
-90.63999999999999
  0
VERTEX
  8
1
 10
636.9037938334674
 20
-96.70999999999998
  0
VERTEX
  8
1
 10
639.6837938334673
 20
-102.84999999999998
  0
VERTEX
  8
1
 10
642.3037938334674
 20
-109.06999999999998
  0
VERTEX
  8
1
 10
644.7537938334674
 20
-115.35999999999999
  0
VERTEX
  8
1
 10
647.0337938334674
 20
-121.70999999999998
  0
VERTEX
  8
1
 10
649.1437938334674
 20
-128.11999999999998
  0
VERTEX
  8
1
 10
651.0837938334673
 20
-134.57999999999998
  0
VERTEX
  8
1
 10
652.8537938334673
 20
-141.10000000000002
  0
VERTEX
  8
1
 10
655.4637938334674
 20
-150.76000000000002
  0
VERTEX
  8
1
 10
574.1337938334674
 20
-177.02
  0
VERTEX
  8
1
 10
572.6937938334673
 20
-177.48000000000002
  0
VERTEX
  8
1
 10
571.7809069255954
 20
-174.62226707100962
  0
VERTEX
  8
1
 10
572.6937938334673
 20
-177.48000000000002
  0
VERTEX
  8
1
 10
572.6937938334673
 20
-177.48000000000002
  0
VERTEX
  8
1
 10
567.3737938334674
 20
-179.20000000000002
  0
VERTEX
  8
1
 10
564.2937938334674
 20
-169.69
  0
VERTEX
  8
1
 10
564.1237938334674
 20
-168.47
  0
VERTEX
  8
1
 10
563.3437938334673
 20
-162.78
  0
VERTEX
  8
1
 10
562.2637938334674
 20
-157.34
  0
VERTEX
  8
1
 10
560.8837938334674
 20
-151.97
  0
VERTEX
  8
1
 10
559.2037938334673
 20
-146.69
  0
VERTEX
  8
1
 10
557.2337938334674
 20
-141.52
  0
VERTEX
  8
1
 10
554.9637938334673
 20
-136.45999999999998
  0
VERTEX
  8
1
 10
552.4037938334674
 20
-131.54000000000002
  0
VERTEX
  8
1
 10
549.5837938334673
 20
-126.78999999999999
  0
VERTEX
  8
1
 10
546.8937938334674
 20
-122.83
  0
VERTEX
  8
1
 10
543.9637938334673
 20
-119.06
  0
VERTEX
  8
1
 10
540.7937938334674
 20
-115.49
  0
VERTEX
  8
1
 10
537.4037938334674
 20
-112.14
  0
VERTEX
  8
1
 10
533.8037938334674
 20
-109.00999999999999
  0
VERTEX
  8
1
 10
530.0037938334674
 20
-106.11999999999999
  0
VERTEX
  8
1
 10
526.0237938334674
 20
-103.49
  0
VERTEX
  8
1
 10
522.2337938334674
 20
-101.32
  0
VERTEX
  8
1
 10
520.3037938334674
 20
-100.64
  0
VERTEX
  8
1
 10
517.8737938334674
 20
-99.89999999999999
  0
VERTEX
  8
1
 10
515.4137938334674
 20
-99.25999999999999
  0
VERTEX
  8
1
 10
512.9237938334674
 20
-98.72
  0
VERTEX
  8
1
 10
510.2637938334674
 20
-98.25
  0
VERTEX
  8
1
 10
507.5737938334674
 20
-97.89
  0
VERTEX
  8
1
 10
504.87379383346735
 20
-97.64
  0
VERTEX
  8
1
 10
502.2137938334674
 20
-97.5
  0
VERTEX
  8
1
 10
492.4037938334674
 20
-97.5
  0
VERTEX
  8
1
 10
492.4037938334674
 20
-94.5
  0
VERTEX
  8
1
 10
492.4037938334674
 20
-97.5
  0
VERTEX
  8
1
 10
492.4037938334674
 20
-97.5
  0
VERTEX
  8
1
 10
482.5837938334674
 20
-97.5
  0
VERTEX
  8
1
 10
479.92379383346736
 20
-97.64
  0
VERTEX
  8
1
 10
477.22379383346737
 20
-97.89
  0
VERTEX
  8
1
 10
474.54379383346736
 20
-98.25
  0
VERTEX
  8
1
 10
471.87379383346735
 20
-98.72
  0
VERTEX
  8
1
 10
469.3837938334674
 20
-99.25999999999999
  0
VERTEX
  8
1
 10
466.92379383346736
 20
-99.89999999999999
  0
VERTEX
  8
1
 10
464.5037938334674
 20
-100.64
  0
VERTEX
  8
1
 10
462.56379383346734
 20
-101.32
  0
VERTEX
  8
1
 10
458.78379383346737
 20
-103.49
  0
VERTEX
  8
1
 10
454.80379383346735
 20
-106.11999999999999
  0
VERTEX
  8
1
 10
451.0037938334674
 20
-109.00999999999999
  0
VERTEX
  8
1
 10
447.3937938334674
 20
-112.14
  0
VERTEX
  8
1
 10
444.0037938334674
 20
-115.49
  0
VERTEX
  8
1
 10
440.8337938334674
 20
-119.06
  0
VERTEX
  8
1
 10
437.9037938334674
 20
-122.83
  0
VERTEX
  8
1
 10
435.2137938334674
 20
-126.78999999999999
  0
VERTEX
  8
1
 10
432.3937938334674
 20
-131.54000000000002
  0
VERTEX
  8
1
 10
429.8437938334674
 20
-136.45999999999998
  0
VERTEX
  8
1
 10
427.5737938334674
 20
-141.52
  0
VERTEX
  8
1
 10
425.5937938334674
 20
-146.69
  0
VERTEX
  8
1
 10
423.91379383346737
 20
-151.98000000000002
  0
VERTEX
  8
1
 10
422.53379383346737
 20
-157.34
  0
VERTEX
  8
1
 10
421.4637938334674
 20
-162.78
  0
VERTEX
  8
1
 10
420.67379383346736
 20
-168.47
  0
VERTEX
  8
1
 10
420.5037938334674
 20
-169.69
  0
VERTEX
  8
1
 10
417.43379383346735
 20
-179.20000000000002
  0
VERTEX
  8
1
 10
412.10379383346736
 20
-177.48000000000002
  0
VERTEX
  8
1
 10
413.0251151782623
 20
-174.62497513502507
  0
VERTEX
  8
1
 10
412.10379383346736
 20
-177.48000000000002
  0
VERTEX
  8
1
 10
412.10379383346736
 20
-177.48000000000002
  0
VERTEX
  8
1
 10
410.66379383346737
 20
-177.02
  0
VERTEX
  8
1
 10
352.172788288251
 20
-158.13430215643214
  0
VERTEX
  8
1
 10
351.251000518697
 20
-160.9891764632801
  0
VERTEX
  8
1
 10
348.39612621184904
 20
-160.0673886937261
  0
VERTEX
  8
1
 10
349.01065139155173
 20
-158.16413915582746
  0
VERTEX
  8
1
 10
346.1557770847038
 20
-157.24235138627344
  0
VERTEX
  8
1
 10
345.5412519050011
 20
-159.14560092417207
  0
VERTEX
  8
1
 10
342.6863775981532
 20
-158.22381315461806
  0
VERTEX
  8
1
 10
343.3009027778558
 20
-156.32056361671943
  0
VERTEX
  8
1
 10
340.4460284710078
 20
-155.3987758471654
  0
VERTEX
  8
1
 10
339.8315032913052
 20
-157.30202538506404
  0
VERTEX
  8
1
 10
336.9766289844572
 20
-156.38023761551003
  0
VERTEX
  8
1
 10
337.5911541641599
 20
-154.4769880776114
  0
VERTEX
  8
1
 10
334.73627985731196
 20
-153.55520030805738
  0
VERTEX
  8
1
 10
334.12175467760926
 20
-155.458449845956
  0
VERTEX
  8
1
 10
331.2668803707613
 20
-154.536662076402
  0
VERTEX
  8
1
 10
332.1886681403153
 20
-151.68178776955403
  0
VERTEX
  8
1
 10
329.3337938334673
 20
-150.76000000000002
  0
VERTEX
  8
1
 10
331.95379383346733
 20
-141.09
  0
VERTEX
  8
1
 10
331.95379383346733
 20
-141.09
  0
VERTEX
  8
1
 10
333.72379383346737
 20
-134.57999999999998
  0
VERTEX
  8
1
 10
334.0100529405646
 20
-133.62184775551907
  0
SEQEND
  0
ENDBLK
  0
BLOCK
  2
2
  8
1
 10
0
 20
0
 70
64
  0
POLYLINE
  8
1
  62
3
10
0
 20
0
 66
1
  0
VERTEX
  8
1
 10
816.8466611215272
 20
-179.97112710717846
  0
VERTEX
  8
1
 10
816.8466611215272
 20
-28.51112710717847
  0
VERTEX
  8
1
 10
813.8466611215272
 20
-28.51112710717847
  0
VERTEX
  8
1
 10
816.8466611215272
 20
-28.51112710717847
  0
VERTEX
  8
1
 10
816.8466611215272
 20
-28.51112710717847
  0
VERTEX
  8
1
 10
816.8466611215272
 20
-26.52112710717846
  0
VERTEX
  8
1
 10
816.8466611215272
 20
-16.52112710717846
  0
VERTEX
  8
1
 10
806.8466611215272
 20
-16.52112710717846
  0
VERTEX
  8
1
 10
797.3366611215272
 20
-16.52112710717846
  0
VERTEX
  8
1
 10
797.3366611215272
 20
-13.521127107178462
  0
VERTEX
  8
1
 10
794.3366611215272
 20
-13.521127107178462
  0
VERTEX
  8
1
 10
794.3366611215272
 20
-15.521127107178462
  0
VERTEX
  8
1
 10
791.3366611215272
 20
-15.521127107178462
  0
VERTEX
  8
1
 10
791.3366611215272
 20
-13.521127107178462
  0
VERTEX
  8
1
 10
788.3366611215272
 20
-13.521127107178462
  0
VERTEX
  8
1
 10
788.3366611215272
 20
-15.521127107178462
  0
VERTEX
  8
1
 10
785.3366611215272
 20
-15.521127107178462
  0
VERTEX
  8
1
 10
785.3366611215272
 20
-13.521127107178462
  0
VERTEX
  8
1
 10
782.3366611215272
 20
-13.521127107178462
  0
VERTEX
  8
1
 10
782.3366611215272
 20
-15.521127107178462
  0
VERTEX
  8
1
 10
779.3366611215272
 20
-15.521127107178462
  0
VERTEX
  8
1
 10
779.3366611215272
 20
-13.521127107178462
  0
VERTEX
  8
1
 10
776.3366611215272
 20
-13.521127107178462
  0
VERTEX
  8
1
 10
776.3366611215272
 20
-16.52112710717846
  0
VERTEX
  8
1
 10
773.3366611215272
 20
-16.52112710717846
  0
VERTEX
  8
1
 10
744.1566611215272
 20
-16.52112710717846
  0
VERTEX
  8
1
 10
717.4566611215272
 20
-16.52112710717846
  0
VERTEX
  8
1
 10
717.4566611215272
 20
-26.52112710717846
  0
VERTEX
  8
1
 10
717.4566611215272
 20
-66.19112710717847
  0
VERTEX
  8
1
 10
717.2666611215272
 20
-68.86112710717843
  0
VERTEX
  8
1
 10
717.0066611215271
 20
-71.51112710717847
  0
VERTEX
  8
1
 10
716.6566611215272
 20
-74.16112710717844
  0
VERTEX
  8
1
 10
716.2366611215272
 20
-76.80112710717849
  0
VERTEX
  8
1
 10
715.7466611215272
 20
-79.42112710717849
  0
VERTEX
  8
1
 10
715.1766611215272
 20
-82.03112710717845
  0
VERTEX
  8
1
 10
714.5266611215272
 20
-84.62112710717848
  0
VERTEX
  8
1
 10
713.8066611215272
 20
-87.19112710717847
  0
VERTEX
  8
1
 10
713.1266611215271
 20
-89.35112710717844
  0
VERTEX
  8
1
 10
712.3766611215271
 20
-91.49112710717849
  0
VERTEX
  8
1
 10
711.5466611215272
 20
-93.59112710717845
  0
VERTEX
  8
1
 10
710.6466611215272
 20
-95.67112710717849
  0
VERTEX
  8
1
 10
709.6866611215272
 20
-97.72112710717845
  0
VERTEX
  8
1
 10
708.6466611215272
 20
-99.73112710717844
  0
VERTEX
  8
1
 10
707.5366611215272
 20
-101.71112710717846
  0
VERTEX
  8
1
 10
706.3666611215272
 20
-103.64112710717846
  0
VERTEX
  8
1
 10
703.8266611215272
 20
-106.60112710717844
  0
VERTEX
  8
1
 10
701.2366611215272
 20
-109.52112710717846
  0
VERTEX
  8
1
 10
698.6066611215272
 20
-112.40112710717845
  0
VERTEX
  8
1
 10
695.9266611215272
 20
-115.23112710717844
  0
VERTEX
  8
1
 10
693.5366611215272
 20
-117.67112710717849
  0
VERTEX
  8
1
 10
691.0966611215272
 20
-120.06112710717848
  0
VERTEX
  8
1
 10
688.6166611215272
 20
-122.4111271071785
  0
VERTEX
  8
1
 10
686.0866611215272
 20
-124.71112710717846
  0
VERTEX
  8
1
 10
681.0066611215273
 20
-129.2911271071785
  0
VERTEX
  8
1
 10
676.0266611215272
 20
-133.98112710717845
  0
VERTEX
  8
1
 10
669.9666611215272
 20
-139.96112710717847
  0
VERTEX
  8
1
 10
664.0266611215272
 20
-146.0611271071785
  0
VERTEX
  8
1
 10
661.9366611215272
 20
-148.0411271071785
  0
VERTEX
  8
1
 10
659.9766611215272
 20
-150.14112710717848
  0
VERTEX
  8
1
 10
658.1266611215273
 20
-152.35112710717846
  0
VERTEX
  8
1
 10
656.4266611215272
 20
-154.6711271071785
  0
VERTEX
  8
1
 10
654.3266611215272
 20
-157.85112710717846
  0
VERTEX
  8
1
 10
652.3666611215272
 20
-161.11112710717845
  0
VERTEX
  8
1
 10
650.5566611215272
 20
-164.46112710717847
  0
VERTEX
  8
1
 10
648.8866611215273
 20
-167.8811271071785
  0
VERTEX
  8
1
 10
646.4966611215273
 20
-173.32112710717848
  0
VERTEX
  8
1
 10
644.1766611215272
 20
-178.8011271071785
  0
VERTEX
  8
1
 10
641.6566611215272
 20
-184.9411271071785
  0
VERTEX
  8
1
 10
639.2166611215272
 20
-191.12112710717844
  0
VERTEX
  8
1
 10
637.2866611215272
 20
-197.49112710717844
  0
VERTEX
  8
1
 10
634.3766611215273
 20
-207.07112710717848
  0
VERTEX
  8
1
 10
711.3566611215273
 20
-232.6711271071785
  0
VERTEX
  8
1
 10
717.9966611215273
 20
-234.8811271071785
  0
VERTEX
  8
1
 10
721.1566611215272
 20
-225.40112710717847
  0
VERTEX
  8
1
 10
722.0866611215272
 20
-222.60112710717846
  0
VERTEX
  8
1
 10
723.0966611215272
 20
-219.97112710717846
  0
VERTEX
  8
1
 10
724.2066611215272
 20
-217.39112710717848
  0
VERTEX
  8
1
 10
725.4266611215272
 20
-214.86112710717845
  0
VERTEX
  8
1
 10
726.9466611215272
 20
-211.99112710717844
  0
VERTEX
  8
1
 10
728.5866611215272
 20
-209.1811271071785
  0
VERTEX
  8
1
 10
730.3166611215272
 20
-206.4311271071785
  0
VERTEX
  8
1
 10
732.0566611215272
 20
-203.90112710717847
  0
VERTEX
  8
1
 10
732.7566611215273
 20
-203.0511271071785
  0
VERTEX
  8
1
 10
733.8666611215273
 20
-201.84112710717847
  0
VERTEX
  8
1
 10
731.6601683479278
 20
-199.80854509405975
  0
VERTEX
  8
1
 10
733.8666611215273
 20
-201.84112710717847
  0
VERTEX
  8
1
 10
734.6266611215273
 20
-201.02112710717847
  0
VERTEX
  8
1
 10
736.5966611215272
 20
-199.16112710717852
  0
VERTEX
  8
1
 10
738.6866611215272
 20
-197.4411271071785
  0
VERTEX
  8
1
 10
740.8966611215272
 20
-195.8811271071785
  0
VERTEX
  8
1
 10
743.2066611215272
 20
-194.48112710717845
  0
VERTEX
  8
1
 10
745.6066611215272
 20
-193.24112710717844
  0
VERTEX
  8
1
 10
748.0966611215272
 20
-192.1711271071785
  0
VERTEX
  8
1
 10
749.3766611215273
 20
-191.73112710717845
  0
VERTEX
  8
1
 10
751.3766611215273
 20
-191.03112710717852
  0
VERTEX
  8
1
 10
755.4466611215272
 20
-189.84112710717847
  0
VERTEX
  8
1
 10
759.5666611215272
 20
-188.83112710717847
  0
VERTEX
  8
1
 10
763.7366611215273
 20
-188.0411271071785
  0
VERTEX
  8
1
 10
767.9366611215272
 20
-187.4411271071785
  0
VERTEX
  8
1
 10
772.1566611215272
 20
-187.0511271071785
  0
VERTEX
  8
1
 10
776.3966611215272
 20
-186.86112710717845
  0
VERTEX
  8
1
 10
780.8166611215272
 20
-186.87112710717844
  0
VERTEX
  8
1
 10
783.1066611215272
 20
-186.8811271071785
  0
VERTEX
  8
1
 10
806.8166611215272
 20
-186.97112710717846
  0
VERTEX
  8
1
 10
816.8466611215272
 20
-187.0011271071785
  0
VERTEX
  8
1
 10
816.8466611215272
 20
-179.97112710717846
  0
VERTEX
  8
1
 10
816.8466611215272
 20
-179.97112710717846
  0
VERTEX
  8
1
 10
816.8466611215272
 20
-28.51112710717847
  0
VERTEX
  8
1
 10
815.8466611215272
 20
-28.51112710717847
  0
SEQEND
  0
ENDBLK
  0
BLOCK
  2
3
  8
1
 10
0
 20
0
 70
64
  0
POLYLINE
  8
1
  62
3
10
0
 20
0
 66
1
  0
VERTEX
  8
1
 10
998.7193715215271
 20
-179.97112710717846
  0
VERTEX
  8
1
 10
998.7193715215271
 20
-28.51112710717847
  0
VERTEX
  8
1
 10
995.7193715215271
 20
-28.51112710717847
  0
VERTEX
  8
1
 10
998.7193715215271
 20
-28.51112710717847
  0
VERTEX
  8
1
 10
998.7193715215271
 20
-28.51112710717847
  0
VERTEX
  8
1
 10
998.7193715215271
 20
-26.52112710717846
  0
VERTEX
  8
1
 10
998.7193715215271
 20
-16.52112710717846
  0
VERTEX
  8
1
 10
988.7193715215271
 20
-16.52112710717846
  0
VERTEX
  8
1
 10
979.2093715215271
 20
-16.52112710717846
  0
VERTEX
  8
1
 10
979.2093715215271
 20
-13.521127107178462
  0
VERTEX
  8
1
 10
976.2093715215271
 20
-13.521127107178462
  0
VERTEX
  8
1
 10
976.2093715215271
 20
-15.521127107178462
  0
VERTEX
  8
1
 10
973.2093715215271
 20
-15.521127107178462
  0
VERTEX
  8
1
 10
973.2093715215271
 20
-13.521127107178462
  0
VERTEX
  8
1
 10
970.2093715215271
 20
-13.521127107178462
  0
VERTEX
  8
1
 10
970.2093715215271
 20
-15.521127107178462
  0
VERTEX
  8
1
 10
967.2093715215271
 20
-15.521127107178462
  0
VERTEX
  8
1
 10
967.2093715215271
 20
-13.521127107178462
  0
VERTEX
  8
1
 10
964.2093715215271
 20
-13.521127107178462
  0
VERTEX
  8
1
 10
964.2093715215271
 20
-15.521127107178462
  0
VERTEX
  8
1
 10
961.2093715215271
 20
-15.521127107178462
  0
VERTEX
  8
1
 10
961.2093715215271
 20
-13.521127107178462
  0
VERTEX
  8
1
 10
958.2093715215271
 20
-13.521127107178462
  0
VERTEX
  8
1
 10
958.2093715215271
 20
-16.52112710717846
  0
VERTEX
  8
1
 10
955.2093715215271
 20
-16.52112710717846
  0
VERTEX
  8
1
 10
926.0293715215272
 20
-16.52112710717846
  0
VERTEX
  8
1
 10
899.3293715215272
 20
-16.52112710717846
  0
VERTEX
  8
1
 10
899.3293715215272
 20
-26.52112710717846
  0
VERTEX
  8
1
 10
899.3293715215272
 20
-66.19112710717847
  0
VERTEX
  8
1
 10
899.1393715215272
 20
-68.86112710717843
  0
VERTEX
  8
1
 10
898.8793715215271
 20
-71.51112710717847
  0
VERTEX
  8
1
 10
898.5293715215272
 20
-74.16112710717844
  0
VERTEX
  8
1
 10
898.1093715215271
 20
-76.80112710717849
  0
VERTEX
  8
1
 10
897.6193715215271
 20
-79.42112710717849
  0
VERTEX
  8
1
 10
897.0493715215272
 20
-82.03112710717845
  0
VERTEX
  8
1
 10
896.3993715215272
 20
-84.62112710717848
  0
VERTEX
  8
1
 10
895.6793715215272
 20
-87.19112710717847
  0
VERTEX
  8
1
 10
894.9993715215271
 20
-89.35112710717844
  0
VERTEX
  8
1
 10
894.2493715215271
 20
-91.49112710717849
  0
VERTEX
  8
1
 10
893.4193715215272
 20
-93.59112710717845
  0
VERTEX
  8
1
 10
892.5193715215272
 20
-95.67112710717849
  0
VERTEX
  8
1
 10
891.5593715215272
 20
-97.72112710717845
  0
VERTEX
  8
1
 10
890.5193715215272
 20
-99.73112710717844
  0
VERTEX
  8
1
 10
889.4093715215272
 20
-101.71112710717846
  0
VERTEX
  8
1
 10
888.2393715215271
 20
-103.64112710717846
  0
VERTEX
  8
1
 10
885.6993715215272
 20
-106.60112710717844
  0
VERTEX
  8
1
 10
883.1093715215271
 20
-109.52112710717846
  0
VERTEX
  8
1
 10
880.4793715215271
 20
-112.40112710717845
  0
VERTEX
  8
1
 10
877.7993715215272
 20
-115.23112710717844
  0
VERTEX
  8
1
 10
875.4093715215272
 20
-117.67112710717849
  0
VERTEX
  8
1
 10
872.9693715215271
 20
-120.06112710717848
  0
VERTEX
  8
1
 10
870.4893715215271
 20
-122.4111271071785
  0
VERTEX
  8
1
 10
867.9593715215271
 20
-124.71112710717846
  0
VERTEX
  8
1
 10
862.8793715215272
 20
-129.2911271071785
  0
VERTEX
  8
1
 10
857.8993715215272
 20
-133.98112710717845
  0
VERTEX
  8
1
 10
851.8393715215271
 20
-139.96112710717847
  0
VERTEX
  8
1
 10
845.8993715215272
 20
-146.0611271071785
  0
VERTEX
  8
1
 10
843.8093715215272
 20
-148.0411271071785
  0
VERTEX
  8
1
 10
841.8493715215271
 20
-150.14112710717848
  0
VERTEX
  8
1
 10
839.9993715215272
 20
-152.35112710717846
  0
VERTEX
  8
1
 10
838.2993715215272
 20
-154.6711271071785
  0
VERTEX
  8
1
 10
836.1993715215272
 20
-157.85112710717846
  0
VERTEX
  8
1
 10
834.2393715215271
 20
-161.11112710717845
  0
VERTEX
  8
1
 10
832.4293715215272
 20
-164.46112710717847
  0
VERTEX
  8
1
 10
830.7593715215272
 20
-167.8811271071785
  0
VERTEX
  8
1
 10
828.3693715215272
 20
-173.32112710717848
  0
VERTEX
  8
1
 10
826.0493715215272
 20
-178.8011271071785
  0
VERTEX
  8
1
 10
823.5293715215272
 20
-184.9411271071785
  0
VERTEX
  8
1
 10
821.0893715215271
 20
-191.12112710717844
  0
VERTEX
  8
1
 10
819.1593715215272
 20
-197.49112710717844
  0
VERTEX
  8
1
 10
816.2493715215272
 20
-207.07112710717848
  0
VERTEX
  8
1
 10
893.2293715215272
 20
-232.6711271071785
  0
VERTEX
  8
1
 10
899.8693715215272
 20
-234.8811271071785
  0
VERTEX
  8
1
 10
903.0293715215272
 20
-225.40112710717847
  0
VERTEX
  8
1
 10
903.9593715215271
 20
-222.60112710717846
  0
VERTEX
  8
1
 10
904.9693715215271
 20
-219.97112710717846
  0
VERTEX
  8
1
 10
906.0793715215272
 20
-217.39112710717848
  0
VERTEX
  8
1
 10
907.2993715215272
 20
-214.86112710717845
  0
VERTEX
  8
1
 10
908.8193715215272
 20
-211.99112710717844
  0
VERTEX
  8
1
 10
910.4593715215271
 20
-209.1811271071785
  0
VERTEX
  8
1
 10
912.1893715215272
 20
-206.4311271071785
  0
VERTEX
  8
1
 10
913.9293715215272
 20
-203.90112710717847
  0
VERTEX
  8
1
 10
914.6293715215272
 20
-203.0511271071785
  0
VERTEX
  8
1
 10
915.7393715215272
 20
-201.84112710717847
  0
VERTEX
  8
1
 10
913.5328787479277
 20
-199.80854509405975
  0
VERTEX
  8
1
 10
915.7393715215272
 20
-201.84112710717847
  0
VERTEX
  8
1
 10
916.4993715215272
 20
-201.02112710717847
  0
VERTEX
  8
1
 10
918.4693715215271
 20
-199.16112710717852
  0
VERTEX
  8
1
 10
920.5593715215272
 20
-197.4411271071785
  0
VERTEX
  8
1
 10
922.7693715215272
 20
-195.8811271071785
  0
VERTEX
  8
1
 10
925.0793715215272
 20
-194.48112710717845
  0
VERTEX
  8
1
 10
927.4793715215271
 20
-193.24112710717844
  0
VERTEX
  8
1
 10
929.9693715215271
 20
-192.1711271071785
  0
VERTEX
  8
1
 10
931.2493715215272
 20
-191.73112710717845
  0
VERTEX
  8
1
 10
933.2493715215272
 20
-191.03112710717852
  0
VERTEX
  8
1
 10
937.3193715215272
 20
-189.84112710717847
  0
VERTEX
  8
1
 10
941.4393715215272
 20
-188.83112710717847
  0
VERTEX
  8
1
 10
945.6093715215272
 20
-188.0411271071785
  0
VERTEX
  8
1
 10
949.8093715215272
 20
-187.4411271071785
  0
VERTEX
  8
1
 10
954.0293715215272
 20
-187.0511271071785
  0
VERTEX
  8
1
 10
958.2693715215272
 20
-186.86112710717845
  0
VERTEX
  8
1
 10
962.6893715215272
 20
-186.87112710717844
  0
VERTEX
  8
1
 10
964.9793715215271
 20
-186.8811271071785
  0
VERTEX
  8
1
 10
988.6893715215272
 20
-186.97112710717846
  0
VERTEX
  8
1
 10
998.7193715215271
 20
-187.0011271071785
  0
VERTEX
  8
1
 10
998.7193715215271
 20
-179.97112710717846
  0
VERTEX
  8
1
 10
998.7193715215271
 20
-179.97112710717846
  0
VERTEX
  8
1
 10
998.7193715215271
 20
-28.51112710717847
  0
VERTEX
  8
1
 10
997.7193715215271
 20
-28.51112710717847
  0
SEQEND
  0
ENDBLK
  0
BLOCK
  2
4
  8
1
 10
0
 20
0
 70
64
  0
POLYLINE
  8
1
  62
3
10
0
 20
0
 66
1
  0
VERTEX
  8
1
 10
1005.6831749784727
 20
-177.11057160717843
  0
VERTEX
  8
1
 10
1005.6831749784727
 20
-25.650571607178417
  0
VERTEX
  8
1
 10
1008.6831749784727
 20
-25.650571607178417
  0
VERTEX
  8
1
 10
1005.6831749784727
 20
-25.650571607178417
  0
VERTEX
  8
1
 10
1005.6831749784727
 20
-25.650571607178417
  0
VERTEX
  8
1
 10
1005.6831749784727
 20
-23.660571607178415
  0
VERTEX
  8
1
 10
1005.6831749784727
 20
-13.660571607178415
  0
VERTEX
  8
1
 10
1015.6831749784727
 20
-13.660571607178415
  0
VERTEX
  8
1
 10
1025.1931749784728
 20
-13.660571607178415
  0
VERTEX
  8
1
 10
1025.1931749784728
 20
-10.660571607178415
  0
VERTEX
  8
1
 10
1028.1931749784728
 20
-10.660571607178415
  0
VERTEX
  8
1
 10
1028.1931749784728
 20
-12.660571607178415
  0
VERTEX
  8
1
 10
1031.1931749784728
 20
-12.660571607178415
  0
VERTEX
  8
1
 10
1031.1931749784728
 20
-10.660571607178415
  0
VERTEX
  8
1
 10
1034.1931749784728
 20
-10.660571607178415
  0
VERTEX
  8
1
 10
1034.1931749784728
 20
-12.660571607178415
  0
VERTEX
  8
1
 10
1037.1931749784728
 20
-12.660571607178415
  0
VERTEX
  8
1
 10
1037.1931749784728
 20
-10.660571607178415
  0
VERTEX
  8
1
 10
1040.1931749784728
 20
-10.660571607178415
  0
VERTEX
  8
1
 10
1040.1931749784728
 20
-12.660571607178415
  0
VERTEX
  8
1
 10
1043.1931749784728
 20
-12.660571607178415
  0
VERTEX
  8
1
 10
1043.1931749784728
 20
-10.660571607178415
  0
VERTEX
  8
1
 10
1046.1931749784728
 20
-10.660571607178408
  0
VERTEX
  8
1
 10
1046.1931749784728
 20
-13.660571607178408
  0
VERTEX
  8
1
 10
1049.1931749784728
 20
-13.660571607178408
  0
VERTEX
  8
1
 10
1078.3731749784727
 20
-13.660571607178408
  0
VERTEX
  8
1
 10
1105.0731749784727
 20
-13.660571607178408
  0
VERTEX
  8
1
 10
1105.0731749784727
 20
-23.660571607178408
  0
VERTEX
  8
1
 10
1105.0731749784727
 20
-63.3305716071784
  0
VERTEX
  8
1
 10
1105.2631749784728
 20
-66.0005716071784
  0
VERTEX
  8
1
 10
1105.5231749784728
 20
-68.6505716071784
  0
VERTEX
  8
1
 10
1105.8731749784727
 20
-71.3005716071784
  0
VERTEX
  8
1
 10
1106.2931749784727
 20
-73.9405716071784
  0
VERTEX
  8
1
 10
1106.7831749784727
 20
-76.5605716071784
  0
VERTEX
  8
1
 10
1107.3531749784727
 20
-79.1705716071784
  0
VERTEX
  8
1
 10
1108.0031749784728
 20
-81.7605716071784
  0
VERTEX
  8
1
 10
1108.7231749784728
 20
-84.3305716071784
  0
VERTEX
  8
1
 10
1109.4031749784726
 20
-86.49057160717841
  0
VERTEX
  8
1
 10
1110.1531749784726
 20
-88.63057160717841
  0
VERTEX
  8
1
 10
1110.9831749784728
 20
-90.7305716071784
  0
VERTEX
  8
1
 10
1111.8831749784727
 20
-92.8105716071784
  0
VERTEX
  8
1
 10
1112.8431749784727
 20
-94.8605716071784
  0
VERTEX
  8
1
 10
1113.8831749784727
 20
-96.8705716071784
  0
VERTEX
  8
1
 10
1114.9931749784728
 20
-98.85057160717841
  0
VERTEX
  8
1
 10
1116.1631749784729
 20
-100.7805716071784
  0
VERTEX
  8
1
 10
1118.7031749784728
 20
-103.74057160717841
  0
VERTEX
  8
1
 10
1121.2931749784727
 20
-106.6605716071784
  0
VERTEX
  8
1
 10
1123.9231749784728
 20
-109.54057160717839
  0
VERTEX
  8
1
 10
1126.6031749784727
 20
-112.3705716071784
  0
VERTEX
  8
1
 10
1128.9931749784728
 20
-114.8105716071784
  0
VERTEX
  8
1
 10
1131.4331749784728
 20
-117.20057160717842
  0
VERTEX
  8
1
 10
1133.9131749784729
 20
-119.55057160717841
  0
VERTEX
  8
1
 10
1136.4431749784728
 20
-121.8505716071784
  0
VERTEX
  8
1
 10
1141.5231749784728
 20
-126.43057160717841
  0
VERTEX
  8
1
 10
1146.5031749784728
 20
-131.12057160717842
  0
VERTEX
  8
1
 10
1152.5631749784727
 20
-137.10057160717838
  0
VERTEX
  8
1
 10
1158.5031749784728
 20
-143.20057160717843
  0
VERTEX
  8
1
 10
1160.5931749784727
 20
-145.18057160717842
  0
VERTEX
  8
1
 10
1162.5531749784727
 20
-147.28057160717842
  0
VERTEX
  8
1
 10
1164.4031749784726
 20
-149.49057160717842
  0
VERTEX
  8
1
 10
1166.1031749784727
 20
-151.81057160717842
  0
VERTEX
  8
1
 10
1168.2031749784728
 20
-154.99057160717842
  0
VERTEX
  8
1
 10
1170.1631749784729
 20
-158.25057160717841
  0
VERTEX
  8
1
 10
1171.9731749784728
 20
-161.6005716071784
  0
VERTEX
  8
1
 10
1173.6431749784726
 20
-165.02057160717843
  0
VERTEX
  8
1
 10
1176.0331749784727
 20
-170.46057160717842
  0
VERTEX
  8
1
 10
1178.3531749784727
 20
-175.9405716071784
  0
VERTEX
  8
1
 10
1180.8731749784727
 20
-182.08057160717843
  0
VERTEX
  8
1
 10
1183.3131749784727
 20
-188.2605716071784
  0
VERTEX
  8
1
 10
1185.2431749784728
 20
-194.6305716071784
  0
VERTEX
  8
1
 10
1188.1531749784726
 20
-204.21057160717842
  0
VERTEX
  8
1
 10
1111.1731749784728
 20
-229.81057160717845
  0
VERTEX
  8
1
 10
1104.5331749784727
 20
-232.02057160717843
  0
VERTEX
  8
1
 10
1101.3731749784727
 20
-222.5405716071784
  0
VERTEX
  8
1
 10
1100.4431749784728
 20
-219.74057160717842
  0
VERTEX
  8
1
 10
1099.4331749784728
 20
-217.11057160717843
  0
VERTEX
  8
1
 10
1098.3231749784727
 20
-214.53057160717842
  0
VERTEX
  8
1
 10
1097.1031749784727
 20
-212.00057160717841
  0
VERTEX
  8
1
 10
1095.5831749784727
 20
-209.1305716071784
  0
VERTEX
  8
1
 10
1093.9431749784728
 20
-206.3205716071784
  0
VERTEX
  8
1
 10
1092.2131749784728
 20
-203.5705716071784
  0
VERTEX
  8
1
 10
1090.4731749784728
 20
-201.0405716071784
  0
VERTEX
  8
1
 10
1089.7731749784728
 20
-200.1905716071784
  0
VERTEX
  8
1
 10
1088.6631749784729
 20
-198.9805716071784
  0
VERTEX
  8
1
 10
1090.8696677520722
 20
-196.94798959405972
  0
VERTEX
  8
1
 10
1088.6631749784729
 20
-198.9805716071784
  0
VERTEX
  8
1
 10
1087.9031749784726
 20
-198.1605716071784
  0
VERTEX
  8
1
 10
1085.9331749784728
 20
-196.30057160717843
  0
VERTEX
  8
1
 10
1083.8431749784727
 20
-194.58057160717843
  0
VERTEX
  8
1
 10
1081.6331749784727
 20
-193.02057160717843
  0
VERTEX
  8
1
 10
1079.3231749784727
 20
-191.62057160717842
  0
VERTEX
  8
1
 10
1076.9231749784728
 20
-190.3805716071784
  0
VERTEX
  8
1
 10
1074.4331749784728
 20
-189.31057160717842
  0
VERTEX
  8
1
 10
1073.1531749784726
 20
-188.87057160717842
  0
VERTEX
  8
1
 10
1071.1531749784726
 20
-188.17057160717843
  0
VERTEX
  8
1
 10
1067.0831749784727
 20
-186.9805716071784
  0
VERTEX
  8
1
 10
1062.9631749784728
 20
-185.9705716071784
  0
VERTEX
  8
1
 10
1058.7931749784727
 20
-185.18057160717842
  0
VERTEX
  8
1
 10
1054.5931749784727
 20
-184.58057160717843
  0
VERTEX
  8
1
 10
1050.3731749784727
 20
-184.1905716071784
  0
VERTEX
  8
1
 10
1046.1331749784727
 20
-184.00057160717841
  0
VERTEX
  8
1
 10
1041.7131749784728
 20
-184.0105716071784
  0
VERTEX
  8
1
 10
1039.4231749784728
 20
-184.02057160717843
  0
VERTEX
  8
1
 10
1015.7131749784728
 20
-184.11057160717843
  0
VERTEX
  8
1
 10
1005.6831749784727
 20
-184.14057160717843
  0
VERTEX
  8
1
 10
1005.6831749784727
 20
-177.11057160717843
  0
VERTEX
  8
1
 10
1005.6831749784727
 20
-177.11057160717843
  0
VERTEX
  8
1
 10
1005.6831749784727
 20
-25.650571607178417
  0
VERTEX
  8
1
 10
1006.6831749784727
 20
-25.650571607178417
  0
SEQEND
  0
ENDBLK
  0
BLOCK
  2
5
  8
1
 10
0
 20
0
 70
64
  0
POLYLINE
  8
1
  62
3
10
0
 20
0
 66
1
  0
VERTEX
  8
1
 10
442.44144177847284
 20
-293.6584339071784
  0
VERTEX
  8
1
 10
442.44144177847284
 20
-142.1984339071784
  0
VERTEX
  8
1
 10
445.44144177847284
 20
-142.1984339071784
  0
VERTEX
  8
1
 10
442.44144177847284
 20
-142.1984339071784
  0
VERTEX
  8
1
 10
442.44144177847284
 20
-142.1984339071784
  0
VERTEX
  8
1
 10
442.44144177847284
 20
-140.2084339071784
  0
VERTEX
  8
1
 10
442.44144177847284
 20
-130.2084339071784
  0
VERTEX
  8
1
 10
452.44144177847284
 20
-130.2084339071784
  0
VERTEX
  8
1
 10
461.9514417784728
 20
-130.2084339071784
  0
VERTEX
  8
1
 10
461.9514417784728
 20
-127.2084339071784
  0
VERTEX
  8
1
 10
464.9514417784728
 20
-127.2084339071784
  0
VERTEX
  8
1
 10
464.9514417784728
 20
-129.2084339071784
  0
VERTEX
  8
1
 10
467.9514417784728
 20
-129.2084339071784
  0
VERTEX
  8
1
 10
467.9514417784728
 20
-127.2084339071784
  0
VERTEX
  8
1
 10
470.9514417784728
 20
-127.2084339071784
  0
VERTEX
  8
1
 10
470.9514417784728
 20
-129.2084339071784
  0
VERTEX
  8
1
 10
473.9514417784728
 20
-129.2084339071784
  0
VERTEX
  8
1
 10
473.9514417784728
 20
-127.2084339071784
  0
VERTEX
  8
1
 10
476.9514417784728
 20
-127.2084339071784
  0
VERTEX
  8
1
 10
476.9514417784728
 20
-129.2084339071784
  0
VERTEX
  8
1
 10
479.9514417784728
 20
-129.2084339071784
  0
VERTEX
  8
1
 10
479.9514417784728
 20
-127.2084339071784
  0
VERTEX
  8
1
 10
482.9514417784728
 20
-127.20843390717839
  0
VERTEX
  8
1
 10
482.9514417784728
 20
-130.2084339071784
  0
VERTEX
  8
1
 10
485.9514417784728
 20
-130.2084339071784
  0
VERTEX
  8
1
 10
515.1314417784729
 20
-130.2084339071784
  0
VERTEX
  8
1
 10
541.8314417784728
 20
-130.2084339071784
  0
VERTEX
  8
1
 10
541.8314417784728
 20
-140.2084339071784
  0
VERTEX
  8
1
 10
541.8314417784728
 20
-179.87843390717842
  0
VERTEX
  8
1
 10
542.0214417784729
 20
-182.5484339071784
  0
VERTEX
  8
1
 10
542.2814417784729
 20
-185.1984339071784
  0
VERTEX
  8
1
 10
542.6314417784729
 20
-187.8484339071784
  0
VERTEX
  8
1
 10
543.0514417784728
 20
-190.4884339071784
  0
VERTEX
  8
1
 10
543.5414417784729
 20
-193.1084339071784
  0
VERTEX
  8
1
 10
544.1114417784729
 20
-195.7184339071784
  0
VERTEX
  8
1
 10
544.7614417784729
 20
-198.30843390717843
  0
VERTEX
  8
1
 10
545.4814417784728
 20
-200.87843390717842
  0
VERTEX
  8
1
 10
546.1614417784729
 20
-203.03843390717842
  0
VERTEX
  8
1
 10
546.9114417784729
 20
-205.17843390717843
  0
VERTEX
  8
1
 10
547.7414417784729
 20
-207.2784339071784
  0
VERTEX
  8
1
 10
548.6414417784729
 20
-209.3584339071784
  0
VERTEX
  8
1
 10
549.6014417784728
 20
-211.4084339071784
  0
VERTEX
  8
1
 10
550.6414417784729
 20
-213.4184339071784
  0
VERTEX
  8
1
 10
551.7514417784729
 20
-215.3984339071784
  0
VERTEX
  8
1
 10
552.9214417784729
 20
-217.3284339071784
  0
VERTEX
  8
1
 10
555.4614417784728
 20
-220.28843390717842
  0
VERTEX
  8
1
 10
558.0514417784728
 20
-223.2084339071784
  0
VERTEX
  8
1
 10
560.6814417784728
 20
-226.0884339071784
  0
VERTEX
  8
1
 10
563.3614417784729
 20
-228.9184339071784
  0
VERTEX
  8
1
 10
565.7514417784729
 20
-231.3584339071784
  0
VERTEX
  8
1
 10
568.1914417784728
 20
-233.74843390717842
  0
VERTEX
  8
1
 10
570.6714417784729
 20
-236.09843390717842
  0
VERTEX
  8
1
 10
573.2014417784728
 20
-238.3984339071784
  0
VERTEX
  8
1
 10
578.2814417784729
 20
-242.9784339071784
  0
VERTEX
  8
1
 10
583.2614417784729
 20
-247.6684339071784
  0
VERTEX
  8
1
 10
589.3214417784728
 20
-253.6484339071784
  0
VERTEX
  8
1
 10
595.2614417784729
 20
-259.7484339071784
  0
VERTEX
  8
1
 10
597.3514417784728
 20
-261.72843390717844
  0
VERTEX
  8
1
 10
599.3114417784728
 20
-263.8284339071784
  0
VERTEX
  8
1
 10
601.1614417784729
 20
-266.0384339071784
  0
VERTEX
  8
1
 10
602.8614417784729
 20
-268.35843390717844
  0
VERTEX
  8
1
 10
604.9614417784728
 20
-271.5384339071784
  0
VERTEX
  8
1
 10
606.9214417784729
 20
-274.7984339071784
  0
VERTEX
  8
1
 10
608.7314417784729
 20
-278.1484339071784
  0
VERTEX
  8
1
 10
610.4014417784729
 20
-281.5684339071784
  0
VERTEX
  8
1
 10
612.7914417784729
 20
-287.0084339071784
  0
VERTEX
  8
1
 10
615.1114417784729
 20
-292.48843390717843
  0
VERTEX
  8
1
 10
617.6314417784729
 20
-298.6284339071784
  0
VERTEX
  8
1
 10
620.0714417784728
 20
-304.80843390717837
  0
VERTEX
  8
1
 10
622.0014417784729
 20
-311.1784339071784
  0
VERTEX
  8
1
 10
624.9114417784729
 20
-320.7584339071784
  0
VERTEX
  8
1
 10
547.9314417784728
 20
-346.35843390717844
  0
VERTEX
  8
1
 10
541.2914417784729
 20
-348.5684339071784
  0
VERTEX
  8
1
 10
538.1314417784729
 20
-339.0884339071784
  0
VERTEX
  8
1
 10
537.2014417784728
 20
-336.2884339071784
  0
VERTEX
  8
1
 10
536.1914417784728
 20
-333.6584339071784
  0
VERTEX
  8
1
 10
535.0814417784728
 20
-331.0784339071784
  0
VERTEX
  8
1
 10
533.8614417784729
 20
-328.5484339071784
  0
VERTEX
  8
1
 10
532.3414417784728
 20
-325.6784339071784
  0
VERTEX
  8
1
 10
530.7014417784728
 20
-322.8684339071784
  0
VERTEX
  8
1
 10
528.9714417784728
 20
-320.1184339071784
  0
VERTEX
  8
1
 10
527.2314417784729
 20
-317.5884339071784
  0
VERTEX
  8
1
 10
526.5314417784729
 20
-316.73843390717843
  0
VERTEX
  8
1
 10
525.4214417784729
 20
-315.5284339071784
  0
VERTEX
  8
1
 10
527.6279345520722
 20
-313.4958518940597
  0
VERTEX
  8
1
 10
525.4214417784729
 20
-315.5284339071784
  0
VERTEX
  8
1
 10
524.6614417784729
 20
-314.7084339071784
  0
VERTEX
  8
1
 10
522.6914417784728
 20
-312.84843390717845
  0
VERTEX
  8
1
 10
520.6014417784729
 20
-311.1284339071784
  0
VERTEX
  8
1
 10
518.3914417784729
 20
-309.5684339071784
  0
VERTEX
  8
1
 10
516.0814417784728
 20
-308.1684339071784
  0
VERTEX
  8
1
 10
513.6814417784728
 20
-306.9284339071784
  0
VERTEX
  8
1
 10
511.19144177847284
 20
-305.85843390717844
  0
VERTEX
  8
1
 10
509.91144177847286
 20
-305.4184339071784
  0
VERTEX
  8
1
 10
507.91144177847286
 20
-304.71843390717845
  0
VERTEX
  8
1
 10
503.84144177847287
 20
-303.5284339071784
  0
VERTEX
  8
1
 10
499.72144177847287
 20
-302.5184339071784
  0
VERTEX
  8
1
 10
495.55144177847285
 20
-301.72843390717844
  0
VERTEX
  8
1
 10
491.35144177847286
 20
-301.1284339071784
  0
VERTEX
  8
1
 10
487.1314417784729
 20
-300.73843390717843
  0
VERTEX
  8
1
 10
482.8914417784729
 20
-300.5484339071784
  0
VERTEX
  8
1
 10
478.47144177847287
 20
-300.55843390717837
  0
VERTEX
  8
1
 10
476.18144177847284
 20
-300.5684339071784
  0
VERTEX
  8
1
 10
452.47144177847287
 20
-300.6584339071784
  0
VERTEX
  8
1
 10
442.44144177847284
 20
-300.6884339071784
  0
VERTEX
  8
1
 10
442.44144177847284
 20
-293.6584339071784
  0
VERTEX
  8
1
 10
442.44144177847284
 20
-293.6584339071784
  0
VERTEX
  8
1
 10
442.44144177847284
 20
-142.1984339071784
  0
VERTEX
  8
1
 10
443.44144177847284
 20
-142.1984339071784
  0
SEQEND
  0
ENDBLK
  0
ENDSEC
  0
SECTION
  2
ENTITIES
  0
INSERT
  2
0
 10
0
 20
0
  0
INSERT
  2
1
 10
0
 20
0
  0
INSERT
  2
2
 10
0
 20
0
  0
INSERT
  2
3
 10
0
 20
0
  0
INSERT
  2
4
 10
0
 20
0
  0
INSERT
  2
5
 10
0
 20
0
  0
ENDSEC
  0
EOF