  0
SECTION
  2
HEADER
  9
$ACADVER
  1
AC1009
  0
ENDSEC
  0
SECTION
  2
TABLES
  0
TABLE
  2
SCOTT
  0
ENDTAB
  0
TABLE
  2
VPORT
 70
1
  0
VPORT
  2
*ACTIVE
 70
0
 10
0.0
 20
0.0
 11
1.0
 21
1.0
 12
0.0
 22
0.0
 13
0.0
 23
0.0
 14
1.0
 24
1.0
 15
0.0
 25
0.0
 16
0.0
 26
0.0
 36
1.0
 17
0.0
 27
0.0
 37
0.0
 40
100.0
 41
2
 42
0.0
 43
0.0
 44
0.0
 50
0.0
 51
0.0
 71
0.0
 72
0.0
 73
0.0
 74
0.0
 75
0.0
 76
0.0
 77
0.0
 78
0.0
  0
ENDTAB
  0
ENDSEC
  0
SECTION
  2
BLOCKS
  0
BLOCK
  2
0
  8
1
 10
0
 20
0
 70
64
  0
POLYLINE
  8
1
  62
3
10
0
 20
0
 66
1
  0
VERTEX
  8
1
 10
95.263811461695
 20
-1258.5263095712603
  0
VERTEX
  8
1
 10
75.263811461695
 20
-1258.5263095712603
  0
VERTEX
  8
1
 10
55.263811461695
 20
-1258.5263095712603
  0
VERTEX
  8
1
 10
25.263811461695
 20
-1258.5263095712603
  0
VERTEX
  8
1
 10
22.763811461695
 20
-1256.0263095712603
  0
VERTEX
  8
1
 10
20.263811461695
 20
-1253.5263095712603
  0
VERTEX
  8
1
 10
5.263811461694992
 20
-1238.5263095712603
  0
VERTEX
  8
1
 10
5.263811461694992
 20
-1211.6943095712602
  0
VERTEX
  8
1
 10
5.263811461694985
 20
-1184.8523095712603
  0
VERTEX
  8
1
 10
5.263811461694978
 20
-1158.0213095712604
  0
VERTEX
  8
1
 10
5.263811461694978
 20
-1131.1893095712603
  0
VERTEX
  8
1
 10
5.263811461694971
 20
-1104.3573095712602
  0
VERTEX
  8
1
 10
5.263811461694964
 20
-1077.5153095712603
  0
VERTEX
  8
1
 10
5.263811461694964
 20
-1050.6843095712602
  0
VERTEX
  8
1
 10
5.2638114616949565
 20
-1023.8523095712602
  0
VERTEX
  8
1
 10
5.263811461694949
 20
-997.0203095712601
  0
VERTEX
  8
1
 10
5.263811461694949
 20
-970.1783095712602
  0
VERTEX
  8
1
 10
5.263811461694942
 20
-943.3463095712602
  0
VERTEX
  8
1
 10
5.263811461694935
 20
-916.5153095712602
  0
VERTEX
  8
1
 10
5.263811461694928
 20
-889.6833095712601
  0
VERTEX
  8
1
 10
5.263811461694928
 20
-862.8413095712602
  0
VERTEX
  8
1
 10
5.263811461694921
 20
-836.0093095712601
  0
VERTEX
  8
1
 10
5.263811461694914
 20
-809.1783095712602
  0
VERTEX
  8
1
 10
5.263811461694914
 20
-782.3363095712601
  0
VERTEX
  8
1
 10
5.263811461694907
 20
-755.5043095712603
  0
VERTEX
  8
1
 10
5.2638114616949
 20
-728.6723095712601
  0
VERTEX
  8
1
 10
5.2638114616949
 20
-701.8403095712601
  0
VERTEX
  8
1
 10
5.263811461694893
 20
-674.9993095712601
  0
VERTEX
  8
1
 10
5.2638114616948855
 20
-648.1673095712603
  0
VERTEX
  8
1
 10
5.2638114616948855
 20
-637.8342161456546
  0
VERTEX
  8
1
 10
5.2638114616948855
 20
-621.3353095712602
  0
VERTEX
  8
1
 10
5.263811461694878
 20
-594.5033095712602
  0
VERTEX
  8
1
 10
5.263811461694871
 20
-567.6623095712602
  0
VERTEX
  8
1
 10
5.263811461694864
 20
-540.8303095712602
  0
VERTEX
  8
1
 10
5.263811461694864
 20
-513.9983095712603
  0
VERTEX
  8
1
 10
5.263811461694857
 20
-487.16630957126034
  0
VERTEX
  8
1
 10
5.26381146169485
 20
-460.32430957126024
  0
VERTEX
  8
1
 10
5.26381146169485
 20
-433.4933095712602
  0
VERTEX
  8
1
 10
5.263811461694843
 20
-406.66130957126023
  0
VERTEX
  8
1
 10
5.263811461694836
 20
-379.81930957126025
  0
VERTEX
  8
1
 10
5.263811461694836
 20
-352.98730957126025
  0
VERTEX
  8
1
 10
5.263811461694829
 20
-326.15630957126035
  0
VERTEX
  8
1
 10
5.2638114616948215
 20
-299.32430957126024
  0
VERTEX
  8
1
 10
5.2638114616948215
 20
-272.48230957126026
  0
VERTEX
  8
1
 10
5.263811461694814
 20
-245.65030957126015
  0
VERTEX
  8
1
 10
5.263811461694807
 20
-218.81830957126016
  0
VERTEX
  8
1
 10
5.2638114616948
 20
-191.98730957126025
  0
VERTEX
  8
1
 10
5.2638114616948
 20
-165.14530957126016
  0
VERTEX
  8
1
 10
5.263811461694793
 20
-138.31330957126028
  0
VERTEX
  8
1
 10
5.263811461694786
 20
-111.48130957126016
  0
VERTEX
  8
1
 10
5.263811461694786
 20
-84.65030957126025
  0
VERTEX
  8
1
 10
5.263811461694779
 20
-57.80830957126038
  0
VERTEX
  8
1
 10
5.263811461694772
 20
-13.346309571260164
  0
VERTEX
  8
1
 10
20.26381146169477
 20
-13.346309571260164
  0
VERTEX
  8
1
 10
25.26381146169477
 20
-13.346309571260164
  0
VERTEX
  8
1
 10
45.26381146169477
 20
-13.346309571260164
  0
VERTEX
  8
1
 10
65.26381146169477
 20
-13.346309571260164
  0
VERTEX
  8
1
 10
85.26381146169477
 20
-13.346309571260164
  0
VERTEX
  8
1
 10
115.26381146169477
 20
-13.346309571260164
  0
VERTEX
  8
1
 10
115.26381146169479
 20
-40.17830957126027
  0
VERTEX
  8
1
 10
115.26381146169479
 20
-67.02030957126014
  0
VERTEX
  8
1
 10
115.26381146169479
 20
-93.85130957126005
  0
VERTEX
  8
1
 10
115.26381146169479
 20
-120.68330957126015
  0
VERTEX
  8
1
 10
115.26381146169479
 20
-147.51530957126027
  0
VERTEX
  8
1
 10
115.2638114616948
 20
-174.35730957126037
  0
VERTEX
  8
1
 10
115.26381146169481
 20
-201.18830957126028
  0
VERTEX
  8
1
 10
115.26381146169481
 20
-228.02030957126016
  0
VERTEX
  8
1
 10
115.26381146169481
 20
-254.85230957126026
  0
VERTEX
  8
1
 10
115.26381146169481
 20
-281.69430957126013
  0
VERTEX
  8
1
 10
115.26381146169481
 20
-308.52630957126024
  0
VERTEX
  8
1
 10
115.26381146169483
 20
-335.35730957126026
  0
VERTEX
  8
1
 10
115.26381146169484
 20
-362.18930957126025
  0
VERTEX
  8
1
 10
115.26381146169484
 20
-389.03130957126024
  0
VERTEX
  8
1
 10
115.26381146169484
 20
-415.86330957126023
  0
VERTEX
  8
1
 10
115.26381146169484
 20
-442.69430957126013
  0
VERTEX
  8
1
 10
115.26381146169486
 20
-469.53630957126023
  0
VERTEX
  8
1
 10
115.26381146169486
 20
-496.3683095712602
  0
VERTEX
  8
1
 10
115.26381146169487
 20
-523.2003095712602
  0
VERTEX
  8
1
 10
115.26381146169487
 20
-550.0323095712602
  0
VERTEX
  8
1
 10
115.26381146169487
 20
-576.8733095712602
  0
VERTEX
  8
1
 10
115.26381146169487
 20
-603.7053095712603
  0
VERTEX
  8
1
 10
115.26381146169489
 20
-630.5373095712602
  0
VERTEX
  8
1
 10
115.26381146169489
 20
-637.8327282563813
  0
VERTEX
  8
1
 10
115.26381146169489
 20
-657.3693095712601
  0
VERTEX
  8
1
 10
115.2638114616949
 20
-684.2103095712602
  0
VERTEX
  8
1
 10
115.2638114616949
 20
-711.0423095712603
  0
VERTEX
  8
1
 10
115.2638114616949
 20
-737.8743095712601
  0
VERTEX
  8
1
 10
115.2638114616949
 20
-764.7063095712602
  0
VERTEX
  8
1
 10
115.26381146169491
 20
-791.5483095712601
  0
VERTEX
  8
1
 10
115.26381146169493
 20
-818.3793095712603
  0
VERTEX
  8
1
 10
115.26381146169493
 20
-845.2113095712601
  0
VERTEX
  8
1
 10
115.26381146169493
 20
-872.0533095712602
  0
VERTEX
  8
1
 10
115.26381146169493
 20
-898.8853095712602
  0
VERTEX
  8
1
 10
115.26381146169493
 20
-925.7163095712602
  0
VERTEX
  8
1
 10
115.26381146169494
 20
-952.5483095712601
  0
VERTEX
  8
1
 10
115.26381146169496
 20
-979.3903095712602
  0
VERTEX
  8
1
 10
115.26381146169496
 20
-1006.2223095712602
  0
VERTEX
  8
1
 10
115.26381146169496
 20
-1033.05430957126
  0
VERTEX
  8
1
 10
115.26381146169496
 20
-1059.8853095712602
  0
VERTEX
  8
1
 10
115.26381146169497
 20
-1086.7273095712603
  0
VERTEX
  8
1
 10
115.26381146169497
 20
-1113.5593095712602
  0
VERTEX
  8
1
 10
115.26381146169498
 20
-1140.3913095712603
  0
VERTEX
  8
1
 10
115.26381146169498
 20
-1167.2223095712602
  0
VERTEX
  8
1
 10
115.26381146169498
 20
-1194.0643095712603
  0
VERTEX
  8
1
 10
115.26381146169498
 20
-1238.5263095712603
  0
VERTEX
  8
1
 10
100.263811461695
 20
-1253.5263095712603
  0
VERTEX
  8
1
 10
97.763811461695
 20
-1256.0263095712603
  0
VERTEX
  8
1
 10
95.263811461695
 20
-1258.5263095712603
  0
VERTEX
  8
1
 10
95.263811461695
 20
-1258.5263095712603
  0
VERTEX
  8
1
 10
75.263811461695
 20
-1258.5263095712603
  0
VERTEX
  8
1
 10
74.263811461695
 20
-1258.5263095712603
  0
SEQEND
  0
ENDBLK
  0
BLOCK
  2
1
  8
1
 10
0
 20
0
 70
64
  0
POLYLINE
  8
1
  62
3
10
0
 20
0
 66
1
  0
VERTEX
  8
1
 10
121.60073434429927
 20
-114.04073642862302
  0
VERTEX
  8
1
 10
142.13573434429927
 20
-114.570736428623
  0
VERTEX
  8
1
 10
151.27073434429926
 20
-114.80073642862298
  0
VERTEX
  8
1
 10
151.22387820804798
 20
-117.80037049005374
  0
VERTEX
  8
1
 10
151.27073434429926
 20
-114.80073642862298
  0
VERTEX
  8
1
 10
151.81210294997004
 20
-114.72188728120027
  0
VERTEX
  8
1
 10
162.6697343442993
 20
-114.512736428623
  0
VERTEX
  8
1
 10
183.20473434429925
 20
-113.99773642862301
  0
VERTEX
  8
1
 10
203.72973434429926
 20
-113.49273642862299
  0
VERTEX
  8
1
 10
224.26573434429926
 20
-112.976736428623
  0
VERTEX
  8
1
 10
244.80073434429926
 20
-112.46173642862301
  0
VERTEX
  8
1
 10
265.3357343442993
 20
-111.946736428623
  0
VERTEX
  8
1
 10
285.87073434429925
 20
-111.430736428623
  0
VERTEX
  8
1
 10
306.4057343442993
 20
-110.92573642862301
  0
VERTEX
  8
1
 10
326.9417343442993
 20
-110.41073642862303
  0
VERTEX
  8
1
 10
347.4667343442993
 20
-109.89573642862301
  0
VERTEX
  8
1
 10
368.0017343442993
 20
-109.37973642862299
  0
VERTEX
  8
1
 10
388.53673434429925
 20
-108.864736428623
  0
VERTEX
  8
1
 10
409.07273434429925
 20
-108.34973642862299
  0
VERTEX
  8
1
 10
429.6077343442993
 20
-107.84373642862299
  0
VERTEX
  8
1
 10
450.14273434429924
 20
-107.328736428623
  0
VERTEX
  8
1
 10
470.67773434429927
 20
-106.81373642862299
  0
VERTEX
  8
1
 10
491.2037343442993
 20
-106.298736428623
  0
VERTEX
  8
1
 10
511.16073434429927
 20
-105.80073642862298
  0
VERTEX
  8
1
 10
511.2360940482983
 20
-108.79978976509655
  0
VERTEX
  8
1
 10
511.16073434429927
 20
-105.80073642862298
  0
VERTEX
  8
1
 10
511.7387343442993
 20
-105.78273642862301
  0
VERTEX
  8
1
 10
517.0685993930533
 20
-105.64920840262083
  0
VERTEX
  8
1
 10
532.2737343442993
 20
-105.267736428623
  0
VERTEX
  8
1
 10
552.8087343442992
 20
-104.75273642862301
  0
VERTEX
  8
1
 10
573.3437343442993
 20
-104.23873642862303
  0
VERTEX
  8
1
 10
593.8797343442993
 20
-103.72373642862298
  0
VERTEX
  8
1
 10
614.4047343442993
 20
-103.208736428623
  0
VERTEX
  8
1
 10
634.9397343442993
 20
-102.69373642862298
  0
VERTEX
  8
1
 10
655.4747343442993
 20
-102.178736428623
  0
VERTEX
  8
1
 10
676.0107343442992
 20
-101.66473642862302
  0
VERTEX
  8
1
 10
694.7170744389623
 20
-100.74769545998954
  0
VERTEX
  8
1
 10
696.5117343442994
 20
-100.56873642862298
  0
VERTEX
  8
1
 10
711.1945120806079
 20
-99.30518916034852
  0
VERTEX
  8
1
 10
716.9667343442993
 20
-98.762736428623
  0
VERTEX
  8
1
 10
727.9456960430025
 20
-97.71597835647033
  0
VERTEX
  8
1
 10
737.4097343442993
 20
-96.73873642862303
  0
VERTEX
  8
1
 10
744.6731916711826
 20
-95.98493833622989
  0
VERTEX
  8
1
 10
757.8247343442993
 20
-94.501736428623
  0
VERTEX
  8
1
 10
761.3962305705738
 20
-94.09724252464109
  0
VERTEX
  8
1
 10
778.09915819151
 20
-92.08328252159028
  0
VERTEX
  8
1
 10
778.2227343442992
 20
-92.06773642862301
  0
VERTEX
  8
1
 10
794.7921688684546
 20
-89.96798093363871
  0
VERTEX
  8
1
 10
798.5947343442992
 20
-89.45573642862298
  0
VERTEX
  8
1
 10
811.4651061642376
 20
-87.70417869871558
  0
VERTEX
  8
1
 10
818.9457343442991
 20
-86.626736428623
  0
VERTEX
  8
1
 10
828.1089714052005
 20
-85.2823018169707
  0
VERTEX
  8
1
 10
839.2507343442992
 20
-83.54573642862302
  0
VERTEX
  8
1
 10
842.489030593958
 20
-83.04371799172027
  0
VERTEX
  8
1
 10
856.8592086450826
 20
-80.67590640225201
  0
VERTEX
  8
1
 10
859.5177343442992
 20
-80.21273642862299
  0
VERTEX
  8
1
 10
867.6807343442993
 20
-78.79073642862299
  0
VERTEX
  8
1
 10
868.1957046932835
 20
-81.7462068716603
  0
VERTEX
  8
1
 10
867.6807343442993
 20
-78.79073642862299
  0
VERTEX
  8
1
 10
871.1934879152352
 20
-78.17831686430513
  0
VERTEX
  8
1
 10
878.8001035486336
 20
-76.78014918592574
  0
VERTEX
  8
1
 10
879.7337343442994
 20
-76.608736428623
  0
VERTEX
  8
1
 10
885.5064632821991
 20
-75.5449941126406
  0
VERTEX
  8
1
 10
899.7994861515356
 20
-72.7631242756491
  0
VERTEX
  8
1
 10
899.9087343442993
 20
-72.74073642862301
  0
VERTEX
  8
1
 10
914.0391105144251
 20
-69.90115649967875
  0
VERTEX
  8
1
 10
920.0327343442993
 20
-68.602736428623
  0
VERTEX
  8
1
 10
940.0757343442992
 20
-64.14273642862302
  0
VERTEX
  8
1
 10
942.6021945874684
 20
-63.55994492492728
  0
VERTEX
  8
1
 10
960.0887343442994
 20
-59.52273642862299
  0
VERTEX
  8
1
 10
969.4091317067371
 20
-57.39623935578972
  0
VERTEX
  8
1
 10
980.1297343442993
 20
-54.991736428622985
  0
VERTEX
  8
1
 10
996.3040268270443
 20
-51.396995031203446
  0
VERTEX
  8
1
 10
1000.1817343442992
 20
-50.559736428623
  0
VERTEX
  8
1
 10
1020.2537343442993
 20
-46.20573642862301
  0
VERTEX
  8
1
 10
1023.2490897567095
 20
-45.5526854111384
  0
VERTEX
  8
1
 10
1040.3427343442993
 20
-41.92773642862302
  0
VERTEX
  8
1
 10
1050.299591810619
 20
-39.88312536268184
  0
VERTEX
  8
1
 10
1060.4797343442992
 20
-37.874736428622995
  0
VERTEX
  8
1
 10
1065.0933658305107
 20
-36.96776178168763
  0
VERTEX
  8
1
 10
1080.0840756505365
 20
-34.18376430772422
  0
VERTEX
  8
1
 10
1080.6697343442993
 20
-34.08073642862301
  0
VERTEX
  8
1
 10
1094.9601944435567
 20
-31.615363767329725
  0
VERTEX
  8
1
 10
1100.9187343442993
 20
-30.654736428622996
  0
VERTEX
  8
1
 10
1110.0521967182672
 20
-29.24377266109836
  0
VERTEX
  8
1
 10
1121.2457343442993
 20
-27.697736428623003
  0
VERTEX
  8
1
 10
1134.6992643104627
 20
-25.83881868342867
  0
VERTEX
  8
1
 10
1141.6037343442993
 20
-24.98073642862299
  0
VERTEX
  8
1
 10
1159.547135448216
 20
-22.76073544298309
  0
VERTEX
  8
1
 10
1161.9977343442993
 20
-22.49273642862299
  0
VERTEX
  8
1
 10
1182.4077343442993
 20
-20.22873642862298
  0
VERTEX
  8
1
 10
1184.2357989389368
 20
-20.026566998079616
  0
VERTEX
  8
1
 10
1202.8507343442993
 20
-18.218736428623018
  0
VERTEX
  8
1
 10
1209.2686263483297
 20
-17.60540042516827
  0
VERTEX
  8
1
 10
1213.0507343442991
 20
-17.30073642862301
  0
VERTEX
  8
1
 10
1213.288364945394
 20
-20.29131023600901
  0
VERTEX
  8
1
 10
1213.0507343442991
 20
-17.30073642862301
  0
VERTEX
  8
1
 10
1217.6837335434072
 20
-16.936737115101792
  0
VERTEX
  8
1
 10
1223.3127343442993
 20
-16.485736428622985
  0
VERTEX
  8
1
 10
1229.0824313874334
 20
-16.034393640254663
  0
VERTEX
  8
1
 10
1243.8077343442992
 20
-15.134736428622986
  0
VERTEX
  8
1
 10
1249.1481293378943
 20
-14.818245059590183
  0
VERTEX
  8
1
 10
1269.2391312257823
 20
-13.978479317220419
  0
VERTEX
  8
1
 10
1279.0207343442992
 20
-13.73073642862299
  0
VERTEX
  8
1
 10
1281.6802263383609
 20
-26.524857384549378
  0
VERTEX
  8
1
 10
1284.3897343442993
 20
-39.582736428622994
  0
VERTEX
  8
1
 10
1289.3114540078998
 20
-63.24483298100169
  0
VERTEX
  8
1
 10
1289.7497343442992
 20
-65.42873642862303
  0
VERTEX
  8
1
 10
1293.1807059816442
 20
-82.67879358675809
  0
VERTEX
  8
1
 10
1294.8367343442994
 20
-91.33673642862301
  0
VERTEX
  8
1
 10
1296.9925052051867
 20
-102.62159284920857
  0
VERTEX
  8
1
 10
1299.6517343442995
 20
-117.28373642862302
  0
VERTEX
  8
1
 10
1300.6707343442995
 20
-122.96768735005712
  0
VERTEX
  8
1
 10
1304.1057343442994
 20
-143.30673642862303
  0
VERTEX
  8
1
 10
1304.1607343442995
 20
-143.63182465280408
  0
VERTEX
  8
1
 10
1307.4007343442993
 20
-164.4802600246847
  0
VERTEX
  8
1
 10
1308.0937343442995
 20
-169.40773642862302
  0
VERTEX
  8
1
 10
1310.3299091438394
 20
-185.51990774605548
  0
VERTEX
  8
1
 10
1311.5557343442995
 20
-195.56873642862303
  0
VERTEX
  8
1
 10
1312.6557584213717
 20
-204.73425649178273
  0
VERTEX
  8
1
 10
1314.4427343442992
 20
-221.80873642862304
  0
VERTEX
  8
1
 10
1314.6499963133772
 20
-223.8229063275702
  0
VERTEX
  8
1
 10
1316.3603386636664
 20
-242.54009657273633
  0
VERTEX
  8
1
 10
1316.8107343442994
 20
-248.10673642862298
  0
VERTEX
  8
1
 10
1317.791228768027
 20
-260.49861844917086
  0
VERTEX
  8
1
 10
1318.7357343442993
 20
-274.42673642862303
  0
VERTEX
  8
1
 10
1320.4917343442994
 20
-300.770736428623
  0
VERTEX
  8
1
 10
1321.989934264073
 20
-323.2909128877377
  0
VERTEX
  8
1
 10
1323.0007343442994
 20
-338.540736428623
  0
VERTEX
  8
1
 10
1317.6647343442994
 20
-340.297736428623
  0
VERTEX
  8
1
 10
1312.3177343442992
 20
-342.055736428623
  0
VERTEX
  8
1
 10
1306.9817343442994
 20
-343.812736428623
  0
VERTEX
  8
1
 10
1301.6447343442992
 20
-345.569736428623
  0
VERTEX
  8
1
 10
1296.2987343442994
 20
-347.326736428623
  0
VERTEX
  8
1
 10
1290.9627343442994
 20
-349.084736428623
  0
VERTEX
  8
1
 10
1285.6257343442992
 20
-350.84173642862305
  0
VERTEX
  8
1
 10
1280.2797343442994
 20
-352.608736428623
  0
VERTEX
  8
1
 10
1274.9427343442992
 20
-354.365736428623
  0
VERTEX
  8
1
 10
1269.6067343442994
 20
-356.12373642862303
  0
VERTEX
  8
1
 10
1264.2607343442994
 20
-357.88073642862304
  0
VERTEX
  8
1
 10
1258.9237343442992
 20
-359.637736428623
  0
VERTEX
  8
1
 10
1253.5877343442994
 20
-361.39473642862305
  0
VERTEX
  8
1
 10
1248.2407343442994
 20
-363.15273642862303
  0
VERTEX
  8
1
 10
1242.9047343442992
 20
-364.90973642862303
  0
VERTEX
  8
1
 10
1237.5677343442994
 20
-366.666736428623
  0
VERTEX
  8
1
 10
1232.2317343442992
 20
-368.42373642862304
  0
VERTEX
  8
1
 10
1226.8857343442994
 20
-370.181736428623
  0
VERTEX
  8
1
 10
1221.5487343442994
 20
-371.93873642862303
  0
VERTEX
  8
1
 10
1216.2127343442992
 20
-373.69573642862304
  0
VERTEX
  8
1
 10
1210.8657343442994
 20
-375.453736428623
  0
VERTEX
  8
1
 10
1205.5297343442992
 20
-377.220736428623
  0
VERTEX
  8
1
 10
1200.1937343442994
 20
-378.977736428623
  0
VERTEX
  8
1
 10
1194.8467343442994
 20
-380.734736428623
  0
VERTEX
  8
1
 10
1189.5107343442992
 20
-382.492736428623
  0
VERTEX
  8
1
 10
1184.1737343442994
 20
-384.249736428623
  0
VERTEX
  8
1
 10
1178.8277343442994
 20
-386.006736428623
  0
VERTEX
  8
1
 10
1173.4917343442992
 20
-387.763736428623
  0
VERTEX
  8
1
 10
1168.1547343442994
 20
-389.521736428623
  0
VERTEX
  8
1
 10
1162.8087343442992
 20
-391.278736428623
  0
VERTEX
  8
1
 10
1157.4717343442994
 20
-393.035736428623
  0
VERTEX
  8
1
 10
1152.1357343442994
 20
-394.792736428623
  0
VERTEX
  8
1
 10
1146.7897343442994
 20
-396.550736428623
  0
VERTEX
  8
1
 10
1141.4527343442994
 20
-398.307736428623
  0
VERTEX
  8
1
 10
1136.1167343442992
 20
-400.064736428623
  0
VERTEX
  8
1
 10
1130.7997343442992
 20
-401.911736428623
  0
VERTEX
  8
1
 10
1127.9441516986612
 20
-403.1594172654413
  0
VERTEX
  8
1
 10
1127.016423389473
 20
-403.55283974533637
  0
VERTEX
  8
1
 10
1126.0886950802844
 20
-403.9462622252316
  0
VERTEX
  8
1
 10
1125.6537343442992
 20
-404.15273642862303
  0
VERTEX
  8
1
 10
1122.940193276081
 20
-405.52801553369903
  0
VERTEX
  8
1
 10
1120.7087343442993
 20
-406.819736428623
  0
VERTEX
  8
1
 10
1119.9931259928644
 20
-407.2243760979392
  0
VERTEX
  8
1
 10
1117.130354011762
 20
-409.0700430081755
  0
VERTEX
  8
1
 10
1116.0047343442993
 20
-409.893736428623
  0
VERTEX
  8
1
 10
1114.37787543528
 20
-411.0557436404518
  0
VERTEX
  8
1
 10
1111.7148688916816
 20
-413.19385369347907
  0
VERTEX
  8
1
 10
1111.5707343442994
 20
-413.324736428623
  0
VERTEX
  8
1
 10
1109.165071312101
 20
-415.44059291877755
  0
VERTEX
  8
1
 10
1107.4497343442993
 20
-417.136736428623
  0
VERTEX
  8
1
 10
1106.7372535874963
 20
-417.8241736520394
  0
VERTEX
  8
1
 10
1105.5796379471058
 20
-419.073340128569
  0
VERTEX
  8
1
 10
1104.2748225272364
 20
-420.4761482925317
  0
VERTEX
  8
1
 10
1103.6287343442993
 20
-421.252736428623
  0
VERTEX
  8
1
 10
1101.82045353898
 20
-423.41121379766605
  0
VERTEX
  8
1
 10
1100.1397343442993
 20
-425.652736428623
  0
VERTEX
  8
1
 10
1099.5206330888798
 20
-426.4708883117522
  0
VERTEX
  8
1
 10
1097.37057634733
 20
-429.645973424077
  0
VERTEX
  8
1
 10
1096.9757343442993
 20
-430.299736428623
  0
VERTEX
  8
1
 10
1095.3798093517394
 20
-432.893342189269
  0
VERTEX
  8
1
 10
1094.1557343442994
 20
-435.15473642862304
  0
VERTEX
  8
1
 10
1093.5453344179643
 20
-436.26839152483177
  0
VERTEX
  8
1
 10
1091.9794338969753
 20
-439.51070240861344
  0
VERTEX
  8
1
 10
1091.7087343442993
 20
-440.210736428623
  0
VERTEX
  8
1
 10
1089.6467343442994
 20
-445.434736428623
  0
VERTEX
  8
1
 10
1089.6307343442993
 20
-445.480736428623
  0
VERTEX
  8
1
 10
1087.7017343442992
 20
-450.708736428623
  0
VERTEX
  8
1
 10
1085.7057343442993
 20
-455.961736428623
  0
VERTEX
  8
1
 10
1083.7097343442992
 20
-461.225736428623
  0
VERTEX
  8
1
 10
1081.7147343442994
 20
-466.478736428623
  0
VERTEX
  8
1
 10
1079.7187343442993
 20
-471.732736428623
  0
VERTEX
  8
1
 10
1077.7337343442994
 20
-476.98573642862306
  0
VERTEX
  8
1
 10
1076.3965728988867
 20
-480.5117874939553
  0
VERTEX
  8
1
 10
1075.7377343442993
 20
-482.249736428623
  0
VERTEX
  8
1
 10
1073.7417343442992
 20
-487.502736428623
  0
VERTEX
  8
1
 10
1070.9307343442993
 20
-494.89073642862303
  0
VERTEX
  8
1
 10
1066.4827343442992
 20
-492.613736428623
  0
VERTEX
  8
1
 10
1062.0247343442993
 20
-490.34673642862305
  0
VERTEX
  8
1
 10
1057.5757343442992
 20
-488.069736428623
  0
VERTEX
  8
1
 10
1056.5341041775253
 20
-487.53932279552504
  0
VERTEX
  8
1
 10
1053.1187343442994
 20
-485.799736428623
  0
VERTEX
  8
1
 10
1048.6717343442992
 20
-483.520736428623
  0
VERTEX
  8
1
 10
1044.2147343442994
 20
-481.25073642862304
  0
VERTEX
  8
1
 10
1043.5016727229245
 20
-480.8756383823531
  0
VERTEX
  8
1
 10
1039.7607343442994
 20
-478.983736428623
  0
VERTEX
  8
1
 10
1035.2707343442992
 20
-476.78873642862305
  0
VERTEX
  8
1
 10
1030.7807343442992
 20
-474.583736428623
  0
VERTEX
  8
1
 10
1030.4795099009016
 20
-474.4311601869721
  0
VERTEX
  8
1
 10
1026.2907343442992
 20
-472.39073642862303
  0
VERTEX
  8
1
 10
1021.7687343442992
 20
-470.241736428623
  0
VERTEX
  8
1
 10
1017.3582632169748
 20
-468.1566671342017
  0
VERTEX
  8
1
 10
1017.2457343442993
 20
-468.105736428623
  0
VERTEX
  8
1
 10
1012.7237343442994
 20
-465.98173642862304
  0
VERTEX
  8
1
 10
1008.1917343442992
 20
-463.86873642862304
  0
VERTEX
  8
1
 10
1004.1788821958553
 20
-462.0491815848887
  0
VERTEX
  8
1
 10
1003.6357343442994
 20
-461.81373642862303
  0
VERTEX
  8
1
 10
999.0737343442993
 20
-459.758736428623
  0
VERTEX
  8
1
 10
994.5217343442994
 20
-457.703736428623
  0
VERTEX
  8
1
 10
991.3178172985706
 20
-456.29153281359373
  0
VERTEX
  8
1
 10
989.9407343442992
 20
-455.71273642862303
  0
VERTEX
  8
1
 10
985.3497343442991
 20
-453.728736428623
  0
VERTEX
  8
1
 10
980.7577343442993
 20
-451.754736428623
  0
VERTEX
  8
1
 10
978.373063502908
 20
-450.71933124244777
  0
VERTEX
  8
1
 10
976.1537343442992
 20
-449.79873642862304
  0
VERTEX
  8
1
 10
971.5247343442993
 20
-447.90373642862306
  0
VERTEX
  8
1
 10
966.9057343442992
 20
-445.997736428623
  0
VERTEX
  8
1
 10
965.344767966857
 20
-445.33879716615473
  0
VERTEX
  8
1
 10
962.2807343442992
 20
-444.103736428623
  0
VERTEX
  8
1
 10
957.6267343442992
 20
-442.276736428623
  0
VERTEX
  8
1
 10
952.9737343442994
 20
-440.448736428623
  0
VERTEX
  8
1
 10
952.4296261706208
 20
-440.20933799307767
  0
VERTEX
  8
1
 10
948.3107343442991
 20
-438.623736428623
  0
VERTEX
  8
1
 10
943.6397343442993
 20
-436.84673642862305
  0
VERTEX
  8
1
 10
938.9587343442993
 20
-435.09973642862303
  0
VERTEX
  8
1
 10
938.5265047840901
 20
-434.9297144175345
  0
VERTEX
  8
1
 10
934.2787343442992
 20
-433.350736428623
  0
VERTEX
  8
1
 10
929.5557343442993
 20
-431.709736428623
  0
VERTEX
  8
1
 10
924.7427343442992
 20
-430.358736428623
  0
VERTEX
  8
1
 10
924.2261121937001
 20
-430.2070738912585
  0
VERTEX
  8
1
 10
919.9227343442992
 20
-429.021736428623
  0
VERTEX
  8
1
 10
915.1097343442993
 20
-427.684736428623
  0
VERTEX
  8
1
 10
910.2677343442992
 20
-426.42673642862303
  0
VERTEX
  8
1
 10
909.676860983566
 20
-426.2625538879965
  0
VERTEX
  8
1
 10
905.4287343442993
 20
-425.166736428623
  0
VERTEX
  8
1
 10
900.5867343442992
 20
-423.907736428623
  0
VERTEX
  8
1
 10
895.7347343442993
 20
-422.738736428623
  0
VERTEX
  8
1
 10
895.076163226945
 20
-422.5695203534113
  0
VERTEX
  8
1
 10
890.8687343442994
 20
-421.562736428623
  0
VERTEX
  8
1
 10
886.0107343442992
 20
-420.396736428623
  0
VERTEX
  8
1
 10
881.1317343442993
 20
-419.29173642862304
  0
VERTEX
  8
1
 10
880.3967723610967
 20
-419.11752733623723
  0
VERTEX
  8
1
 10
876.2497343442992
 20
-418.21273642862303
  0
VERTEX
  8
1
 10
871.3747343442992
 20
-417.116736428623
  0
VERTEX
  8
1
 10
866.4807343442992
 20
-416.09173642862305
  0
VERTEX
  8
1
 10
865.667394615007
 20
-415.9141049397311
  0
VERTEX
  8
1
 10
861.5847343442992
 20
-415.09673642862305
  0
VERTEX
  8
1
 10
856.6857343442991
 20
-414.09673642862305
  0
VERTEX
  8
1
 10
851.7767343442993
 20
-413.146736428623
  0
VERTEX
  8
1
 10
850.8961157332274
 20
-412.9694791135083
  0
VERTEX
  8
1
 10
846.8577343442994
 20
-412.228736428623
  0
VERTEX
  8
1
 10
841.9467343442993
 20
-411.315736428623
  0
VERTEX
  8
1
 10
837.0257343442993
 20
-410.44273642862305
  0
VERTEX
  8
1
 10
836.0566406404321
 20
-410.2674235903142
  0
VERTEX
  8
1
 10
832.0957343442992
 20
-409.614736428623
  0
VERTEX
  8
1
 10
827.1647343442994
 20
-408.791736428623
  0
VERTEX
  8
1
 10
822.2227343442992
 20
-407.978736428623
  0
VERTEX
  8
1
 10
817.5695712609247
 20
-407.2888780122461
  0
VERTEX
  8
1
 10
817.2817343442994
 20
-407.25073642862304
  0
VERTEX
  8
1
 10
812.3317343442993
 20
-406.507736428623
  0
VERTEX
  8
1
 10
807.3927343442992
 20
-405.77473642862304
  0
VERTEX
  8
1
 10
802.4337343442994
 20
-405.131736428623
  0
VERTEX
  8
1
 10
799.0076421674578
 20
-404.66711908124614
  0
VERTEX
  8
1
 10
797.4717343442992
 20
-404.48173642862304
  0
VERTEX
  8
1
 10
792.5157343442993
 20
-403.830736428623
  0
VERTEX
  8
1
 10
787.5487343442992
 20
-403.27973642862304
  0
VERTEX
  8
1
 10
782.5827343442993
 20
-402.728736428623
  0
VERTEX
  8
1
 10
780.4051187547375
 20
-402.46935468248654
  0
VERTEX
  8
1
 10
777.6127343442993
 20
-402.176736428623
  0
VERTEX
  8
1
 10
772.6307343442993
 20
-401.704736428623
  0
VERTEX
  8
1
 10
767.6587343442993
 20
-401.243736428623
  0
VERTEX
  8
1
 10
762.6767343442993
 20
-400.78273642862297
  0
VERTEX
  8
1
 10
761.7407343442992
 20
-400.701342795057
  0
VERTEX
  8
1
 10
757.6907343442992
 20
-400.40973642862303
  0
VERTEX
  8
1
 10
752.7027343442992
 20
-400.049736428623
  0
VERTEX
  8
1
 10
747.7157343442993
 20
-399.680736428623
  0
VERTEX
  8
1
 10
743.0507343442991
 20
-399.4094462179232
  0
VERTEX
  8
1
 10
742.7287343442993
 20
-399.395736428623
  0
VERTEX
  8
1
 10
737.7377343442993
 20
-399.117736428623
  0
VERTEX
  8
1
 10
736.1207343442993
 20
-399.0277770198211
  0
VERTEX
  8
1
 10
735.7707343442992
 20
-399.01073642862303
  0
VERTEX
  8
1
 10
735.9367869686048
 20
-396.01533553292285
  0
VERTEX
  8
1
 10
735.7707343442992
 20
-399.01073642862303
  0
VERTEX
  8
1
 10
732.7467343442993
 20
-398.840736428623
  0
VERTEX
  8
1
 10
727.7447343442993
 20
-398.642736428623
  0
VERTEX
  8
1
 10
724.3307343442993
 20
-398.5081028249158
  0
VERTEX
  8
1
 10
722.7537343442993
 20
-398.467736428623
  0
VERTEX
  8
1
 10
717.7597343442992
 20
-398.27973642862304
  0
VERTEX
  8
1
 10
712.7557343442993
 20
-398.180736428623
  0
VERTEX
  8
1
 10
707.7617343442992
 20
-398.092736428623
  0
VERTEX
  8
1
 10
705.6164470820543
 20
-398.0335982153579
  0
VERTEX
  8
1
 10
702.7567343442993
 20
-398.001736428623
  0
VERTEX
  8
1
 10
697.7607343442992
 20
-397.98673642862303
  0
VERTEX
  8
1
 10
692.7647343442993
 20
-397.991736428623
  0
VERTEX
  8
1
 10
687.7577343442993
 20
-397.98673642862303
  0
VERTEX
  8
1
 10
686.7907343442994
 20
-397.9688005081991
  0
VERTEX
  8
1
 10
682.7627343442994
 20
-397.891736428623
  0
VERTEX
  8
1
 10
677.7667343442993
 20
-397.77473642862304
  0
VERTEX
  8
1
 10
672.7707343442994
 20
-397.648736428623
  0
VERTEX
  8
1
 10
667.7637343442993
 20
-397.52273642862303
  0
VERTEX
  8
1
 10
662.7677343442992
 20
-397.406736428623
  0
VERTEX
  8
1
 10
657.7717343442994
 20
-397.280736428623
  0
VERTEX
  8
1
 10
652.7757343442993
 20
-397.15473642862304
  0
VERTEX
  8
1
 10
647.7797343442992
 20
-397.038736428623
  0
VERTEX
  8
1
 10
642.7737343442993
 20
-396.912736428623
  0
VERTEX
  8
1
 10
637.7777343442992
 20
-396.786736428623
  0
VERTEX
  8
1
 10
632.7817343442993
 20
-396.660736428623
  0
VERTEX
  8
1
 10
627.7857343442993
 20
-396.543736428623
  0
VERTEX
  8
1
 10
622.7897343442992
 20
-396.417736428623
  0
VERTEX
  8
1
 10
617.7837343442993
 20
-396.291736428623
  0
VERTEX
  8
1
 10
612.7877343442992
 20
-396.175736428623
  0
VERTEX
  8
1
 10
607.7917343442992
 20
-396.049736428623
  0
VERTEX
  8
1
 10
602.7957343442993
 20
-395.92373642862304
  0
VERTEX
  8
1
 10
597.7997343442993
 20
-395.807736428623
  0
VERTEX
  8
1
 10
592.7937343442993
 20
-395.681736428623
  0
VERTEX
  8
1
 10
587.7977343442992
 20
-395.555736428623
  0
VERTEX
  8
1
 10
582.8017343442993
 20
-395.439736428623
  0
VERTEX
  8
1
 10
577.8057343442993
 20
-395.31273642862305
  0
VERTEX
  8
1
 10
572.8097343442993
 20
-395.186736428623
  0
VERTEX
  8
1
 10
567.8037343442993
 20
-395.060736428623
  0
VERTEX
  8
1
 10
562.8077343442992
 20
-394.944736428623
  0
VERTEX
  8
1
 10
557.8117343442993
 20
-394.818736428623
  0
VERTEX
  8
1
 10
552.8157343442992
 20
-394.692736428623
  0
VERTEX
  8
1
 10
547.8197343442993
 20
-394.576736428623
  0
VERTEX
  8
1
 10
542.8137343442993
 20
-394.45073642862303
  0
VERTEX
  8
1
 10
537.8177343442993
 20
-394.324736428623
  0
VERTEX
  8
1
 10
532.8217343442993
 20
-394.208736428623
  0
VERTEX
  8
1
 10
527.8257343442992
 20
-394.08273642862304
  0
VERTEX
  8
1
 10
522.8197343442994
 20
-393.955736428623
  0
VERTEX
  8
1
 10
517.8227343442993
 20
-393.829736428623
  0
VERTEX
  8
1
 10
512.8267343442992
 20
-393.713736428623
  0
VERTEX
  8
1
 10
507.8307343442993
 20
-393.58773642862303
  0
VERTEX
  8
1
 10
502.8347343442993
 20
-393.461736428623
  0
VERTEX
  8
1
 10
497.8287343442992
 20
-393.345736428623
  0
VERTEX
  8
1
 10
492.83273434429924
 20
-393.219736428623
  0
VERTEX
  8
1
 10
487.83673434429926
 20
-393.093736428623
  0
VERTEX
  8
1
 10
482.8407343442992
 20
-392.977736428623
  0
VERTEX
  8
1
 10
477.84473434429924
 20
-392.85173642862304
  0
VERTEX
  8
1
 10
472.83873434429927
 20
-392.72473642862303
  0
VERTEX
  8
1
 10
467.84273434429923
 20
-392.598736428623
  0
VERTEX
  8
1
 10
462.84673434429925
 20
-392.482736428623
  0
VERTEX
  8
1
 10
457.85073434429927
 20
-392.35673642862304
  0
VERTEX
  8
1
 10
452.85473434429923
 20
-392.230736428623
  0
VERTEX
  8
1
 10
447.84873434429926
 20
-392.114736428623
  0
VERTEX
  8
1
 10
446.4607343442993
 20
-392.07962352352894
  0
VERTEX
  8
1
 10
446.1907343442993
 20
-392.07073642862304
  0
VERTEX
  8
1
 10
446.2662816880231
 20
-389.07168781300237
  0
VERTEX
  8
1
 10
446.1907343442993
 20
-392.07073642862304
  0
VERTEX
  8
1
 10
442.8527343442993
 20
-391.988736428623
  0
VERTEX
  8
1
 10
437.85673434429924
 20
-391.862736428623
  0
VERTEX
  8
1
 10
432.86073434429926
 20
-391.746736428623
  0
VERTEX
  8
1
 10
427.8647343442993
 20
-391.62073642862305
  0
VERTEX
  8
1
 10
422.85873434429925
 20
-391.494736428623
  0
VERTEX
  8
1
 10
417.86273434429927
 20
-391.368736428623
  0
VERTEX
  8
1
 10
412.8667343442993
 20
-391.252736428623
  0
VERTEX
  8
1
 10
407.87073434429925
 20
-391.126736428623
  0
VERTEX
  8
1
 10
402.87473434429927
 20
-391.00073642862304
  0
VERTEX
  8
1
 10
397.8687343442993
 20
-390.874736428623
  0
VERTEX
  8
1
 10
392.87273434429926
 20
-390.758736428623
  0
VERTEX
  8
1
 10
387.8767343442993
 20
-390.632736428623
  0
VERTEX
  8
1
 10
382.8807343442993
 20
-390.506736428623
  0
VERTEX
  8
1
 10
377.88473434429926
 20
-390.38073642862304
  0
VERTEX
  8
1
 10
372.87873434429923
 20
-390.264736428623
  0
VERTEX
  8
1
 10
367.8817343442993
 20
-390.138736428623
  0
VERTEX
  8
1
 10
362.8857343442993
 20
-390.013736428623
  0
VERTEX
  8
1
 10
357.88973434429926
 20
-389.887736428623
  0
VERTEX
  8
1
 10
352.8837343442993
 20
-389.771736428623
  0
VERTEX
  8
1
 10
347.88773434429925
 20
-389.645736428623
  0
VERTEX
  8
1
 10
342.89173434429927
 20
-389.51973642862305
  0
VERTEX
  8
1
 10
337.8957343442993
 20
-389.403736428623
  0
VERTEX
  8
1
 10
332.8997343442993
 20
-389.27773642862303
  0
VERTEX
  8
1
 10
327.8937343442993
 20
-389.151736428623
  0
VERTEX
  8
1
 10
322.8977343442993
 20
-389.025736428623
  0
VERTEX
  8
1
 10
317.90173434429926
 20
-388.90973642862303
  0
VERTEX
  8
1
 10
312.9057343442993
 20
-388.78373642862306
  0
VERTEX
  8
1
 10
307.9097343442993
 20
-388.657736428623
  0
VERTEX
  8
1
 10
302.90373434429927
 20
-388.531736428623
  0
VERTEX
  8
1
 10
297.90773434429923
 20
-388.415736428623
  0
VERTEX
  8
1
 10
292.91173434429925
 20
-388.28973642862303
  0
VERTEX
  8
1
 10
287.91573434429927
 20
-388.163736428623
  0
VERTEX
  8
1
 10
282.9197343442993
 20
-388.037736428623
  0
VERTEX
  8
1
 10
277.91373434429926
 20
-387.92173642862303
  0
VERTEX
  8
1
 10
272.9177343442993
 20
-387.795736428623
  0
VERTEX
  8
1
 10
267.92173434429924
 20
-387.669736428623
  0
VERTEX
  8
1
 10
262.92573434429926
 20
-387.55373642862304
  0
VERTEX
  8
1
 10
257.9297343442993
 20
-387.427736428623
  0
VERTEX
  8
1
 10
252.92373434429928
 20
-387.30173642862303
  0
VERTEX
  8
1
 10
247.92773434429927
 20
-387.175736428623
  0
VERTEX
  8
1
 10
242.9317343442993
 20
-387.059736428623
  0
VERTEX
  8
1
 10
237.93573434429925
 20
-386.93373642862304
  0
VERTEX
  8
1
 10
232.93973434429927
 20
-386.807736428623
  0
VERTEX
  8
1
 10
227.93273434429926
 20
-386.682736428623
  0
VERTEX
  8
1
 10
222.93673434429928
 20
-386.566736428623
  0
VERTEX
  8
1
 10
217.94073434429927
 20
-386.440736428623
  0
VERTEX
  8
1
 10
212.94473434429926
 20
-386.314736428623
  0
VERTEX
  8
1
 10
207.94873434429928
 20
-386.18873642862303
  0
VERTEX
  8
1
 10
202.94273434429925
 20
-386.07273642862305
  0
VERTEX
  8
1
 10
197.94673434429927
 20
-385.946736428623
  0
VERTEX
  8
1
 10
192.95073434429926
 20
-385.82073642862304
  0
VERTEX
  8
1
 10
187.95473434429925
 20
-385.704736428623
  0
VERTEX
  8
1
 10
182.95873434429927
 20
-385.578736428623
  0
VERTEX
  8
1
 10
177.95273434429927
 20
-385.45273642862304
  0
VERTEX
  8
1
 10
172.95673434429926
 20
-385.326736428623
  0
VERTEX
  8
1
 10
167.96073434429928
 20
-385.210736428623
  0
VERTEX
  8
1
 10
162.96473434429927
 20
-385.084736428623
  0
VERTEX
  8
1
 10
157.95873434429927
 20
-384.958736428623
  0
VERTEX
  8
1
 10
152.96273434429926
 20
-384.83273642862304
  0
VERTEX
  8
1
 10
151.68073434429928
 20
-384.81843298467044
  0
VERTEX
  8
1
 10
151.57073434429927
 20
-384.820736428623
  0
VERTEX
  8
1
 10
151.5018482759022
 20
-381.821527414636
  0
VERTEX
  8
1
 10
151.57073434429927
 20
-384.820736428623
  0
VERTEX
  8
1
 10
147.96673434429928
 20
-384.903736428623
  0
VERTEX
  8
1
 10
142.97073434429927
 20
-385.028736428623
  0
VERTEX
  8
1
 10
137.97473434429926
 20
-385.15273642862303
  0
VERTEX
  8
1
 10
132.96873434429926
 20
-385.27773642862303
  0
VERTEX
  8
1
 10
127.97273434429927
 20
-385.392736428623
  0
VERTEX
  8
1
 10
121.60073434429927
 20
-385.550736428623
  0
VERTEX
  8
1
 10
121.60073434429927
 20
-372.550736428623
  0
VERTEX
  8
1
 10
121.60073434429927
 20
-346.37573642862304
  0
VERTEX
  8
1
 10
121.60073434429927
 20
-322.633736428623
  0
VERTEX
  8
1
 10
121.60073434429927
 20
-298.900736428623
  0
VERTEX
  8
1
 10
121.60073434429927
 20
-275.157736428623
  0
VERTEX
  8
1
 10
121.60073434429927
 20
-251.41473642862303
  0
VERTEX
  8
1
 10
121.60073434429927
 20
-249.7947147639623
  0
VERTEX
  8
1
 10
121.60073434429927
 20
-227.672736428623
  0
VERTEX
  8
1
 10
121.60073434429927
 20
-203.939736428623
  0
VERTEX
  8
1
 10
121.60073434429927
 20
-180.196736428623
  0
VERTEX
  8
1
 10
121.60073434429927
 20
-156.45373642862302
  0
VERTEX
  8
1
 10
121.60073434429927
 20
-127.05073642862301
  0
VERTEX
  8
1
 10
121.60073434429927
 20
-114.04073642862302
  0
VERTEX
  8
1
 10
121.60073434429927
 20
-114.04073642862302
  0
VERTEX
  8
1
 10
142.13573434429927
 20
-114.570736428623
  0
VERTEX
  8
1
 10
143.13541753191492
 20
-114.59590633920335
  0
SEQEND
  0
ENDBLK
  0
BLOCK
  2
2
  8
1
 10
0
 20
0
 70
64
  0
POLYLINE
  8
1
  62
3
10
0
 20
0
 66
1
  0
VERTEX
  8
1
 10
1233.8407343442993
 20
-111.130736428623
  0
VERTEX
  8
1
 10
1233.2631307835682
 20
-107.17265935425586
  0
SEQEND
  0
ENDBLK
  0
BLOCK
  2
3
  8
1
 10
0
 20
0
 70
64
  0
POLYLINE
  8
1
  62
3
10
0
 20
0
 66
1
  0
VERTEX
  8
1
 10
1233.8407343442993
 20
-111.130736428623
  0
VERTEX
  8
1
 10
1237.7988114186664
 20
-110.5531328678919
  0
SEQEND
  0
ENDBLK
  0
BLOCK
  2
4
  8
1
 10
0
 20
0
 70
64
  0
POLYLINE
  8
1
  62
3
10
0
 20
0
 66
1
  0
VERTEX
  8
1
 10
1256.0907343442993
 20
-263.600736428623
  0
VERTEX
  8
1
 10
1256.6683379050305
 20
-267.5588135029902
  0
SEQEND
  0
ENDBLK
  0
BLOCK
  2
5
  8
1
 10
0
 20
0
 70
64
  0
POLYLINE
  8
1
  62
3
10
0
 20
0
 66
1
  0
VERTEX
  8
1
 10
1256.0907343442993
 20
-263.600736428623
  0
VERTEX
  8
1
 10
1260.0488114186664
 20
-263.0231328678919
  0
SEQEND
  0
ENDBLK
  0
BLOCK
  2
6
  8
1
 10
0
 20
0
 70
64
  0
POLYLINE
  8
1
  62
3
10
0
 20
0
 66
1
  0
VERTEX
  8
1
 10
1086.0207343442992
 20
-210.560736428623
  0
VERTEX
  8
1
 10
1082.8135238099248
 20
-208.17038068350945
  0
SEQEND
  0
ENDBLK
  0
BLOCK
  2
7
  8
1
 10
0
 20
0
 70
64
  0
POLYLINE
  8
1
  62
3
10
0
 20
0
 66
1
  0
VERTEX
  8
1
 10
1086.0207343442992
 20
-210.560736428623
  0
VERTEX
  8
1
 10
1083.6303785991856
 20
-213.76794696299748
  0
SEQEND
  0
ENDBLK
  0
BLOCK
  2
8
  8
1
 10
0
 20
0
 70
64
  0
POLYLINE
  8
1
  62
3
10
0
 20
0
 66
1
  0
VERTEX
  8
1
 10
244.0561033442993
 20
-829.0731626721999
  0
VERTEX
  8
1
 10
264.59110334429926
 20
-828.5431626722
  0
VERTEX
  8
1
 10
273.7261033442993
 20
-828.3131626722
  0
VERTEX
  8
1
 10
273.67924720804797
 20
-825.3135286107691
  0
VERTEX
  8
1
 10
273.7261033442993
 20
-828.3131626722
  0
VERTEX
  8
1
 10
274.26747194997006
 20
-828.3920118196227
  0
VERTEX
  8
1
 10
285.1251033442993
 20
-828.6011626722
  0
VERTEX
  8
1
 10
305.6601033442993
 20
-829.1161626722
  0
VERTEX
  8
1
 10
326.18510334429925
 20
-829.6211626722
  0
VERTEX
  8
1
 10
346.72110334429925
 20
-830.1371626721999
  0
VERTEX
  8
1
 10
367.2561033442993
 20
-830.6521626721999
  0
VERTEX
  8
1
 10
387.7911033442993
 20
-831.1671626721999
  0
VERTEX
  8
1
 10
408.32610334429927
 20
-831.6831626722
  0
VERTEX
  8
1
 10
428.8611033442993
 20
-832.1881626721998
  0
VERTEX
  8
1
 10
449.3971033442993
 20
-832.7031626721999
  0
VERTEX
  8
1
 10
469.92210334429933
 20
-833.2181626721999
  0
VERTEX
  8
1
 10
490.4571033442993
 20
-833.7341626721999
  0
VERTEX
  8
1
 10
510.99210334429927
 20
-834.2491626721999
  0
VERTEX
  8
1
 10
531.5281033442992
 20
-834.7641626721999
  0
VERTEX
  8
1
 10
552.0631033442993
 20
-835.2701626722
  0
VERTEX
  8
1
 10
572.5981033442993
 20
-835.7851626721999
  0
VERTEX
  8
1
 10
593.1331033442992
 20
-836.3001626721999
  0
VERTEX
  8
1
 10
613.6591033442993
 20
-836.8151626721999
  0
VERTEX
  8
1
 10
633.6161033442993
 20
-837.3131626721998
  0
VERTEX
  8
1
 10
633.6914630482983
 20
-834.3141093357264
  0
VERTEX
  8
1
 10
633.6161033442993
 20
-837.3131626721998
  0
VERTEX
  8
1
 10
634.1941033442993
 20
-837.3311626721999
  0
VERTEX
  8
1
 10
639.5239683930532
 20
-837.464690698202
  0
VERTEX
  8
1
 10
654.7291033442992
 20
-837.8461626721999
  0
VERTEX
  8
1
 10
675.2641033442992
 20
-838.3611626721998
  0
VERTEX
  8
1
 10
695.7991033442993
 20
-838.8751626721998
  0
VERTEX
  8
1
 10
716.3351033442992
 20
-839.3901626721998
  0
VERTEX
  8
1
 10
736.8601033442993
 20
-839.9051626721999
  0
VERTEX
  8
1
 10
757.3951033442993
 20
-840.4201626721999
  0
VERTEX
  8
1
 10
777.9301033442993
 20
-840.9351626721999
  0
VERTEX
  8
1
 10
798.4661033442992
 20
-841.4491626721998
  0
VERTEX
  8
1
 10
817.1724434389622
 20
-842.3662036408333
  0
VERTEX
  8
1
 10
818.9671033442993
 20
-842.5451626721999
  0
VERTEX
  8
1
 10
833.6498810806078
 20
-843.8087099404744
  0
VERTEX
  8
1
 10
839.4221033442992
 20
-844.3511626721998
  0
VERTEX
  8
1
 10
850.4010650430024
 20
-845.3979207443525
  0
VERTEX
  8
1
 10
859.8651033442992
 20
-846.3751626721998
  0
VERTEX
  8
1
 10
867.1285606711826
 20
-847.128960764593
  0
VERTEX
  8
1
 10
880.2801033442993
 20
-848.6121626721998
  0
VERTEX
  8
1
 10
883.8515995705737
 20
-849.0166565761817
  0
VERTEX
  8
1
 10
900.5545271915099
 20
-851.0306165792325
  0
VERTEX
  8
1
 10
900.6781033442992
 20
-851.0461626721998
  0
VERTEX
  8
1
 10
917.2475378684545
 20
-853.1459181671842
  0
VERTEX
  8
1
 10
921.0501033442993
 20
-853.6581626721999
  0
VERTEX
  8
1
 10
933.9204751642375
 20
-855.4097204021073
  0
VERTEX
  8
1
 10
941.4011033442991
 20
-856.4871626721998
  0
VERTEX
  8
1
 10
950.5643404052005
 20
-857.8315972838521
  0
VERTEX
  8
1
 10
961.7061033442992
 20
-859.5681626721998
  0
VERTEX
  8
1
 10
964.9443995939579
 20
-860.0701811091026
  0
VERTEX
  8
1
 10
979.3145776450825
 20
-862.4379926985708
  0
VERTEX
  8
1
 10
981.9731033442993
 20
-862.9011626721998
  0
VERTEX
  8
1
 10
990.1361033442993
 20
-864.3231626721998
  0
VERTEX
  8
1
 10
990.6510736932835
 20
-861.3676922291626
  0
VERTEX
  8
1
 10
990.1361033442993
 20
-864.3231626721998
  0
VERTEX
  8
1
 10
993.6488569152352
 20
-864.9355822365177
  0
VERTEX
  8
1
 10
1001.2554725486335
 20
-866.3337499148971
  0
VERTEX
  8
1
 10
1002.1891033442993
 20
-866.5051626721998
  0
VERTEX
  8
1
 10
1007.9618322821991
 20
-867.5689049881822
  0
VERTEX
  8
1
 10
1022.2548551515356
 20
-870.3507748251737
  0
VERTEX
  8
1
 10
1022.3641033442992
 20
-870.3731626721998
  0
VERTEX
  8
1
 10
1036.4944795144252
 20
-873.2127426011441
  0
VERTEX
  8
1
 10
1042.4881033442994
 20
-874.5111626721998
  0
VERTEX
  8
1
 10
1062.5311033442993
 20
-878.9711626721997
  0
VERTEX
  8
1
 10
1065.0575635874684
 20
-879.5539541758956
  0
VERTEX
  8
1
 10
1082.5441033442994
 20
-883.5911626721999
  0
VERTEX
  8
1
 10
1091.864500706737
 20
-885.7176597450331
  0
VERTEX
  8
1
 10
1102.5851033442993
 20
-888.1221626721998
  0
VERTEX
  8
1
 10
1118.7593958270443
 20
-891.7169040696193
  0
VERTEX
  8
1
 10
1122.6371033442992
 20
-892.5541626721998
  0
VERTEX
  8
1
 10
1142.7091033442994
 20
-896.9081626721999
  0
VERTEX
  8
1
 10
1145.7044587567095
 20
-897.5612136896845
  0
VERTEX
  8
1
 10
1162.7981033442993
 20
-901.1861626721998
  0
VERTEX
  8
1
 10
1172.754960810619
 20
-903.230773738141
  0
VERTEX
  8
1
 10
1182.9351033442993
 20
-905.2391626721998
  0
VERTEX
  8
1
 10
1187.5487348305107
 20
-906.1461373191352
  0
VERTEX
  8
1
 10
1202.5394446505366
 20
-908.9301347930985
  0
VERTEX
  8
1
 10
1203.1251033442993
 20
-909.0331626721999
  0
VERTEX
  8
1
 10
1217.4155634435567
 20
-911.4985353334931
  0
VERTEX
  8
1
 10
1223.3741033442993
 20
-912.4591626721998
  0
VERTEX
  8
1
 10
1232.5075657182672
 20
-913.8701264397245
  0
VERTEX
  8
1
 10
1243.7011033442993
 20
-915.4161626721998
  0
VERTEX
  8
1
 10
1257.1546333104627
 20
-917.2750804173942
  0
VERTEX
  8
1
 10
1264.0591033442993
 20
-918.1331626721998
  0
VERTEX
  8
1
 10
1282.002504448216
 20
-920.3531636578397
  0
VERTEX
  8
1
 10
1284.4531033442993
 20
-920.6211626721998
  0
VERTEX
  8
1
 10
1304.8631033442994
 20
-922.8851626721998
  0
VERTEX
  8
1
 10
1306.6911679389368
 20
-923.0873321027432
  0
VERTEX
  8
1
 10
1325.3061033442993
 20
-924.8951626721997
  0
VERTEX
  8
1
 10
1331.7239953483297
 20
-925.5084986756546
  0
VERTEX
  8
1
 10
1335.5061033442992
 20
-925.8131626721998
  0
VERTEX
  8
1
 10
1335.743733945394
 20
-922.8225888648138
  0
VERTEX
  8
1
 10
1335.5061033442992
 20
-925.8131626721998
  0
VERTEX
  8
1
 10
1340.1391025434073
 20
-926.177161985721
  0
VERTEX
  8
1
 10
1345.7681033442993
 20
-926.6281626721998
  0
VERTEX
  8
1
 10
1351.5378003874334
 20
-927.0795054605682
  0
VERTEX
  8
1
 10
1366.2631033442992
 20
-927.9791626721998
  0
VERTEX
  8
1
 10
1371.6034983378943
 20
-928.2956540412326
  0
VERTEX
  8
1
 10
1391.6945002257823
 20
-929.1354197836024
  0
VERTEX
  8
1
 10
1401.4761033442992
 20
-929.3831626721998
  0
VERTEX
  8
1
 10
1404.1355953383609
 20
-916.5890417162734
  0
VERTEX
  8
1
 10
1406.8451033442993
 20
-903.5311626721998
  0
VERTEX
  8
1
 10
1411.7668230078998
 20
-879.8690661198211
  0
VERTEX
  8
1
 10
1412.2051033442992
 20
-877.6851626721998
  0
VERTEX
  8
1
 10
1415.6360749816442
 20
-860.4351055140647
  0
VERTEX
  8
1
 10
1417.2921033442994
 20
-851.7771626721998
  0
VERTEX
  8
1
 10
1419.4478742051867
 20
-840.4923062516142
  0
VERTEX
  8
1
 10
1422.1071033442995
 20
-825.8301626721998
  0
VERTEX
  8
1
 10
1423.1261033442995
 20
-820.1462117507657
  0
VERTEX
  8
1
 10
1426.5611033442995
 20
-799.8071626721998
  0
VERTEX
  8
1
 10
1426.6161033442995
 20
-799.4820744480187
  0
VERTEX
  8
1
 10
1429.8561033442993
 20
-778.6336390761381
  0
VERTEX
  8
1
 10
1430.5491033442995
 20
-773.7061626721998
  0
VERTEX
  8
1
 10
1432.7852781438394
 20
-757.5939913547674
  0
VERTEX
  8
1
 10
1434.0111033442995
 20
-747.5451626721998
  0
VERTEX
  8
1
 10
1435.1111274213717
 20
-738.37964260904
  0
VERTEX
  8
1
 10
1436.8981033442992
 20
-721.3051626721998
  0
VERTEX
  8
1
 10
1437.1053653133772
 20
-719.2909927732526
  0
VERTEX
  8
1
 10
1438.8157076636664
 20
-700.5738025280865
  0
VERTEX
  8
1
 10
1439.2661033442994
 20
-695.0071626721998
  0
VERTEX
  8
1
 10
1440.246597768027
 20
-682.6152806516519
  0
VERTEX
  8
1
 10
1441.1911033442993
 20
-668.6871626721997
  0
VERTEX
  8
1
 10
1442.9471033442994
 20
-642.3431626721998
  0
VERTEX
  8
1
 10
1444.4453032640731
 20
-619.8229862130851
  0
VERTEX
  8
1
 10
1445.4561033442994
 20
-604.5731626721998
  0
VERTEX
  8
1
 10
1440.1201033442994
 20
-602.8161626721998
  0
VERTEX
  8
1
 10
1434.7731033442992
 20
-601.0581626721997
  0
VERTEX
  8
1
 10
1429.4371033442994
 20
-599.3011626721998
  0
VERTEX
  8
1
 10
1424.1001033442992
 20
-597.5441626721998
  0
VERTEX
  8
1
 10
1418.7541033442994
 20
-595.7871626721998
  0
VERTEX
  8
1
 10
1413.4181033442994
 20
-594.0291626721997
  0
VERTEX
  8
1
 10
1408.0811033442992
 20
-592.2721626721998
  0
VERTEX
  8
1
 10
1402.7351033442994
 20
-590.5051626721998
  0
VERTEX
  8
1
 10
1397.3981033442992
 20
-588.7481626721998
  0
VERTEX
  8
1
 10
1392.0621033442994
 20
-586.9901626721997
  0
VERTEX
  8
1
 10
1386.7161033442994
 20
-585.2331626721998
  0
VERTEX
  8
1
 10
1381.3791033442992
 20
-583.4761626721998
  0
VERTEX
  8
1
 10
1376.0431033442994
 20
-581.7191626721998
  0
VERTEX
  8
1
 10
1370.6961033442994
 20
-579.9611626721997
  0
VERTEX
  8
1
 10
1365.3601033442992
 20
-578.2041626721998
  0
VERTEX
  8
1
 10
1360.0231033442994
 20
-576.4471626721999
  0
VERTEX
  8
1
 10
1354.6871033442992
 20
-574.6901626721998
  0
VERTEX
  8
1
 10
1349.3411033442994
 20
-572.9321626721998
  0
VERTEX
  8
1
 10
1344.0041033442994
 20
-571.1751626721998
  0
VERTEX
  8
1
 10
1338.6681033442992
 20
-569.4181626721999
  0
VERTEX
  8
1
 10
1333.3211033442994
 20
-567.6601626721998
  0
VERTEX
  8
1
 10
1327.9851033442992
 20
-565.8931626721998
  0
VERTEX
  8
1
 10
1322.6491033442994
 20
-564.1361626721998
  0
VERTEX
  8
1
 10
1317.3021033442994
 20
-562.3791626721999
  0
VERTEX
  8
1
 10
1311.9661033442992
 20
-560.6211626721998
  0
VERTEX
  8
1
 10
1306.6291033442994
 20
-558.8641626721998
  0
VERTEX
  8
1
 10
1301.2831033442994
 20
-557.1071626721998
  0
VERTEX
  8
1
 10
1295.9471033442992
 20
-555.3501626721998
  0
VERTEX
  8
1
 10
1290.6101033442994
 20
-553.5921626721998
  0
VERTEX
  8
1
 10
1285.2641033442992
 20
-551.8351626721998
  0
VERTEX
  8
1
 10
1279.9271033442994
 20
-550.0781626721998
  0
VERTEX
  8
1
 10
1274.5911033442994
 20
-548.3211626721998
  0
VERTEX
  8
1
 10
1269.2451033442994
 20
-546.5631626721998
  0
VERTEX
  8
1
 10
1263.9081033442994
 20
-544.8061626721998
  0
VERTEX
  8
1
 10
1258.5721033442992
 20
-543.0491626721998
  0
VERTEX
  8
1
 10
1253.2551033442992
 20
-541.2021626721998
  0
VERTEX
  8
1
 10
1250.3995206986613
 20
-539.9544818353816
  0
VERTEX
  8
1
 10
1249.471792389473
 20
-539.5610593554865
  0
VERTEX
  8
1
 10
1248.5440640802844
 20
-539.1676368755913
  0
VERTEX
  8
1
 10
1248.1091033442992
 20
-538.9611626721997
  0
VERTEX
  8
1
 10
1245.395562276081
 20
-537.5858835671238
  0
VERTEX
  8
1
 10
1243.1641033442993
 20
-536.2941626721998
  0
VERTEX
  8
1
 10
1242.4484949928644
 20
-535.8895230028836
  0
VERTEX
  8
1
 10
1239.585723011762
 20
-534.0438560926474
  0
VERTEX
  8
1
 10
1238.4601033442993
 20
-533.2201626721998
  0
VERTEX
  8
1
 10
1236.83324443528
 20
-532.058155460371
  0
VERTEX
  8
1
 10
1234.1702378916816
 20
-529.9200454073438
  0
VERTEX
  8
1
 10
1234.0261033442994
 20
-529.7891626721998
  0
VERTEX
  8
1
 10
1231.620440312101
 20
-527.6733061820453
  0
VERTEX
  8
1
 10
1229.9051033442993
 20
-525.9771626721998
  0
VERTEX
  8
1
 10
1229.1926225874963
 20
-525.2897254487834
  0
VERTEX
  8
1
 10
1228.0350069471058
 20
-524.0405589722538
  0
VERTEX
  8
1
 10
1226.7301915272365
 20
-522.6377508082911
  0
VERTEX
  8
1
 10
1226.0841033442994
 20
-521.8611626722
  0
VERTEX
  8
1
 10
1224.27582253898
 20
-519.7026853031568
  0
VERTEX
  8
1
 10
1222.5951033442993
 20
-517.4611626721999
  0
VERTEX
  8
1
 10
1221.9760020888798
 20
-516.6430107890707
  0
VERTEX
  8
1
 10
1219.82594534733
 20
-513.4679256767458
  0
VERTEX
  8
1
 10
1219.4311033442993
 20
-512.8141626721999
  0
VERTEX
  8
1
 10
1217.8351783517394
 20
-510.2205569115539
  0
VERTEX
  8
1
 10
1216.6111033442994
 20
-507.95916267219985
  0
VERTEX
  8
1
 10
1216.0007034179644
 20
-506.8455075759911
  0
VERTEX
  8
1
 10
1214.4348028969753
 20
-503.60319669220945
  0
VERTEX
  8
1
 10
1214.1641033442993
 20
-502.90316267219987
  0
VERTEX
  8
1
 10
1212.1021033442994
 20
-497.6791626721999
  0
VERTEX
  8
1
 10
1212.0861033442993
 20
-497.6331626721999
  0
VERTEX
  8
1
 10
1210.1571033442992
 20
-492.4051626721999
  0
VERTEX
  8
1
 10
1208.1611033442994
 20
-487.1521626721999
  0
VERTEX
  8
1
 10
1206.1651033442993
 20
-481.8881626721999
  0
VERTEX
  8
1
 10
1204.1701033442994
 20
-476.6351626721999
  0
VERTEX
  8
1
 10
1202.1741033442993
 20
-471.3811626721999
  0
VERTEX
  8
1
 10
1200.1891033442994
 20
-466.12816267219984
  0
VERTEX
  8
1
 10
1198.8519418988867
 20
-462.6021116068676
  0
VERTEX
  8
1
 10
1198.1931033442993
 20
-460.8641626721999
  0
VERTEX
  8
1
 10
1196.1971033442992
 20
-455.6111626721999
  0
VERTEX
  8
1
 10
1193.3861033442993
 20
-448.22316267219986
  0
VERTEX
  8
1
 10
1188.9381033442992
 20
-450.5001626721999
  0
VERTEX
  8
1
 10
1184.4801033442993
 20
-452.76716267219985
  0
VERTEX
  8
1
 10
1180.0311033442993
 20
-455.0441626721999
  0
VERTEX
  8
1
 10
1178.9894731775253
 20
-455.57457630529785
  0
VERTEX
  8
1
 10
1175.5741033442994
 20
-457.31416267219987
  0
VERTEX
  8
1
 10
1171.1271033442993
 20
-459.59316267219987
  0
VERTEX
  8
1
 10
1166.6701033442994
 20
-461.86316267219985
  0
VERTEX
  8
1
 10
1165.9570417229245
 20
-462.2382607184698
  0
VERTEX
  8
1
 10
1162.2161033442994
 20
-464.1301626721999
  0
VERTEX
  8
1
 10
1157.7261033442992
 20
-466.32516267219984
  0
VERTEX
  8
1
 10
1153.2361033442992
 20
-468.5301626721999
  0
VERTEX
  8
1
 10
1152.9348789009016
 20
-468.6827389138508
  0
VERTEX
  8
1
 10
1148.7461033442992
 20
-470.72316267219986
  0
VERTEX
  8
1
 10
1144.2241033442992
 20
-472.87216267219986
  0
VERTEX
  8
1
 10
1139.8136322169748
 20
-474.9572319666212
  0
VERTEX
  8
1
 10
1139.7011033442993
 20
-475.0081626721999
  0
VERTEX
  8
1
 10
1135.1791033442994
 20
-477.13216267219985
  0
VERTEX
  8
1
 10
1130.6471033442992
 20
-479.24516267219985
  0
VERTEX
  8
1
 10
1126.6342511958553
 20
-481.0647175159342
  0
VERTEX
  8
1
 10
1126.0911033442994
 20
-481.30016267219986
  0
VERTEX
  8
1
 10
1121.5291033442993
 20
-483.35516267219987
  0
VERTEX
  8
1
 10
1116.9771033442994
 20
-485.4101626721999
  0
VERTEX
  8
1
 10
1113.7731862985706
 20
-486.82236628722916
  0
VERTEX
  8
1
 10
1112.3961033442993
 20
-487.40116267219986
  0
VERTEX
  8
1
 10
1107.8051033442991
 20
-489.3851626721999
  0
VERTEX
  8
1
 10
1103.2131033442993
 20
-491.3591626721999
  0
VERTEX
  8
1
 10
1100.828432502908
 20
-492.3945678583751
  0
VERTEX
  8
1
 10
1098.6091033442992
 20
-493.31516267219985
  0
VERTEX
  8
1
 10
1093.9801033442993
 20
-495.21016267219983
  0
VERTEX
  8
1
 10
1089.3611033442992
 20
-497.1161626721999
  0
VERTEX
  8
1
 10
1087.800136966857
 20
-497.77510193466816
  0
VERTEX
  8
1
 10
1084.7361033442992
 20
-499.0101626721999
  0
VERTEX
  8
1
 10
1080.0821033442992
 20
-500.8371626721999
  0
VERTEX
  8
1
 10
1075.4291033442994
 20
-502.66516267219987
  0
VERTEX
  8
1
 10
1074.8849951706209
 20
-502.9045611077452
  0
VERTEX
  8
1
 10
1070.7661033442992
 20
-504.4901626721999
  0
VERTEX
  8
1
 10
1066.0951033442993
 20
-506.26716267219985
  0
VERTEX
  8
1
 10
1061.4141033442993
 20
-508.01416267219986
  0
VERTEX
  8
1
 10
1060.98187378409
 20
-508.1841846832884
  0
VERTEX
  8
1
 10
1056.7341033442992
 20
-509.7631626721999
  0
VERTEX
  8
1
 10
1052.0111033442993
 20
-511.4041626721999
  0
VERTEX
  8
1
 10
1047.1981033442992
 20
-512.7551626722
  0
VERTEX
  8
1
 10
1046.6814811937002
 20
-512.9068252095644
  0
VERTEX
  8
1
 10
1042.3781033442992
 20
-514.0921626722
  0
VERTEX
  8
1
 10
1037.5651033442994
 20
-515.4291626721999
  0
VERTEX
  8
1
 10
1032.7231033442993
 20
-516.6871626722
  0
VERTEX
  8
1
 10
1032.132229983566
 20
-516.8513452128263
  0
VERTEX
  8
1
 10
1027.8841033442993
 20
-517.9471626722
  0
VERTEX
  8
1
 10
1023.0421033442992
 20
-519.2061626722
  0
VERTEX
  8
1
 10
1018.1901033442992
 20
-520.3751626721998
  0
VERTEX
  8
1
 10
1017.5315322269449
 20
-520.5443787474117
  0
VERTEX
  8
1
 10
1013.3241033442993
 20
-521.5511626722
  0
VERTEX
  8
1
 10
1008.4661033442992
 20
-522.7171626721998
  0
VERTEX
  8
1
 10
1003.5871033442993
 20
-523.8221626721999
  0
VERTEX
  8
1
 10
1002.8521413610966
 20
-523.9963717645857
  0
VERTEX
  8
1
 10
998.7051033442992
 20
-524.9011626721998
  0
VERTEX
  8
1
 10
993.8301033442992
 20
-525.9971626721998
  0
VERTEX
  8
1
 10
988.9361033442992
 20
-527.0221626721999
  0
VERTEX
  8
1
 10
988.1227636150069
 20
-527.1997941610917
  0
VERTEX
  8
1
 10
984.0401033442993
 20
-528.0171626721998
  0
VERTEX
  8
1
 10
979.1411033442992
 20
-529.0171626721998
  0
VERTEX
  8
1
 10
974.2321033442993
 20
-529.9671626721998
  0
VERTEX
  8
1
 10
973.3514847332274
 20
-530.1444199873146
  0
VERTEX
  8
1
 10
969.3131033442993
 20
-530.8851626721998
  0
VERTEX
  8
1
 10
964.4021033442992
 20
-531.7981626721999
  0
VERTEX
  8
1
 10
959.4811033442992
 20
-532.6711626721998
  0
VERTEX
  8
1
 10
958.5120096404321
 20
-532.8464755105086
  0
VERTEX
  8
1
 10
954.5511033442992
 20
-533.4991626721999
  0
VERTEX
  8
1
 10
949.6201033442993
 20
-534.3221626721999
  0
VERTEX
  8
1
 10
944.6781033442992
 20
-535.1351626721998
  0
VERTEX
  8
1
 10
940.0249402609246
 20
-535.8250210885768
  0
VERTEX
  8
1
 10
939.7371033442993
 20
-535.8631626721998
  0
VERTEX
  8
1
 10
934.7871033442992
 20
-536.6061626721998
  0
VERTEX
  8
1
 10
929.8481033442993
 20
-537.3391626721999
  0
VERTEX
  8
1
 10
924.8891033442993
 20
-537.9821626721998
  0
VERTEX
  8
1
 10
921.4630111674578
 20
-538.4467800195767
  0
VERTEX
  8
1
 10
919.9271033442992
 20
-538.6321626721998
  0
VERTEX
  8
1
 10
914.9711033442992
 20
-539.2831626721999
  0
VERTEX
  8
1
 10
910.0041033442992
 20
-539.8341626721998
  0
VERTEX
  8
1
 10
905.0381033442992
 20
-540.3851626721998
  0
VERTEX
  8
1
 10
902.8604877547375
 20
-540.6445444183363
  0
VERTEX
  8
1
 10
900.0681033442992
 20
-540.9371626721999
  0
VERTEX
  8
1
 10
895.0861033442992
 20
-541.4091626721998
  0
VERTEX
  8
1
 10
890.1141033442992
 20
-541.8701626721999
  0
VERTEX
  8
1
 10
885.1321033442993
 20
-542.3311626721999
  0
VERTEX
  8
1
 10
884.1961033442992
 20
-542.4125563057659
  0
VERTEX
  8
1
 10
880.1461033442993
 20
-542.7041626721999
  0
VERTEX
  8
1
 10
875.1581033442992
 20
-543.0641626721998
  0
VERTEX
  8
1
 10
870.1711033442992
 20
-543.4331626721998
  0
VERTEX
  8
1
 10
865.5061033442992
 20
-543.7044528828997
  0
VERTEX
  8
1
 10
865.1841033442992
 20
-543.7181626721998
  0
VERTEX
  8
1
 10
860.1931033442992
 20
-543.9961626721998
  0
VERTEX
  8
1
 10
858.5761033442992
 20
-544.0861220810018
  0
VERTEX
  8
1
 10
858.2261033442992
 20
-544.1031626721999
  0
VERTEX
  8
1
 10
858.3921559686048
 20
-547.0985635679
  0
VERTEX
  8
1
 10
858.2261033442992
 20
-544.1031626721999
  0
VERTEX
  8
1
 10
855.2021033442992
 20
-544.2731626721999
  0
VERTEX
  8
1
 10
850.2001033442992
 20
-544.4711626721999
  0
VERTEX
  8
1
 10
846.7861033442992
 20
-544.6057962759071
  0
VERTEX
  8
1
 10
845.2091033442993
 20
-544.6461626721999
  0
VERTEX
  8
1
 10
840.2151033442992
 20
-544.8341626721998
  0
VERTEX
  8
1
 10
835.2111033442992
 20
-544.9331626721998
  0
VERTEX
  8
1
 10
830.2171033442992
 20
-545.0211626721999
  0
VERTEX
  8
1
 10
828.0718160820542
 20
-545.0803008854649
  0
VERTEX
  8
1
 10
825.2121033442993
 20
-545.1121626721998
  0
VERTEX
  8
1
 10
820.2161033442992
 20
-545.1271626721999
  0
VERTEX
  8
1
 10
815.2201033442992
 20
-545.1221626721998
  0
VERTEX
  8
1
 10
810.2131033442993
 20
-545.1271626721999
  0
VERTEX
  8
1
 10
809.2461033442993
 20
-545.1450985926238
  0
VERTEX
  8
1
 10
805.2181033442993
 20
-545.2221626721998
  0
VERTEX
  8
1
 10
800.2221033442993
 20
-545.3391626721999
  0
VERTEX
  8
1
 10
795.2261033442993
 20
-545.4651626721999
  0
VERTEX
  8
1
 10
790.2191033442992
 20
-545.5911626721999
  0
VERTEX
  8
1
 10
785.2231033442993
 20
-545.7071626721998
  0
VERTEX
  8
1
 10
780.2271033442993
 20
-545.8331626721998
  0
VERTEX
  8
1
 10
775.2311033442993
 20
-545.9591626721998
  0
VERTEX
  8
1
 10
770.2351033442992
 20
-546.0751626721999
  0
VERTEX
  8
1
 10
765.2291033442992
 20
-546.2011626721999
  0
VERTEX
  8
1
 10
760.2331033442993
 20
-546.3271626721998
  0
VERTEX
  8
1
 10
755.2371033442993
 20
-546.4531626721999
  0
VERTEX
  8
1
 10
750.2411033442993
 20
-546.5701626721999
  0
VERTEX
  8
1
 10
745.2451033442992
 20
-546.6961626721999
  0
VERTEX
  8
1
 10
740.2391033442992
 20
-546.8221626721999
  0
VERTEX
  8
1
 10
735.2431033442992
 20
-546.9381626721998
  0
VERTEX
  8
1
 10
730.2471033442993
 20
-547.0641626721998
  0
VERTEX
  8
1
 10
725.2511033442993
 20
-547.1901626721999
  0
VERTEX
  8
1
 10
720.2551033442993
 20
-547.3061626721999
  0
VERTEX
  8
1
 10
715.2491033442992
 20
-547.4321626721999
  0
VERTEX
  8
1
 10
710.2531033442992
 20
-547.5581626721998
  0
VERTEX
  8
1
 10
705.2571033442993
 20
-547.6741626721999
  0
VERTEX
  8
1
 10
700.2611033442993
 20
-547.8011626721999
  0
VERTEX
  8
1
 10
695.2651033442993
 20
-547.9271626721999
  0
VERTEX
  8
1
 10
690.2591033442993
 20
-548.0531626721998
  0
VERTEX
  8
1
 10
685.2631033442992
 20
-548.1691626721998
  0
VERTEX
  8
1
 10
680.2671033442992
 20
-548.2951626721999
  0
VERTEX
  8
1
 10
675.2711033442993
 20
-548.4211626721999
  0
VERTEX
  8
1
 10
670.2751033442993
 20
-548.5371626721999
  0
VERTEX
  8
1
 10
665.2691033442993
 20
-548.6631626721999
  0
VERTEX
  8
1
 10
660.2731033442993
 20
-548.7891626721998
  0
VERTEX
  8
1
 10
655.2771033442992
 20
-548.9051626721999
  0
VERTEX
  8
1
 10
650.2811033442993
 20
-549.0311626721999
  0
VERTEX
  8
1
 10
645.2751033442993
 20
-549.1581626721999
  0
VERTEX
  8
1
 10
640.2781033442993
 20
-549.2841626721998
  0
VERTEX
  8
1
 10
635.2821033442992
 20
-549.4001626721998
  0
VERTEX
  8
1
 10
630.2861033442992
 20
-549.5261626721999
  0
VERTEX
  8
1
 10
625.2901033442993
 20
-549.6521626721999
  0
VERTEX
  8
1
 10
620.2841033442992
 20
-549.7681626721999
  0
VERTEX
  8
1
 10
615.2881033442992
 20
-549.8941626721999
  0
VERTEX
  8
1
 10
610.2921033442992
 20
-550.0201626722
  0
VERTEX
  8
1
 10
605.2961033442992
 20
-550.1361626721999
  0
VERTEX
  8
1
 10
600.3001033442993
 20
-550.2621626721999
  0
VERTEX
  8
1
 10
595.2941033442993
 20
-550.3891626721999
  0
VERTEX
  8
1
 10
590.2981033442992
 20
-550.5151626721998
  0
VERTEX
  8
1
 10
585.3021033442992
 20
-550.6311626721999
  0
VERTEX
  8
1
 10
580.3061033442992
 20
-550.7571626721999
  0
VERTEX
  8
1
 10
575.3101033442993
 20
-550.8831626721999
  0
VERTEX
  8
1
 10
570.3041033442993
 20
-550.9991626721999
  0
VERTEX
  8
1
 10
568.9161033442992
 20
-551.0342755772939
  0
VERTEX
  8
1
 10
568.6461033442993
 20
-551.0431626721999
  0
VERTEX
  8
1
 10
568.7216506880231
 20
-554.0422112878206
  0
VERTEX
  8
1
 10
568.6461033442993
 20
-551.0431626721999
  0
VERTEX
  8
1
 10
565.3081033442993
 20
-551.1251626721998
  0
VERTEX
  8
1
 10
560.3121033442992
 20
-551.2511626721999
  0
VERTEX
  8
1
 10
555.3161033442992
 20
-551.3671626721999
  0
VERTEX
  8
1
 10
550.3201033442992
 20
-551.4931626721999
  0
VERTEX
  8
1
 10
545.3141033442993
 20
-551.6191626721999
  0
VERTEX
  8
1
 10
540.3181033442993
 20
-551.7451626721999
  0
VERTEX
  8
1
 10
535.3221033442993
 20
-551.8611626721998
  0
VERTEX
  8
1
 10
530.3261033442992
 20
-551.9871626721999
  0
VERTEX
  8
1
 10
525.3301033442992
 20
-552.1131626721999
  0
VERTEX
  8
1
 10
520.3241033442993
 20
-552.2391626721999
  0
VERTEX
  8
1
 10
515.3281033442993
 20
-552.3551626721999
  0
VERTEX
  8
1
 10
510.3321033442993
 20
-552.4811626722
  0
VERTEX
  8
1
 10
505.3361033442993
 20
-552.6071626721999
  0
VERTEX
  8
1
 10
500.3401033442992
 20
-552.7331626721999
  0
VERTEX
  8
1
 10
495.33410334429925
 20
-552.8491626721999
  0
VERTEX
  8
1
 10
490.33710334429924
 20
-552.9751626721999
  0
VERTEX
  8
1
 10
485.3411033442992
 20
-553.1001626721999
  0
VERTEX
  8
1
 10
480.3451033442992
 20
-553.2261626721998
  0
VERTEX
  8
1
 10
475.33910334429925
 20
-553.3421626722
  0
VERTEX
  8
1
 10
470.34310334429927
 20
-553.4681626721999
  0
VERTEX
  8
1
 10
465.3471033442992
 20
-553.5941626721999
  0
VERTEX
  8
1
 10
460.35110334429925
 20
-553.7101626721999
  0
VERTEX
  8
1
 10
455.3551033442992
 20
-553.8361626721999
  0
VERTEX
  8
1
 10
450.34910334429924
 20
-553.9621626722
  0
VERTEX
  8
1
 10
445.35310334429926
 20
-554.0881626721999
  0
VERTEX
  8
1
 10
440.3571033442993
 20
-554.2041626721999
  0
VERTEX
  8
1
 10
435.36110334429924
 20
-554.3301626721999
  0
VERTEX
  8
1
 10
430.36510334429926
 20
-554.4561626721999
  0
VERTEX
  8
1
 10
425.3591033442992
 20
-554.5821626722
  0
VERTEX
  8
1
 10
420.36310334429925
 20
-554.6981626721999
  0
VERTEX
  8
1
 10
415.36710334429927
 20
-554.8241626721999
  0
VERTEX
  8
1
 10
410.37110334429923
 20
-554.9501626721999
  0
VERTEX
  8
1
 10
405.3751033442992
 20
-555.0761626721999
  0
VERTEX
  8
1
 10
400.3691033442992
 20
-555.1921626722
  0
VERTEX
  8
1
 10
395.37310334429924
 20
-555.3181626722
  0
VERTEX
  8
1
 10
390.37710334429926
 20
-555.4441626721999
  0
VERTEX
  8
1
 10
385.3811033442992
 20
-555.5601626721999
  0
VERTEX
  8
1
 10
380.38510334429924
 20
-555.6861626721999
  0
VERTEX
  8
1
 10
375.37910334429927
 20
-555.8121626721999
  0
VERTEX
  8
1
 10
370.38310334429923
 20
-555.9381626722
  0
VERTEX
  8
1
 10
365.38710334429925
 20
-556.0541626721999
  0
VERTEX
  8
1
 10
360.39110334429927
 20
-556.1801626721999
  0
VERTEX
  8
1
 10
355.39510334429923
 20
-556.3061626721999
  0
VERTEX
  8
1
 10
350.3881033442992
 20
-556.4311626721999
  0
VERTEX
  8
1
 10
345.39210334429924
 20
-556.5471626721999
  0
VERTEX
  8
1
 10
340.39610334429926
 20
-556.6731626722
  0
VERTEX
  8
1
 10
335.4001033442993
 20
-556.7991626721999
  0
VERTEX
  8
1
 10
330.40410334429924
 20
-556.9251626721999
  0
VERTEX
  8
1
 10
325.3981033442992
 20
-557.0411626721999
  0
VERTEX
  8
1
 10
320.40210334429923
 20
-557.1671626721999
  0
VERTEX
  8
1
 10
315.40610334429925
 20
-557.2931626721999
  0
VERTEX
  8
1
 10
310.4101033442993
 20
-557.4091626722
  0
VERTEX
  8
1
 10
305.41410334429924
 20
-557.5351626721999
  0
VERTEX
  8
1
 10
300.40810334429926
 20
-557.6611626721999
  0
VERTEX
  8
1
 10
295.4121033442992
 20
-557.7871626722
  0
VERTEX
  8
1
 10
290.41610334429924
 20
-557.9031626722
  0
VERTEX
  8
1
 10
285.42010334429926
 20
-558.0291626722
  0
VERTEX
  8
1
 10
280.41410334429924
 20
-558.1551626721999
  0
VERTEX
  8
1
 10
275.41810334429925
 20
-558.2811626721999
  0
VERTEX
  8
1
 10
274.1361033442993
 20
-558.2954661161525
  0
VERTEX
  8
1
 10
274.02610334429926
 20
-558.2931626722
  0
VERTEX
  8
1
 10
273.95721727590217
 20
-561.2923716861869
  0
VERTEX
  8
1
 10
274.02610334429926
 20
-558.2931626722
  0
VERTEX
  8
1
 10
270.4221033442993
 20
-558.2101626721999
  0
VERTEX
  8
1
 10
265.42610334429924
 20
-558.0851626721999
  0
VERTEX
  8
1
 10
260.43010334429925
 20
-557.9611626722
  0
VERTEX
  8
1
 10
255.42410334429925
 20
-557.8361626722
  0
VERTEX
  8
1
 10
250.42810334429925
 20
-557.7211626722
  0
VERTEX
  8
1
 10
244.05610334429926
 20
-557.5631626722
  0
VERTEX
  8
1
 10
244.05610334429926
 20
-570.5631626722
  0
VERTEX
  8
1
 10
244.05610334429926
 20
-596.7381626721999
  0
VERTEX
  8
1
 10
244.05610334429926
 20
-620.4801626722
  0
VERTEX
  8
1
 10
244.05610334429926
 20
-644.2131626721999
  0
VERTEX
  8
1
 10
244.05610334429926
 20
-667.9561626722
  0
VERTEX
  8
1
 10
244.05610334429926
 20
-691.6991626721999
  0
VERTEX
  8
1
 10
244.05610334429926
 20
-693.3191843368606
  0
VERTEX
  8
1
 10
244.05610334429926
 20
-715.4411626721999
  0
VERTEX
  8
1
 10
244.05610334429926
 20
-739.1741626721999
  0
VERTEX
  8
1
 10
244.05610334429926
 20
-762.9171626721999
  0
VERTEX
  8
1
 10
244.05610334429926
 20
-786.6601626721999
  0
VERTEX
  8
1
 10
244.0561033442993
 20
-816.0631626722
  0
VERTEX
  8
1
 10
244.0561033442993
 20
-829.0731626721999
  0
VERTEX
  8
1
 10
244.0561033442993
 20
-829.0731626721999
  0
VERTEX
  8
1
 10
264.59110334429926
 20
-828.5431626722
  0
VERTEX
  8
1
 10
265.59078653191494
 20
-828.5179927616196
  0
SEQEND
  0
ENDBLK
  0
BLOCK
  2
9
  8
1
 10
0
 20
0
 70
64
  0
POLYLINE
  8
1
  62
3
10
0
 20
0
 66
1
  0
VERTEX
  8
1
 10
1378.5461033442994
 20
-679.5131626721998
  0
VERTEX
  8
1
 10
1379.1237069050305
 20
-675.5550855978327
  0
SEQEND
  0
ENDBLK
  0
BLOCK
  2
10
  8
1
 10
0
 20
0
 70
64
  0
POLYLINE
  8
1
  62
3
10
0
 20
0
 66
1
  0
VERTEX
  8
1
 10
1378.5461033442994
 20
-679.5131626721998
  0
VERTEX
  8
1
 10
1382.5041804186665
 20
-680.0907662329308
  0
SEQEND
  0
ENDBLK
  0
BLOCK
  2
11
  8
1
 10
0
 20
0
 70
64
  0
POLYLINE
  8
1
  62
3
10
0
 20
0
 66
1
  0
VERTEX
  8
1
 10
1356.2961033442994
 20
-831.9831626721998
  0
VERTEX
  8
1
 10
1355.7184997835682
 20
-835.9412397465669
  0
SEQEND
  0
ENDBLK
  0
BLOCK
  2
12
  8
1
 10
0
 20
0
 70
64
  0
POLYLINE
  8
1
  62
3
10
0
 20
0
 66
1
  0
VERTEX
  8
1
 10
1356.2961033442994
 20
-831.9831626721998
  0
VERTEX
  8
1
 10
1360.2541804186665
 20
-832.5607662329309
  0
SEQEND
  0
ENDBLK
  0
BLOCK
  2
13
  8
1
 10
0
 20
0
 70
64
  0
POLYLINE
  8
1
  62
3
10
0
 20
0
 66
1
  0
VERTEX
  8
1
 10
1208.4761033442992
 20
-732.5531626721998
  0
VERTEX
  8
1
 10
1206.0857475991857
 20
-729.3459521378253
  0
SEQEND
  0
ENDBLK
  0
BLOCK
  2
14
  8
1
 10
0
 20
0
 70
64
  0
POLYLINE
  8
1
  62
3
10
0
 20
0
 66
1
  0
VERTEX
  8
1
 10
1208.4761033442992
 20
-732.5531626721998
  0
VERTEX
  8
1
 10
1205.2688928099249
 20
-734.9435184173134
  0
SEQEND
  0
ENDBLK
  0
BLOCK
  2
15
  8
1
 10
0
 20
0
 70
64
  0
POLYLINE
  8
1
  62
3
10
0
 20
0
 66
1
  0
VERTEX
  8
1
 10
1323.9442408999712
 20
-1162.2034152677682
  0
VERTEX
  8
1
 10
1323.9442408999712
 20
-1137.675415267768
  0
VERTEX
  8
1
 10
1323.9442408999712
 20
-1113.147415267768
  0
VERTEX
  8
1
 10
1323.9442408999712
 20
-1088.619415267768
  0
VERTEX
  8
1
 10
1323.9442408999712
 20
-1064.091415267768
  0
VERTEX
  8
1
 10
1323.9442408999712
 20
-1046.5665094422598
  0
VERTEX
  8
1
 10
1323.9442408999712
 20
-1039.553415267768
  0
VERTEX
  8
1
 10
1323.9442408999712
 20
-1015.024415267768
  0
VERTEX
  8
1
 10
1323.9442408999712
 20
-990.4964152677679
  0
VERTEX
  8
1
 10
1323.9442408999712
 20
-965.9684152677679
  0
VERTEX
  8
1
 10
1323.9442408999712
 20
-943.9634152677679
  0
VERTEX
  8
1
 10
1323.9442408999712
 20
-930.9534152677679
  0
VERTEX
  8
1
 10
1318.939240899971
 20
-931.077415267768
  0
VERTEX
  8
1
 10
1313.9442408999712
 20
-931.2004152677679
  0
VERTEX
  8
1
 10
1308.938240899971
 20
-931.3244152677679
  0
VERTEX
  8
1
 10
1303.9432408999712
 20
-931.4484152677679
  0
VERTEX
  8
1
 10
1298.938240899971
 20
-931.581415267768
  0
VERTEX
  8
1
 10
1294.0544830159793
 20
-931.6829310357515
  0
VERTEX
  8
1
 10
1294.1144111154283
 20
-934.6823324131761
  0
VERTEX
  8
1
 10
1294.0544830159793
 20
-931.6829310357515
  0
VERTEX
  8
1
 10
1293.9332408999712
 20
-931.6814152677679
  0
VERTEX
  8
1
 10
1293.9642408999712
 20
-931.6834152677679
  0
VERTEX
  8
1
 10
1288.938240899971
 20
-931.5664152677679
  0
VERTEX
  8
1
 10
1283.932240899971
 20
-931.4414152677679
  0
VERTEX
  8
1
 10
1278.9372408999711
 20
-931.3164152677679
  0
VERTEX
  8
1
 10
1273.932240899971
 20
-931.2014152677679
  0
VERTEX
  8
1
 10
1268.9272408999711
 20
-931.0764152677679
  0
VERTEX
  8
1
 10
1263.932240899971
 20
-930.952415267768
  0
VERTEX
  8
1
 10
1258.9272408999711
 20
-930.8274152677678
  0
VERTEX
  8
1
 10
1253.921240899971
 20
-930.7124152677679
  0
VERTEX
  8
1
 10
1248.9262408999712
 20
-930.5874152677679
  0
VERTEX
  8
1
 10
1243.921240899971
 20
-930.4624152677679
  0
VERTEX
  8
1
 10
1238.9262408999712
 20
-930.3374152677679
  0
VERTEX
  8
1
 10
1233.921240899971
 20
-930.2224152677679
  0
VERTEX
  8
1
 10
1228.9152408999712
 20
-930.0974152677679
  0
VERTEX
  8
1
 10
1223.920240899971
 20
-929.9724152677679
  0
VERTEX
  8
1
 10
1218.9152408999712
 20
-929.8574152677679
  0
VERTEX
  8
1
 10
1213.920240899971
 20
-929.7334152677679
  0
VERTEX
  8
1
 10
1208.9152408999712
 20
-929.6084152677679
  0
VERTEX
  8
1
 10
1203.910240899971
 20
-929.4834152677679
  0
VERTEX
  8
1
 10
1198.9142408999712
 20
-929.3684152677679
  0
VERTEX
  8
1
 10
1193.909240899971
 20
-929.2434152677679
  0
VERTEX
  8
1
 10
1188.9042408999712
 20
-929.1184152677679
  0
VERTEX
  8
1
 10
1183.909240899971
 20
-929.0034152677679
  0
VERTEX
  8
1
 10
1178.9042408999712
 20
-928.878415267768
  0
VERTEX
  8
1
 10
1173.9082408999711
 20
-928.753415267768
  0
VERTEX
  8
1
 10
1168.903240899971
 20
-928.6284152677679
  0
VERTEX
  8
1
 10
1163.8982408999711
 20
-928.514415267768
  0
VERTEX
  8
1
 10
1158.903240899971
 20
-928.389415267768
  0
VERTEX
  8
1
 10
1153.8982408999711
 20
-928.264415267768
  0
VERTEX
  8
1
 10
1148.903240899971
 20
-928.149415267768
  0
VERTEX
  8
1
 10
1143.8972408999712
 20
-928.024415267768
  0
VERTEX
  8
1
 10
1138.892240899971
 20
-927.899415267768
  0
VERTEX
  8
1
 10
1133.8972408999712
 20
-927.774415267768
  0
VERTEX
  8
1
 10
1128.892240899971
 20
-927.6594152677679
  0
VERTEX
  8
1
 10
1123.8872408999712
 20
-927.5344152677679
  0
VERTEX
  8
1
 10
1118.892240899971
 20
-927.4094152677679
  0
VERTEX
  8
1
 10
1113.8862408999712
 20
-927.2854152677679
  0
VERTEX
  8
1
 10
1108.891240899971
 20
-927.1704152677679
  0
VERTEX
  8
1
 10
1103.8862408999712
 20
-927.0454152677679
  0
VERTEX
  8
1
 10
1098.881240899971
 20
-926.9204152677679
  0
VERTEX
  8
1
 10
1093.8862408999712
 20
-926.8054152677679
  0
VERTEX
  8
1
 10
1088.880240899971
 20
-926.6804152677679
  0
VERTEX
  8
1
 10
1083.8852408999712
 20
-926.5554152677679
  0
VERTEX
  8
1
 10
1078.880240899971
 20
-926.4304152677679
  0
VERTEX
  8
1
 10
1073.8752408999712
 20
-926.3154152677679
  0
VERTEX
  8
1
 10
1068.880240899971
 20
-926.1904152677679
  0
VERTEX
  8
1
 10
1063.8752408999712
 20
-926.066415267768
  0
VERTEX
  8
1
 10
1058.8692408999711
 20
-925.951415267768
  0
VERTEX
  8
1
 10
1053.874240899971
 20
-925.826415267768
  0
VERTEX
  8
1
 10
1048.8692408999711
 20
-925.701415267768
  0
VERTEX
  8
1
 10
1043.874240899971
 20
-925.576415267768
  0
VERTEX
  8
1
 10
1038.8692408999711
 20
-925.461415267768
  0
VERTEX
  8
1
 10
1033.863240899971
 20
-925.336415267768
  0
VERTEX
  8
1
 10
1028.8682408999712
 20
-925.211415267768
  0
VERTEX
  8
1
 10
1024.25502369455
 20
-925.1057636515042
  0
VERTEX
  8
1
 10
1023.8632408999711
 20
-925.096415267768
  0
VERTEX
  8
1
 10
1018.8682408999712
 20
-924.9714152677681
  0
VERTEX
  8
1
 10
1013.8632408999712
 20
-924.846415267768
  0
VERTEX
  8
1
 10
1008.8582408999712
 20
-924.721415267768
  0
VERTEX
  8
1
 10
1003.8622408999711
 20
-924.605415267768
  0
VERTEX
  8
1
 10
999.3542408999712
 20
-924.493415267768
  0
VERTEX
  8
1
 10
999.2793317229022
 20
-927.4924798911449
  0
VERTEX
  8
1
 10
999.3542408999712
 20
-924.493415267768
  0
VERTEX
  8
1
 10
999.0345952539166
 20
-924.4848326835489
  0
VERTEX
  8
1
 10
998.8572408999711
 20
-924.480415267768
  0
VERTEX
  8
1
 10
993.8522408999711
 20
-924.355415267768
  0
VERTEX
  8
1
 10
988.8572408999712
 20
-924.240415267768
  0
VERTEX
  8
1
 10
983.8522408999711
 20
-924.115415267768
  0
VERTEX
  8
1
 10
978.8572408999712
 20
-923.990415267768
  0
VERTEX
  8
1
 10
973.8512408999711
 20
-923.875415267768
  0
VERTEX
  8
1
 10
968.8462408999711
 20
-923.7504152677681
  0
VERTEX
  8
1
 10
963.8512408999711
 20
-923.625415267768
  0
VERTEX
  8
1
 10
958.8462408999712
 20
-923.5004152677681
  0
VERTEX
  8
1
 10
953.8412408999711
 20
-923.385415267768
  0
VERTEX
  8
1
 10
948.845240899971
 20
-923.260415267768
  0
VERTEX
  8
1
 10
943.8402408999711
 20
-923.135415267768
  0
VERTEX
  8
1
 10
938.845240899971
 20
-923.021415267768
  0
VERTEX
  8
1
 10
933.8402408999711
 20
-922.896415267768
  0
VERTEX
  8
1
 10
928.8352408999712
 20
-922.771415267768
  0
VERTEX
  8
1
 10
923.8402408999711
 20
-922.646415267768
  0
VERTEX
  8
1
 10
918.8342408999711
 20
-922.531415267768
  0
VERTEX
  8
1
 10
913.8392408999712
 20
-922.406415267768
  0
VERTEX
  8
1
 10
908.8342408999712
 20
-922.281415267768
  0
VERTEX
  8
1
 10
903.8292408999712
 20
-922.166415267768
  0
VERTEX
  8
1
 10
898.8342408999712
 20
-922.041415267768
  0
VERTEX
  8
1
 10
893.8282408999711
 20
-921.916415267768
  0
VERTEX
  8
1
 10
888.8232408999711
 20
-921.791415267768
  0
VERTEX
  8
1
 10
883.8282408999712
 20
-921.676415267768
  0
VERTEX
  8
1
 10
878.8232408999711
 20
-921.551415267768
  0
VERTEX
  8
1
 10
873.8282408999712
 20
-921.426415267768
  0
VERTEX
  8
1
 10
868.8232408999711
 20
-921.311415267768
  0
VERTEX
  8
1
 10
863.8172408999711
 20
-921.186415267768
  0
VERTEX
  8
1
 10
858.8222408999711
 20
-921.061415267768
  0
VERTEX
  8
1
 10
853.8172408999712
 20
-920.936415267768
  0
VERTEX
  8
1
 10
848.8222408999711
 20
-920.821415267768
  0
VERTEX
  8
1
 10
843.8172408999711
 20
-920.696415267768
  0
VERTEX
  8
1
 10
838.8122408999711
 20
-920.571415267768
  0
VERTEX
  8
1
 10
833.8162408999711
 20
-920.456415267768
  0
VERTEX
  8
1
 10
828.8112408999712
 20
-920.3324152677679
  0
VERTEX
  8
1
 10
823.8062408999712
 20
-920.2074152677679
  0
VERTEX
  8
1
 10
818.8112408999712
 20
-920.0824152677679
  0
VERTEX
  8
1
 10
813.8062408999712
 20
-919.9674152677679
  0
VERTEX
  8
1
 10
808.8102408999712
 20
-919.8424152677679
  0
VERTEX
  8
1
 10
803.8052408999712
 20
-919.7174152677679
  0
VERTEX
  8
1
 10
798.8002408999712
 20
-919.6024152677679
  0
VERTEX
  8
1
 10
793.8052408999712
 20
-919.4774152677679
  0
VERTEX
  8
1
 10
788.8002408999712
 20
-919.3524152677679
  0
VERTEX
  8
1
 10
783.8052408999712
 20
-919.2274152677679
  0
VERTEX
  8
1
 10
778.7992408999712
 20
-919.1124152677679
  0
VERTEX
  8
1
 10
773.7942408999711
 20
-918.9874152677679
  0
VERTEX
  8
1
 10
768.7992408999711
 20
-918.8624152677679
  0
VERTEX
  8
1
 10
763.7942408999711
 20
-918.7474152677679
  0
VERTEX
  8
1
 10
758.7892408999711
 20
-918.6224152677679
  0
VERTEX
  8
1
 10
754.1342408999711
 20
-918.5061448802202
  0
VERTEX
  8
1
 10
753.7932408999711
 20
-918.502415267768
  0
VERTEX
  8
1
 10
748.7882408999711
 20
-918.414415267768
  0
VERTEX
  8
1
 10
743.7922408999711
 20
-918.3154152677679
  0
VERTEX
  8
1
 10
738.7862408999712
 20
-918.226415267768
  0
VERTEX
  8
1
 10
733.7802408999712
 20
-918.128415267768
  0
VERTEX
  8
1
 10
731.1842408999712
 20
-918.0766514082826
  0
VERTEX
  8
1
 10
728.7842408999712
 20
-918.004415267768
  0
VERTEX
  8
1
 10
723.7792408999712
 20
-917.8444152677679
  0
VERTEX
  8
1
 10
718.7832408999712
 20
-917.694415267768
  0
VERTEX
  8
1
 10
713.7782408999713
 20
-917.5444152677679
  0
VERTEX
  8
1
 10
709.5842408999712
 20
-917.413415267768
  0
VERTEX
  8
1
 10
709.488213270768
 20
-920.4118779896356
  0
VERTEX
  8
1
 10
709.5842408999712
 20
-917.413415267768
  0
VERTEX
  8
1
 10
708.7822408999712
 20
-917.384415267768
  0
VERTEX
  8
1
 10
708.7242408999712
 20
-917.3834152677679
  0
VERTEX
  8
1
 10
703.7872408999712
 20
-917.182415267768
  0
VERTEX
  8
1
 10
698.7832408999712
 20
-916.9694152677679
  0
VERTEX
  8
1
 10
693.7882408999712
 20
-916.7564152677679
  0
VERTEX
  8
1
 10
688.7842408999712
 20
-916.553415267768
  0
VERTEX
  8
1
 10
685.6742408999712
 20
-916.4149205832565
  0
VERTEX
  8
1
 10
683.7902408999712
 20
-916.310415267768
  0
VERTEX
  8
1
 10
678.7962408999712
 20
-916.043415267768
  0
VERTEX
  8
1
 10
673.8032408999712
 20
-915.7764152677679
  0
VERTEX
  8
1
 10
668.8002408999712
 20
-915.509415267768
  0
VERTEX
  8
1
 10
663.8072408999712
 20
-915.242415267768
  0
VERTEX
  8
1
 10
662.9542408999712
 20
-915.1946216189386
  0
VERTEX
  8
1
 10
658.8162408999711
 20
-914.9234152677681
  0
VERTEX
  8
1
 10
653.8252408999712
 20
-914.605415267768
  0
VERTEX
  8
1
 10
648.8332408999711
 20
-914.278415267768
  0
VERTEX
  8
1
 10
643.8422408999711
 20
-913.951415267768
  0
VERTEX
  8
1
 10
640.2242408999712
 20
-913.7136702000183
  0
VERTEX
  8
1
 10
638.8522408999711
 20
-913.609415267768
  0
VERTEX
  8
1
 10
633.8632408999711
 20
-913.2284152677679
  0
VERTEX
  8
1
 10
628.8752408999711
 20
-912.838415267768
  0
VERTEX
  8
1
 10
623.8862408999711
 20
-912.458415267768
  0
VERTEX
  8
1
 10
618.8972408999712
 20
-912.078415267768
  0
VERTEX
  8
1
 10
617.5142408999711
 20
-911.9701464461447
  0
VERTEX
  8
1
 10
613.9112408999711
 20
-911.648415267768
  0
VERTEX
  8
1
 10
608.9262408999712
 20
-911.213415267768
  0
VERTEX
  8
1
 10
603.9412408999711
 20
-910.7784152677681
  0
VERTEX
  8
1
 10
598.9552408999712
 20
-910.332415267768
  0
VERTEX
  8
1
 10
594.8325284879757
 20
-909.9722517997187
  0
VERTEX
  8
1
 10
593.9812408999711
 20
-909.889415267768
  0
VERTEX
  8
1
 10
588.9992408999711
 20
-909.3844152677681
  0
VERTEX
  8
1
 10
584.0172408999711
 20
-908.890415267768
  0
VERTEX
  8
1
 10
579.0452408999711
 20
-908.396415267768
  0
VERTEX
  8
1
 10
574.0632408999711
 20
-907.891415267768
  0
VERTEX
  8
1
 10
572.2279325836654
 20
-907.7091150634358
  0
VERTEX
  8
1
 10
569.0962408999711
 20
-907.3454152677681
  0
VERTEX
  8
1
 10
564.1212408999711
 20
-906.748415267768
  0
VERTEX
  8
1
 10
560.9107079576992
 20
-906.3628764595752
  0
VERTEX
  8
1
 10
559.1602408999711
 20
-906.117415267768
  0
VERTEX
  8
1
 10
554.215240899971
 20
-905.411415267768
  0
VERTEX
  8
1
 10
549.683386760348
 20
-904.7570815017381
  0
VERTEX
  8
1
 10
549.2612408999711
 20
-904.686415267768
  0
VERTEX
  8
1
 10
544.3292408999711
 20
-903.8744152677681
  0
VERTEX
  8
1
 10
539.3872408999711
 20
-903.052415267768
  0
VERTEX
  8
1
 10
538.4996510099621
 20
-902.8991512378244
  0
VERTEX
  8
1
 10
534.4782408999711
 20
-902.117415267768
  0
VERTEX
  8
1
 10
529.561240899971
 20
-901.183415267768
  0
VERTEX
  8
1
 10
527.3775893492317
 20
-900.7499761229434
  0
VERTEX
  8
1
 10
524.663240899971
 20
-900.151415267768
  0
VERTEX
  8
1
 10
519.773240899971
 20
-899.094415267768
  0
VERTEX
  8
1
 10
516.2828559385927
 20
-898.3160325553484
  0
VERTEX
  8
1
 10
514.8992408999711
 20
-897.978415267768
  0
VERTEX
  8
1
 10
510.03724089997104
 20
-896.802415267768
  0
VERTEX
  8
1
 10
505.274240899971
 20
-895.613415267768
  0
VERTEX
  8
1
 10
505.18624089997104
 20
-895.594415267768
  0
VERTEX
  8
1
 10
500.3462408999711
 20
-894.312415267768
  0
VERTEX
  8
1
 10
495.51724089997106
 20
-892.9994152677681
  0
VERTEX
  8
1
 10
494.3191544505622
 20
-892.6712754736384
  0
VERTEX
  8
1
 10
490.71524089997115
 20
-891.602415267768
  0
VERTEX
  8
1
 10
485.9292408999711
 20
-890.150415267768
  0
VERTEX
  8
1
 10
483.7295533070637
 20
-889.3841521868147
  0
VERTEX
  8
1
 10
481.254240899971
 20
-888.361415267768
  0
VERTEX
  8
1
 10
476.5822408999711
 20
-886.5854152677681
  0
VERTEX
  8
1
 10
471.9102408999711
 20
-884.7884152677681
  0
VERTEX
  8
1
 10
469.5843907910307
 20
-883.8679977141018
  0
VERTEX
  8
1
 10
467.283240899971
 20
-882.9044152677681
  0
VERTEX
  8
1
 10
462.6412408999711
 20
-881.022415267768
  0
VERTEX
  8
1
 10
458.00924089997113
 20
-879.140415267768
  0
VERTEX
  8
1
 10
455.3548229730661
 20
-878.0289366355745
  0
VERTEX
  8
1
 10
453.41124089997106
 20
-877.168415267768
  0
VERTEX
  8
1
 10
448.81124089997104
 20
-875.190415267768
  0
VERTEX
  8
1
 10
444.2222408999711
 20
-873.222415267768
  0
VERTEX
  8
1
 10
441.20642996662434
 20
-871.8866028678048
  0
VERTEX
  8
1
 10
439.654240899971
 20
-871.160415267768
  0
VERTEX
  8
1
 10
435.100240899971
 20
-869.104415267768
  0
VERTEX
  8
1
 10
430.5452408999711
 20
-867.037415267768
  0
VERTEX
  8
1
 10
427.2507604830564
 20
-865.4893987839969
  0
VERTEX
  8
1
 10
426.03324089997113
 20
-864.8804152677681
  0
VERTEX
  8
1
 10
421.53324089997113
 20
-862.699415267768
  0
VERTEX
  8
1
 10
418.11428530596993
 20
-860.9774284301245
  0
VERTEX
  8
1
 10
417.0772408999711
 20
-860.415415267768
  0
VERTEX
  8
1
 10
412.634240899971
 20
-858.105415267768
  0
VERTEX
  8
1
 10
409.1643644240812
 20
-856.2331682195477
  0
VERTEX
  8
1
 10
408.2552408999711
 20
-855.707415267768
  0
VERTEX
  8
1
 10
403.88424089997113
 20
-853.262415267768
  0
VERTEX
  8
1
 10
400.3288171185105
 20
-851.200720452543
  0
VERTEX
  8
1
 10
399.57524089997116
 20
-850.732415267768
  0
VERTEX
  8
1
 10
395.2802408999711
 20
-848.161415267768
  0
VERTEX
  8
1
 10
391.4752032590196
 20
-845.869250827206
  0
VERTEX
  8
1
 10
390.995240899971
 20
-845.5804152677681
  0
VERTEX
  8
1
 10
386.70024089997105
 20
-843.0094152677681
  0
VERTEX
  8
1
 10
379.97424089997116
 20
-838.973415267768
  0
VERTEX
  8
1
 10
377.73824089997106
 20
-844.8414152677681
  0
VERTEX
  8
1
 10
375.51324089997104
 20
-850.719415267768
  0
VERTEX
  8
1
 10
374.4089285880997
 20
-853.6219816432174
  0
VERTEX
  8
1
 10
373.2712408999711
 20
-856.595415267768
  0
VERTEX
  8
1
 10
373.24424089997115
 20
-856.653415267768
  0
VERTEX
  8
1
 10
372.1505310669238
 20
-859.1566382729164
  0
VERTEX
  8
1
 10
370.907131921167
 20
-861.605453649295
  0
VERTEX
  8
1
 10
370.538240899971
 20
-862.237415267768
  0
VERTEX
  8
1
 10
369.55583178012046
 20
-863.9756649175772
  0
VERTEX
  8
1
 10
367.9923669120175
 20
-866.4387400135304
  0
VERTEX
  8
1
 10
367.201240899971
 20
-867.549415267768
  0
VERTEX
  8
1
 10
366.3283744000066
 20
-868.8092175182454
  0
VERTEX
  8
1
 10
364.5250586500698
 20
-871.1194548940999
  0
VERTEX
  8
1
 10
363.33424089997106
 20
-872.493415267768
  0
VERTEX
  8
1
 10
362.76678796834494
 20
-873.013431519818
  0
VERTEX
  8
1
 10
359.3294440872859
 20
-875.660260228229
  0
VERTEX
  8
1
 10
358.39224089997106
 20
-876.283415267768
  0
VERTEX
  8
1
 10
355.559048917656
 20
-878.0975054117806
  0
VERTEX
  8
1
 10
353.005240899971
 20
-879.510415267768
  0
VERTEX
  8
1
 10
351.6178374141332
 20
-880.3151265241218
  0
VERTEX
  8
1
 10
347.49424089997115
 20
-882.353415267768
  0
VERTEX
  8
1
 10
347.4242408999711
 20
-882.373415267768
  0
VERTEX
  8
1
 10
341.66724089997103
 20
-884.8944152677681
  0
VERTEX
  8
1
 10
339.8155208157549
 20
-885.6999573458746
  0
VERTEX
  8
1
 10
335.8482408999711
 20
-887.2404152677681
  0
VERTEX
  8
1
 10
331.92362177813584
 20
-888.7544002343255
  0
VERTEX
  8
1
 10
329.95124089997114
 20
-889.4234152677681
  0
VERTEX
  8
1
 10
323.99824089997105
 20
-891.416415267768
  0
VERTEX
  8
1
 10
323.904240899971
 20
-891.433415267768
  0
VERTEX
  8
1
 10
317.4042408999711
 20
-893.373415267768
  0
VERTEX
  8
1
 10
316.86424089997115
 20
-891.443415267768
  0
VERTEX
  8
1
 10
314.88889336359205
 20
-891.6417545829856
  0
VERTEX
  8
1
 10
293.7082408999713
 20
-894.266415267768
  0
VERTEX
  8
1
 10
270.5062408999713
 20
-896.885415267768
  0
VERTEX
  8
1
 10
247.30424089997132
 20
-899.504415267768
  0
VERTEX
  8
1
 10
224.10224089997132
 20
-902.113415267768
  0
VERTEX
  8
1
 10
200.9002408999711
 20
-904.732415267768
  0
VERTEX
  8
1
 10
177.6982408999711
 20
-907.341415267768
  0
VERTEX
  8
1
 10
154.49724089997108
 20
-909.9594152677681
  0
VERTEX
  8
1
 10
136.02532466604475
 20
-912.0364635114169
  0
VERTEX
  8
1
 10
123.55424089997109
 20
-913.443415267768
  0
VERTEX
  8
1
 10
127.02276813202138
 20
-932.970569428982
  0
VERTEX
  8
1
 10
128.60524089997125
 20
-941.8844152677681
  0
VERTEX
  8
1
 10
128.80680223453624
 20
-943.1197706680193
  0
VERTEX
  8
1
 10
130.2408509174718
 20
-952.6688501052776
  0
VERTEX
  8
1
 10
131.4861657648912
 20
-961.7570770148292
  0
VERTEX
  8
1
 10
132.5742408999713
 20
-970.463415267768
  0
VERTEX
  8
1
 10
132.57724089997123
 20
-970.4864152677682
  0
VERTEX
  8
1
 10
133.39326406582472
 20
-978.8276511638458
  0
VERTEX
  8
1
 10
134.07121135260263
 20
-986.8705562772415
  0
VERTEX
  8
1
 10
134.91224089997104
 20
-999.2744152677681
  0
VERTEX
  8
1
 10
135.11161027256026
 20
-1002.5699233726847
  0
VERTEX
  8
1
 10
135.74332521771453
 20
-1017.7908913945054
  0
VERTEX
  8
1
 10
136.52424089997135
 20
-1048.9134152677682
  0
VERTEX
  8
1
 10
142.95424089997118
 20
-1048.6664152677681
  0
VERTEX
  8
1
 10
148.44005751687155
 20
-1048.4553168055406
  0
VERTEX
  8
1
 10
149.3952408999712
 20
-1048.4154152677681
  0
VERTEX
  8
1
 10
151.5179932428448
 20
-1048.3775055683207
  0
VERTEX
  8
1
 10
154.33567551641818
 20
-1048.4497958868728
  0
VERTEX
  8
1
 10
155.82224089997112
 20
-1048.5464152677682
  0
VERTEX
  8
1
 10
157.14489134431733
 20
-1048.6651767834428
  0
VERTEX
  8
1
 10
159.94768640618668
 20
-1049.0375975495008
  0
VERTEX
  8
1
 10
162.19524089997117
 20
-1049.4214152677682
  0
VERTEX
  8
1
 10
162.7168699450881
 20
-1049.5216559315993
  0
VERTEX
  8
1
 10
165.4602101831572
 20
-1050.17551648924
  0
VERTEX
  8
1
 10
168.1735726675115
 20
-1050.9393799740235
  0
VERTEX
  8
1
 10
168.4202408999713
 20
-1051.0204152677682
  0
VERTEX
  8
1
 10
170.8343903540831
 20
-1051.8688068691201
  0
VERTEX
  8
1
 10
173.46517475421388
 20
-1052.9042702335466
  0
VERTEX
  8
1
 10
174.4252408999712
 20
-1053.330415267768
  0
VERTEX
  8
1
 10
176.0315409887137
 20
-1054.079819725209
  0
VERTEX
  8
1
 10
178.5289691055798
 20
-1055.3729077265373
  0
VERTEX
  8
1
 10
180.1362408999712
 20
-1056.2844152677683
  0
VERTEX
  8
1
 10
180.9723605643444
 20
-1056.7908998002342
  0
VERTEX
  8
1
 10
183.31652831513156
 20
-1058.354392132823
  0
VERTEX
  8
1
 10
185.4492408999713
 20
-1059.907415267768
  0
VERTEX
  8
1
 10
185.59911712285088
 20
-1060.0206250158053
  0
VERTEX
  8
1
 10
187.7823191070538
 20
-1061.7988390759617
  0
VERTEX
  8
1
 10
189.89637639183206
 20
-1063.6780426014896
  0
VERTEX
  8
1
 10
190.3332408999711
 20
-1064.0974152677682
  0
VERTEX
  8
1
 10
192.0124364002877
 20
-1065.7588690356808
  0
VERTEX
  8
1
 10
194.05160191156597
 20
-1067.92530142456
  0
VERTEX
  8
1
 10
194.76224089997118
 20
-1068.7484152677682
  0
VERTEX
  8
1
 10
195.9781683340018
 20
-1070.182057973257
  0
VERTEX
  8
1
 10
197.81827617671001
 20
-1072.5160921605432
  0
VERTEX
  8
1
 10
198.74924089997103
 20
-1073.8004152677681
  0
VERTEX
  8
1
 10
199.54922774695842
 20
-1074.9372174723046
  0
VERTEX
  8
1
 10
201.16801604643524
 20
-1077.4256831144
  0
VERTEX
  8
1
 10
202.22024089997103
 20
-1079.198415267768
  0
VERTEX
  8
1
 10
202.67975671074078
 20
-1079.9885420676464
  0
VERTEX
  8
1
 10
204.07558252393642
 20
-1082.6213864747058
  0
VERTEX
  8
1
 10
205.18124089997104
 20
-1084.9094152677683
  0
VERTEX
  8
1
 10
205.36655443554673
 20
-1085.3047216660004
  0
VERTEX
  8
1
 10
206.52043969629972
 20
-1088.0442435858045
  0
VERTEX
  8
1
 10
207.57424089997107
 20
-1090.823415267768
  0
VERTEX
  8
1
 10
207.5882408999712
 20
-1090.863415267768
  0
VERTEX
  8
1
 10
208.49802098748114
 20
-1093.6496500285364
  0
VERTEX
  8
1
 10
209.30266461852148
 20
-1096.5105725970411
  0
VERTEX
  8
1
 10
209.42924089997132
 20
-1097.0284152677682
  0
VERTEX
  8
1
 10
209.9694039388778
 20
-1099.40530376672
  0
VERTEX
  8
1
 10
210.5178507633466
 20
-1102.3204051377454
  0
VERTEX
  8
1
 10
210.6652408999712
 20
-1103.3394152677681
  0
VERTEX
  8
1
 10
210.89286488461653
 20
-1105.5153238976907
  0
VERTEX
  8
1
 10
211.32124089997114
 20
-1109.7434152677681
  0
VERTEX
  8
1
 10
211.83924089997117
 20
-1116.1594152677683
  0
VERTEX
  8
1
 10
211.92106101982154
 20
-1116.9397947694436
  0
VERTEX
  8
1
 10
212.36524089997124
 20
-1122.5744152677682
  0
VERTEX
  8
1
 10
212.81547463018296
 20
-1128.275127652677
  0
VERTEX
  8
1
 10
212.85524089997125
 20
-1128.994415267768
  0
VERTEX
  8
1
 10
213.26824089997126
 20
-1135.418415267768
  0
VERTEX
  8
1
 10
213.57173703095668
 20
-1139.635327990659
  0
VERTEX
  8
1
 10
213.67624089997116
 20
-1141.8484152677681
  0
VERTEX
  8
1
 10
214.08124089997114
 20
-1148.2654152677683
  0
VERTEX
  8
1
 10
214.25268145699147
 20
-1150.978376713051
  0
VERTEX
  8
1
 10
214.40024089997132
 20
-1154.6984152677683
  0
VERTEX
  8
1
 10
214.71524089997115
 20
-1161.1244152677682
  0
VERTEX
  8
1
 10
214.82467690950716
 20
-1162.7450721040022
  0
VERTEX
  8
1
 10
215.03124089997118
 20
-1167.553415267768
  0
VERTEX
  8
1
 10
215.3482408999712
 20
-1173.9834152677681
  0
VERTEX
  8
1
 10
215.37744109054643
 20
-1174.517215791848
  0
VERTEX
  8
1
 10
215.5692408999712
 20
-1180.4244152677682
  0
VERTEX
  8
1
 10
215.79600664761097
 20
-1186.2863589184144
  0
VERTEX
  8
1
 10
215.8042408999711
 20
-1186.8534152677682
  0
VERTEX
  8
1
 10
216.03324089997113
 20
-1193.2904152677681
  0
VERTEX
  8
1
 10
216.20910238762713
 20
-1198.2158480024807
  0
VERTEX
  8
1
 10
216.2612408999712
 20
-1199.7174152677683
  0
VERTEX
  8
1
 10
216.4962408999711
 20
-1206.1544152677682
  0
VERTEX
  8
1
 10
216.76424089997136
 20
-1213.6234152677682
  0
VERTEX
  8
1
 10
227.60107142398192
 20
-1213.1829236957374
  0
VERTEX
  8
1
 10
247.96524089997138
 20
-1212.349415267768
  0
VERTEX
  8
1
 10
268.3142408999711
 20
-1211.5264152677682
  0
VERTEX
  8
1
 10
288.66324089997124
 20
-1210.7034152677682
  0
VERTEX
  8
1
 10
309.0122408999712
 20
-1209.879415267768
  0
VERTEX
  8
1
 10
329.3612408999711
 20
-1209.0464152677682
  0
VERTEX
  8
1
 10
349.71024089997127
 20
-1208.2234152677681
  0
VERTEX
  8
1
 10
370.0592408999712
 20
-1207.400415267768
  0
VERTEX
  8
1
 10
379.33720168112404
 20
-1207.0655733637082
  0
VERTEX
  8
1
 10
390.2127567341714
 20
-1206.5170329219052
  0
VERTEX
  8
1
 10
390.4012408999712
 20
-1206.5004152677682
  0
VERTEX
  8
1
 10
410.6852408999712
 20
-1204.7484152677682
  0
VERTEX
  8
1
 10
430.92824089997123
 20
-1202.5454152677682
  0
VERTEX
  8
1
 10
440.7777357358418
 20
-1201.5035409173654
  0
VERTEX
  8
1
 10
451.17724089997125
 20
-1200.3444152677682
  0
VERTEX
  8
1
 10
471.42124089997117
 20
-1198.1464152677681
  0
VERTEX
  8
1
 10
491.2117703876298
 20
-1195.9986875258785
  0
VERTEX
  8
1
 10
491.6662408999713
 20
-1195.946415267768
  0
VERTEX
  8
1
 10
511.9102408999712
 20
-1193.699415267768
  0
VERTEX
  8
1
 10
529.3274862402294
 20
-1191.7829999015419
  0
VERTEX
  8
1
 10
532.1522408999713
 20
-1191.4514152677682
  0
VERTEX
  8
1
 10
552.3932408999713
 20
-1189.206415267768
  0
VERTEX
  8
1
 10
567.4535735147298
 20
-1187.4911960396075
  0
VERTEX
  8
1
 10
569.1234691209656
 20
-1187.3199643469582
  0
VERTEX
  8
1
 10
572.6292408999713
 20
-1186.966415267768
  0
VERTEX
  8
1
 10
575.7042408999712
 20
-1186.6634152677682
  0
VERTEX
  8
1
 10
575.4315825440834
 20
-1183.67583139096
  0
VERTEX
  8
1
 10
575.7042408999712
 20
-1186.6634152677682
  0
VERTEX
  8
1
 10
590.304960540989
 20
-1185.353261342998
  0
VERTEX
  8
1
 10
592.9132408999712
 20
-1185.131415267768
  0
VERTEX
  8
1
 10
613.1642408999712
 20
-1183.4534152677682
  0
VERTEX
  8
1
 10
613.2152408999711
 20
-1183.450415267768
  0
VERTEX
  8
1
 10
633.5172408999712
 20
-1181.890415267768
  0
VERTEX
  8
1
 10
636.0340653023703
 20
-1181.6999615887196
  0
VERTEX
  8
1
 10
653.8362408999712
 20
-1180.458415267768
  0
VERTEX
  8
1
 10
658.8940672969558
 20
-1180.1086973726685
  0
VERTEX
  8
1
 10
674.1612408999712
 20
-1179.160415267768
  0
VERTEX
  8
1
 10
681.8044040924739
 20
-1178.693170479014
  0
VERTEX
  8
1
 10
694.4912408999712
 20
-1177.994415267768
  0
VERTEX
  8
1
 10
704.6945297448913
 20
-1177.4380000531953
  0
VERTEX
  8
1
 10
714.8272408999711
 20
-1176.956415267768
  0
VERTEX
  8
1
 10
727.6009584480063
 20
-1176.355310205605
  0
VERTEX
  8
1
 10
735.1772408999713
 20
-1176.045415267768
  0
VERTEX
  8
1
 10
750.5022487151462
 20
-1175.4403477096314
  0
VERTEX
  8
1
 10
755.5302408999712
 20
-1175.266415267768
  0
VERTEX
  8
1
 10
775.8762408999711
 20
-1174.580415267768
  0
VERTEX
  8
1
 10
796.2312408999712
 20
-1173.894415267768
  0
VERTEX
  8
1
 10
816.5862408999712
 20
-1173.209415267768
  0
VERTEX
  8
1
 10
818.389298892995
 20
-1173.1474715104487
  0
VERTEX
  8
1
 10
836.9432408999712
 20
-1172.554415267768
  0
VERTEX
  8
1
 10
857.2992408999712
 20
-1171.9234152677682
  0
VERTEX
  8
1
 10
877.6552408999712
 20
-1171.283415267768
  0
VERTEX
  8
1
 10
886.2964045989528
 20
-1171.0112515687863
  0
VERTEX
  8
1
 10
898.0122408999712
 20
-1170.6664152677681
  0
VERTEX
  8
1
 10
918.3702408999711
 20
-1170.0784152677682
  0
VERTEX
  8
1
 10
930.9492880258053
 20
-1169.7145473846301
  0
VERTEX
  8
1
 10
934.4042408999712
 20
-1169.613415267768
  0
VERTEX
  8
1
 10
934.3185982171532
 20
-1166.6146379617849
  0
VERTEX
  8
1
 10
934.4042408999712
 20
-1169.613415267768
  0
VERTEX
  8
1
 10
938.7272408999711
 20
-1169.4924152677681
  0
VERTEX
  8
1
 10
954.203476844569
 20
-1169.0441793231703
  0
VERTEX
  8
1
 10
959.0852408999712
 20
-1168.912415267768
  0
VERTEX
  8
1
 10
979.4432408999712
 20
-1168.371415267768
  0
VERTEX
  8
1
 10
999.8022408999711
 20
-1167.840415267768
  0
VERTEX
  8
1
 10
1020.1602408999711
 20
-1167.2994152677682
  0
VERTEX
  8
1
 10
1022.1004423115577
 20
-1167.2481668803925
  0
VERTEX
  8
1
 10
1040.5192408999712
 20
-1166.7994152677682
  0
VERTEX
  8
1
 10
1060.8782408999712
 20
-1166.314415267768
  0
VERTEX
  8
1
 10
1081.237240899971
 20
-1165.8284152677682
  0
VERTEX
  8
1
 10
1090.0377237487626
 20
-1165.6142549394938
  0
VERTEX
  8
1
 10
1101.5972408999712
 20
-1165.3584152677681
  0
VERTEX
  8
1
 10
1121.967240899971
 20
-1164.917415267768
  0
VERTEX
  8
1
 10
1142.3272408999712
 20
-1164.486415267768
  0
VERTEX
  8
1
 10
1157.9648109211503
 20
-1164.14052583607
  0
VERTEX
  8
1
 10
1162.6872408999711
 20
-1164.046415267768
  0
VERTEX
  8
1
 10
1183.0472408999713
 20
-1163.660415267768
  0
VERTEX
  8
1
 10
1203.4072408999712
 20
-1163.274415267768
  0
VERTEX
  8
1
 10
1223.7682408999713
 20
-1162.879415267768
  0
VERTEX
  8
1
 10
1225.8829268873142
 20
-1162.8388817220568
  0
VERTEX
  8
1
 10
1244.1392408999711
 20
-1162.535415267768
  0
VERTEX
  8
1
 10
1264.5002408999712
 20
-1162.196415267768
  0
VERTEX
  8
1
 10
1284.861240899971
 20
-1161.8484152677681
  0
VERTEX
  8
1
 10
1293.557663520168
 20
-1161.7945642581547
  0
VERTEX
  8
1
 10
1293.7242408999712
 20
-1161.7034152677682
  0
VERTEX
  8
1
 10
1293.7646022082897
 20
-1158.7036867859233
  0
VERTEX
  8
1
 10
1293.7242408999712
 20
-1161.7034152677682
  0
VERTEX
  8
1
 10
1323.9442408999712
 20
-1162.2034152677682
  0
VERTEX
  8
1
 10
1323.9442408999712
 20
-1162.2034152677682
  0
VERTEX
  8
1
 10
1323.9442408999712
 20
-1137.675415267768
  0
VERTEX
  8
1
 10
1323.9442408999712
 20
-1136.675415267768
  0
SEQEND
  0
ENDBLK
  0
BLOCK
  2
16
  8
1
 10
0
 20
0
 70
64
  0
POLYLINE
  8
1
  62
3
10
0
 20
0
 66
1
  0
VERTEX
  8
1
 10
245.76031910002897
 20
-1495.5563589677681
  0
VERTEX
  8
1
 10
245.76031910002897
 20
-1471.028358967768
  0
VERTEX
  8
1
 10
245.76031910002897
 20
-1446.500358967768
  0
VERTEX
  8
1
 10
245.76031910002897
 20
-1421.972358967768
  0
VERTEX
  8
1
 10
245.76031910002897
 20
-1397.444358967768
  0
VERTEX
  8
1
 10
245.76031910002897
 20
-1379.91945314226
  0
VERTEX
  8
1
 10
245.76031910002897
 20
-1372.906358967768
  0
VERTEX
  8
1
 10
245.76031910002897
 20
-1348.377358967768
  0
VERTEX
  8
1
 10
245.76031910002897
 20
-1323.849358967768
  0
VERTEX
  8
1
 10
245.76031910002897
 20
-1299.3213589677682
  0
VERTEX
  8
1
 10
245.76031910002897
 20
-1277.316358967768
  0
VERTEX
  8
1
 10
245.76031910002897
 20
-1264.3063589677681
  0
VERTEX
  8
1
 10
250.76531910002896
 20
-1264.4303589677681
  0
VERTEX
  8
1
 10
255.76031910002897
 20
-1264.5533589677682
  0
VERTEX
  8
1
 10
260.76631910002897
 20
-1264.6773589677682
  0
VERTEX
  8
1
 10
265.76131910002897
 20
-1264.8013589677682
  0
VERTEX
  8
1
 10
270.76631910002897
 20
-1264.934358967768
  0
VERTEX
  8
1
 10
275.65007698402076
 20
-1265.0358747357518
  0
VERTEX
  8
1
 10
275.5901488845717
 20
-1268.0352761131762
  0
VERTEX
  8
1
 10
275.65007698402076
 20
-1265.0358747357518
  0
VERTEX
  8
1
 10
275.77131910002896
 20
-1265.0343589677682
  0
VERTEX
  8
1
 10
275.74031910002896
 20
-1265.0363589677681
  0
VERTEX
  8
1
 10
280.76631910002897
 20
-1264.9193589677682
  0
VERTEX
  8
1
 10
285.772319100029
 20
-1264.7943589677682
  0
VERTEX
  8
1
 10
290.767319100029
 20
-1264.6693589677682
  0
VERTEX
  8
1
 10
295.772319100029
 20
-1264.5543589677682
  0
VERTEX
  8
1
 10
300.777319100029
 20
-1264.4293589677682
  0
VERTEX
  8
1
 10
305.772319100029
 20
-1264.3053589677681
  0
VERTEX
  8
1
 10
310.777319100029
 20
-1264.1803589677681
  0
VERTEX
  8
1
 10
315.78331910002896
 20
-1264.0653589677681
  0
VERTEX
  8
1
 10
320.77831910002897
 20
-1263.9403589677681
  0
VERTEX
  8
1
 10
325.78331910002896
 20
-1263.8153589677681
  0
VERTEX
  8
1
 10
330.77831910002897
 20
-1263.6903589677681
  0
VERTEX
  8
1
 10
335.78331910002896
 20
-1263.5753589677681
  0
VERTEX
  8
1
 10
340.78931910002893
 20
-1263.4503589677681
  0
VERTEX
  8
1
 10
345.78431910002894
 20
-1263.3253589677681
  0
VERTEX
  8
1
 10
350.78931910002893
 20
-1263.2103589677681
  0
VERTEX
  8
1
 10
355.78431910002894
 20
-1263.086358967768
  0
VERTEX
  8
1
 10
360.789319100029
 20
-1262.961358967768
  0
VERTEX
  8
1
 10
365.79431910002893
 20
-1262.836358967768
  0
VERTEX
  8
1
 10
370.79031910002897
 20
-1262.721358967768
  0
VERTEX
  8
1
 10
375.79531910002896
 20
-1262.596358967768
  0
VERTEX
  8
1
 10
380.800319100029
 20
-1262.471358967768
  0
VERTEX
  8
1
 10
385.79531910002896
 20
-1262.356358967768
  0
VERTEX
  8
1
 10
390.80031910002896
 20
-1262.231358967768
  0
VERTEX
  8
1
 10
395.796319100029
 20
-1262.106358967768
  0
VERTEX
  8
1
 10
400.801319100029
 20
-1261.981358967768
  0
VERTEX
  8
1
 10
405.806319100029
 20
-1261.867358967768
  0
VERTEX
  8
1
 10
410.801319100029
 20
-1261.742358967768
  0
VERTEX
  8
1
 10
415.806319100029
 20
-1261.617358967768
  0
VERTEX
  8
1
 10
420.801319100029
 20
-1261.502358967768
  0
VERTEX
  8
1
 10
425.80731910002896
 20
-1261.377358967768
  0
VERTEX
  8
1
 10
430.81231910002896
 20
-1261.252358967768
  0
VERTEX
  8
1
 10
435.80731910002896
 20
-1261.127358967768
  0
VERTEX
  8
1
 10
440.81231910002896
 20
-1261.012358967768
  0
VERTEX
  8
1
 10
445.81731910002895
 20
-1260.887358967768
  0
VERTEX
  8
1
 10
450.81231910002896
 20
-1260.762358967768
  0
VERTEX
  8
1
 10
455.818319100029
 20
-1260.6383589677682
  0
VERTEX
  8
1
 10
460.81331910002893
 20
-1260.523358967768
  0
VERTEX
  8
1
 10
465.81831910002893
 20
-1260.3983589677682
  0
VERTEX
  8
1
 10
470.8233191000289
 20
-1260.273358967768
  0
VERTEX
  8
1
 10
475.81831910002893
 20
-1260.1583589677682
  0
VERTEX
  8
1
 10
480.824319100029
 20
-1260.0333589677682
  0
VERTEX
  8
1
 10
485.81931910002896
 20
-1259.9083589677682
  0
VERTEX
  8
1
 10
490.82431910002896
 20
-1259.7833589677682
  0
VERTEX
  8
1
 10
495.82931910002895
 20
-1259.6683589677682
  0
VERTEX
  8
1
 10
500.82431910002896
 20
-1259.5433589677682
  0
VERTEX
  8
1
 10
505.8293191000289
 20
-1259.4193589677682
  0
VERTEX
  8
1
 10
510.835319100029
 20
-1259.3043589677682
  0
VERTEX
  8
1
 10
515.830319100029
 20
-1259.1793589677682
  0
VERTEX
  8
1
 10
520.835319100029
 20
-1259.0543589677682
  0
VERTEX
  8
1
 10
525.830319100029
 20
-1258.9293589677682
  0
VERTEX
  8
1
 10
530.835319100029
 20
-1258.8143589677682
  0
VERTEX
  8
1
 10
535.841319100029
 20
-1258.6893589677682
  0
VERTEX
  8
1
 10
540.836319100029
 20
-1258.5643589677682
  0
VERTEX
  8
1
 10
545.4495363054502
 20
-1258.4587073515042
  0
VERTEX
  8
1
 10
545.841319100029
 20
-1258.4493589677681
  0
VERTEX
  8
1
 10
550.836319100029
 20
-1258.3243589677681
  0
VERTEX
  8
1
 10
555.841319100029
 20
-1258.1993589677681
  0
VERTEX
  8
1
 10
560.846319100029
 20
-1258.0743589677681
  0
VERTEX
  8
1
 10
565.8423191000289
 20
-1257.9583589677682
  0
VERTEX
  8
1
 10
570.350319100029
 20
-1257.846358967768
  0
VERTEX
  8
1
 10
570.425228277098
 20
-1260.845423591145
  0
VERTEX
  8
1
 10
570.350319100029
 20
-1257.846358967768
  0
VERTEX
  8
1
 10
570.6699647460836
 20
-1257.837776383549
  0
VERTEX
  8
1
 10
570.847319100029
 20
-1257.8333589677682
  0
VERTEX
  8
1
 10
575.852319100029
 20
-1257.7083589677682
  0
VERTEX
  8
1
 10
580.8473191000289
 20
-1257.5933589677682
  0
VERTEX
  8
1
 10
585.8523191000289
 20
-1257.4683589677682
  0
VERTEX
  8
1
 10
590.8473191000289
 20
-1257.3433589677682
  0
VERTEX
  8
1
 10
595.853319100029
 20
-1257.2283589677681
  0
VERTEX
  8
1
 10
600.858319100029
 20
-1257.1033589677681
  0
VERTEX
  8
1
 10
605.8533191000289
 20
-1256.9783589677681
  0
VERTEX
  8
1
 10
610.8583191000289
 20
-1256.8533589677681
  0
VERTEX
  8
1
 10
615.863319100029
 20
-1256.7383589677681
  0
VERTEX
  8
1
 10
620.859319100029
 20
-1256.6133589677681
  0
VERTEX
  8
1
 10
625.864319100029
 20
-1256.4883589677681
  0
VERTEX
  8
1
 10
630.859319100029
 20
-1256.374358967768
  0
VERTEX
  8
1
 10
635.864319100029
 20
-1256.249358967768
  0
VERTEX
  8
1
 10
640.869319100029
 20
-1256.124358967768
  0
VERTEX
  8
1
 10
645.864319100029
 20
-1255.999358967768
  0
VERTEX
  8
1
 10
650.870319100029
 20
-1255.884358967768
  0
VERTEX
  8
1
 10
655.865319100029
 20
-1255.759358967768
  0
VERTEX
  8
1
 10
660.870319100029
 20
-1255.634358967768
  0
VERTEX
  8
1
 10
665.875319100029
 20
-1255.519358967768
  0
VERTEX
  8
1
 10
670.870319100029
 20
-1255.394358967768
  0
VERTEX
  8
1
 10
675.876319100029
 20
-1255.269358967768
  0
VERTEX
  8
1
 10
680.881319100029
 20
-1255.144358967768
  0
VERTEX
  8
1
 10
685.8763191000289
 20
-1255.029358967768
  0
VERTEX
  8
1
 10
690.8813191000289
 20
-1254.904358967768
  0
VERTEX
  8
1
 10
695.8763191000289
 20
-1254.779358967768
  0
VERTEX
  8
1
 10
700.8813191000289
 20
-1254.664358967768
  0
VERTEX
  8
1
 10
705.887319100029
 20
-1254.539358967768
  0
VERTEX
  8
1
 10
710.8823191000289
 20
-1254.414358967768
  0
VERTEX
  8
1
 10
715.8873191000289
 20
-1254.289358967768
  0
VERTEX
  8
1
 10
720.8823191000289
 20
-1254.174358967768
  0
VERTEX
  8
1
 10
725.887319100029
 20
-1254.049358967768
  0
VERTEX
  8
1
 10
730.892319100029
 20
-1253.924358967768
  0
VERTEX
  8
1
 10
735.888319100029
 20
-1253.809358967768
  0
VERTEX
  8
1
 10
740.893319100029
 20
-1253.685358967768
  0
VERTEX
  8
1
 10
745.898319100029
 20
-1253.560358967768
  0
VERTEX
  8
1
 10
750.893319100029
 20
-1253.435358967768
  0
VERTEX
  8
1
 10
755.898319100029
 20
-1253.320358967768
  0
VERTEX
  8
1
 10
760.894319100029
 20
-1253.195358967768
  0
VERTEX
  8
1
 10
765.899319100029
 20
-1253.070358967768
  0
VERTEX
  8
1
 10
770.9043191000289
 20
-1252.9553589677682
  0
VERTEX
  8
1
 10
775.899319100029
 20
-1252.8303589677682
  0
VERTEX
  8
1
 10
780.9043191000289
 20
-1252.7053589677682
  0
VERTEX
  8
1
 10
785.899319100029
 20
-1252.5803589677682
  0
VERTEX
  8
1
 10
790.9053191000289
 20
-1252.465358967768
  0
VERTEX
  8
1
 10
795.910319100029
 20
-1252.340358967768
  0
VERTEX
  8
1
 10
800.905319100029
 20
-1252.215358967768
  0
VERTEX
  8
1
 10
805.910319100029
 20
-1252.1003589677682
  0
VERTEX
  8
1
 10
810.915319100029
 20
-1251.9753589677682
  0
VERTEX
  8
1
 10
815.570319100029
 20
-1251.8590885802203
  0
VERTEX
  8
1
 10
815.911319100029
 20
-1251.855358967768
  0
VERTEX
  8
1
 10
820.916319100029
 20
-1251.7673589677681
  0
VERTEX
  8
1
 10
825.912319100029
 20
-1251.6683589677682
  0
VERTEX
  8
1
 10
830.918319100029
 20
-1251.579358967768
  0
VERTEX
  8
1
 10
835.9243191000289
 20
-1251.481358967768
  0
VERTEX
  8
1
 10
838.5203191000289
 20
-1251.4295951082827
  0
VERTEX
  8
1
 10
840.9203191000289
 20
-1251.357358967768
  0
VERTEX
  8
1
 10
845.9253191000289
 20
-1251.1973589677682
  0
VERTEX
  8
1
 10
850.9213191000289
 20
-1251.047358967768
  0
VERTEX
  8
1
 10
855.9263191000289
 20
-1250.897358967768
  0
VERTEX
  8
1
 10
860.120319100029
 20
-1250.7663589677682
  0
VERTEX
  8
1
 10
860.2163467292321
 20
-1253.7648216896357
  0
VERTEX
  8
1
 10
860.120319100029
 20
-1250.7663589677682
  0
VERTEX
  8
1
 10
860.922319100029
 20
-1250.7373589677682
  0
VERTEX
  8
1
 10
860.980319100029
 20
-1250.7363589677682
  0
VERTEX
  8
1
 10
865.917319100029
 20
-1250.5353589677682
  0
VERTEX
  8
1
 10
870.9213191000289
 20
-1250.3223589677682
  0
VERTEX
  8
1
 10
875.9163191000289
 20
-1250.1093589677682
  0
VERTEX
  8
1
 10
880.9203191000289
 20
-1249.906358967768
  0
VERTEX
  8
1
 10
884.0303191000289
 20
-1249.7678642832566
  0
VERTEX
  8
1
 10
885.9143191000289
 20
-1249.663358967768
  0
VERTEX
  8
1
 10
890.908319100029
 20
-1249.396358967768
  0
VERTEX
  8
1
 10
895.9013191000289
 20
-1249.1293589677682
  0
VERTEX
  8
1
 10
900.9043191000289
 20
-1248.8623589677682
  0
VERTEX
  8
1
 10
905.8973191000289
 20
-1248.595358967768
  0
VERTEX
  8
1
 10
906.750319100029
 20
-1248.5475653189387
  0
VERTEX
  8
1
 10
910.8883191000289
 20
-1248.2763589677681
  0
VERTEX
  8
1
 10
915.8793191000289
 20
-1247.9583589677682
  0
VERTEX
  8
1
 10
920.8713191000289
 20
-1247.6313589677682
  0
VERTEX
  8
1
 10
925.8623191000289
 20
-1247.3043589677682
  0
VERTEX
  8
1
 10
929.4803191000289
 20
-1247.0666139000184
  0
VERTEX
  8
1
 10
930.8523191000289
 20
-1246.962358967768
  0
VERTEX
  8
1
 10
935.841319100029
 20
-1246.581358967768
  0
VERTEX
  8
1
 10
940.8293191000289
 20
-1246.191358967768
  0
VERTEX
  8
1
 10
945.8183191000289
 20
-1245.811358967768
  0
VERTEX
  8
1
 10
950.8073191000288
 20
-1245.4313589677681
  0
VERTEX
  8
1
 10
952.1903191000289
 20
-1245.3230901461448
  0
VERTEX
  8
1
 10
955.793319100029
 20
-1245.001358967768
  0
VERTEX
  8
1
 10
960.7783191000289
 20
-1244.566358967768
  0
VERTEX
  8
1
 10
965.7633191000289
 20
-1244.1313589677682
  0
VERTEX
  8
1
 10
970.7493191000289
 20
-1243.685358967768
  0
VERTEX
  8
1
 10
974.8720315120244
 20
-1243.3251954997188
  0
VERTEX
  8
1
 10
975.7233191000289
 20
-1243.242358967768
  0
VERTEX
  8
1
 10
980.7053191000289
 20
-1242.7373589677682
  0
VERTEX
  8
1
 10
985.687319100029
 20
-1242.243358967768
  0
VERTEX
  8
1
 10
990.6593191000289
 20
-1241.749358967768
  0
VERTEX
  8
1
 10
995.6413191000289
 20
-1241.244358967768
  0
VERTEX
  8
1
 10
997.4766274163346
 20
-1241.0620587634357
  0
VERTEX
  8
1
 10
1000.6083191000289
 20
-1240.6983589677682
  0
VERTEX
  8
1
 10
1005.5833191000289
 20
-1240.1013589677682
  0
VERTEX
  8
1
 10
1008.7938520423008
 20
-1239.7158201595753
  0
VERTEX
  8
1
 10
1010.5443191000289
 20
-1239.470358967768
  0
VERTEX
  8
1
 10
1015.489319100029
 20
-1238.7643589677682
  0
VERTEX
  8
1
 10
1020.0211732396521
 20
-1238.1100252017382
  0
VERTEX
  8
1
 10
1020.4433191000289
 20
-1238.039358967768
  0
VERTEX
  8
1
 10
1025.375319100029
 20
-1237.2273589677682
  0
VERTEX
  8
1
 10
1030.317319100029
 20
-1236.405358967768
  0
VERTEX
  8
1
 10
1031.204908990038
 20
-1236.2520949378245
  0
VERTEX
  8
1
 10
1035.226319100029
 20
-1235.470358967768
  0
VERTEX
  8
1
 10
1040.143319100029
 20
-1234.5363589677681
  0
VERTEX
  8
1
 10
1042.3269706507683
 20
-1234.1029198229435
  0
VERTEX
  8
1
 10
1045.041319100029
 20
-1233.5043589677682
  0
VERTEX
  8
1
 10
1049.931319100029
 20
-1232.4473589677682
  0
VERTEX
  8
1
 10
1053.4217040614074
 20
-1231.6689762553485
  0
VERTEX
  8
1
 10
1054.805319100029
 20
-1231.331358967768
  0
VERTEX
  8
1
 10
1059.667319100029
 20
-1230.155358967768
  0
VERTEX
  8
1
 10
1064.430319100029
 20
-1228.9663589677682
  0
VERTEX
  8
1
 10
1064.518319100029
 20
-1228.9473589677682
  0
VERTEX
  8
1
 10
1069.358319100029
 20
-1227.665358967768
  0
VERTEX
  8
1
 10
1074.187319100029
 20
-1226.3523589677682
  0
VERTEX
  8
1
 10
1075.3854055494378
 20
-1226.0242191736384
  0
VERTEX
  8
1
 10
1078.989319100029
 20
-1224.9553589677682
  0
VERTEX
  8
1
 10
1083.775319100029
 20
-1223.503358967768
  0
VERTEX
  8
1
 10
1085.9750066929364
 20
-1222.7370958868148
  0
VERTEX
  8
1
 10
1088.450319100029
 20
-1221.7143589677682
  0
VERTEX
  8
1
 10
1093.122319100029
 20
-1219.9383589677682
  0
VERTEX
  8
1
 10
1097.794319100029
 20
-1218.1413589677682
  0
VERTEX
  8
1
 10
1100.1201692089694
 20
-1217.2209414141018
  0
VERTEX
  8
1
 10
1102.421319100029
 20
-1216.2573589677681
  0
VERTEX
  8
1
 10
1107.063319100029
 20
-1214.375358967768
  0
VERTEX
  8
1
 10
1111.6953191000289
 20
-1212.4933589677682
  0
VERTEX
  8
1
 10
1114.349737026934
 20
-1211.3818803355746
  0
VERTEX
  8
1
 10
1116.293319100029
 20
-1210.521358967768
  0
VERTEX
  8
1
 10
1120.893319100029
 20
-1208.5433589677682
  0
VERTEX
  8
1
 10
1125.482319100029
 20
-1206.5753589677681
  0
VERTEX
  8
1
 10
1128.4981300333757
 20
-1205.2395465678048
  0
VERTEX
  8
1
 10
1130.0503191000291
 20
-1204.5133589677682
  0
VERTEX
  8
1
 10
1134.604319100029
 20
-1202.4573589677682
  0
VERTEX
  8
1
 10
1139.159319100029
 20
-1200.3903589677682
  0
VERTEX
  8
1
 10
1142.4537995169437
 20
-1198.8423424839968
  0
VERTEX
  8
1
 10
1143.671319100029
 20
-1198.233358967768
  0
VERTEX
  8
1
 10
1148.171319100029
 20
-1196.052358967768
  0
VERTEX
  8
1
 10
1151.59027469403
 20
-1194.3303721301247
  0
VERTEX
  8
1
 10
1152.627319100029
 20
-1193.768358967768
  0
VERTEX
  8
1
 10
1157.070319100029
 20
-1191.4583589677682
  0
VERTEX
  8
1
 10
1160.540195575919
 20
-1189.5861119195476
  0
VERTEX
  8
1
 10
1161.449319100029
 20
-1189.060358967768
  0
VERTEX
  8
1
 10
1165.8203191000289
 20
-1186.615358967768
  0
VERTEX
  8
1
 10
1169.3757428814895
 20
-1184.553664152543
  0
VERTEX
  8
1
 10
1170.1293191000289
 20
-1184.0853589677681
  0
VERTEX
  8
1
 10
1174.424319100029
 20
-1181.5143589677682
  0
VERTEX
  8
1
 10
1178.2293567409804
 20
-1179.222194527206
  0
VERTEX
  8
1
 10
1178.709319100029
 20
-1178.933358967768
  0
VERTEX
  8
1
 10
1183.004319100029
 20
-1176.3623589677682
  0
VERTEX
  8
1
 10
1189.730319100029
 20
-1172.326358967768
  0
VERTEX
  8
1
 10
1191.966319100029
 20
-1178.194358967768
  0
VERTEX
  8
1
 10
1194.191319100029
 20
-1184.072358967768
  0
VERTEX
  8
1
 10
1195.2956314119003
 20
-1186.9749253432176
  0
VERTEX
  8
1
 10
1196.433319100029
 20
-1189.9483589677682
  0
VERTEX
  8
1
 10
1196.460319100029
 20
-1190.0063589677682
  0
VERTEX
  8
1
 10
1197.5540289330763
 20
-1192.5095819729165
  0
VERTEX
  8
1
 10
1198.797428078833
 20
-1194.9583973492952
  0
VERTEX
  8
1
 10
1199.166319100029
 20
-1195.590358967768
  0
VERTEX
  8
1
 10
1200.1487282198796
 20
-1197.3286086175772
  0
VERTEX
  8
1
 10
1201.7121930879825
 20
-1199.7916837135306
  0
VERTEX
  8
1
 10
1202.503319100029
 20
-1200.9023589677681
  0
VERTEX
  8
1
 10
1203.3761855999935
 20
-1202.1621612182455
  0
VERTEX
  8
1
 10
1205.1795013499302
 20
-1204.4723985941
  0
VERTEX
  8
1
 10
1206.370319100029
 20
-1205.846358967768
  0
VERTEX
  8
1
 10
1206.9377720316552
 20
-1206.366375219818
  0
VERTEX
  8
1
 10
1210.3751159127141
 20
-1209.0132039282291
  0
VERTEX
  8
1
 10
1211.312319100029
 20
-1209.636358967768
  0
VERTEX
  8
1
 10
1214.145511082344
 20
-1211.4504491117807
  0
VERTEX
  8
1
 10
1216.699319100029
 20
-1212.8633589677681
  0
VERTEX
  8
1
 10
1218.086722585867
 20
-1213.668070224122
  0
VERTEX
  8
1
 10
1222.210319100029
 20
-1215.706358967768
  0
VERTEX
  8
1
 10
1222.280319100029
 20
-1215.7263589677682
  0
VERTEX
  8
1
 10
1228.037319100029
 20
-1218.2473589677682
  0
VERTEX
  8
1
 10
1229.8890391842451
 20
-1219.0529010458747
  0
VERTEX
  8
1
 10
1233.856319100029
 20
-1220.5933589677682
  0
VERTEX
  8
1
 10
1237.7809382218643
 20
-1222.1073439343256
  0
VERTEX
  8
1
 10
1239.7533191000289
 20
-1222.7763589677681
  0
VERTEX
  8
1
 10
1245.706319100029
 20
-1224.769358967768
  0
VERTEX
  8
1
 10
1245.8003191000291
 20
-1224.7863589677681
  0
VERTEX
  8
1
 10
1252.300319100029
 20
-1226.7263589677682
  0
VERTEX
  8
1
 10
1252.8403191000289
 20
-1224.7963589677681
  0
VERTEX
  8
1
 10
1254.815666636408
 20
-1224.9946982829858
  0
VERTEX
  8
1
 10
1275.9963191000288
 20
-1227.619358967768
  0
VERTEX
  8
1
 10
1299.1983191000288
 20
-1230.2383589677681
  0
VERTEX
  8
1
 10
1322.4003191000288
 20
-1232.857358967768
  0
VERTEX
  8
1
 10
1345.6023191000288
 20
-1235.4663589677682
  0
VERTEX
  8
1
 10
1368.804319100029
 20
-1238.0853589677681
  0
VERTEX
  8
1
 10
1392.006319100029
 20
-1240.694358967768
  0
VERTEX
  8
1
 10
1415.207319100029
 20
-1243.3123589677682
  0
VERTEX
  8
1
 10
1433.6792353339554
 20
-1245.389407211417
  0
VERTEX
  8
1
 10
1446.150319100029
 20
-1246.7963589677681
  0
VERTEX
  8
1
 10
1442.6817918679787
 20
-1266.3235131289819
  0
VERTEX
  8
1
 10
1441.0993191000289
 20
-1275.2373589677682
  0
VERTEX
  8
1
 10
1440.897757765464
 20
-1276.4727143680193
  0
VERTEX
  8
1
 10
1439.4637090825283
 20
-1286.0217938052776
  0
VERTEX
  8
1
 10
1438.218394235109
 20
-1295.1100207148293
  0
VERTEX
  8
1
 10
1437.1303191000288
 20
-1303.816358967768
  0
VERTEX
  8
1
 10
1437.127319100029
 20
-1303.839358967768
  0
VERTEX
  8
1
 10
1436.3112959341754
 20
-1312.1805948638457
  0
VERTEX
  8
1
 10
1435.6333486473975
 20
-1320.2234999772415
  0
VERTEX
  8
1
 10
1434.792319100029
 20
-1332.627358967768
  0
VERTEX
  8
1
 10
1434.5929497274399
 20
-1335.9228670726848
  0
VERTEX
  8
1
 10
1433.9612347822856
 20
-1351.1438350945054
  0
VERTEX
  8
1
 10
1433.1803191000288
 20
-1382.2663589677682
  0
VERTEX
  8
1
 10
1426.750319100029
 20
-1382.019358967768
  0
VERTEX
  8
1
 10
1421.2645024831286
 20
-1381.8082605055404
  0
VERTEX
  8
1
 10
1420.309319100029
 20
-1381.768358967768
  0
VERTEX
  8
1
 10
1418.1865667571553
 20
-1381.7304492683204
  0
VERTEX
  8
1
 10
1415.368884483582
 20
-1381.8027395868728
  0
VERTEX
  8
1
 10
1413.882319100029
 20
-1381.8993589677682
  0
VERTEX
  8
1
 10
1412.5596686556828
 20
-1382.0181204834428
  0
VERTEX
  8
1
 10
1409.7568735938135
 20
-1382.3905412495008
  0
VERTEX
  8
1
 10
1407.509319100029
 20
-1382.7743589677682
  0
VERTEX
  8
1
 10
1406.987690054912
 20
-1382.8745996315993
  0
VERTEX
  8
1
 10
1404.244349816843
 20
-1383.52846018924
  0
VERTEX
  8
1
 10
1401.5309873324886
 20
-1384.2923236740235
  0
VERTEX
  8
1
 10
1401.2843191000288
 20
-1384.3733589677681
  0
VERTEX
  8
1
 10
1398.870169645917
 20
-1385.22175056912
  0
VERTEX
  8
1
 10
1396.2393852457863
 20
-1386.2572139335464
  0
VERTEX
  8
1
 10
1395.279319100029
 20
-1386.683358967768
  0
VERTEX
  8
1
 10
1393.6730190112864
 20
-1387.432763425209
  0
VERTEX
  8
1
 10
1391.1755908944203
 20
-1388.7258514265372
  0
VERTEX
  8
1
 10
1389.568319100029
 20
-1389.637358967768
  0
VERTEX
  8
1
 10
1388.7321994356557
 20
-1390.143843500234
  0
VERTEX
  8
1
 10
1386.3880316848686
 20
-1391.707335832823
  0
VERTEX
  8
1
 10
1384.2553191000288
 20
-1393.260358967768
  0
VERTEX
  8
1
 10
1384.1054428771492
 20
-1393.3735687158053
  0
VERTEX
  8
1
 10
1381.9222408929463
 20
-1395.151782775962
  0
VERTEX
  8
1
 10
1379.808183608168
 20
-1397.0309863014895
  0
VERTEX
  8
1
 10
1379.371319100029
 20
-1397.4503589677681
  0
VERTEX
  8
1
 10
1377.6921235997124
 20
-1399.1118127356808
  0
VERTEX
  8
1
 10
1375.6529580884342
 20
-1401.27824512456
  0
VERTEX
  8
1
 10
1374.942319100029
 20
-1402.1013589677682
  0
VERTEX
  8
1
 10
1373.7263916659983
 20
-1403.535001673257
  0
VERTEX
  8
1
 10
1371.8862838232901
 20
-1405.8690358605431
  0
VERTEX
  8
1
 10
1370.955319100029
 20
-1407.153358967768
  0
VERTEX
  8
1
 10
1370.1553322530417
 20
-1408.2901611723046
  0
VERTEX
  8
1
 10
1368.536543953565
 20
-1410.7786268144
  0
VERTEX
  8
1
 10
1367.484319100029
 20
-1412.551358967768
  0
VERTEX
  8
1
 10
1367.0248032892594
 20
-1413.3414857676464
  0
VERTEX
  8
1
 10
1365.6289774760637
 20
-1415.974330174706
  0
VERTEX
  8
1
 10
1364.523319100029
 20
-1418.262358967768
  0
VERTEX
  8
1
 10
1364.3380055644534
 20
-1418.6576653660004
  0
VERTEX
  8
1
 10
1363.1841203037004
 20
-1421.3971872858044
  0
VERTEX
  8
1
 10
1362.130319100029
 20
-1424.176358967768
  0
VERTEX
  8
1
 10
1362.116319100029
 20
-1424.2163589677682
  0
VERTEX
  8
1
 10
1361.206539012519
 20
-1427.0025937285363
  0
VERTEX
  8
1
 10
1360.4018953814787
 20
-1429.863516297041
  0
VERTEX
  8
1
 10
1360.2753191000288
 20
-1430.3813589677682
  0
VERTEX
  8
1
 10
1359.7351560611223
 20
-1432.75824746672
  0
VERTEX
  8
1
 10
1359.1867092366535
 20
-1435.6733488377454
  0
VERTEX
  8
1
 10
1359.039319100029
 20
-1436.692358967768
  0
VERTEX
  8
1
 10
1358.8116951153836
 20
-1438.8682675976909
  0
VERTEX
  8
1
 10
1358.383319100029
 20
-1443.096358967768
  0
VERTEX
  8
1
 10
1357.865319100029
 20
-1449.512358967768
  0
VERTEX
  8
1
 10
1357.7834989801786
 20
-1450.2927384694433
  0
VERTEX
  8
1
 10
1357.339319100029
 20
-1455.9273589677682
  0
VERTEX
  8
1
 10
1356.8890853698172
 20
-1461.6280713526767
  0
VERTEX
  8
1
 10
1356.8493191000289
 20
-1462.347358967768
  0
VERTEX
  8
1
 10
1356.4363191000289
 20
-1468.771358967768
  0
VERTEX
  8
1
 10
1356.1328229690434
 20
-1472.988271690659
  0
VERTEX
  8
1
 10
1356.028319100029
 20
-1475.201358967768
  0
VERTEX
  8
1
 10
1355.623319100029
 20
-1481.618358967768
  0
VERTEX
  8
1
 10
1355.4518785430087
 20
-1484.331320413051
  0
VERTEX
  8
1
 10
1355.3043191000288
 20
-1488.051358967768
  0
VERTEX
  8
1
 10
1354.989319100029
 20
-1494.4773589677682
  0
VERTEX
  8
1
 10
1354.879883090493
 20
-1496.0980158040022
  0
VERTEX
  8
1
 10
1354.673319100029
 20
-1500.906358967768
  0
VERTEX
  8
1
 10
1354.356319100029
 20
-1507.336358967768
  0
VERTEX
  8
1
 10
1354.3271189094537
 20
-1507.8701594918477
  0
VERTEX
  8
1
 10
1354.135319100029
 20
-1513.7773589677681
  0
VERTEX
  8
1
 10
1353.9085533523892
 20
-1519.6393026184144
  0
VERTEX
  8
1
 10
1353.900319100029
 20
-1520.206358967768
  0
VERTEX
  8
1
 10
1353.671319100029
 20
-1526.643358967768
  0
VERTEX
  8
1
 10
1353.495457612373
 20
-1531.5687917024807
  0
VERTEX
  8
1
 10
1353.443319100029
 20
-1533.070358967768
  0
VERTEX
  8
1
 10
1353.208319100029
 20
-1539.5073589677681
  0
VERTEX
  8
1
 10
1352.9403191000288
 20
-1546.9763589677682
  0
VERTEX
  8
1
 10
1342.1034885760182
 20
-1546.5358673957373
  0
VERTEX
  8
1
 10
1321.7393191000288
 20
-1545.702358967768
  0
VERTEX
  8
1
 10
1301.390319100029
 20
-1544.8793589677682
  0
VERTEX
  8
1
 10
1281.0413191000289
 20
-1544.0563589677681
  0
VERTEX
  8
1
 10
1260.692319100029
 20
-1543.232358967768
  0
VERTEX
  8
1
 10
1240.343319100029
 20
-1542.3993589677682
  0
VERTEX
  8
1
 10
1219.9943191000289
 20
-1541.576358967768
  0
VERTEX
  8
1
 10
1199.645319100029
 20
-1540.753358967768
  0
VERTEX
  8
1
 10
1190.367358318876
 20
-1540.4185170637081
  0
VERTEX
  8
1
 10
1179.4918032658288
 20
-1539.8699766219054
  0
VERTEX
  8
1
 10
1179.303319100029
 20
-1539.8533589677681
  0
VERTEX
  8
1
 10
1159.019319100029
 20
-1538.1013589677682
  0
VERTEX
  8
1
 10
1138.776319100029
 20
-1535.898358967768
  0
VERTEX
  8
1
 10
1128.9268242641583
 20
-1534.8564846173651
  0
VERTEX
  8
1
 10
1118.527319100029
 20
-1533.6973589677682
  0
VERTEX
  8
1
 10
1098.283319100029
 20
-1531.499358967768
  0
VERTEX
  8
1
 10
1078.4927896123704
 20
-1529.3516312258785
  0
VERTEX
  8
1
 10
1078.038319100029
 20
-1529.299358967768
  0
VERTEX
  8
1
 10
1057.794319100029
 20
-1527.052358967768
  0
VERTEX
  8
1
 10
1040.3770737597708
 20
-1525.135943601542
  0
VERTEX
  8
1
 10
1037.5523191000289
 20
-1524.8043589677682
  0
VERTEX
  8
1
 10
1017.3113191000289
 20
-1522.559358967768
  0
VERTEX
  8
1
 10
1002.2509864852703
 20
-1520.8441397396075
  0
VERTEX
  8
1
 10
1000.5810908790345
 20
-1520.6729080469581
  0
VERTEX
  8
1
 10
997.0753191000289
 20
-1520.319358967768
  0
VERTEX
  8
1
 10
994.000319100029
 20
-1520.0163589677682
  0
VERTEX
  8
1
 10
994.2729774559167
 20
-1517.02877509096
  0
VERTEX
  8
1
 10
994.000319100029
 20
-1520.0163589677682
  0
VERTEX
  8
1
 10
979.3995994590111
 20
-1518.706205042998
  0
VERTEX
  8
1
 10
976.7913191000289
 20
-1518.4843589677682
  0
VERTEX
  8
1
 10
956.5403191000289
 20
-1516.8063589677681
  0
VERTEX
  8
1
 10
956.489319100029
 20
-1516.8033589677682
  0
VERTEX
  8
1
 10
936.187319100029
 20
-1515.243358967768
  0
VERTEX
  8
1
 10
933.6704946976298
 20
-1515.0529052887198
  0
VERTEX
  8
1
 10
915.8683191000289
 20
-1513.811358967768
  0
VERTEX
  8
1
 10
910.8104927030444
 20
-1513.4616410726685
  0
VERTEX
  8
1
 10
895.543319100029
 20
-1512.5133589677682
  0
VERTEX
  8
1
 10
887.9001559075263
 20
-1512.046114179014
  0
VERTEX
  8
1
 10
875.2133191000289
 20
-1511.347358967768
  0
VERTEX
  8
1
 10
865.0100302551089
 20
-1510.7909437531955
  0
VERTEX
  8
1
 10
854.877319100029
 20
-1510.309358967768
  0
VERTEX
  8
1
 10
842.1036015519938
 20
-1509.708253905605
  0
VERTEX
  8
1
 10
834.5273191000289
 20
-1509.398358967768
  0
VERTEX
  8
1
 10
819.202311284854
 20
-1508.7932914096316
  0
VERTEX
  8
1
 10
814.1743191000289
 20
-1508.619358967768
  0
VERTEX
  8
1
 10
793.828319100029
 20
-1507.933358967768
  0
VERTEX
  8
1
 10
773.4733191000289
 20
-1507.2473589677682
  0
VERTEX
  8
1
 10
753.118319100029
 20
-1506.5623589677682
  0
VERTEX
  8
1
 10
751.3152611070051
 20
-1506.5004152104486
  0
VERTEX
  8
1
 10
732.7613191000289
 20
-1505.907358967768
  0
VERTEX
  8
1
 10
712.4053191000289
 20
-1505.2763589677681
  0
VERTEX
  8
1
 10
692.049319100029
 20
-1504.636358967768
  0
VERTEX
  8
1
 10
683.4081554010473
 20
-1504.3641952687865
  0
VERTEX
  8
1
 10
671.692319100029
 20
-1504.019358967768
  0
VERTEX
  8
1
 10
651.334319100029
 20
-1503.4313589677681
  0
VERTEX
  8
1
 10
638.7552719741949
 20
-1503.0674910846303
  0
VERTEX
  8
1
 10
635.3003191000289
 20
-1502.9663589677682
  0
VERTEX
  8
1
 10
635.385961782847
 20
-1499.9675816617848
  0
VERTEX
  8
1
 10
635.3003191000289
 20
-1502.9663589677682
  0
VERTEX
  8
1
 10
630.977319100029
 20
-1502.845358967768
  0
VERTEX
  8
1
 10
615.5010831554312
 20
-1502.3971230231703
  0
VERTEX
  8
1
 10
610.619319100029
 20
-1502.2653589677682
  0
VERTEX
  8
1
 10
590.2613191000289
 20
-1501.724358967768
  0
VERTEX
  8
1
 10
569.902319100029
 20
-1501.193358967768
  0
VERTEX
  8
1
 10
549.544319100029
 20
-1500.6523589677681
  0
VERTEX
  8
1
 10
547.6041176884424
 20
-1500.6011105803925
  0
VERTEX
  8
1
 10
529.185319100029
 20
-1500.1523589677681
  0
VERTEX
  8
1
 10
508.82631910002897
 20
-1499.6673589677682
  0
VERTEX
  8
1
 10
488.46731910002893
 20
-1499.1813589677681
  0
VERTEX
  8
1
 10
479.66683625123756
 20
-1498.9671986394937
  0
VERTEX
  8
1
 10
468.107319100029
 20
-1498.711358967768
  0
VERTEX
  8
1
 10
447.73731910002897
 20
-1498.270358967768
  0
VERTEX
  8
1
 10
427.37731910002896
 20
-1497.839358967768
  0
VERTEX
  8
1
 10
411.7397490788499
 20
-1497.4934695360703
  0
VERTEX
  8
1
 10
407.017319100029
 20
-1497.3993589677682
  0
VERTEX
  8
1
 10
386.657319100029
 20
-1497.0133589677682
  0
VERTEX
  8
1
 10
366.297319100029
 20
-1496.627358967768
  0
VERTEX
  8
1
 10
345.936319100029
 20
-1496.232358967768
  0
VERTEX
  8
1
 10
343.8216331126861
 20
-1496.191825422057
  0
VERTEX
  8
1
 10
325.565319100029
 20
-1495.888358967768
  0
VERTEX
  8
1
 10
305.20431910002895
 20
-1495.549358967768
  0
VERTEX
  8
1
 10
284.84331910002896
 20
-1495.201358967768
  0
VERTEX
  8
1
 10
276.14689647983204
 20
-1495.1475079581546
  0
VERTEX
  8
1
 10
275.98031910002896
 20
-1495.0563589677681
  0
VERTEX
  8
1
 10
275.9399577917105
 20
-1492.0566304859233
  0
VERTEX
  8
1
 10
275.98031910002896
 20
-1495.0563589677681
  0
VERTEX
  8
1
 10
245.7603191000289
 20
-1495.5563589677681
  0
VERTEX
  8
1
 10
245.76031910002897
 20
-1495.5563589677681
  0
VERTEX
  8
1
 10
245.76031910002897
 20
-1471.028358967768
  0
VERTEX
  8
1
 10
245.76031910002897
 20
-1470.028358967768
  0
SEQEND
  0
ENDBLK
  0
BLOCK
  2
17
  8
1
 10
0
 20
0
 70
64
  0
POLYLINE
  8
1
  62
3
10
0
 20
0
 66
1
  0
VERTEX
  8
1
 10
122.34939740163419
 20
-1744.87800453871
  0
VERTEX
  8
1
 10
152.3493974016342
 20
-1774.87800453871
  0
VERTEX
  8
1
 10
152.34939740163406
 20
-1074.87800453871
  0
VERTEX
  8
1
 10
122.34939740163406
 20
-1044.87800453871
  0
VERTEX
  8
1
 10
122.34939740163419
 20
-1744.87800453871
  0
VERTEX
  8
1
 10
122.34939740163419
 20
-1744.87800453871
  0
VERTEX
  8
1
 10
152.3493974016342
 20
-1774.87800453871
  0
VERTEX
  8
1
 10
152.3493974016342
 20
-1773.87800453871
  0
SEQEND
  0
ENDBLK
  0
BLOCK
  2
18
  8
1
 10
0
 20
0
 70
64
  0
POLYLINE
  8
1
  62
3
10
0
 20
0
 66
1
  0
VERTEX
  8
1
 10
1330.4292738348888
 20
-336.23131269791423
  0
VERTEX
  8
1
 10
1334.9758931965046
 20
-318.55592665212447
  0
VERTEX
  8
1
 10
1337.0052738348888
 20
-310.66331269791425
  0
VERTEX
  8
1
 10
1343.5682738348887
 20
-285.08431269791424
  0
VERTEX
  8
1
 10
1350.1312738348888
 20
-259.50531269791423
  0
VERTEX
  8
1
 10
1350.5313656360765
 20
-257.9321670477949
  0
VERTEX
  8
1
 10
1354.6873362668955
 20
-240.75867620236346
  0
VERTEX
  8
1
 10
1356.2932738348889
 20
-233.83431269791424
  0
VERTEX
  8
1
 10
1358.7962142216522
 20
-222.9988202652102
  0
VERTEX
  8
1
 10
1362.0492738348887
 20
-208.06531269791424
  0
VERTEX
  8
1
 10
1362.7432878995464
 20
-204.83017518862005
  0
VERTEX
  8
1
 10
1366.4214144995751
 20
-186.38824521926557
  0
VERTEX
  8
1
 10
1367.1892738348888
 20
-182.1673126979142
  0
VERTEX
  8
1
 10
1370.0812426491375
 20
-166.23718186251972
  0
VERTEX
  8
1
 10
1371.7572738348888
 20
-156.16831269791425
  0
VERTEX
  8
1
 10
1373.4390118892625
 20
-145.9966339005715
  0
VERTEX
  8
1
 10
1375.8552738348887
 20
-130.09031269791421
  0
VERTEX
  8
1
 10
1376.50867486867
 20
-125.75579593192028
  0
VERTEX
  8
1
 10
1379.3237013818693
 20
-105.67263554247019
  0
VERTEX
  8
1
 10
1379.550273834889
 20
-103.94031269791422
  0
VERTEX
  8
1
 10
1381.9018928525702
 20
-85.87619809569543
  0
VERTEX
  8
1
 10
1382.9022738348888
 20
-77.75031269791423
  0
VERTEX
  8
1
 10
1384.2725336407993
 20
-66.50646740623115
  0
VERTEX
  8
1
 10
1385.9872738348888
 20
-51.53431269791422
  0
VERTEX
  8
1
 10
1388.4958413442491
 20
-29.360917422138314
  0
VERTEX
  8
1
 10
1390.2592738348887
 20
-13.811312697914204
  0
VERTEX
  8
1
 10
1412.3126258752204
 20
-16.61465351404682
  0
VERTEX
  8
1
 10
1412.9910681165463
 20
-16.82203041057717
  0
VERTEX
  8
1
 10
1413.4672738348888
 20
-16.98331269791423
  0
VERTEX
  8
1
 10
1434.0837777188642
 20
-23.362515415816873
  0
VERTEX
  8
1
 10
1442.8992738348888
 20
-26.091312697914205
  0
VERTEX
  8
1
 10
1441.855096453266
 20
-32.3903678313214
  0
VERTEX
  8
1
 10
1440.8220144638212
 20
-38.67757296905036
  0
VERTEX
  8
1
 10
1438.5972738348887
 20
-52.137312697914226
  0
VERTEX
  8
1
 10
1438.0642159165768
 20
-55.4110940896729
  0
VERTEX
  8
1
 10
1435.4974105944755
 20
-72.04753077023355
  0
VERTEX
  8
1
 10
1434.589273834889
 20
-78.22231269791423
  0
VERTEX
  8
1
 10
1433.1469142441565
 20
-88.71399557798289
  0
VERTEX
  8
1
 10
1431.1252738348887
 20
-104.38131269791423
  0
VERTEX
  8
1
 10
1430.9966941612408
 20
-105.4038860978948
  0
VERTEX
  8
1
 10
1429.0401859345661
 20
-122.12810500450634
  0
VERTEX
  8
1
 10
1428.1102738348889
 20
-130.60131269791424
  0
VERTEX
  8
1
 10
1427.251374566288
 20
-138.86382855228447
  0
VERTEX
  8
1
 10
1425.6506671854727
 20
-155.62329881791078
  0
VERTEX
  8
1
 10
1425.540273834889
 20
-156.8743126979142
  0
VERTEX
  8
1
 10
1424.276452691607
 20
-172.39982782880446
  0
VERTEX
  8
1
 10
1423.4882738348888
 20
-183.1873126979142
  0
VERTEX
  8
1
 10
1422.9830017190147
 20
-191.1979177872812
  0
VERTEX
  8
1
 10
1421.9432738348887
 20
-209.52631269791425
  0
VERTEX
  8
1
 10
1421.9242269557958
 20
-210.0045529286819
  0
VERTEX
  8
1
 10
1421.3112645700694
 20
-228.8507794808911
  0
VERTEX
  8
1
 10
1421.1302738348888
 20
-235.90631269791425
  0
VERTEX
  8
1
 10
1421.0876430965002
 20
-247.69419588934454
  0
VERTEX
  8
1
 10
1421.1432738348888
 20
-262.3043126979142
  0
VERTEX
  8
1
 10
1421.2604632806617
 20
-266.5518531213952
  0
VERTEX
  8
1
 10
1421.9118452649807
 20
-285.3870721125757
  0
VERTEX
  8
1
 10
1422.0482738348887
 20
-288.67831269791424
  0
VERTEX
  8
1
 10
1423.1276231903719
 20
-304.1842473899324
  0
VERTEX
  8
1
 10
1424.5657156110242
 20
-322.97662254356396
  0
VERTEX
  8
1
 10
1425.9592738348888
 20
-341.19131269791427
  0
VERTEX
  8
1
 10
1413.6105675891129
 20
-341.19483034670367
  0
VERTEX
  8
1
 10
1390.8542738348888
 20
-341.2053126979143
  0
VERTEX
  8
1
 10
1369.060273834889
 20
-341.2083126979142
  0
VERTEX
  8
1
 10
1351.0727828896825
 20
-341.18384941177163
  0
VERTEX
  8
1
 10
1330.4292738348888
 20
-336.23131269791423
  0
VERTEX
  8
1
 10
1330.4292738348888
 20
-336.23131269791423
  0
VERTEX
  8
1
 10
1334.9758931965046
 20
-318.55592665212447
  0
VERTEX
  8
1
 10
1335.224917125226
 20
-317.5874293196945
  0
SEQEND
  0
ENDBLK
  0
BLOCK
  2
19
  8
1
 10
0
 20
0
 70
64
  0
POLYLINE
  8
1
  62
3
10
0
 20
0
 66
1
  0
VERTEX
  8
1
 10
121.95937203488879
 20
-397.18887370290867
  0
VERTEX
  8
1
 10
126.50599139650453
 20
-414.86425974869843
  0
VERTEX
  8
1
 10
128.53537203488878
 20
-422.7568737029087
  0
VERTEX
  8
1
 10
135.0983720348888
 20
-448.3358737029087
  0
VERTEX
  8
1
 10
141.66137203488879
 20
-473.91487370290866
  0
VERTEX
  8
1
 10
142.0614638360766
 20
-475.48801935302805
  0
VERTEX
  8
1
 10
146.21743446689555
 20
-492.66151019845944
  0
VERTEX
  8
1
 10
147.8233720348888
 20
-499.5858737029087
  0
VERTEX
  8
1
 10
150.32631242165212
 20
-510.42136613561274
  0
VERTEX
  8
1
 10
153.5793720348888
 20
-525.3548737029087
  0
VERTEX
  8
1
 10
154.27338609954637
 20
-528.5900112122029
  0
VERTEX
  8
1
 10
157.95151269957512
 20
-547.0319411815573
  0
VERTEX
  8
1
 10
158.7193720348888
 20
-551.2528737029087
  0
VERTEX
  8
1
 10
161.61134084913755
 20
-567.1830045383031
  0
VERTEX
  8
1
 10
163.2873720348888
 20
-577.2518737029086
  0
VERTEX
  8
1
 10
164.9691100892624
 20
-587.4235525002514
  0
VERTEX
  8
1
 10
167.3853720348888
 20
-603.3298737029087
  0
VERTEX
  8
1
 10
168.0387730686698
 20
-607.6643904689025
  0
VERTEX
  8
1
 10
170.8537995818693
 20
-627.7475508583526
  0
VERTEX
  8
1
 10
171.0803720348888
 20
-629.4798737029087
  0
VERTEX
  8
1
 10
173.43199105257023
 20
-647.5439883051274
  0
VERTEX
  8
1
 10
174.43237203488883
 20
-655.6698737029086
  0
VERTEX
  8
1
 10
175.8026318407993
 20
-666.9137189945917
  0
VERTEX
  8
1
 10
177.5173720348888
 20
-681.8858737029086
  0
VERTEX
  8
1
 10
180.02593954424907
 20
-704.0592689786846
  0
VERTEX
  8
1
 10
181.78937203488883
 20
-719.6088737029087
  0
VERTEX
  8
1
 10
203.84272407522042
 20
-716.8055328867761
  0
VERTEX
  8
1
 10
204.52116631654627
 20
-716.5981559902457
  0
VERTEX
  8
1
 10
204.99737203488883
 20
-716.4368737029087
  0
VERTEX
  8
1
 10
225.61387591886427
 20
-710.057670985006
  0
VERTEX
  8
1
 10
234.42937203488881
 20
-707.3288737029087
  0
VERTEX
  8
1
 10
233.38519465326613
 20
-701.0298185695015
  0
VERTEX
  8
1
 10
232.3521126638213
 20
-694.7426134317725
  0
VERTEX
  8
1
 10
230.12737203488882
 20
-681.2828737029087
  0
VERTEX
  8
1
 10
229.5943141165769
 20
-678.00909231115
  0
VERTEX
  8
1
 10
227.02750879447535
 20
-661.3726556305893
  0
VERTEX
  8
1
 10
226.1193720348888
 20
-655.1978737029086
  0
VERTEX
  8
1
 10
224.6770124441565
 20
-644.70619082284
  0
VERTEX
  8
1
 10
222.6553720348888
 20
-629.0388737029086
  0
VERTEX
  8
1
 10
222.52679236124072
 20
-628.016300302928
  0
VERTEX
  8
1
 10
220.57028413456618
 20
-611.2920813963165
  0
VERTEX
  8
1
 10
219.6403720348888
 20
-602.8188737029086
  0
VERTEX
  8
1
 10
218.781472766288
 20
-594.5563578485384
  0
VERTEX
  8
1
 10
217.18076538547257
 20
-577.7968875829121
  0
VERTEX
  8
1
 10
217.0703720348888
 20
-576.5458737029086
  0
VERTEX
  8
1
 10
215.80655089160683
 20
-561.0203585720184
  0
VERTEX
  8
1
 10
215.01837203488878
 20
-550.2328737029086
  0
VERTEX
  8
1
 10
214.51309991901476
 20
-542.2222686135417
  0
VERTEX
  8
1
 10
213.4733720348888
 20
-523.8938737029086
  0
VERTEX
  8
1
 10
213.45432515579583
 20
-523.4156334721409
  0
VERTEX
  8
1
 10
212.84136277006937
 20
-504.5694069199318
  0
VERTEX
  8
1
 10
212.66037203488878
 20
-497.51387370290865
  0
VERTEX
  8
1
 10
212.61774129650024
 20
-485.72599051147836
  0
VERTEX
  8
1
 10
212.67337203488879
 20
-471.1158737029087
  0
VERTEX
  8
1
 10
212.79056148066178
 20
-466.86833327942776
  0
VERTEX
  8
1
 10
213.44194346498074
 20
-448.0331142882472
  0
VERTEX
  8
1
 10
213.5783720348888
 20
-444.74187370290866
  0
VERTEX
  8
1
 10
214.65772139037193
 20
-429.2359390108905
  0
VERTEX
  8
1
 10
216.0958138110242
 20
-410.443563857259
  0
VERTEX
  8
1
 10
217.4893720348888
 20
-392.2288737029087
  0
VERTEX
  8
1
 10
205.1406657891128
 20
-392.22535605411923
  0
VERTEX
  8
1
 10
182.38437203488877
 20
-392.2148737029087
  0
VERTEX
  8
1
 10
160.5903720348888
 20
-392.2118737029087
  0
VERTEX
  8
1
 10
142.6028810896823
 20
-392.2363369890513
  0
VERTEX
  8
1
 10
121.95937203488879
 20
-397.18887370290867
  0
VERTEX
  8
1
 10
121.95937203488879
 20
-397.18887370290867
  0
VERTEX
  8
1
 10
126.50599139650453
 20
-414.86425974869843
  0
VERTEX
  8
1
 10
126.75501532522611
 20
-415.8327570811285
  0
SEQEND
  0
ENDBLK
  0
BLOCK
  2
20
  8
1
 10
0
 20
0
 70
64
  0
POLYLINE
  8
1
  62
3
10
0
 20
0
 66
1
  0
VERTEX
  8
1
 10
1222.6184214156797
 20
-379.1476131851549
  0
VERTEX
  8
1
 10
1228.4790536070989
 20
-377.55477740408446
  0
VERTEX
  8
1
 10
1229.2503791289105
 20
-377.3635251646364
  0
VERTEX
  8
1
 10
1237.6482822567864
 20
-375.4755258289833
  0
VERTEX
  8
1
 10
1238.4194556458815
 20
-375.3146329903161
  0
VERTEX
  8
1
 10
1245.0484214156797
 20
-374.1276131851549
  0
VERTEX
  8
1
 10
1246.8593090531774
 20
-373.9967646076039
  0
VERTEX
  8
1
 10
1247.6556710946093
 20
-373.95680840464746
  0
VERTEX
  8
1
 10
1256.0011891456656
 20
-373.7180409917079
  0
VERTEX
  8
1
 10
1267.9684214156798
 20
-373.0806131851549
  0
VERTEX
  8
1
 10
1290.9764214156799
 20
-373.0896131851549
  0
VERTEX
  8
1
 10
1313.9854214156799
 20
-373.1086131851549
  0
VERTEX
  8
1
 10
1336.9934214156797
 20
-373.1276131851549
  0
VERTEX
  8
1
 10
1360.0024214156797
 20
-373.1376131851549
  0
VERTEX
  8
1
 10
1383.0104214156797
 20
-373.1566131851549
  0
VERTEX
  8
1
 10
1406.0194214156797
 20
-373.16561318515494
  0
VERTEX
  8
1
 10
1434.5885356771355
 20
-373.1819842102869
  0
VERTEX
  8
1
 10
1447.0784214156797
 20
-373.1976131851549
  0
VERTEX
  8
1
 10
1446.1344121138875
 20
-388.47465281308325
  0
VERTEX
  8
1
 10
1445.8464214156797
 20
-393.15861318515493
  0
VERTEX
  8
1
 10
1445.6221522111687
 20
-396.404362758388
  0
VERTEX
  8
1
 10
1445.2172137472367
 20
-403.83691968141176
  0
VERTEX
  8
1
 10
1444.9584919618894
 20
-410.9098369750707
  0
VERTEX
  8
1
 10
1444.9114214156798
 20
-413.1306131851549
  0
VERTEX
  8
1
 10
1444.8978937864044
 20
-417.6698872913677
  0
VERTEX
  8
1
 10
1444.9854365026454
 20
-424.163141202382
  0
VERTEX
  8
1
 10
1445.0985879150517
 20
-428.18515721346864
  0
VERTEX
  8
1
 10
1444.771668191866
 20
-432.21717456673633
  0
VERTEX
  8
1
 10
1444.7134214156797
 20
-433.09361318515494
  0
VERTEX
  8
1
 10
1444.771720491732
 20
-438.6976131851549
  0
VERTEX
  8
1
 10
1444.9533349678122
 20
-445.4576131851549
  0
VERTEX
  8
1
 10
1445.2510009311245
 20
-452.5376131851549
  0
VERTEX
  8
1
 10
1445.2834214156796
 20
-453.0806131851549
  0
VERTEX
  8
1
 10
1445.6164180364199
 20
-459.97616033811477
  0
VERTEX
  8
1
 10
1446.1142005893644
 20
-467.89300723756156
  0
VERTEX
  8
1
 10
1447.0784214156797
 20
-483.17761318515494
  0
VERTEX
  8
1
 10
1434.5883706955565
 20
-483.1864597001354
  0
VERTEX
  8
1
 10
1424.0654214156798
 20
-483.1956131851549
  0
VERTEX
  8
1
 10
1401.0524214156799
 20
-483.2166131851549
  0
VERTEX
  8
1
 10
1378.0404214156797
 20
-483.2266131851549
  0
VERTEX
  8
1
 10
1355.0274214156798
 20
-483.2466131851549
  0
VERTEX
  8
1
 10
1332.0144214156799
 20
-483.2576131851549
  0
VERTEX
  8
1
 10
1309.0014214156797
 20
-483.2776131851549
  0
VERTEX
  8
1
 10
1285.9884214156798
 20
-483.2986131851549
  0
VERTEX
  8
1
 10
1262.9764214156799
 20
-483.3086131851549
  0
VERTEX
  8
1
 10
1256.0600195169188
 20
-482.483071459843
  0
VERTEX
  8
1
 10
1247.8036799395095
 20
-481.70354418246137
  0
VERTEX
  8
1
 10
1247.0157697543482
 20
-481.6119018019028
  0
VERTEX
  8
1
 10
1238.542450906338
 20
-480.42550497171845
  0
VERTEX
  8
1
 10
1237.7652461061384
 20
-480.3049788569245
  0
VERTEX
  8
1
 10
1229.3016363836377
 20
-478.74812172030715
  0
VERTEX
  8
1
 10
1228.5243143764437
 20
-478.58741012643105
  0
VERTEX
  8
1
 10
1222.6184214156797
 20
-477.2276131851549
  0
VERTEX
  8
1
 10
1228.5519642830734
 20
-460.4049988870542
  0
VERTEX
  8
1
 10
1228.7754214156798
 20
-459.77161318515493
  0
VERTEX
  8
1
 10
1239.9084214156799
 20
-428.18761318515493
  0
VERTEX
  8
1
 10
1228.5485172879723
 20
-395.9777872333163
  0
VERTEX
  8
1
 10
1222.6184214156797
 20
-379.1476131851549
  0
VERTEX
  8
1
 10
1222.6184214156797
 20
-379.1476131851549
  0
VERTEX
  8
1
 10
1228.4790536070989
 20
-377.55477740408446
  0
VERTEX
  8
1
 10
1229.4496618654923
 20
-377.314112473656
  0
SEQEND
  0
ENDBLK
  0
BLOCK
  2
21
  8
1
 10
0
 20
0
 70
64
  0
POLYLINE
  8
1
  62
3
10
0
 20
0
 66
1
  0
VERTEX
  8
1
 10
198.14886153616345
 20
-1517.8612179492209
  0
VERTEX
  8
1
 10
207.26862070094893
 20
-1517.0652837048547
  0
VERTEX
  8
1
 10
220.57986153616346
 20
-1515.907217949221
  0
VERTEX
  8
1
 10
243.01186153616345
 20
-1513.955217949221
  0
VERTEX
  8
1
 10
265.4528615361635
 20
-1512.004217949221
  0
VERTEX
  8
1
 10
287.88386153616347
 20
-1510.062217949221
  0
VERTEX
  8
1
 10
310.3158615361634
 20
-1508.110217949221
  0
VERTEX
  8
1
 10
344.5019680750355
 20
-1505.1295271959439
  0
VERTEX
  8
1
 10
351.45886153616345
 20
-1504.531217949221
  0
VERTEX
  8
1
 10
371.1788615361635
 20
-1522.6212179492209
  0
VERTEX
  8
1
 10
371.1788615361635
 20
-1545.431217949221
  0
VERTEX
  8
1
 10
371.1788615361635
 20
-1568.230217949221
  0
VERTEX
  8
1
 10
371.1788615361635
 20
-1591.040217949221
  0
VERTEX
  8
1
 10
371.1788615361635
 20
-1613.849217949221
  0
VERTEX
  8
1
 10
371.1788615361635
 20
-1636.6492179492209
  0
VERTEX
  8
1
 10
371.1788615361635
 20
-1659.4582179492209
  0
VERTEX
  8
1
 10
371.1788615361635
 20
-1682.481217949221
  0
VERTEX
  8
1
 10
351.45886153616345
 20
-1700.561217949221
  0
VERTEX
  8
1
 10
344.5029366361688
 20
-1699.95742006617
  0
VERTEX
  8
1
 10
329.02786153616347
 20
-1698.616217949221
  0
VERTEX
  8
1
 10
306.5858615361634
 20
-1696.663217949221
  0
VERTEX
  8
1
 10
305.02886153616345
 20
-1696.531217949221
  0
VERTEX
  8
1
 10
305.28920659549
 20
-1693.5425358901714
  0
VERTEX
  8
1
 10
305.02886153616345
 20
-1696.531217949221
  0
VERTEX
  8
1
 10
302.4513704343403
 20
-1696.3030610941516
  0
VERTEX
  8
1
 10
284.15386153616345
 20
-1694.712217949221
  0
VERTEX
  8
1
 10
261.7218615361635
 20
-1692.761217949221
  0
VERTEX
  8
1
 10
239.29086153616345
 20
-1690.810217949221
  0
VERTEX
  8
1
 10
207.26995615040335
 20
-1688.026783897477
  0
VERTEX
  8
1
 10
198.14886153616345
 20
-1687.231217949221
  0
VERTEX
  8
1
 10
194.33210109580372
 20
-1678.8411184966399
  0
VERTEX
  8
1
 10
188.84486153616345
 20
-1666.760217949221
  0
VERTEX
  8
1
 10
179.55686153616347
 20
-1646.2862179492208
  0
VERTEX
  8
1
 10
170.26786153616345
 20
-1625.8222179492209
  0
VERTEX
  8
1
 10
162.72308825511348
 20
-1609.1982089479998
  0
VERTEX
  8
1
 10
159.70886153616345
 20
-1602.551217949221
  0
VERTEX
  8
1
 10
162.72164886226238
 20
-1595.9049258221519
  0
VERTEX
  8
1
 10
172.33586153616346
 20
-1574.714217949221
  0
VERTEX
  8
1
 10
181.63486153616344
 20
-1554.2382179492208
  0
VERTEX
  8
1
 10
194.3350678190199
 20
-1526.2518517185083
  0
VERTEX
  8
1
 10
198.14886153616345
 20
-1517.8612179492209
  0
VERTEX
  8
1
 10
198.14886153616345
 20
-1517.8612179492209
  0
VERTEX
  8
1
 10
207.26862070094893
 20
-1517.0652837048547
  0
VERTEX
  8
1
 10
208.26485762881322
 20
-1516.978612004978
  0
SEQEND
  0
ENDBLK
  0
BLOCK
  2
22
  8
1
 10
0
 20
0
 70
64
  0
POLYLINE
  8
1
  62
3
10
0
 20
0
 66
1
  0
VERTEX
  8
1
 10
573.3902273651743
 20
-1507.9479587403534
  0
VERTEX
  8
1
 10
593.1202273651743
 20
-1526.0279587403534
  0
VERTEX
  8
1
 10
593.1202273651743
 20
-1548.8379587403535
  0
VERTEX
  8
1
 10
593.1202273651743
 20
-1571.6369587403535
  0
VERTEX
  8
1
 10
593.1202273651743
 20
-1594.4469587403535
  0
VERTEX
  8
1
 10
593.1202273651743
 20
-1617.2559587403534
  0
VERTEX
  8
1
 10
593.1202273651743
 20
-1640.0559587403534
  0
VERTEX
  8
1
 10
593.1202273651743
 20
-1662.8649587403534
  0
VERTEX
  8
1
 10
593.1202273651743
 20
-1685.8879587403535
  0
VERTEX
  8
1
 10
573.3902273651743
 20
-1703.9779587403534
  0
VERTEX
  8
1
 10
566.4343342571519
 20
-1703.3779587403535
  0
VERTEX
  8
1
 10
550.9592273651743
 20
-1702.0249587403534
  0
VERTEX
  8
1
 10
528.5292273651743
 20
-1700.0729587403534
  0
VERTEX
  8
1
 10
506.0902273651743
 20
-1698.1319587403534
  0
VERTEX
  8
1
 10
483.6602273651743
 20
-1696.1799587403534
  0
VERTEX
  8
1
 10
461.2302273651743
 20
-1694.2289587403534
  0
VERTEX
  8
1
 10
429.2012218209046
 20
-1691.4435256117292
  0
VERTEX
  8
1
 10
420.0802273651743
 20
-1690.6479587403535
  0
VERTEX
  8
1
 10
416.2716733718943
 20
-1682.257880758176
  0
VERTEX
  8
1
 10
410.79622736517433
 20
-1670.1759587403535
  0
VERTEX
  8
1
 10
401.4972273651743
 20
-1649.7009587403534
  0
VERTEX
  8
1
 10
392.2082273651743
 20
-1629.2259587403535
  0
VERTEX
  8
1
 10
384.66447423458465
 20
-1612.6050016079096
  0
VERTEX
  8
1
 10
381.6502273651743
 20
-1605.9579587403534
  0
VERTEX
  8
1
 10
384.6627447697621
 20
-1599.3120624986573
  0
VERTEX
  8
1
 10
390.9382273651743
 20
-1585.4799587403534
  0
VERTEX
  8
1
 10
400.23822736517434
 20
-1565.0029587403535
  0
VERTEX
  8
1
 10
409.5282273651743
 20
-1544.5359587403534
  0
VERTEX
  8
1
 10
416.26896556201854
 20
-1529.669569884479
  0
VERTEX
  8
1
 10
420.0802273651743
 20
-1521.2779587403534
  0
VERTEX
  8
1
 10
429.20058550959675
 20
-1520.4836772896917
  0
VERTEX
  8
1
 10
451.9782273651743
 20
-1518.5059587403534
  0
VERTEX
  8
1
 10
474.4082273651743
 20
-1516.5549587403534
  0
VERTEX
  8
1
 10
496.8482273651743
 20
-1514.6029587403534
  0
VERTEX
  8
1
 10
519.2782273651743
 20
-1512.6519587403534
  0
VERTEX
  8
1
 10
541.7082273651743
 20
-1510.6999587403534
  0
VERTEX
  8
1
 10
566.4335239457023
 20
-1508.5535670826353
  0
VERTEX
  8
1
 10
573.3902273651743
 20
-1507.9479587403534
  0
VERTEX
  8
1
 10
573.3902273651743
 20
-1507.9479587403534
  0
VERTEX
  8
1
 10
593.1202273651743
 20
-1526.0279587403534
  0
VERTEX
  8
1
 10
593.1202273651743
 20
-1527.0279587403534
  0
SEQEND
  0
ENDBLK
  0
BLOCK
  2
23
  8
1
 10
0
 20
0
 70
64
  0
POLYLINE
  8
1
  62
3
10
0
 20
0
 66
1
  0
VERTEX
  8
1
 10
329.04984655164833
 20
-13.780000000000001
  0
VERTEX
  8
1
 10
328.0508902292241
 20
-29.04705364977568
  0
VERTEX
  8
1
 10
327.7398465516484
 20
-33.74
  0
VERTEX
  8
1
 10
327.5023515589178
 20
-36.976758351808115
  0
VERTEX
  8
1
 10
327.08368646213876
 20
-44.40931516286791
  0
VERTEX
  8
1
 10
326.7914310995305
 20
-51.48223262742597
  0
VERTEX
  8
1
 10
326.73584655164836
 20
-53.712
  0
VERTEX
  8
1
 10
326.5652644085276
 20
-58.24806652875368
  0
VERTEX
  8
1
 10
326.43567903665974
 20
-64.74963925350575
  0
VERTEX
  8
1
 10
326.40160399457216
 20
-70.98073910234989
  0
VERTEX
  8
1
 10
326.58984655164835
 20
-81.78
  0
VERTEX
  8
1
 10
320.9208465516484
 20
-81.78
  0
VERTEX
  8
1
 10
315.25084655164835
 20
-81.78
  0
VERTEX
  8
1
 10
313.58464593732697
 20
-81.78
  0
VERTEX
  8
1
 10
309.58184655164837
 20
-81.78
  0
VERTEX
  8
1
 10
303.90184655164836
 20
-81.78
  0
VERTEX
  8
1
 10
298.2328465516483
 20
-81.78
  0
VERTEX
  8
1
 10
292.56284655164836
 20
-81.78
  0
VERTEX
  8
1
 10
286.8938465516484
 20
-81.78
  0
VERTEX
  8
1
 10
281.22384655164836
 20
-81.78
  0
VERTEX
  8
1
 10
275.5548465516483
 20
-81.78
  0
VERTEX
  8
1
 10
269.8748465516484
 20
-81.78
  0
VERTEX
  8
1
 10
264.2058465516484
 20
-81.78
  0
VERTEX
  8
1
 10
258.5358465516484
 20
-81.78
  0
VERTEX
  8
1
 10
252.86684655164836
 20
-81.78
  0
VERTEX
  8
1
 10
247.19684655164835
 20
-81.78
  0
VERTEX
  8
1
 10
241.52784655164837
 20
-81.78
  0
VERTEX
  8
1
 10
235.85784655164838
 20
-81.78
  0
VERTEX
  8
1
 10
230.17884655164835
 20
-81.78
  0
VERTEX
  8
1
 10
224.50884655164836
 20
-81.78
  0
VERTEX
  8
1
 10
218.83984655164835
 20
-81.78
  0
VERTEX
  8
1
 10
213.1698465516484
 20
-81.78
  0
VERTEX
  8
1
 10
207.50084655164835
 20
-81.78
  0
VERTEX
  8
1
 10
201.83084655164836
 20
-81.78
  0
VERTEX
  8
1
 10
196.15184655164836
 20
-81.78
  0
VERTEX
  8
1
 10
190.48184655164835
 20
-81.78
  0
VERTEX
  8
1
 10
184.81284655164836
 20
-81.78
  0
VERTEX
  8
1
 10
179.14384655164838
 20
-81.78
  0
VERTEX
  8
1
 10
174.98173591351673
 20
-81.84615208137362
  0
VERTEX
  8
1
 10
173.72996335043203
 20
-81.80606410458584
  0
VERTEX
  8
1
 10
173.48284655164838
 20
-81.78
  0
VERTEX
  8
1
 10
172.46334837804127
 20
-81.80832126684054
  0
VERTEX
  8
1
 10
167.81184655164836
 20
-81.738
  0
VERTEX
  8
1
 10
166.34487386817588
 20
-81.5596994561513
  0
VERTEX
  8
1
 10
165.68354045644782
 20
-81.45682769595409
  0
VERTEX
  8
1
 10
165.03270905663788
 20
-81.33373389202386
  0
VERTEX
  8
1
 10
162.23384655164836
 20
-80.746
  0
VERTEX
  8
1
 10
159.50350312230685
 20
-80.12901553866887
  0
VERTEX
  8
1
 10
158.82966240737187
 20
-79.95620342345906
  0
VERTEX
  8
1
 10
158.15490748496552
 20
-79.75363744103
  0
VERTEX
  8
1
 10
156.75784655164836
 20
-79.299
  0
VERTEX
  8
1
 10
153.17955500021958
 20
-78.08670668352944
  0
VERTEX
  8
1
 10
152.1503935168288
 20
-77.70031708321054
  0
VERTEX
  8
1
 10
151.42984655164838
 20
-77.397
  0
VERTEX
  8
1
 10
149.85659443557861
 20
-76.7320927493385
  0
VERTEX
  8
1
 10
149.16372022685866
 20
-76.41749083887332
  0
VERTEX
  8
1
 10
146.98141575511684
 20
-75.36469857752085
  0
VERTEX
  8
1
 10
146.31984655164837
 20
-75.02
  0
VERTEX
  8
1
 10
146.29084655164837
 20
-75.00200000000001
  0
VERTEX
  8
1
 10
144.25887098761365
 20
-73.88
  0
VERTEX
  8
1
 10
143.60691597744307
 20
-73.5
  0
VERTEX
  8
1
 10
141.66934229064356
 20
-72.3
  0
VERTEX
  8
1
 10
141.41284655164836
 20
-72.128
  0
VERTEX
  8
1
 10
140.7429440325723
 20
-71.64818396117084
  0
VERTEX
  8
1
 10
137.26614672767943
 20
-68.97183701392318
  0
VERTEX
  8
1
 10
136.92184655164837
 20
-68.688
  0
VERTEX
  8
1
 10
136.69712547054783
 20
-68.49967223586339
  0
VERTEX
  8
1
 10
136.13851980287996
 20
-67.99303329601436
  0
VERTEX
  8
1
 10
133.1019692749635
 20
-65.09460123787052
  0
VERTEX
  8
1
 10
132.81684655164838
 20
-64.796
  0
VERTEX
  8
1
 10
132.12095773476005
 20
-64.03923981913492
  0
VERTEX
  8
1
 10
129.54016364039882
 20
-60.93970732855298
  0
VERTEX
  8
1
 10
129.16984655164836
 20
-60.467
  0
VERTEX
  8
1
 10
129.11984655164838
 20
-60.400000000000006
  0
VERTEX
  8
1
 10
128.72157410728877
 20
-59.838023770702385
  0
VERTEX
  8
1
 10
126.55494090951575
 20
-56.60042606991906
  0
VERTEX
  8
1
 10
126.19849103570832
 20
-56.05044878896898
  0
VERTEX
  8
1
 10
126.03184655164837
 20
-55.759
  0
VERTEX
  8
1
 10
125.87622969790792
 20
-55.477305243765926
  0
VERTEX
  8
1
 10
124.11738524029877
 20
-52.16256448108401
  0
VERTEX
  8
1
 10
123.83098191363437
 20
-51.608558936643355
  0
VERTEX
  8
1
 10
123.57479415978656
 20
-51.04491268023033
  0
VERTEX
  8
1
 10
123.43484655164836
 20
-50.72
  0
VERTEX
  8
1
 10
122.22218785370097
 20
-47.6905358592367
  0
VERTEX
  8
1
 10
121.83169754727533
 20
-46.59832948032135
  0
VERTEX
  8
1
 10
121.46084655164837
 20
-45.416000000000004
  0
VERTEX
  8
1
 10
120.82590065878918
 20
-43.27059714275906
  0
VERTEX
  8
1
 10
120.5439424509491
 20
-42.19660316643515
  0
VERTEX
  8
1
 10
120.04384655164837
 20
-39.925
  0
VERTEX
  8
1
 10
119.8474993220751
 20
-38.94526670195171
  0
VERTEX
  8
1
 10
119.67630040469952
 20
-37.89502150535451
  0
VERTEX
  8
1
 10
119.27195332539844
 20
-34.76788748599967
  0
VERTEX
  8
1
 10
119.22784655164837
 20
-34.322
  0
VERTEX
  8
1
 10
119.18080971836366
 20
-33.73073655821904
  0
VERTEX
  8
1
 10
119.05494960478224
 20
-30.786007825135407
  0
VERTEX
  8
1
 10
119.0418926173253
 20
-29.739191745659205
  0
VERTEX
  8
1
 10
119.06784655164837
 20
-28.661
  0
VERTEX
  8
1
 10
119.0878058220682
 20
-27.00568258159136
  0
VERTEX
  8
1
 10
119.13584655164837
 20
-22.992
  0
VERTEX
  8
1
 10
119.21384655164837
 20
-17.312
  0
VERTEX
  8
1
 10
119.29984655164837
 20
-10.5
  0
VERTEX
  8
1
 10
126.85257211646413
 20
-11.709542639028111
  0
VERTEX
  8
1
 10
135.26885723937784
 20
-12.690349302049267
  0
VERTEX
  8
1
 10
143.03584655164838
 20
-13.780000000000001
  0
VERTEX
  8
1
 10
166.41584655164837
 20
-13.780000000000001
  0
VERTEX
  8
1
 10
189.79584655164837
 20
-13.780000000000001
  0
VERTEX
  8
1
 10
213.1748465516484
 20
-13.780000000000001
  0
VERTEX
  8
1
 10
236.55484655164838
 20
-13.780000000000001
  0
VERTEX
  8
1
 10
259.9348465516484
 20
-13.780000000000001
  0
VERTEX
  8
1
 10
283.3148465516484
 20
-13.780000000000001
  0
VERTEX
  8
1
 10
316.4069307430475
 20
-13.780000000000001
  0
VERTEX
  8
1
 10
329.0498465516484
 20
-13.780000000000001
  0
VERTEX
  8
1
 10
329.04984655164833
 20
-13.780000000000001
  0
VERTEX
  8
1
 10
328.0508902292241
 20
-29.04705364977568
  0
VERTEX
  8
1
 10
327.9847563540829
 20
-30.04486440866677
  0
SEQEND
  0
ENDBLK
  0
BLOCK
  2
24
  8
1
 10
0
 20
0
 70
64
  0
POLYLINE
  8
1
  62
3
10
0
 20
0
 66
1
  0
VERTEX
  8
1
 10
427.4166565984103
 20
-501.64540846010215
  0
VERTEX
  8
1
 10
421.7506565984104
 20
-501.64540846010215
  0
VERTEX
  8
1
 10
416.0846565984104
 20
-501.64540846010215
  0
VERTEX
  8
1
 10
414.48810044867776
 20
-501.64540846010215
  0
VERTEX
  8
1
 10
410.4286565984104
 20
-501.64540846010215
  0
VERTEX
  8
1
 10
404.7626565984104
 20
-501.64540846010215
  0
VERTEX
  8
1
 10
399.0966565984104
 20
-501.64540846010215
  0
VERTEX
  8
1
 10
393.43065659841034
 20
-501.64540846010215
  0
VERTEX
  8
1
 10
387.7746565984104
 20
-501.64540846010215
  0
VERTEX
  8
1
 10
382.1086565984104
 20
-501.64540846010215
  0
VERTEX
  8
1
 10
376.4426565984104
 20
-501.64540846010215
  0
VERTEX
  8
1
 10
370.77665659841034
 20
-501.64540846010215
  0
VERTEX
  8
1
 10
365.1106565984104
 20
-501.64540846010215
  0
VERTEX
  8
1
 10
359.45465659841034
 20
-501.64540846010215
  0
VERTEX
  8
1
 10
353.7886565984104
 20
-501.64540846010215
  0
VERTEX
  8
1
 10
348.12265659841034
 20
-501.64540846010215
  0
VERTEX
  8
1
 10
342.4566565984104
 20
-501.64540846010215
  0
VERTEX
  8
1
 10
336.79065659841035
 20
-501.64540846010215
  0
VERTEX
  8
1
 10
331.1356565984104
 20
-501.64540846010215
  0
VERTEX
  8
1
 10
325.4696565984104
 20
-501.64540846010215
  0
VERTEX
  8
1
 10
319.8036565984104
 20
-501.64540846010215
  0
VERTEX
  8
1
 10
314.1376565984104
 20
-501.64540846010215
  0
VERTEX
  8
1
 10
308.4816565984104
 20
-501.64540846010215
  0
VERTEX
  8
1
 10
302.8156565984104
 20
-501.64540846010215
  0
VERTEX
  8
1
 10
297.1496565984104
 20
-501.64540846010215
  0
VERTEX
  8
1
 10
291.48365659841033
 20
-501.64540846010215
  0
VERTEX
  8
1
 10
285.8176565984104
 20
-501.64540846010215
  0
VERTEX
  8
1
 10
280.1616565984104
 20
-501.64540846010215
  0
VERTEX
  8
1
 10
276.77356645725854
 20
-501.75303624511884
  0
VERTEX
  8
1
 10
275.52660251932014
 20
-501.74270331063906
  0
VERTEX
  8
1
 10
274.50165659841036
 20
-501.64340846010214
  0
VERTEX
  8
1
 10
274.27650434185716
 20
-501.6501809812135
  0
VERTEX
  8
1
 10
268.8396565984104
 20
-501.61140846010215
  0
VERTEX
  8
1
 10
268.1892366185391
 20
-501.54330564681715
  0
VERTEX
  8
1
 10
267.5305997642126
 20
-501.4520059706727
  0
VERTEX
  8
1
 10
266.88241491688296
 20
-501.34040796991025
  0
VERTEX
  8
1
 10
263.27165659841035
 20
-500.64440846010217
  0
VERTEX
  8
1
 10
261.368923425155
 20
-500.24743915545076
  0
VERTEX
  8
1
 10
260.6844758930651
 20
-500.08718417026154
  0
VERTEX
  8
1
 10
260.0209596556729
 20
-499.8964993567502
  0
VERTEX
  8
1
 10
257.79565659841035
 20
-499.21340846010213
  0
VERTEX
  8
1
 10
255.04130386522542
 20
-498.33215839210493
  0
VERTEX
  8
1
 10
254.01067122339478
 20
-497.9650575250111
  0
VERTEX
  8
1
 10
252.45865659841036
 20
-497.3434084601021
  0
VERTEX
  8
1
 10
251.71954813459473
 20
-497.0464380411428
  0
VERTEX
  8
1
 10
251.02620645627223
 20
-496.7464403170489
  0
VERTEX
  8
1
 10
248.8423102559425
 20
-495.7402301898661
  0
VERTEX
  8
1
 10
248.169288249948
 20
-495.41014528241004
  0
VERTEX
  8
1
 10
247.32765659841039
 20
-494.96940846010216
  0
VERTEX
  8
1
 10
246.10202591178827
 20
-494.32533205043774
  0
VERTEX
  8
1
 10
245.44324603417073
 20
-493.9616313354621
  0
VERTEX
  8
1
 10
243.48492883335322
 20
-492.8109383425278
  0
VERTEX
  8
1
 10
242.5366565984104
 20
-492.20540846010215
  0
VERTEX
  8
1
 10
242.43965659841038
 20
-492.12540846010216
  0
VERTEX
  8
1
 10
239.02771660492166
 20
-489.62296961432395
  0
VERTEX
  8
1
 10
238.4393081462503
 20
-489.16902297247753
  0
VERTEX
  8
1
 10
237.93165659841037
 20
-488.7164084601022
  0
VERTEX
  8
1
 10
234.8098273893327
 20
-485.8530590458194
  0
VERTEX
  8
1
 10
233.81265659841037
 20
-484.84240846010215
  0
VERTEX
  8
1
 10
233.80665659841037
 20
-484.83540846010214
  0
VERTEX
  8
1
 10
231.1628271181965
 20
-481.8217643817315
  0
VERTEX
  8
1
 10
230.7157257967856
 20
-481.3023256340171
  0
VERTEX
  8
1
 10
230.2981374164239
 20
-480.75272107900037
  0
VERTEX
  8
1
 10
230.14665659841037
 20
-480.54440846010215
  0
VERTEX
  8
1
 10
228.07598952113472
 20
-477.602822853892
  0
VERTEX
  8
1
 10
227.70810721164398
 20
-477.05479418492183
  0
VERTEX
  8
1
 10
227.37079055108399
 20
-476.4970966275209
  0
VERTEX
  8
1
 10
226.99565659841036
 20
-475.85240846010214
  0
VERTEX
  8
1
 10
225.54299425933172
 20
-473.24700861614707
  0
VERTEX
  8
1
 10
225.24686261507028
 20
-472.7019718701966
  0
VERTEX
  8
1
 10
224.98099061877087
 20
-472.1471869040881
  0
VERTEX
  8
1
 10
224.38165659841036
 20
-470.83040846010215
  0
VERTEX
  8
1
 10
223.5368976338525
 20
-468.8510827147117
  0
VERTEX
  8
1
 10
223.12408147068217
 20
-467.77360584802256
  0
VERTEX
  8
1
 10
222.36865659841038
 20
-465.54140846010216
  0
VERTEX
  8
1
 10
222.0372797978315
 20
-464.4959635777288
  0
VERTEX
  8
1
 10
221.737799694839
 20
-463.43609515545955
  0
VERTEX
  8
1
 10
220.96943660867336
 20
-460.2268065021804
  0
VERTEX
  8
1
 10
220.93865659841038
 20
-460.07240846010217
  0
VERTEX
  8
1
 10
220.76552146939346
 20
-459.18859768600066
  0
VERTEX
  8
1
 10
220.2667578839197
 20
-456.09601617315803
  0
VERTEX
  8
1
 10
220.1340803597164
 20
-455.07995102793825
  0
VERTEX
  8
1
 10
220.07965659841037
 20
-454.48140846010216
  0
VERTEX
  8
1
 10
219.92146266158284
 20
-452.14763167403277
  0
VERTEX
  8
1
 10
219.88249035481195
 20
-451.1085998725574
  0
VERTEX
  8
1
 10
219.88365659841037
 20
-448.82740846010216
  0
VERTEX
  8
1
 10
219.89665659841037
 20
-448.2354084601021
  0
VERTEX
  8
1
 10
222.89641295921717
 20
-448.19717528342017
  0
VERTEX
  8
1
 10
219.89665659841037
 20
-448.2354084601021
  0
VERTEX
  8
1
 10
219.87397428220575
 20
-448.0677386617026
  0
VERTEX
  8
1
 10
219.89441556933343
 20
-445.36222633494805
  0
VERTEX
  8
1
 10
219.93074175465017
 20
-444.32323931925794
  0
VERTEX
  8
1
 10
220.02065659841037
 20
-443.16940846010215
  0
VERTEX
  8
1
 10
220.17926740357052
 20
-441.3898423046305
  0
VERTEX
  8
1
 10
220.29650413242226
 20
-440.3720474694745
  0
VERTEX
  8
1
 10
220.73565659841037
 20
-437.55240846010213
  0
VERTEX
  8
1
 10
220.7855883479129
 20
-437.27605633618003
  0
VERTEX
  8
1
 10
221.0092407296937
 20
-436.2431428423216
  0
VERTEX
  8
1
 10
221.82430993322578
 20
-433.0454929013355
  0
VERTEX
  8
1
 10
222.10665659841038
 20
-432.06840846010215
  0
VERTEX
  8
1
 10
222.12665659841036
 20
-431.99540846010217
  0
VERTEX
  8
1
 10
223.22824999852983
 20
-428.7136227598433
  0
VERTEX
  8
1
 10
223.41734593461666
 20
-428.15224823165516
  0
VERTEX
  8
1
 10
224.01065659841038
 20
-426.73940846010214
  0
VERTEX
  8
1
 10
225.08605137997912
 20
-424.3420742003765
  0
VERTEX
  8
1
 10
225.34918845710268
 20
-423.7756234155406
  0
VERTEX
  8
1
 10
225.6317625314923
 20
-423.22979193371197
  0
VERTEX
  8
1
 10
226.49565659841036
 20
-421.6584084601021
  0
VERTEX
  8
1
 10
227.46671996121165
 20
-419.99000397058916
  0
VERTEX
  8
1
 10
227.80408351060018
 20
-419.43112375754737
  0
VERTEX
  8
1
 10
228.17129159746244
 20
-418.89233833872896
  0
VERTEX
  8
1
 10
229.56165659841037
 20
-416.9064084601021
  0
VERTEX
  8
1
 10
230.4090070980044
 20
-415.74207599149594
  0
VERTEX
  8
1
 10
230.82705609282317
 20
-415.2015169724976
  0
VERTEX
  8
1
 10
231.27600543839444
 20
-414.67063907927445
  0
VERTEX
  8
1
 10
233.15065659841036
 20
-412.53440846010216
  0
VERTEX
  8
1
 10
233.9343773965338
 20
-411.66676447581153
  0
VERTEX
  8
1
 10
234.4306941467792
 20
-411.1452865767306
  0
VERTEX
  8
1
 10
237.20165659841038
 20
-408.5914084601022
  0
VERTEX
  8
1
 10
238.02985057509454
 20
-407.8374704618957
  0
VERTEX
  8
1
 10
238.59808771570326
 20
-407.3622214510796
  0
VERTEX
  8
1
 10
239.17575233384713
 20
-406.90701648045314
  0
VERTEX
  8
1
 10
241.6376565984104
 20
-405.08940846010216
  0
VERTEX
  8
1
 10
242.7206859291548
 20
-404.3525773196491
  0
VERTEX
  8
1
 10
243.67421299728795
 20
-403.7544552727157
  0
VERTEX
  8
1
 10
245.64282352862838
 20
-402.6186128291907
  0
VERTEX
  8
1
 10
246.30493515965776
 20
-402.2598029275208
  0
VERTEX
  8
1
 10
246.48265659841036
 20
-402.16840846010217
  0
VERTEX
  8
1
 10
248.37144461752115
 20
-401.1856998338876
  0
VERTEX
  8
1
 10
249.04712891152815
 20
-400.85694454799483
  0
VERTEX
  8
1
 10
251.23941945921476
 20
-399.85495592980163
  0
VERTEX
  8
1
 10
251.58065659841037
 20
-399.70840846010213
  0
VERTEX
  8
1
 10
251.93193600936564
 20
-399.55694211368365
  0
VERTEX
  8
1
 10
254.2080736515628
 20
-398.6408717274789
  0
VERTEX
  8
1
 10
255.23867292531935
 20
-398.2737599515916
  0
VERTEX
  8
1
 10
256.8786565984104
 20
-397.74540846010217
  0
VERTEX
  8
1
 10
260.2311160203454
 20
-396.73263817106965
  0
VERTEX
  8
1
 10
260.90806703105915
 20
-396.5461136764265
  0
VERTEX
  8
1
 10
261.5839639065403
 20
-396.3890621141671
  0
VERTEX
  8
1
 10
262.3366565984104
 20
-396.2354084601021
  0
VERTEX
  8
1
 10
267.10492650825773
 20
-395.2918078170682
  0
VERTEX
  8
1
 10
267.75426074890225
 20
-395.17787372804816
  0
VERTEX
  8
1
 10
267.89165659841035
 20
-395.16040846010213
  0
VERTEX
  8
1
 10
268.4138791796167
 20
-395.14133496321824
  0
VERTEX
  8
1
 10
273.54765659841036
 20
-395.04240846010214
  0
VERTEX
  8
1
 10
274.49228008354385
 20
-394.95094881388445
  0
VERTEX
  8
1
 10
275.74200664950064
 20
-394.88737850438037
  0
VERTEX
  8
1
 10
276.99118708024173
 20
-394.9133348776893
  0
VERTEX
  8
1
 10
279.20865659841036
 20
-395.06440846010213
  0
VERTEX
  8
1
 10
284.8706565984104
 20
-395.09040846010214
  0
VERTEX
  8
1
 10
290.52665659841034
 20
-395.11640846010215
  0
VERTEX
  8
1
 10
296.1926565984104
 20
-395.1324084601021
  0
VERTEX
  8
1
 10
301.85865659841033
 20
-395.15940846010216
  0
VERTEX
  8
1
 10
307.5246565984104
 20
-395.18540846010217
  0
VERTEX
  8
1
 10
313.1906565984104
 20
-395.20140846010213
  0
VERTEX
  8
1
 10
318.8466565984104
 20
-395.2284084601021
  0
VERTEX
  8
1
 10
324.51165659841035
 20
-395.2544084601021
  0
VERTEX
  8
1
 10
330.17765659841035
 20
-395.28040846010214
  0
VERTEX
  8
1
 10
335.84365659841035
 20
-395.29740846010213
  0
VERTEX
  8
1
 10
341.4996565984104
 20
-395.32340846010214
  0
VERTEX
  8
1
 10
347.16565659841035
 20
-395.34940846010215
  0
VERTEX
  8
1
 10
352.8316565984104
 20
-395.3654084601022
  0
VERTEX
  8
1
 10
358.49765659841034
 20
-395.39240846010216
  0
VERTEX
  8
1
 10
364.1636565984104
 20
-395.41840846010217
  0
VERTEX
  8
1
 10
369.81965659841035
 20
-395.4444084601021
  0
VERTEX
  8
1
 10
375.48565659841034
 20
-395.4614084601021
  0
VERTEX
  8
1
 10
381.15165659841034
 20
-395.48740846010213
  0
VERTEX
  8
1
 10
386.8176565984104
 20
-395.51340846010214
  0
VERTEX
  8
1
 10
392.4736565984104
 20
-395.5404084601021
  0
VERTEX
  8
1
 10
398.1396565984104
 20
-395.55640846010215
  0
VERTEX
  8
1
 10
403.80565659841034
 20
-395.58240846010216
  0
VERTEX
  8
1
 10
409.4716565984104
 20
-395.6084084601021
  0
VERTEX
  8
1
 10
414.71454621936005
 20
-395.6239149540989
  0
VERTEX
  8
1
 10
415.1376565984104
 20
-395.62540846010216
  0
VERTEX
  8
1
 10
420.7936565984104
 20
-395.65040846010214
  0
VERTEX
  8
1
 10
427.63665659841035
 20
-395.6854084601021
  0
VERTEX
  8
1
 10
427.4173717670533
 20
-406.46358754698446
  0
VERTEX
  8
1
 10
427.42236772740586
 20
-412.68830579994716
  0
VERTEX
  8
1
 10
427.5316014252038
 20
-419.18322458442316
  0
VERTEX
  8
1
 10
427.62665659841036
 20
-422.0694084601021
  0
VERTEX
  8
1
 10
427.7075707466663
 20
-425.93959228606883
  0
VERTEX
  8
1
 10
427.9715064028943
 20
-433.0089681057233
  0
VERTEX
  8
1
 10
428.3708091622173
 20
-440.4477884879164
  0
VERTEX
  8
1
 10
428.4806565984104
 20
-442.0314084601021
  0
VERTEX
  8
1
 10
428.5487323274955
 20
-448.36271148705333
  0
VERTEX
  8
1
 10
428.5385238526171
 20
-448.96151049000883
  0
VERTEX
  8
1
 10
428.8466565984104
 20
-449.3654084601021
  0
VERTEX
  8
1
 10
425.84949768038035
 20
-449.2348771608939
  0
VERTEX
  8
1
 10
428.8466565984104
 20
-449.3654084601021
  0
VERTEX
  8
1
 10
428.19341578850117
 20
-456.8856154236422
  0
VERTEX
  8
1
 10
428.0516565984104
 20
-461.97440846010215
  0
VERTEX
  8
1
 10
427.8983021986811
 20
-464.32540846010215
  0
VERTEX
  8
1
 10
427.54208858912233
 20
-471.39540846010215
  0
VERTEX
  8
1
 10
427.3125741323174
 20
-478.15540846010214
  0
VERTEX
  8
1
 10
427.2075741028975
 20
-484.64540846010215
  0
VERTEX
  8
1
 10
427.19715190145956
 20
-490.8654084601022
  0
VERTEX
  8
1
 10
427.4166565984104
 20
-501.64540846010215
  0
VERTEX
  8
1
 10
427.4166565984103
 20
-501.64540846010215
  0
VERTEX
  8
1
 10
421.7506565984104
 20
-501.64540846010215
  0
VERTEX
  8
1
 10
420.7506565984104
 20
-501.64540846010215
  0
SEQEND
  0
ENDBLK
  0
BLOCK
  2
25
  8
1
 10
0
 20
0
 70
64
  0
POLYLINE
  8
1
  62
3
10
0
 20
0
 66
1
  0
VERTEX
  8
1
 10
599.988651666945
 20
-1507.9317663830639
  0
VERTEX
  8
1
 10
614.1181053090683
 20
-1507.6149323930017
  0
VERTEX
  8
1
 10
622.358651666945
 20
-1507.572766383064
  0
VERTEX
  8
1
 10
626.8260756104507
 20
-1507.5599806479795
  0
VERTEX
  8
1
 10
639.3330718789665
 20
-1507.6489027676168
  0
VERTEX
  8
1
 10
644.726651666945
 20
-1507.734766383064
  0
VERTEX
  8
1
 10
645.708651666945
 20
-1507.7517663830638
  0
VERTEX
  8
1
 10
645.6457164620882
 20
-1510.7511061704154
  0
VERTEX
  8
1
 10
645.708651666945
 20
-1507.7517663830638
  0
VERTEX
  8
1
 10
649.9650258724455
 20
-1507.844683290488
  0
VERTEX
  8
1
 10
651.973154311268
 20
-1507.8897958847842
  0
VERTEX
  8
1
 10
664.4542201520333
 20
-1508.2706850239463
  0
VERTEX
  8
1
 10
667.087651666945
 20
-1508.3737663830639
  0
VERTEX
  8
1
 10
679.9157707620685
 20
-1508.9436419853992
  0
VERTEX
  8
1
 10
689.430651666945
 20
-1509.4407663830639
  0
VERTEX
  8
1
 10
695.2268166438621
 20
-1509.7691080839506
  0
VERTEX
  8
1
 10
710.6573446408756
 20
-1510.755563939003
  0
VERTEX
  8
1
 10
711.756651666945
 20
-1510.8347663830639
  0
VERTEX
  8
1
 10
725.8947965544169
 20
-1511.9090343012936
  0
VERTEX
  8
1
 10
735.948651666945
 20
-1512.6617663830639
  0
VERTEX
  8
1
 10
736.3717860165507
 20
-1525.7278239749216
  0
VERTEX
  8
1
 10
736.7736516669449
 20
-1538.2327663830638
  0
VERTEX
  8
1
 10
737.1683476835784
 20
-1550.2134812703544
  0
VERTEX
  8
1
 10
737.718651666945
 20
-1563.7897663830638
  0
VERTEX
  8
1
 10
737.9981231209015
 20
-1570.6964049517505
  0
VERTEX
  8
1
 10
738.9376516669449
 20
-1589.340766383064
  0
VERTEX
  8
1
 10
739.2093732142264
 20
-1594.6857007096414
  0
VERTEX
  8
1
 10
740.2735270010351
 20
-1612.1700096058066
  0
VERTEX
  8
1
 10
740.4766516669449
 20
-1614.880766383064
  0
VERTEX
  8
1
 10
742.3795097404643
 20
-1640.234359748815
  0
VERTEX
  8
1
 10
742.3906516669449
 20
-1640.390766383064
  0
VERTEX
  8
1
 10
743.5498831218226
 20
-1654.7054015208157
  0
VERTEX
  8
1
 10
744.4379860720271
 20
-1665.027917499647
  0
VERTEX
  8
1
 10
744.511651666945
 20
-1665.8757663830638
  0
VERTEX
  8
1
 10
744.718651666945
 20
-1668.4417663830639
  0
VERTEX
  8
1
 10
741.7271750045968
 20
-1668.6677473084235
  0
VERTEX
  8
1
 10
744.718651666945
 20
-1668.4417663830639
  0
VERTEX
  8
1
 10
745.703234781316
 20
-1681.6496334570927
  0
VERTEX
  8
1
 10
746.943331252169
 20
-1694.8072861011412
  0
VERTEX
  8
1
 10
747.348651666945
 20
-1698.311766383064
  0
VERTEX
  8
1
 10
736.4286516669449
 20
-1699.511766383064
  0
VERTEX
  8
1
 10
728.5056516669449
 20
-1699.166766383064
  0
VERTEX
  8
1
 10
722.585651666945
 20
-1698.916766383064
  0
VERTEX
  8
1
 10
719.8516160907158
 20
-1698.7917352662348
  0
VERTEX
  8
1
 10
716.666651666945
 20
-1698.5977663830638
  0
VERTEX
  8
1
 10
710.7596516669449
 20
-1698.246766383064
  0
VERTEX
  8
1
 10
704.9795369788076
 20
-1697.8947772140045
  0
VERTEX
  8
1
 10
704.842651666945
 20
-1697.8827663830639
  0
VERTEX
  8
1
 10
698.9426516669449
 20
-1697.3827663830639
  0
VERTEX
  8
1
 10
697.8212049903901
 20
-1697.2813501477403
  0
VERTEX
  8
1
 10
693.0526516669449
 20
-1696.744766383064
  0
VERTEX
  8
1
 10
690.9005420735992
 20
-1696.4996389246535
  0
VERTEX
  8
1
 10
687.176651666945
 20
-1695.9607663830639
  0
VERTEX
  8
1
 10
684.698651666945
 20
-1695.611766383064
  0
VERTEX
  8
1
 10
681.3326516669449
 20
-1694.9987663830639
  0
VERTEX
  8
1
 10
677.6934051003218
 20
-1694.3166543073262
  0
VERTEX
  8
1
 10
675.531651666945
 20
-1693.8177663830638
  0
VERTEX
  8
1
 10
671.4326541092971
 20
-1692.8480932708337
  0
VERTEX
  8
1
 10
669.791651666945
 20
-1692.3677663830638
  0
VERTEX
  8
1
 10
665.4473219083488
 20
-1691.080498669614
  0
VERTEX
  8
1
 10
664.135651666945
 20
-1690.6077663830638
  0
VERTEX
  8
1
 10
659.6992517248271
 20
-1688.9781864235813
  0
VERTEX
  8
1
 10
658.606651666945
 20
-1688.4917663830638
  0
VERTEX
  8
1
 10
654.2221575644114
 20
-1686.5345398479117
  0
VERTEX
  8
1
 10
653.237651666945
 20
-1686.003766383064
  0
VERTEX
  8
1
 10
649.0236357807382
 20
-1683.6648938078915
  0
VERTEX
  8
1
 10
648.094651666945
 20
-1683.072766383064
  0
VERTEX
  8
1
 10
646.5384551112245
 20
-1682.0690452578783
  0
VERTEX
  8
1
 10
644.1397662797863
 20
-1680.3805203225104
  0
VERTEX
  8
1
 10
643.243651666945
 20
-1679.688766383064
  0
VERTEX
  8
1
 10
641.7773395061439
 20
-1678.5389672702624
  0
VERTEX
  8
1
 10
639.5005454365847
 20
-1676.5915545560276
  0
VERTEX
  8
1
 10
638.727651666945
 20
-1675.8637663830639
  0
VERTEX
  8
1
 10
637.3128464025344
 20
-1674.5164580814933
  0
VERTEX
  8
1
 10
635.1888362119171
 20
-1672.325134319366
  0
VERTEX
  8
1
 10
634.583651666945
 20
-1671.6357663830638
  0
VERTEX
  8
1
 10
632.4417081071623
 20
-1669.1699564043304
  0
VERTEX
  8
1
 10
630.7936516669449
 20
-1667.089766383064
  0
VERTEX
  8
1
 10
629.8361783293363
 20
-1665.866325040325
  0
VERTEX
  8
1
 10
627.3939140604436
 20
-1662.433343648761
  0
VERTEX
  8
1
 10
627.309651666945
 20
-1662.301766383064
  0
VERTEX
  8
1
 10
625.0973434641951
 20
-1658.8576842293273
  0
VERTEX
  8
1
 10
624.166651666945
 20
-1657.2807663830638
  0
VERTEX
  8
1
 10
622.940733083248
 20
-1655.1614624652025
  0
VERTEX
  8
1
 10
621.324651666945
 20
-1652.0887663830638
  0
VERTEX
  8
1
 10
620.9285496244454
 20
-1651.3357168148511
  0
VERTEX
  8
1
 10
619.0350456044395
 20
-1647.3856321776884
  0
VERTEX
  8
1
 10
618.755651666945
 20
-1646.7497663830638
  0
VERTEX
  8
1
 10
617.2733214454308
 20
-1643.3430005339264
  0
VERTEX
  8
1
 10
616.492651666945
 20
-1641.2807663830638
  0
VERTEX
  8
1
 10
614.445651666945
 20
-1635.7197663830639
  0
VERTEX
  8
1
 10
614.1309039601407
 20
-1634.8573883977433
  0
VERTEX
  8
1
 10
612.685651666945
 20
-1630.064766383064
  0
VERTEX
  8
1
 10
611.4453853053357
 20
-1625.9756354901892
  0
VERTEX
  8
1
 10
611.042651666945
 20
-1624.370766383064
  0
VERTEX
  8
1
 10
609.627651666945
 20
-1618.6177663830638
  0
VERTEX
  8
1
 10
609.1587191410049
 20
-1616.7161568100025
  0
VERTEX
  8
1
 10
608.373651666945
 20
-1612.8367663830638
  0
VERTEX
  8
1
 10
607.248651666945
 20
-1607.101766383064
  0
VERTEX
  8
1
 10
607.233651666945
 20
-1607.015766383064
  0
VERTEX
  8
1
 10
606.290651666945
 20
-1601.1657663830638
  0
VERTEX
  8
1
 10
605.6554581396473
 20
-1597.191862166056
  0
VERTEX
  8
1
 10
605.415651666945
 20
-1595.3177663830638
  0
VERTEX
  8
1
 10
604.6826516669449
 20
-1589.438766383064
  0
VERTEX
  8
1
 10
604.3769028341327
 20
-1587.0137383705592
  0
VERTEX
  8
1
 10
604.020651666945
 20
-1583.550766383064
  0
VERTEX
  8
1
 10
603.433651666945
 20
-1577.6547663830638
  0
VERTEX
  8
1
 10
603.3259836911446
 20
-1576.5737820926674
  0
VERTEX
  8
1
 10
602.945651666945
 20
-1571.747766383064
  0
VERTEX
  8
1
 10
602.498651666945
 20
-1565.9317663830639
  0
VERTEX
  8
1
 10
602.492651666945
 20
-1565.839766383064
  0
VERTEX
  8
1
 10
602.131651666945
 20
-1559.9307663830639
  0
VERTEX
  8
1
 10
601.780651666945
 20
-1554.011766383064
  0
VERTEX
  8
1
 10
601.4996516669449
 20
-1548.092766383064
  0
VERTEX
  8
1
 10
601.3079179939529
 20
-1544.1956793056884
  0
VERTEX
  8
1
 10
601.239651666945
 20
-1542.1727663830638
  0
VERTEX
  8
1
 10
601.020651666945
 20
-1536.2577663830639
  0
VERTEX
  8
1
 10
600.801651666945
 20
-1530.333766383064
  0
VERTEX
  8
1
 10
600.582651666945
 20
-1524.418766383064
  0
VERTEX
  8
1
 10
600.458651666945
 20
-1520.9117663830639
  0
VERTEX
  8
1
 10
600.3746516669449
 20
-1518.494766383064
  0
VERTEX
  8
1
 10
599.988651666945
 20
-1507.9317663830639
  0
VERTEX
  8
1
 10
599.988651666945
 20
-1507.9317663830639
  0
VERTEX
  8
1
 10
614.1181053090683
 20
-1507.6149323930017
  0
VERTEX
  8
1
 10
615.1180922180184
 20
-1507.6098155650502
  0
SEQEND
  0
ENDBLK
  0
BLOCK
  2
26
  8
1
 10
0
 20
0
 70
64
  0
POLYLINE
  8
1
  62
3
10
0
 20
0
 66
1
  0
VERTEX
  8
1
 10
897.3519404530516
 20
-1518.8093171782166
  0
VERTEX
  8
1
 10
896.9447287081435
 20
-1522.3154536043899
  0
VERTEX
  8
1
 10
895.7447838768039
 20
-1535.467254681988
  0
VERTEX
  8
1
 10
895.0999404530517
 20
-1544.2903171782166
  0
VERTEX
  8
1
 10
894.7319404530516
 20
-1548.6893171782167
  0
VERTEX
  8
1
 10
891.7426365456349
 20
-1548.436212162258
  0
VERTEX
  8
1
 10
894.7319404530516
 20
-1548.6893171782167
  0
VERTEX
  8
1
 10
894.4380746226576
 20
-1552.1073021774614
  0
VERTEX
  8
1
 10
893.5661779843841
 20
-1562.4339278617642
  0
VERTEX
  8
1
 10
892.9769404530516
 20
-1569.7803171782166
  0
VERTEX
  8
1
 10
892.4130910891743
 20
-1576.8882246838982
  0
VERTEX
  8
1
 10
890.9679404530516
 20
-1595.2793171782166
  0
VERTEX
  8
1
 10
890.2678134122233
 20
-1604.960506846413
  0
VERTEX
  8
1
 10
889.3399404530517
 20
-1620.8163171782167
  0
VERTEX
  8
1
 10
889.2421121514228
 20
-1622.439229093158
  0
VERTEX
  8
1
 10
888.0469404530515
 20
-1646.3603171782167
  0
VERTEX
  8
1
 10
888.0419404530517
 20
-1646.4393171782167
  0
VERTEX
  8
1
 10
887.178466246399
 20
-1666.9357171379918
  0
VERTEX
  8
1
 10
887.0089404530517
 20
-1671.9223171782166
  0
VERTEX
  8
1
 10
886.3776701757547
 20
-1691.4146838531276
  0
VERTEX
  8
1
 10
885.9519404530516
 20
-1704.4793171782167
  0
VERTEX
  8
1
 10
875.9091286360618
 20
-1705.234777492418
  0
VERTEX
  8
1
 10
863.6439404530516
 20
-1706.1573171782168
  0
VERTEX
  8
1
 10
860.6613344562734
 20
-1706.3718810090663
  0
VERTEX
  8
1
 10
845.252360428535
 20
-1707.3586005679956
  0
VERTEX
  8
1
 10
841.3209404530517
 20
-1707.5813171782168
  0
VERTEX
  8
1
 10
829.9197177486519
 20
-1708.1804551172302
  0
VERTEX
  8
1
 10
818.9789404530516
 20
-1708.6723171782166
  0
VERTEX
  8
1
 10
814.479759106087
 20
-1708.8526826045543
  0
VERTEX
  8
1
 10
801.9771254175005
 20
-1709.2442800769654
  0
VERTEX
  8
1
 10
799.979840872045
 20
-1709.281433663742
  0
VERTEX
  8
1
 10
796.6189404530517
 20
-1709.3583171782166
  0
VERTEX
  8
1
 10
795.7119404530516
 20
-1709.3793171782168
  0
VERTEX
  8
1
 10
795.6586742361993
 20
-1706.3797900971351
  0
VERTEX
  8
1
 10
795.7119404530516
 20
-1709.3793171782168
  0
VERTEX
  8
1
 10
789.3454503059095
 20
-1709.4874813074205
  0
VERTEX
  8
1
 10
776.832908039919
 20
-1709.5776025577632
  0
VERTEX
  8
1
 10
774.2419404530516
 20
-1709.5743171782167
  0
VERTEX
  8
1
 10
764.1385400736979
 20
-1709.5292897502993
  0
VERTEX
  8
1
 10
749.9919404530516
 20
-1709.2093171782167
  0
VERTEX
  8
1
 10
750.4719404530516
 20
-1696.2293171782167
  0
VERTEX
  8
1
 10
750.7759404530516
 20
-1687.8343171782167
  0
VERTEX
  8
1
 10
750.9949404530516
 20
-1681.9203171782167
  0
VERTEX
  8
1
 10
751.2039404530516
 20
-1675.9953171782167
  0
VERTEX
  8
1
 10
751.3108526706407
 20
-1672.952790483751
  0
VERTEX
  8
1
 10
751.4599404530517
 20
-1670.0743171782167
  0
VERTEX
  8
1
 10
751.639507287099
 20
-1666.3796379816442
  0
VERTEX
  8
1
 10
751.7449404530516
 20
-1664.1563171782166
  0
VERTEX
  8
1
 10
751.8319404530516
 20
-1662.3093171782166
  0
VERTEX
  8
1
 10
754.8272164225508
 20
-1662.4776081956263
  0
VERTEX
  8
1
 10
751.8319404530516
 20
-1662.3093171782166
  0
VERTEX
  8
1
 10
752.0769404530516
 20
-1658.2473171782167
  0
VERTEX
  8
1
 10
752.4289404530516
 20
-1652.3283171782166
  0
VERTEX
  8
1
 10
752.4962094776415
 20
-1651.1976215716552
  0
VERTEX
  8
1
 10
752.8809404530516
 20
-1646.4183171782167
  0
VERTEX
  8
1
 10
753.3419404530516
 20
-1640.5793171782166
  0
VERTEX
  8
1
 10
753.3489404530517
 20
-1640.5203171782166
  0
VERTEX
  8
1
 10
753.9189404530516
 20
-1634.6233171782167
  0
VERTEX
  8
1
 10
754.3767093404055
 20
-1630.1337704747093
  0
VERTEX
  8
1
 10
754.5549404530516
 20
-1628.7323171782166
  0
VERTEX
  8
1
 10
755.2839404530516
 20
-1622.8543171782167
  0
VERTEX
  8
1
 10
755.6619404530517
 20
-1619.9631681248518
  0
VERTEX
  8
1
 10
756.1379404530517
 20
-1616.9913171782166
  0
VERTEX
  8
1
 10
757.0639404530516
 20
-1611.1403171782167
  0
VERTEX
  8
1
 10
757.2438407515143
 20
-1610.0281028520062
  0
VERTEX
  8
1
 10
758.1789404530516
 20
-1605.3223171782167
  0
VERTEX
  8
1
 10
759.1671755360284
 20
-1600.4355558505881
  0
VERTEX
  8
1
 10
759.3919404530516
 20
-1599.5213171782166
  0
VERTEX
  8
1
 10
760.7949404530516
 20
-1593.7683171782166
  0
VERTEX
  8
1
 10
761.4445975212035
 20
-1591.1663407375888
  0
VERTEX
  8
1
 10
762.3819404530516
 20
-1588.0713171782168
  0
VERTEX
  8
1
 10
764.0969404530516
 20
-1582.3993171782167
  0
VERTEX
  8
1
 10
764.1329972890009
 20
-1582.2789601859142
  0
VERTEX
  8
1
 10
765.9319404530517
 20
-1577.3093171782166
  0
VERTEX
  8
1
 10
768.7509007387715
 20
-1578.3357005897808
  0
VERTEX
  8
1
 10
765.9319404530517
 20
-1577.3093171782166
  0
VERTEX
  8
1
 10
766.1179404530516
 20
-1576.8273171782166
  0
VERTEX
  8
1
 10
767.2948892866056
 20
-1573.7704706775548
  0
VERTEX
  8
1
 10
768.3589404530517
 20
-1571.3463171782166
  0
VERTEX
  8
1
 10
769.0470770693295
 20
-1569.7516987644617
  0
VERTEX
  8
1
 10
770.8479404530516
 20
-1565.9673171782167
  0
VERTEX
  8
1
 10
770.9264900607363
 20
-1565.8056683551624
  0
VERTEX
  8
1
 10
772.9459906117589
 20
-1561.9871667020948
  0
VERTEX
  8
1
 10
773.6569404530517
 20
-1560.7603171782166
  0
VERTEX
  8
1
 10
775.0994744089883
 20
-1558.276407054899
  0
VERTEX
  8
1
 10
776.7419404530516
 20
-1555.7033171782166
  0
VERTEX
  8
1
 10
777.3922379423805
 20
-1554.7006627016933
  0
VERTEX
  8
1
 10
779.8239893518169
 20
-1551.278809600933
  0
VERTEX
  8
1
 10
780.1509404530516
 20
-1550.8593171782168
  0
VERTEX
  8
1
 10
782.435068260845
 20
-1547.9679533552896
  0
VERTEX
  8
1
 10
783.9009404530516
 20
-1546.2803171782166
  0
VERTEX
  8
1
 10
785.184168781816
 20
-1544.8144627190431
  0
VERTEX
  8
1
 10
787.3033624097139
 20
-1542.6125851692905
  0
VERTEX
  8
1
 10
787.9669404530516
 20
-1541.9853171782167
  0
VERTEX
  8
1
 10
789.504840626246
 20
-1540.5509341866793
  0
VERTEX
  8
1
 10
791.771219233689
 20
-1538.6040801973595
  0
VERTEX
  8
1
 10
792.4259404530517
 20
-1538.0913171782167
  0
VERTEX
  8
1
 10
794.1244394276316
 20
-1536.7750442085567
  0
VERTEX
  8
1
 10
796.5289620065873
 20
-1535.070614033674
  0
VERTEX
  8
1
 10
797.2169404530516
 20
-1534.6243171782166
  0
VERTEX
  8
1
 10
799.014451679314
 20
-1533.4659961378723
  0
VERTEX
  8
1
 10
802.3169404530516
 20
-1531.6103171782167
  0
VERTEX
  8
1
 10
804.2173959153336
 20
-1530.5911347411763
  0
VERTEX
  8
1
 10
807.6609404530516
 20
-1529.0633171782167
  0
VERTEX
  8
1
 10
809.6989336937003
 20
-1528.1537835695458
  0
VERTEX
  8
1
 10
813.1539404530516
 20
-1526.8803171782167
  0
VERTEX
  8
1
 10
815.4336258352113
 20
-1526.0571234983597
  0
VERTEX
  8
1
 10
818.7899404530516
 20
-1525.0633171782167
  0
VERTEX
  8
1
 10
821.4315713231882
 20
-1524.2925378755856
  0
VERTEX
  8
1
 10
824.5179404530517
 20
-1523.5613171782168
  0
VERTEX
  8
1
 10
827.6832856621296
 20
-1522.8241296920658
  0
VERTEX
  8
1
 10
830.3099404530516
 20
-1522.3283171782166
  0
VERTEX
  8
1
 10
834.1634009353435
 20
-1521.6134592426815
  0
VERTEX
  8
1
 10
836.1379404530517
 20
-1521.3193171782166
  0
VERTEX
  8
1
 10
841.4819404530516
 20
-1520.5593171782166
  0
VERTEX
  8
1
 10
842.0109404530516
 20
-1520.5033171782168
  0
VERTEX
  8
1
 10
847.8219404530516
 20
-1519.8593171782168
  0
VERTEX
  8
1
 10
847.8989404530516
 20
-1519.8543171782167
  0
VERTEX
  8
1
 10
853.7989404530516
 20
-1519.3423171782167
  0
VERTEX
  8
1
 10
854.9626772537526
 20
-1519.2417016301772
  0
VERTEX
  8
1
 10
859.7039404530516
 20
-1518.9443171782166
  0
VERTEX
  8
1
 10
865.6209404530516
 20
-1518.5943171782167
  0
VERTEX
  8
1
 10
869.8476780197464
 20
-1518.3364535959392
  0
VERTEX
  8
1
 10
871.5389404530516
 20
-1518.2593171782166
  0
VERTEX
  8
1
 10
877.4599404530516
 20
-1518.0093171782166
  0
VERTEX
  8
1
 10
883.3799404530516
 20
-1517.7583171782167
  0
VERTEX
  8
1
 10
886.4219404530517
 20
-1517.6293171782168
  0
VERTEX
  8
1
 10
889.2689404530516
 20
-1517.9353171782166
  0
VERTEX
  8
1
 10
897.3519404530516
 20
-1518.8093171782166
  0
VERTEX
  8
1
 10
897.3519404530516
 20
-1518.8093171782166
  0
VERTEX
  8
1
 10
896.9447287081435
 20
-1522.3154536043899
  0
VERTEX
  8
1
 10
896.8538680427209
 20
-1523.3113172192886
  0
SEQEND
  0
ENDBLK
  0
BLOCK
  2
27
  8
1
 10
0
 20
0
 70
64
  0
POLYLINE
  8
1
  62
3
10
0
 20
0
 66
1
  0
VERTEX
  8
1
 10
853.7119404530516
 20
-1657.0793171782166
  0
VERTEX
  8
1
 10
853.7119404530516
 20
-1661.0793171782166
  0
SEQEND
  0
ENDBLK
  0
BLOCK
  2
28
  8
1
 10
0
 20
0
 70
64
  0
POLYLINE
  8
1
  62
3
10
0
 20
0
 66
1
  0
VERTEX
  8
1
 10
853.7119404530516
 20
-1657.0793171782166
  0
VERTEX
  8
1
 10
857.7119404530516
 20
-1657.0793171782166
  0
SEQEND
  0
ENDBLK
  0
BLOCK
  2
29
  8
1
 10
0
 20
0
 70
64
  0
POLYLINE
  8
1
  62
3
10
0
 20
0
 66
1
  0
VERTEX
  8
1
 10
853.7119404530516
 20
-1582.5293171782166
  0
VERTEX
  8
1
 10
853.7119404530516
 20
-1578.5293171782166
  0
SEQEND
  0
ENDBLK
  0
BLOCK
  2
30
  8
1
 10
0
 20
0
 70
64
  0
POLYLINE
  8
1
  62
3
10
0
 20
0
 66
1
  0
VERTEX
  8
1
 10
853.7119404530516
 20
-1582.5293171782166
  0
VERTEX
  8
1
 10
857.7119404530516
 20
-1582.5293171782166
  0
SEQEND
  0
ENDBLK
  0
BLOCK
  2
31
  8
1
 10
0
 20
0
 70
64
  0
POLYLINE
  8
1
  62
3
10
0
 20
0
 66
1
  0
VERTEX
  8
1
 10
451.88378249423084
 20
-400.9544689509174
  0
VERTEX
  8
1
 10
476.83378249423083
 20
-400.9544689509174
  0
VERTEX
  8
1
 10
501.79478249423084
 20
-400.9544689509174
  0
VERTEX
  8
1
 10
526.7447824942309
 20
-400.9544689509174
  0
VERTEX
  8
1
 10
537.5023939531635
 20
-400.9544689509174
  0
VERTEX
  8
1
 10
560.0337824942309
 20
-400.9544689509174
  0
VERTEX
  8
1
 10
560.0337824942309
 20
-410.9544689509174
  0
VERTEX
  8
1
 10
560.0337824942309
 20
-420.9544689509174
  0
VERTEX
  8
1
 10
560.0337824942309
 20
-440.9544689509174
  0
VERTEX
  8
1
 10
560.0337824942309
 20
-460.9544689509174
  0
VERTEX
  8
1
 10
560.0337824942309
 20
-480.9544689509174
  0
VERTEX
  8
1
 10
560.0337824942309
 20
-495.9544689509174
  0
VERTEX
  8
1
 10
560.0337824942309
 20
-505.9544689509174
  0
VERTEX
  8
1
 10
549.1037824942308
 20
-505.9544689509174
  0
VERTEX
  8
1
 10
538.1737824942309
 20
-505.9544689509174
  0
VERTEX
  8
1
 10
527.2437824942308
 20
-505.9544689509174
  0
VERTEX
  8
1
 10
516.3137824942308
 20
-505.9544689509174
  0
VERTEX
  8
1
 10
433.0337824942309
 20
-505.9544689509174
  0
VERTEX
  8
1
 10
433.18923761252694
 20
-502.003441083684
  0
VERTEX
  8
1
 10
433.90678249423087
 20
-489.30846895091736
  0
VERTEX
  8
1
 10
434.22278249423084
 20
-484.4014689509174
  0
VERTEX
  8
1
 10
434.36516908608456
 20
-482.1184290070271
  0
VERTEX
  8
1
 10
434.59178249423087
 20
-479.50046895091737
  0
VERTEX
  8
1
 10
434.9757824942308
 20
-474.5934689509174
  0
VERTEX
  8
1
 10
435.1658515687057
 20
-472.3934344136799
  0
VERTEX
  8
1
 10
435.45478249423087
 20
-469.6914689509174
  0
VERTEX
  8
1
 10
435.93878249423085
 20
-464.7954689509174
  0
VERTEX
  8
1
 10
436.14383939524186
 20
-462.84643481031077
  0
VERTEX
  8
1
 10
436.53278249423084
 20
-459.91946895091735
  0
VERTEX
  8
1
 10
437.13878249423084
 20
-455.02946895091736
  0
VERTEX
  8
1
 10
437.3352303698215
 20
-453.52065299238717
  0
VERTEX
  8
1
 10
437.88178249423083
 20
-450.1674689509174
  0
VERTEX
  8
1
 10
438.64378249423083
 20
-445.3124689509174
  0
VERTEX
  8
1
 10
438.77794776100654
 20
-444.45622836572005
  0
VERTEX
  8
1
 10
439.55878249423085
 20
-440.4774689509174
  0
VERTEX
  8
1
 10
440.50378249423085
 20
-435.66446895091735
  0
VERTEX
  8
1
 10
440.50778249423087
 20
-435.64946895091737
  0
VERTEX
  8
1
 10
441.62478249423083
 20
-430.8534689509174
  0
VERTEX
  8
1
 10
442.4858288953152
 20
-427.16446895091735
  0
VERTEX
  8
1
 10
442.79978249423084
 20
-426.08546895091735
  0
VERTEX
  8
1
 10
444.16278249423084
 20
-421.3534689509174
  0
VERTEX
  8
1
 10
444.7995835665474
 20
-418.994608267842
  0
VERTEX
  8
1
 10
445.58578249423084
 20
-416.65246895091735
  0
VERTEX
  8
1
 10
447.19678249423083
 20
-412.00046895091737
  0
VERTEX
  8
1
 10
447.58378249423083
 20
-410.9944689509174
  0
VERTEX
  8
1
 10
448.98378249423087
 20
-407.4244689509174
  0
VERTEX
  8
1
 10
448.9857824942309
 20
-407.4204689509174
  0
VERTEX
  8
1
 10
450.55914830387854
 20
-403.73539319657704
  0
VERTEX
  8
1
 10
451.88378249423084
 20
-400.9544689509174
  0
VERTEX
  8
1
 10
451.88378249423084
 20
-400.9544689509174
  0
VERTEX
  8
1
 10
476.83378249423083
 20
-400.9544689509174
  0
VERTEX
  8
1
 10
477.83378249423083
 20
-400.9544689509174
  0
SEQEND
  0
ENDBLK
  0
ENDSEC
  0
SECTION
  2
ENTITIES
  0
INSERT
  2
0
 10
0
 20
0
  0
INSERT
  2
1
 10
0
 20
0
  0
INSERT
  2
2
 10
0
 20
0
  0
INSERT
  2
3
 10
0
 20
0
  0
INSERT
  2
4
 10
0
 20
0
  0
INSERT
  2
5
 10
0
 20
0
  0
INSERT
  2
6
 10
0
 20
0
  0
INSERT
  2
7
 10
0
 20
0
  0
INSERT
  2
8
 10
0
 20
0
  0
INSERT
  2
9
 10
0
 20
0
  0
INSERT
  2
10
 10
0
 20
0
  0
INSERT
  2
11
 10
0
 20
0
  0
INSERT
  2
12
 10
0
 20
0
  0
INSERT
  2
13
 10
0
 20
0
  0
INSERT
  2
14
 10
0
 20
0
  0
INSERT
  2
15
 10
0
 20
0
  0
INSERT
  2
16
 10
0
 20
0
  0
INSERT
  2
17
 10
0
 20
0
  0
INSERT
  2
18
 10
0
 20
0
  0
INSERT
  2
19
 10
0
 20
0
  0
INSERT
  2
20
 10
0
 20
0
  0
INSERT
  2
21
 10
0
 20
0
  0
INSERT
  2
22
 10
0
 20
0
  0
INSERT
  2
23
 10
0
 20
0
  0
INSERT
  2
24
 10
0
 20
0
  0
INSERT
  2
25
 10
0
 20
0
  0
INSERT
  2
26
 10
0
 20
0
  0
INSERT
  2
27
 10
0
 20
0
  0
INSERT
  2
28
 10
0
 20
0
  0
INSERT
  2
29
 10
0
 20
0
  0
INSERT
  2
30
 10
0
 20
0
  0
INSERT
  2
31
 10
0
 20
0
  0
ENDSEC
  0
EOF